<svg xmlns="http://www.w3.org/2000/svg" width="114.532" height="104.058" viewBox="0 0 114.532 104.058"><g transform="translate(0.526 0.5)"><path d="M76.87,37.112a1.648,1.648,0,0,0,0,3.3A48.2,48.2,0,1,1,29.211,95.926h9.623a1.6,1.6,0,0,0,1.389-2.471L29.076,75.967a1.649,1.649,0,0,0-2.779.008l-11.147,17.5A1.577,1.577,0,0,0,15.1,95.11a1.612,1.612,0,0,0,1.444.815h9.34A51.515,51.515,0,1,0,76.87,37.112ZM19.543,92.631l8.143-12.783,8.144,12.783Z" transform="translate(-14.893 -37.112)" fill="#fff" stroke="#fff" stroke-width="1"/><path d="M183,220.078v3.653c0,.791.95,1.2,1.7,1.2H198.11c.678,0,1.318-.861,1.318-1.8a1.612,1.612,0,0,0-1.318-1.728H187v-1.327c0-4.331,12.22-6.967,12.22-15.063,0-4.519-3.681-7.494-8.049-7.494-4.1,0-7.715,2.636-7.715,6.665,0,1.695.756,2.222,1.81,2.222,1.318,0,2.11-.753,2.11-1.506a3.478,3.478,0,0,1,3.8-3.728,3.861,3.861,0,0,1,4.1,3.954C195.281,210.927,183,213.977,183,220.078Z" transform="translate(-143.434 -159.767)" fill="#fff" stroke="#fff" stroke-width="1"/><path d="M266.507,199c0-.941-1.243-1.532-2-1.532a1.914,1.914,0,0,0-1.732,1.1l-9.113,17.966a1.62,1.62,0,0,0-.226.8,1.343,1.343,0,0,0,1.393,1.442h9.33v4.915c0,.866.984,1.318,2,1.318.979,0,2-.452,2-1.318v-4.915h1.77c.716,0,1.356-.96,1.356-1.864,0-.941-.452-1.9-1.356-1.9h-1.77v-5.1c0-.941-1.021-1.318-2-1.318-1.017,0-2,.377-2,1.318v5.1h-5.6l7.758-15.43A1.3,1.3,0,0,0,266.507,199Z" transform="translate(-197.296 -159.727)" fill="#fff" stroke="#fff" stroke-width="1"/><path d="M330.165,158.712c-.72,0-1.165.325-1.165.789v15.95c0,.395.446.813,1.165.813.65,0,1.188-.418,1.188-.813v-5.758a2.342,2.342,0,0,1,2.3-2.415,2.539,2.539,0,0,1,2.412,2.415v5.758c0,.534.608.813,1.165.813.6,0,1.188-.279,1.188-.813v-5.758a4.4,4.4,0,0,0-4.064-4.574,3.333,3.333,0,0,0-3,1.765V159.5C331.354,159.037,330.815,158.712,330.165,158.712Z" transform="translate(-255.072 -130.092)" fill="#fff" stroke="#fff" stroke-width="1"/><path d="M381.094,186.125c-.7,0-1.094.325-1.094.789v9.4c0,.395.446.813,1.142.813s1.212-.418,1.212-.813v-4.759c0-2.113,1.384-3.439,2.8-3.439h.743a1.068,1.068,0,0,0,0-2.118h-.742a3.547,3.547,0,0,0-3.036,1.936v-1.021C382.118,186.45,381.7,186.125,381.094,186.125Z" transform="translate(-294.068 -150.958)" fill="#fff" stroke="#fff" stroke-width="1"/></g></svg>