<svg xmlns="http://www.w3.org/2000/svg" width="99.17" height="68.352" viewBox="0 0 99.17 68.352"><g transform="translate(0 -79.555)"><g transform="translate(0 79.555)"><path d="M97.516,118.086a1.66,1.66,0,0,0-1.653,1.666v3.887H92.558V84a4.44,4.44,0,0,0-4.408-4.443l-77.131.016a4.438,4.438,0,0,0-4.408,4.443v39.64H3.306v-3.887a1.653,1.653,0,1,0-3.306,0v11.106a1.653,1.653,0,1,0,3.306,0v-3.886H6.612v1.072a4.437,4.437,0,0,0,4.408,4.442h1.258c.008.016.01.032.019.048l3.306,6.663a1.646,1.646,0,0,0,1.479.921h3.134a10.433,10.433,0,0,0,20.177,0h3.133A1.654,1.654,0,0,0,45,139.212l3.306-6.663c.008-.016.011-.032.019-.048l2.515-.016c.008.016.01.032.019.048l3.306,6.663a1.646,1.646,0,0,0,1.479.921h3.134a10.433,10.433,0,0,0,20.177,0h3.133a1.654,1.654,0,0,0,1.479-.921l3.306-6.663c.008-.016.011-.032.019-.048h1.257a4.438,4.438,0,0,0,4.408-4.442V126.97h3.306v3.886a1.653,1.653,0,1,0,3.306,0v-11.1A1.661,1.661,0,0,0,97.516,118.086ZM9.917,84.014a1.122,1.122,0,0,1,1.1-1.111l77.132-.016A1.12,1.12,0,0,1,89.252,84V118.12H80.437V91.156a1.653,1.653,0,1,0-3.306,0v26.965H60.6V91.156a1.653,1.653,0,1,0-3.306,0v26.965l-15.426.016V91.171a1.653,1.653,0,1,0-3.306,0v26.965H22.037V91.171a1.653,1.653,0,1,0-3.306,0v26.965H9.917ZM19.855,136.8H18.1l-2.132-4.3h5.053A10.549,10.549,0,0,0,19.855,136.8Zm15.511,5.659a7.122,7.122,0,0,1-10.128,0,7.243,7.243,0,0,1-.224-9.96H35.59a7.243,7.243,0,0,1-.224,9.96ZM42.5,136.8H40.748a10.518,10.518,0,0,0-1.165-4.3h5.052Zm15.919-.017H56.664l-2.132-4.3h5.053A10.543,10.543,0,0,0,58.421,136.784Zm15.511,5.659a7.122,7.122,0,0,1-10.128,0,7.243,7.243,0,0,1-.224-9.96H74.156a7.243,7.243,0,0,1-.224,9.96Zm7.136-5.659H79.313a10.518,10.518,0,0,0-1.165-4.3H83.2Zm7.083-7.631-77.132.016a1.122,1.122,0,0,1-1.1-1.111v-6.591h10.05a1.626,1.626,0,0,0,.418.061,1.578,1.578,0,0,0,.418-.061h19a1.626,1.626,0,0,0,.418.061,1.578,1.578,0,0,0,.418-.061l17.9-.016a1.626,1.626,0,0,0,.418.061,1.577,1.577,0,0,0,.418-.061h19a1.626,1.626,0,0,0,.418.061,1.577,1.577,0,0,0,.418-.061h10.05v6.591h0A1.121,1.121,0,0,1,88.151,129.153Z" transform="translate(0 -79.555)" fill="#fff"/></g></g></svg>