<svg xmlns="http://www.w3.org/2000/svg" width="89.354" height="90.535" viewBox="0 0 89.354 90.535"><path d="M71,198.378v25.389a1.378,1.378,0,0,0,1.378,1.378h30.9a1.378,1.378,0,0,0,1.378-1.378V198.378A1.378,1.378,0,0,0,103.278,197h-30.9A1.378,1.378,0,0,0,71,198.378Zm13.58,1.378h6.3v5.327l-2.628-1.137a1.312,1.312,0,0,0-1.066,0l-2.6,1.137Zm-10.825,0h8.069v7.424a1.344,1.344,0,0,0,1.885,1.265l4-1.732,4.006,1.732a1.372,1.372,0,0,0,1.916-1.265v-7.424H101.9v22.634H73.755Z" transform="translate(-62.734 -163.344)" fill="#022086"/><path d="M273,198.378v25.389a1.378,1.378,0,0,0,1.378,1.378h31.884a1.378,1.378,0,0,0,1.378-1.378V198.378A1.378,1.378,0,0,0,306.262,197H274.378A1.378,1.378,0,0,0,273,198.378Zm13.777,1.378h7.282v5.41l-3.184-1.24a1.263,1.263,0,0,0-.953,0l-3.146,1.24Zm-11.022,0h8.266v7.424a1.322,1.322,0,0,0,1.814,1.284l4.558-1.774,4.563,1.774a1.365,1.365,0,0,0,1.859-1.284v-7.424h8.266v22.634H275.755Z" transform="translate(-224.977 -163.344)" fill="#022086"/><path d="M201.262,26H169.378A1.378,1.378,0,0,0,168,27.378V52.767a1.378,1.378,0,0,0,1.378,1.378h31.884a1.378,1.378,0,0,0,1.378-1.378V27.378A1.378,1.378,0,0,0,201.262,26Zm-19.485,2.755h7.085v5.279l-3.087-1.23a1.2,1.2,0,0,0-.935,0l-3.063,1.23Zm18.107,22.634H170.755V28.755h8.266v7.3a1.315,1.315,0,0,0,1.809,1.282l4.5-1.771,4.507,1.771a1.358,1.358,0,0,0,.5.1,1.226,1.226,0,0,0,.727-.24,1.334,1.334,0,0,0,.552-1.138v-7.3h8.266Z" transform="translate(-140.643 -26)" fill="#022086"/><path d="M105.758,372.755h11.219a1.378,1.378,0,1,0,0-2.755h-86.6a1.378,1.378,0,1,0,0,2.755H41.6v17.32H30.378a1.378,1.378,0,1,0,0,2.755h86.6a1.378,1.378,0,1,0,0-2.755H105.758ZM103,383.223v6.853h-12.6v-6.853a1.378,1.378,0,1,0-2.755,0v6.853h-12.6v-6.853a1.378,1.378,0,1,0-2.755,0v6.853H59.7v-6.853a1.378,1.378,0,1,0-2.755,0v6.853h-12.6v-17.32h5.117v6.912a1.378,1.378,0,1,0,2.755,0v-6.912h12.6v6.912a1.378,1.378,0,0,0,2.755,0v-6.912h12.6v6.912a1.378,1.378,0,1,0,2.755,0v-6.912h12.6v6.912a1.378,1.378,0,1,0,2.755,0v-6.912H103Z" transform="translate(-29 -302.295)" fill="#022086"/></svg>