<svg xmlns="http://www.w3.org/2000/svg" width="64.546" height="82.99" viewBox="0 0 64.546 82.99"><g transform="translate(-30.299 -11.856)"><g transform="translate(31.737 47.517)"><path d="M61.141,54.824a2.051,2.051,0,0,1-.573-.083,1.973,1.973,0,0,1-1.32-2.462L66.642,27.84,39.525,16.154,12.407,27.84,19.8,52.279a1.975,1.975,0,0,1-3.782,1.142L8.115,27.3a1.981,1.981,0,0,1,1.107-2.387L38.742,12.187a1.959,1.959,0,0,1,1.565,0L69.828,24.912A1.975,1.975,0,0,1,70.934,27.3l-7.9,26.122A1.971,1.971,0,0,1,61.141,54.824Z" transform="translate(-8.031 -12.024)" fill="#fff"/></g><g transform="translate(30.299 82.99)"><path d="M70.237,32.856a17.243,17.243,0,0,1-14.432-7.584.882.882,0,0,0-.715-.32h0a.875.875,0,0,0-.711.32,17.529,17.529,0,0,1-28.869,0,.889.889,0,0,0-1.427,0A17.266,17.266,0,0,1,9.643,32.856a1.976,1.976,0,0,1,0-3.952,13.308,13.308,0,0,0,11.144-5.825,5.08,5.08,0,0,1,8,0,13.577,13.577,0,0,0,22.293,0,4.777,4.777,0,0,1,4-2.079h0a4.772,4.772,0,0,1,4,2.079A13.3,13.3,0,0,0,70.237,28.9a1.976,1.976,0,0,1,0,3.952Z" transform="translate(-7.667 -21)" fill="#fff"/></g><g transform="translate(39.519 51.375)"><path d="M11.976,21.852A1.977,1.977,0,0,1,10,19.876v-4.9a1.976,1.976,0,1,1,3.952,0v4.9A1.974,1.974,0,0,1,11.976,21.852Z" transform="translate(-10 -13)" fill="#fff"/></g><g transform="translate(61.254 39.519)"><path d="M39.211,30.708a1.977,1.977,0,0,1-1.976-1.976V13.952H19.452v6.007a1.976,1.976,0,1,1-3.952,0V11.976A1.977,1.977,0,0,1,17.476,10H39.211a1.977,1.977,0,0,1,1.976,1.976V28.732A1.974,1.974,0,0,1,39.211,30.708Z" transform="translate(-15.5 -10)" fill="#fff"/></g><g transform="translate(51.375 23.711)"><path d="M24.856,33.742a1.977,1.977,0,0,1-1.976-1.976V25.76h-7.9A1.977,1.977,0,0,1,13,23.784V7.976A1.977,1.977,0,0,1,14.976,6h19.76a1.977,1.977,0,0,1,1.976,1.976V23.784a1.976,1.976,0,1,1-3.952,0V9.952H16.952V21.808h7.9a1.977,1.977,0,0,1,1.976,1.976v7.983A1.977,1.977,0,0,1,24.856,33.742Z" transform="translate(-13 -6)" fill="#fff"/></g><g transform="translate(61.254 11.856)"><path d="M17.476,18.808A1.977,1.977,0,0,1,15.5,16.832V4.976a1.976,1.976,0,1,1,3.952,0V16.832A1.977,1.977,0,0,1,17.476,18.808Z" transform="translate(-15.5 -3)" fill="#fff"/></g></g></svg>