<svg xmlns="http://www.w3.org/2000/svg" width="100.504" height="81.203" viewBox="0 0 100.504 81.203"><path d="M74.791,33.776A21.713,21.713,0,1,0,96.5,55.49,21.7,21.7,0,0,0,74.791,33.776Zm9.65,22.662A1.469,1.469,0,0,1,82.977,57.9H73.844a1.469,1.469,0,0,1-1.464-1.464V44.892a1.469,1.469,0,0,1,1.464-1.464h1.9A1.469,1.469,0,0,1,77.2,44.892v8.185h5.774a1.469,1.469,0,0,1,1.464,1.464Zm-9.65-27.487c.814,0,1.616.05,2.413.122v-7.36a7.421,7.421,0,0,0-7.238-7.238H57.9V7.238A7.421,7.421,0,0,0,50.665,0H26.539A7.421,7.421,0,0,0,19.3,7.238v7.238H7.238A7.421,7.421,0,0,0,0,21.713V33.776H59.579A26.376,26.376,0,0,1,74.791,28.951ZM48.252,14.476h-19.3V9.65h19.3ZM49.28,48.252H31.364a2.412,2.412,0,0,1-2.413-2.413V38.6H0V60.315a7.421,7.421,0,0,0,7.238,7.238H51.182a26.183,26.183,0,0,1-1.9-19.3Z" transform="translate(2 2)" fill="none" stroke="#fff" stroke-width="4"/></svg>