<svg xmlns="http://www.w3.org/2000/svg" viewBox="0 0 60.487 56.369"><path d="M65.8,49.922h-3.05a3,3,0,0,0-2.867-2.2H56.631V39.757a.84.84,0,0,0-.41-.742L33.253,25.749a.848.848,0,0,0-.852,0L9.426,39.014A.855.855,0,0,0,9,39.757V66.288a.857.857,0,0,0,.429.742L32.406,80.3a.857.857,0,0,0,.429.115.9.9,0,0,0,.441-.115l12.091-6.974v5.041A3.629,3.629,0,0,0,49.026,82H65.8a3.65,3.65,0,0,0,3.684-3.639V53.618A3.7,3.7,0,0,0,65.8,49.922Zm-5.887-.49a1.244,1.244,0,0,1,1.244,1.244v.083A1.244,1.244,0,0,1,59.917,52H54.936a1.244,1.244,0,0,1-1.244-1.244v-.083a1.244,1.244,0,0,1,1.244-1.244ZM32.834,27.481l9.547,5.512L21.12,45.268l-9.547-5.512ZM32.019,78.07,10.714,65.793V41.239L32.019,53.515Zm.815-26.039-10-5.773L44.1,33.983l10,5.773Zm12.532,1.587V71.343L33.734,78.07V53.515L54.916,41.239v6.479h.027a3,3,0,0,0-2.867,2.2h-3.05A3.678,3.678,0,0,0,45.366,53.618ZM67.773,78.364A1.934,1.934,0,0,1,65.8,80.288H49.026a1.914,1.914,0,0,1-1.946-1.925V53.618a1.962,1.962,0,0,1,1.946-1.981h3.083a2.932,2.932,0,0,0,2.834,2.082h4.943a2.932,2.932,0,0,0,2.834-2.082H65.8a1.982,1.982,0,0,1,1.969,1.981Z" transform="translate(-9 -25.634)" fill="#022086"/><path d="M337.851,283.755h.9a.857.857,0,1,0,0-1.714h-.034v-2.326h2.364a.825.825,0,0,0,.815.579.86.86,0,0,0,.862-.855v-.577a.869.869,0,0,0-.866-.861h-4.038a.855.855,0,0,0-.851.861V282.9a.851.851,0,0,0,.851.856Z" transform="translate(-296.838 -247.099)" fill="#022086"/><path d="M337.857,347.755H341.9a.857.857,0,0,0,.857-.857v-4.041A.857.857,0,0,0,341.9,342h-4.041a.857.857,0,0,0-.857.857V346.9A.857.857,0,0,0,337.857,347.755Zm.857-4.041h2.326v2.326h-2.326Z" transform="translate(-296.839 -303.263)" fill="#022086"/><path d="M338.748,410.041h-.034v-2.326h2.318a.862.862,0,1,0,1.723,0v-.826a.894.894,0,0,0-.866-.89H337.85a.881.881,0,0,0-.851.89v4.038a.827.827,0,0,0,.851.827h.9a.857.857,0,1,0,0-1.714Z" transform="translate(-296.838 -359.427)" fill="#022086"/><path d="M359.091,284.79l-2.51,2.51-.764-.764a.857.857,0,1,0-1.212,1.212l1.37,1.37a.857.857,0,0,0,1.212,0L360.3,286a.857.857,0,1,0-1.212-1.212Z" transform="translate(-312.068 -252.837)" fill="#022086"/><path d="M359.091,414.039l-2.51,2.51-.764-.764A.857.857,0,0,0,354.606,417l1.37,1.37a.857.857,0,0,0,1.212,0l3.116-3.116a.857.857,0,1,0-1.212-1.212Z" transform="translate(-312.068 -366.261)" fill="#022086"/><path d="M420.132,295h-5.383a.857.857,0,0,0,0,1.714h5.383a.857.857,0,0,0,0-1.714Z" transform="translate(-364.315 -262.018)" fill="#022086"/><path d="M420.132,359h-5.383a.857.857,0,0,0,0,1.714h5.383a.857.857,0,0,0,0-1.714Z" transform="translate(-364.315 -318.181)" fill="#022086"/><path d="M420.132,423h-5.383a.857.857,0,0,0,0,1.714h5.383a.857.857,0,0,0,0-1.714Z" transform="translate(-364.315 -374.345)" fill="#022086"/></svg>