<svg xmlns="http://www.w3.org/2000/svg" width="94.236" height="90.543" viewBox="0 0 94.236 90.543"><path d="M103.231,90.383c0-.021,0-.041-.006-.062s-.006-.045-.01-.067-.008-.042-.013-.063-.01-.042-.016-.063-.012-.042-.019-.063-.015-.041-.022-.061-.016-.04-.025-.06-.019-.039-.029-.059-.019-.038-.031-.057-.022-.037-.033-.055l-.038-.057c-.013-.019-.024-.033-.037-.049s-.03-.038-.046-.056l-.021-.026-7.132-7.8a4.141,4.141,0,0,0-3.023-1.359H85.114V77.209a3.968,3.968,0,0,0-4.008-4.035H80.078a26.644,26.644,0,0,0,.649-5.729V37.061a1.32,1.32,0,0,0-.729-1.2L45.464,18.9a1.326,1.326,0,0,0-1.172,0L9.746,35.819A1.334,1.334,0,0,0,9,37.017V67.446c0,8.785,5.475,19.142,12.736,24.092L44.128,106.81a1.335,1.335,0,0,0,1.5,0l6.714-4.564a4.12,4.12,0,0,0,3.632,2.213h2.272a6.179,6.179,0,0,0,12.067,0H86.073a6.179,6.179,0,0,0,12.067,0h.992a4.134,4.134,0,0,0,4.1-4.134V90.488c0-.011,0-.022,0-.033S103.233,90.407,103.231,90.383Zm-51.31,8.938L44.9,104.09,23.253,89.332c-6.6-4.5-11.582-13.907-11.582-21.886V37.85l33.2-16.266L78.056,37.893V67.446a24.173,24.173,0,0,1-.725,5.729H71.188a19.7,19.7,0,0,0,1.146-6.122V42.675a1.365,1.365,0,0,0-.777-1.2l-26.071-12.8a1.353,1.353,0,0,0-1.184,0L18.193,41.44a1.385,1.385,0,0,0-.8,1.2V67.053c0,6.18,4.205,14.043,9.316,17.53L44.1,96.429a1.372,1.372,0,0,0,.764.232,1.431,1.431,0,0,0,.782-.232l6.271-4.257Zm0-22.112v11.73L44.9,93.709,28.226,82.376c-4.392-3-8.162-10.013-8.162-15.323V43.473l24.8-12.106,24.8,12.141V67.053a18.494,18.494,0,0,1-1.315,6.122H55.979a4.009,4.009,0,0,0-4.058,4.035ZM64.285,106.6a3.51,3.51,0,1,1,3.51-3.51,3.51,3.51,0,0,1-3.51,3.51ZM82.443,90.488v11.3H70.318a6.181,6.181,0,0,0-12.067,0H55.979a1.422,1.422,0,0,1-1.387-1.463V77.209a1.337,1.337,0,0,1,1.387-1.364H81.106a1.3,1.3,0,0,1,1.337,1.364Zm2.671-7.394h7.615a1.489,1.489,0,0,1,1.055.518L98.863,89.2H85.114ZM92.107,106.6a3.51,3.51,0,1,1,3.51-3.51,3.51,3.51,0,0,1-3.51,3.51Zm8.458-6.278a1.461,1.461,0,0,1-1.433,1.463h-.992a6.181,6.181,0,0,0-12.067,0h-.96v-9.92h15.452Z" transform="translate(-9 -18.762)" fill="#022086"/><path d="M161.861,214.151l-10.59,9.7-5.21-5.649a1.335,1.335,0,1,0-1.963,1.811l6.112,6.627a1.335,1.335,0,0,0,1.883.08l11.572-10.6a1.335,1.335,0,1,0-1.8-1.969Z" transform="translate(-118.04 -176.594)" fill="#022086"/></svg>