<svg xmlns="http://www.w3.org/2000/svg" width="111.661" height="72.03" viewBox="0 0 111.661 72.03"><g transform="translate(0 -90.861)"><path d="M366.565,120.759l5.357-6.354a1.636,1.636,0,0,0,.374-1.248L369.807,92.3a1.636,1.636,0,0,0-2.829-.912l-11.269,12.275-20.594,2.1a1.636,1.636,0,1,0,.331,3.255l21.212-2.16a1.635,1.635,0,0,0,1.039-.521l9.282-10.111,1.983,16.615-4.753,5.637-9.617,6.487a1.636,1.636,0,0,0-.717,1.467l.747,11.014a1.636,1.636,0,0,0,1.477,1.517l6.849.652,3.51,8.936-1.6,4.132-4.675-6.238a1.636,1.636,0,0,0-1.564-.635l-7.1,1.121a1.636,1.636,0,0,0-1.28,1.05l-2.3,6.245-13.279,2.692a1.636,1.636,0,1,0,.65,3.206l14.174-2.873a1.635,1.635,0,0,0,1.21-1.038l2.285-6.2,5.18-.818L364.005,157a1.636,1.636,0,0,0,2.834-.389l2.9-7.475a1.634,1.634,0,0,0,0-1.19l-4.111-10.466a1.636,1.636,0,0,0-1.367-1.03l-6.466-.616-.59-8.688,9.025-6.087A1.618,1.618,0,0,0,366.565,120.759Z" transform="translate(-260.647)" fill="#022086"/><path d="M66.834,191.823l-5.421,1.1L48.5,179.373a1.635,1.635,0,0,0-1.584-.458l-9.37,2.361-4.2-5.17a1.636,1.636,0,0,0-1.114-.6l-15.7-1.495a1.636,1.636,0,0,0-1.791,1.628v3.444l-6.21,6.349L6.5,176.509l2.636-6.924a1.635,1.635,0,0,0-1.019-2.136l-4.529-1.485,5.5-22.481,10.386-6.354,8.812,4.1a1.636,1.636,0,1,0,1.38-2.966l-9.607-4.469a1.636,1.636,0,0,0-1.543.088L6.8,141.044a1.637,1.637,0,0,0-.735,1.006L.047,166.657A1.636,1.636,0,0,0,1.126,168.6l4.339,1.423-2.2,5.785a1.635,1.635,0,0,0-.066.945l2.812,12.334a1.636,1.636,0,0,0,2.764.78l8.774-8.97a1.635,1.635,0,0,0,.466-1.144v-2.313l13.224,1.26,4.427,5.448a1.636,1.636,0,0,0,1.669.555l9.456-2.383,12.879,13.512a1.637,1.637,0,0,0,1.509.475l6.307-1.278a1.636,1.636,0,0,0-.65-3.206Z" transform="translate(0 -33.45)" fill="#022086"/><path d="M189.52,111.789a58.674,58.674,0,0,1-16.063-1.928,61.035,61.035,0,0,0-15.191-2v-1.867a1.636,1.636,0,0,0-3.271,0v37.852a1.636,1.636,0,0,0,3.271,0v-8.163a57.472,57.472,0,0,1,14.427,1.915,62.187,62.187,0,0,0,16.826,2.018,1.636,1.636,0,0,0,1.636-1.636V113.425A1.636,1.636,0,0,0,189.52,111.789Zm-16.826,1.253a61.034,61.034,0,0,0,15.19,2v4.982a57.471,57.471,0,0,1-14.427-1.915,61.035,61.035,0,0,0-15.191-2v-4.982A57.482,57.482,0,0,1,172.693,113.042Zm.764,21.37a61.035,61.035,0,0,0-15.191-2v-4.961a57.484,57.484,0,0,1,14.427,1.914c.54.13,1.079.259,1.628.386a1.636,1.636,0,0,0,.739-3.187c-.54-.125-1.072-.253-1.6-.381a61.054,61.054,0,0,0-15.19-2V119.38a57.472,57.472,0,0,1,14.427,1.915,61.034,61.034,0,0,0,15.19,2v4.793c-2.08-.036-3.97-.142-5.741-.322a1.636,1.636,0,0,0-.331,3.255c1.878.191,3.877.3,6.072.34v4.961A57.481,57.481,0,0,1,173.457,134.411Z" transform="translate(-121.193 -10.55)" fill="#022086"/></g></svg>