<svg xmlns="http://www.w3.org/2000/svg" width="86.47" height="91.039" viewBox="0 0 86.47 91.039"><g transform="translate(0.5 0.511)"><path d="M179.022,208.479l-10.193,9.337-5-5.423a1.33,1.33,0,1,0-1.955,1.8l5.9,6.4a1.33,1.33,0,0,0,1.875.079l11.17-10.232a1.33,1.33,0,0,0-1.8-1.961Z" transform="translate(-136.729 -172.208)" fill="#fff" stroke="#fff" stroke-width="1"/><path d="M109.209,71.82a2.923,2.923,0,0,0-2.49-1.346H99.907a24.2,24.2,0,0,0,.418-4.427V36.711a1.324,1.324,0,0,0-.738-1.193L66.242,19.138a1.327,1.327,0,0,0-1.17,0L31.732,35.473A1.318,1.318,0,0,0,31,36.667V66.046c0,8.494,5.282,18.508,12.3,23.294l21.61,14.743a1.319,1.319,0,0,0,1.492,0L74.874,98.3v7.773a2.959,2.959,0,0,0,2.955,2.953h35.713a2.935,2.935,0,0,0,2.927-2.953V83.619a1.287,1.287,0,0,0-.2-.7ZM98.253,73.134h8.465a.266.266,0,0,1,.248.1l5.774,9.019H97.1V73.133h1.157ZM74.874,95.085l-9.221,6.291L44.8,87.144c-6.358-4.335-11.14-13.4-11.14-21.1V37.5L65.665,21.813l32,15.726V66.046a21.74,21.74,0,0,1-.471,4.427H91.429a18.424,18.424,0,0,0,.73-4.807V42.132a1.337,1.337,0,0,0-.752-1.193L66.245,28.583a1.334,1.334,0,0,0-1.173,0L39.915,40.9a1.332,1.332,0,0,0-.748,1.195V65.666c0,5.978,4.024,13.586,8.968,16.958L64.906,94.062a1.328,1.328,0,0,0,1.5,0l8.471-5.779ZM94.437,73.133v9.117H78.631l5.774-9.019a.266.266,0,0,1,.248-.1ZM75.084,82.914a1.3,1.3,0,0,0-.21.7v1.446l-9.221,6.29L49.632,80.427c-4.231-2.886-7.806-9.646-7.806-14.761V42.925L65.661,31.257,89.5,42.96V65.666a16.167,16.167,0,0,1-.849,4.807h-4a2.923,2.923,0,0,0-2.491,1.347Zm22.772,23.457H93.488V91.911l4.368,2.828Zm15.954-.294a.274.274,0,0,1-.268.294H100.515V94.02a1.331,1.331,0,0,0-.6-1.113l-6.993-4.564a1.36,1.36,0,0,0-1.376-.057,1.345,1.345,0,0,0-.713,1.17v16.915h-13a.3.3,0,0,1-.3-.294V84.909H113.81Z" transform="translate(-31 -19.002)" fill="#fff" stroke="#fff" stroke-width="1"/></g></svg>