<svg xmlns="http://www.w3.org/2000/svg" width="75.483" height="62.902" viewBox="0 0 75.483 62.902"><g transform="translate(0 -3)"><g transform="translate(12.58 56.467)"><path d="M11.863,23.145H5.573a1.573,1.573,0,1,1,0-3.145h6.29a1.573,1.573,0,0,1,0,3.145Z" transform="translate(-4 -20)" fill="#fff"/></g><g transform="translate(0 3)"><path d="M36.169,59.612H33.024a1.573,1.573,0,0,1,0-3.145H34.6V7.718a1.575,1.575,0,0,0-1.573-1.573H1.573A1.573,1.573,0,0,1,1.573,3H33.024a4.723,4.723,0,0,1,4.718,4.718V58.039A1.573,1.573,0,0,1,36.169,59.612Z" transform="translate(0 -3)" fill="#fff"/></g><g transform="translate(44.031 21.871)"><path d="M40.733,46.741h-6.29a1.573,1.573,0,1,1,0-3.145h6.29a1.575,1.575,0,0,0,1.573-1.573V12.145H17.145V43.6h4.718a1.573,1.573,0,0,1,0,3.145h-6.29A1.573,1.573,0,0,1,14,45.169v-34.6A1.573,1.573,0,0,1,15.573,9H43.878a1.573,1.573,0,0,1,1.573,1.573V42.024A4.723,4.723,0,0,1,40.733,46.741Z" transform="translate(-14 -9)" fill="#fff"/></g><g transform="translate(22.016 12.435)"><path d="M8.573,37.451A1.573,1.573,0,0,1,7,35.878V7.573a1.573,1.573,0,1,1,3.145,0V35.878A1.573,1.573,0,0,1,8.573,37.451Z" transform="translate(-7 -6)" fill="#fff"/></g><g transform="translate(6.29 12.435)"><path d="M3.573,37.451A1.573,1.573,0,0,1,2,35.878V7.573a1.573,1.573,0,1,1,3.145,0V35.878A1.573,1.573,0,0,1,3.573,37.451Z" transform="translate(-2 -6)" fill="#fff"/></g><g transform="translate(50.322 50.177)"><path d="M23.863,33.726a7.863,7.863,0,1,1,7.863-7.863A7.872,7.872,0,0,1,23.863,33.726Zm0-12.58a4.718,4.718,0,1,0,4.718,4.718A4.723,4.723,0,0,0,23.863,21.145Z" transform="translate(-16 -18)" fill="#fff"/></g><g transform="translate(18.871 50.177)"><path d="M13.863,33.726a7.863,7.863,0,1,1,7.863-7.863A7.872,7.872,0,0,1,13.863,33.726Zm0-12.58a4.718,4.718,0,1,0,4.718,4.718A4.723,4.723,0,0,0,13.863,21.145Z" transform="translate(-6 -18)" fill="#fff"/></g><g transform="translate(0 50.177)"><path d="M7.863,33.726a7.863,7.863,0,1,1,7.863-7.863A7.872,7.872,0,0,1,7.863,33.726Zm0-12.58a4.718,4.718,0,1,0,4.718,4.718A4.723,4.723,0,0,0,7.863,21.145Z" transform="translate(0 -18)" fill="#fff"/></g><g transform="translate(44.031 3)"><path d="M37.588,25.016a1.573,1.573,0,0,1-1.573-1.573,17.319,17.319,0,0,0-17.3-17.3H17.145v17.3a1.573,1.573,0,0,1-3.145,0V4.573A1.573,1.573,0,0,1,15.573,3h3.145A20.467,20.467,0,0,1,39.161,23.443,1.573,1.573,0,0,1,37.588,25.016Z" transform="translate(-14 -3)" fill="#fff"/></g><g transform="translate(53.467 31.306)"><path d="M37.443,24.58H18.573A1.573,1.573,0,0,1,17,23.008V13.573A1.573,1.573,0,0,1,18.573,12H37.443a1.573,1.573,0,0,1,0,3.145h-17.3v6.29h17.3a1.573,1.573,0,0,1,0,3.145Z" transform="translate(-17 -12)" fill="#fff"/></g><g transform="translate(34.596 56.467)"><path d="M22.008,23.145H12.573a1.573,1.573,0,0,1,0-3.145h9.435a1.573,1.573,0,1,1,0,3.145Z" transform="translate(-11 -20)" fill="#fff"/></g></g></svg>