<svg xmlns="http://www.w3.org/2000/svg" width="84.732" height="78.963" viewBox="0 0 84.732 78.963"><path d="M88.572,59.658H84.3a4.208,4.208,0,0,0-4.017-3.087H75.722V45.418a1.177,1.177,0,0,0-.574-1.04L42.975,25.795a1.188,1.188,0,0,0-1.194,0L9.6,44.378a1.2,1.2,0,0,0-.6,1.04V82.584a1.2,1.2,0,0,0,.6,1.04l32.187,18.583a1.2,1.2,0,0,0,.6.161,1.263,1.263,0,0,0,.617-.161l16.937-9.769V99.5a5.084,5.084,0,0,0,5.127,5.1h23.5a5.113,5.113,0,0,0,5.16-5.1V64.835A5.18,5.18,0,0,0,88.572,59.658Zm-8.246-.686a1.743,1.743,0,0,1,1.743,1.743v.116a1.743,1.743,0,0,1-1.743,1.743H73.349a1.743,1.743,0,0,1-1.743-1.743v-.116a1.743,1.743,0,0,1,1.743-1.743ZM42.388,28.221l13.374,7.722-29.784,17.2L12.6,45.416ZM41.246,99.087,11.4,81.891v-34.4l29.845,17.2Zm1.141-36.476L28.38,54.524l29.784-17.2,14.009,8.087Zm17.555,2.223v24.83L43.648,99.087v-34.4l29.673-17.2v9.076h.037a4.208,4.208,0,0,0-4.017,3.087H65.069A5.152,5.152,0,0,0,59.942,64.835ZM91.331,99.5a2.709,2.709,0,0,1-2.759,2.7h-23.5a2.681,2.681,0,0,1-2.726-2.7V64.835a2.748,2.748,0,0,1,2.726-2.776h4.319a4.107,4.107,0,0,0,3.97,2.916h6.925a4.107,4.107,0,0,0,3.97-2.916h4.319a2.776,2.776,0,0,1,2.759,2.776Z" transform="translate(-9 -25.634)" fill="#022086"/><path d="M338.192,286.062h1.257a1.2,1.2,0,1,0,0-2.4H339.4V280.4h3.312a1.156,1.156,0,0,0,1.141.811,1.2,1.2,0,0,0,1.207-1.2v-.808A1.217,1.217,0,0,0,343.848,278h-5.656A1.2,1.2,0,0,0,337,279.206v5.656a1.192,1.192,0,0,0,1.192,1.2Z" transform="translate(-280.74 -234.714)" fill="#022086"/><path d="M338.2,350.061h5.66a1.2,1.2,0,0,0,1.2-1.2V343.2a1.2,1.2,0,0,0-1.2-1.2H338.2a1.2,1.2,0,0,0-1.2,1.2v5.66A1.2,1.2,0,0,0,338.2,350.061Zm1.2-5.66h3.259v3.259H339.4Z" transform="translate(-280.741 -287.736)" fill="#022086"/><path d="M339.448,411.66H339.4V408.4h3.247a1.207,1.207,0,1,0,2.414,0v-1.157A1.252,1.252,0,0,0,343.847,406h-5.656A1.233,1.233,0,0,0,337,407.247V412.9a1.158,1.158,0,0,0,1.192,1.159h1.257a1.2,1.2,0,0,0,0-2.4Z" transform="translate(-280.74 -340.759)" fill="#022086"/><path d="M360.99,284.891l-3.516,3.516-1.07-1.07a1.2,1.2,0,0,0-1.7,1.7l1.919,1.919a1.2,1.2,0,0,0,1.7,0l4.366-4.366a1.2,1.2,0,0,0-1.7-1.7Z" transform="translate(-295.119 -240.131)" fill="#022086"/><path d="M360.99,414.14l-3.516,3.516-1.07-1.07a1.2,1.2,0,0,0-1.7,1.7l1.919,1.919a1.2,1.2,0,0,0,1.7,0l4.366-4.366a1.2,1.2,0,0,0-1.7-1.7Z" transform="translate(-295.119 -347.211)" fill="#022086"/><path d="M422.633,295h-7.541a1.2,1.2,0,0,0,0,2.4h7.541a1.2,1.2,0,0,0,0-2.4Z" transform="translate(-344.443 -248.798)" fill="#022086"/><path d="M422.633,359h-7.541a1.2,1.2,0,0,0,0,2.4h7.541a1.2,1.2,0,0,0,0-2.4Z" transform="translate(-344.443 -301.82)" fill="#022086"/><path d="M422.633,423h-7.541a1.2,1.2,0,0,0,0,2.4h7.541a1.2,1.2,0,0,0,0-2.4Z" transform="translate(-344.443 -354.843)" fill="#022086"/></svg>