<svg xmlns="http://www.w3.org/2000/svg" width="84.879" height="78.963" viewBox="0 0 84.879 78.963"><path d="M126.988,66.49a15.773,15.773,0,0,0-22.03,0,16.233,16.233,0,0,0-1.234,1.367,38.739,38.739,0,1,0,19.61,24.983l3.89-4.053a16.4,16.4,0,0,0,3.6-5.6,15.067,15.067,0,0,0,.944-6.319A16.078,16.078,0,0,0,126.988,66.49ZM85.7,66.273a36.012,36.012,0,0,1,4.136.243A45.533,45.533,0,0,0,78.587,77.665,5.565,5.565,0,0,0,72.032,80.5c-1.246-.1-2.5-.155-3.742-.155A44.992,44.992,0,0,0,55.97,82.05,35.912,35.912,0,0,1,85.7,66.273ZM79.735,83.015a2.725,2.725,0,1,1-2.725-2.725,2.724,2.724,0,0,1,2.725,2.725Zm5.961,55.1A35.909,35.909,0,0,1,53.81,85.67l.026.071A42.04,42.04,0,0,1,68.29,83.2c1.046,0,2.1.041,3.15.119A5.528,5.528,0,0,0,73.426,87.3a45.245,45.245,0,0,0-2.247,24.69A5.572,5.572,0,0,0,74.509,122.4a45.026,45.026,0,0,0,12.01,15.7C86.246,138.11,85.972,138.114,85.7,138.114ZM73.184,114.23a2.725,2.725,0,1,1-2.012,2.632A2.725,2.725,0,0,1,73.184,114.23Zm37.184,14.048a35.828,35.828,0,0,1-19.642,9.484,42.211,42.211,0,0,1-13.549-16.393,5.576,5.576,0,0,0-3.223-10.087,42.353,42.353,0,0,1-.706-7.709A41.922,41.922,0,0,1,76.02,88.507a5.571,5.571,0,0,0,6-3.024,42.276,42.276,0,0,1,26.292,26.538,5.579,5.579,0,0,0,2.051,10.388c.069.991.106,1.988.106,2.978,0,.959-.033,1.927-.1,2.889Zm1.084-8.706a2.541,2.541,0,0,1-.389.028,2.725,2.725,0,0,1-.653-5.37,2.671,2.671,0,0,1,.653-.079,2.724,2.724,0,0,1,.389,5.421Zm1.866,5.561c-.006-1.033-.045-2.072-.122-3.1a5.578,5.578,0,0,0-2.124-10.734A45.11,45.11,0,0,0,82.58,82.66a5.6,5.6,0,0,0-1.547-3.507A42.613,42.613,0,0,1,93.99,67.244a35.793,35.793,0,0,1,8.132,3,16.04,16.04,0,0,0-1.942,6.62,15.072,15.072,0,0,0,.944,6.319,16.392,16.392,0,0,0,3.6,5.6l10.22,10.667a1.428,1.428,0,0,0,2.062,0l3.953-4.126a36.169,36.169,0,0,1,.659,6.864,35.756,35.756,0,0,1-8.3,22.937Zm14.828-42.944a13.562,13.562,0,0,1-2.985,4.625L115.973,96.4l-9.189-9.592a13.562,13.562,0,0,1-2.984-4.625,12.235,12.235,0,0,1-.772-5.128,13.225,13.225,0,0,1,3.932-8.533,12.918,12.918,0,0,1,18.025,0,13.225,13.225,0,0,1,3.932,8.533,12.235,12.235,0,0,1-.771,5.128Z" transform="translate(-46.92 -62.007)" fill="#042287"/><path d="M355.231,96.759a7.7,7.7,0,1,0,7.657,7.7A7.7,7.7,0,0,0,355.231,96.759Zm0,12.536a4.84,4.84,0,1,1,4.8-4.84A4.84,4.84,0,0,1,355.231,109.295Z" transform="translate(-286.178 -89.669)" fill="#042287"/></svg>