<svg xmlns="http://www.w3.org/2000/svg" width="70.8" height="93.44" viewBox="0 0 70.8 93.44"><g transform="translate(-84 -29)"><path d="M149.221,43.407h-10.6a7.913,7.913,0,0,0-7.823-6.586h-2.449A7.956,7.956,0,0,0,120.436,29h-1.971a7.951,7.951,0,0,0-7.915,7.821H108.1a7.818,7.818,0,0,0-5.6,2.266,7.723,7.723,0,0,0-2.226,4.32h-10.7A5.653,5.653,0,0,0,84,49.046v67.812a5.6,5.6,0,0,0,5.579,5.582h59.642a5.6,5.6,0,0,0,5.579-5.582V49.046A5.653,5.653,0,0,0,149.221,43.407ZM118.465,31.881h1.969a5.027,5.027,0,0,1,3.562,1.5,5.169,5.169,0,0,1,1.472,3.44H113.432A5.108,5.108,0,0,1,118.465,31.881ZM103.141,44.717A4.953,4.953,0,0,1,108.1,39.7h22.7a5.048,5.048,0,0,1,5.066,5.015v7.409H103.141Zm-1.479,10.291h35.616a1.474,1.474,0,0,0,1.033-.422,1.454,1.454,0,0,0,.436-1.019v-1.1h3.7v57.628h-46.1V52.463h3.91v1.1a1.408,1.408,0,0,0,1.4,1.441Zm50.258,61.851a2.719,2.719,0,0,1-2.7,2.7H89.579a2.719,2.719,0,0,1-2.7-2.7V49.046a2.769,2.769,0,0,1,2.7-2.758h10.68v3.293h-5.4a1.41,1.41,0,0,0-1.388,1.456v60.53a1.366,1.366,0,0,0,1.388,1.4h49.089a1.366,1.366,0,0,0,1.388-1.4V51.038a1.41,1.41,0,0,0-1.388-1.456h-5.2V46.288h10.475a2.769,2.769,0,0,1,2.7,2.758Z" fill="#042287"/><path d="M191.815,269.389a1.441,1.441,0,0,0,2.013.422l19.758-13.172a1.441,1.441,0,1,0-1.6-2.4L193.451,266.6l-5.794-9.054a1.441,1.441,0,1,0-2.427,1.553Z" transform="translate(-80.215 -178.691)" fill="#042287"/></g></svg>