<svg xmlns="http://www.w3.org/2000/svg" width="93.412" height="79.446" viewBox="0 0 93.412 79.446"><path d="M28.77,66.471l10.5-2.185a6.958,6.958,0,0,1,8.22,5.388l10.68,51.333a10.126,10.126,0,1,0,13.362,9.056l47.792-9.943a1.428,1.428,0,1,0-.582-2.8l-47.764,9.938a10.123,10.123,0,0,0-10-6.78L50.287,69.093a9.806,9.806,0,0,0-11.6-7.6l-10.5,2.185a1.428,1.428,0,1,0,.582,2.8Zm32.664,56.854a7.294,7.294,0,1,1-1.5.155A7.294,7.294,0,0,1,61.434,123.324Z" transform="translate(-27.051 -61.282)" fill="#042287"/><path d="M191.734,111.569a1.426,1.426,0,0,0,1.689,1.107l3.48-.724,6.772,32.547a1.428,1.428,0,0,0,1.689,1.107l42.245-8.789a1.428,1.428,0,0,0,1.107-1.689l-6.772-32.547,3.407-.709a1.428,1.428,0,0,0,1.107-1.689l-1.965-9.443a1.428,1.428,0,0,0-1.689-1.107l-51.928,10.8a1.428,1.428,0,0,0-1.107,1.689Zm53.9,22.743-39.449,8.208L199.7,111.369l11.665-2.428,3.427,16.477a1.428,1.428,0,0,0,2.371.755l5.12-4.77,6.769,2.305a1.428,1.428,0,0,0,1.858-1.643l-3.428-16.476,11.665-2.428ZM214.16,108.361l10.526-2.19L227.6,120.2l-5.21-1.774a1.428,1.428,0,0,0-1.434.306l-3.891,3.624ZM241.988,92.72l1.383,6.647-49.132,10.222-1.383-6.646Z" transform="translate(-156.55 -83.825)" fill="#042287"/></svg>