<svg xmlns="http://www.w3.org/2000/svg" width="108.055" height="111.259" viewBox="0 0 108.055 111.259"><g transform="translate(0.502 0.523)"><path d="M134.154,285.977l-.3.161a7.855,7.855,0,0,0-9.175-2.108l-.038.02-1.082.583a10.134,10.134,0,0,0-11.416-.888l-6.857,3.74H96.142a13,13,0,0,1-5.621-1.3l-1.27-.62a22.137,22.137,0,0,0-23.039,2.247c-.038.028-.074.057-.11.089l-3.067,2.729a10.289,10.289,0,0,1-3.549,2.061l-1.64-5.422A1.769,1.769,0,0,0,56.191,286H41.361a1.8,1.8,0,0,0-1.718,2l4.943,40.5A1.7,1.7,0,0,0,46.306,330H68.55a1.671,1.671,0,0,0,1.656-2.171L67.36,318.5l8.867-5.6a5.131,5.131,0,0,1,3.732-.477c.036.009.072.018.108.025l18.514,3.411a24.307,24.307,0,0,0,15.021-2.12,1.765,1.765,0,0,0,.212-.124l32.021-21.986a1.73,1.73,0,0,0,.5-2.319A9.138,9.138,0,0,0,134.154,285.977Zm-7.892,1.131a4.216,4.216,0,0,1,4.386.761l-11.7,6.31-.362.191a10.878,10.878,0,0,0-1.326-2.413Zm-12.445-.346.041-.023a6.671,6.671,0,0,1,6.231-.236l-5.413,2.917a10.849,10.849,0,0,0-3.025-1.479ZM47.838,326.536l-4.521-37.074H54.911l11.3,37.074Zm64.122-15.844A20.827,20.827,0,0,1,99.2,312.456l-18.458-3.4a8.581,8.581,0,0,0-6.246.85c-.027.015-.054.031-.08.048l-8.107,5.125L60.5,296a13.756,13.756,0,0,0,4.84-2.789l3.012-2.682a18.691,18.691,0,0,1,19.4-1.858l1.27.625a16.477,16.477,0,0,0,7.128,1.644h12.315a7.43,7.43,0,0,1,7.2,5.6l-8.471-.389a53.784,53.784,0,0,0-9.778.449,1.73,1.73,0,1,0,.474,3.426,50.3,50.3,0,0,1,9.148-.423l10.5.475.078,0a1.73,1.73,0,0,0,1.73-1.73c0-.154-.005-.307-.012-.46l1.246-.657,15.218-8.21a5.683,5.683,0,0,1,6.545.807Z" transform="translate(-39.632 -219.763)" fill="#fff" stroke="#fff" stroke-width="1"/><path d="M87.918,425.344a4.7,4.7,0,1,0,4.7-4.7A4.7,4.7,0,0,0,87.918,425.344Zm4.7-1.236a1.236,1.236,0,1,1-1.236,1.236A1.236,1.236,0,0,1,92.614,424.108Z" transform="translate(-75.984 -323.848)" fill="#fff" stroke="#fff" stroke-width="1"/><path d="M170.046,92.562a1.755,1.755,0,0,0,1.744,0l26.165-15.083a1.767,1.767,0,0,0,.9-1.5V45.814a1.765,1.765,0,0,0-.9-1.5L171.812,29.232a1.746,1.746,0,0,0-1.739,0L143.906,44.315a1.769,1.769,0,0,0-.906,1.5V75.981a1.765,1.765,0,0,0,.9,1.5ZM195.4,74.982,172.659,88.067V61.893L195.4,48.807Zm-1.8-29.169L170.929,58.9l-9.859-5.692L183.735,40.12ZM170.929,32.728l9.345,5.4L157.609,51.208l-9.345-5.4ZM146.46,48.808,169.2,61.894V88.068L146.46,74.982Z" transform="translate(-117.452 -29)" fill="#fff" stroke="#fff" stroke-width="1"/></g></svg>