<svg xmlns="http://www.w3.org/2000/svg" viewBox="0 0 67.272 64.635"><path d="M76.268,69.889c0-.015,0-.029,0-.044s0-.032-.007-.048-.006-.03-.009-.045-.007-.03-.012-.045-.008-.03-.014-.045l-.016-.044c-.006-.014-.011-.029-.018-.043s-.014-.028-.02-.042-.014-.027-.022-.041l-.024-.039-.027-.041c-.009-.014-.017-.024-.026-.035s-.022-.027-.033-.04l-.015-.018-5.091-5.57a2.956,2.956,0,0,0-2.158-.97H63.335V60.485a2.832,2.832,0,0,0-2.861-2.88H59.74a19.021,19.021,0,0,0,.463-4.089V31.825a.942.942,0,0,0-.521-.856L35.031,18.859a.947.947,0,0,0-.836,0L9.532,30.938A.952.952,0,0,0,9,31.794V53.516a22.618,22.618,0,0,0,9.092,17.2l15.985,10.9a.953.953,0,0,0,1.074,0l4.793-3.258a2.941,2.941,0,0,0,2.593,1.58h1.622a4.411,4.411,0,0,0,8.614,0H64.02a4.411,4.411,0,0,0,8.614,0h.708a2.951,2.951,0,0,0,2.929-2.951V69.965c0-.008,0-.016,0-.024S76.269,69.906,76.268,69.889ZM39.64,76.27l-5.009,3.4L19.175,69.139a20.559,20.559,0,0,1-8.268-15.624V32.388L34.6,20.777,58.3,32.419v21.1a17.256,17.256,0,0,1-.517,4.089H53.394a14.064,14.064,0,0,0,.818-4.37v-17.4a.974.974,0,0,0-.555-.856L35.046,25.843a.966.966,0,0,0-.845,0L15.563,34.951a.989.989,0,0,0-.571.856V53.235a17.005,17.005,0,0,0,6.65,12.514L34.06,74.205a.979.979,0,0,0,.546.166,1.021,1.021,0,0,0,.558-.166l4.477-3.039Zm0-15.785v8.374l-5.009,3.405-11.906-8.09A15.113,15.113,0,0,1,16.9,53.235V36.4L34.6,27.76l17.7,8.667V53.235a13.2,13.2,0,0,1-.938,4.37h-8.83a2.862,2.862,0,0,0-2.9,2.88Zm8.826,20.984a2.506,2.506,0,1,1,2.506-2.506A2.506,2.506,0,0,1,48.466,81.469Zm12.963-11.5v8.067H52.773a4.412,4.412,0,0,0-8.614,0H42.536a1.015,1.015,0,0,1-.99-1.044v-16.5a.954.954,0,0,1,.99-.974H60.474a.926.926,0,0,1,.955.974Zm1.906-5.278h5.436a1.063,1.063,0,0,1,.753.37l3.625,3.988H63.335Zm4.992,16.783a2.506,2.506,0,1,1,2.506-2.506A2.506,2.506,0,0,1,68.327,81.469Zm6.038-4.482a1.043,1.043,0,0,1-1.023,1.044h-.708a4.412,4.412,0,0,0-8.614,0h-.685V70.95h11.03Z" transform="translate(-9 -18.762)" fill="#022086"/><path d="M156.677,214.05l-7.56,6.924-3.719-4.032a.953.953,0,1,0-1.4,1.292l4.363,4.731a.953.953,0,0,0,1.344.057l8.261-7.566a.953.953,0,1,0-1.288-1.406Z" transform="translate(-125.395 -187.24)" fill="#022086"/></svg>