<svg xmlns="http://www.w3.org/2000/svg" viewBox="0 0 72.467 72.132"><g transform="translate(-344.52 -4080.461)"><g transform="translate(361.49 4080.461)"><g transform="translate(0 0)"><path d="M31.1,29.851H3.731A3.736,3.736,0,0,1,0,26.12a3.545,3.545,0,0,1,.585-1.988L14.239,1.791a3.709,3.709,0,0,1,6.361.02L34.269,24.18a3.476,3.476,0,0,1,.557,1.94A3.736,3.736,0,0,1,31.1,29.851ZM17.413,2.488a1.2,1.2,0,0,0-1.04.58L2.679,25.476a1.1,1.1,0,0,0-.192.644,1.247,1.247,0,0,0,1.244,1.244H31.1a1.247,1.247,0,0,0,1.244-1.244,1.053,1.053,0,0,0-.162-.6L18.466,3.087a1.215,1.215,0,0,0-1.052-.6Z" transform="translate(0 0)" fill="#022086"/></g><g transform="translate(16.169 7.463)"><path d="M7.744,15.438A1.244,1.244,0,0,1,6.5,14.194V4.244a1.244,1.244,0,1,1,2.488,0v9.95A1.244,1.244,0,0,1,7.744,15.438Z" transform="translate(-6.5 -3)" fill="#022086"/></g><g transform="translate(16.169 22.406)"><path d="M7.744,11.477a1.01,1.01,0,0,1-.473-.1.925.925,0,0,1-.4-.274.878.878,0,0,1-.274-.4,1,1,0,0,1-.1-.47,1.183,1.183,0,0,1,.371-.873,1.251,1.251,0,0,1,1.741,0,1.169,1.169,0,0,1,.376.873,1,1,0,0,1-.1.47.918.918,0,0,1-.274.4.884.884,0,0,1-.4.274A1.016,1.016,0,0,1,7.744,11.477Z" transform="translate(-6.5 -9.007)" fill="#022086"/></g></g><g transform="matrix(0.966, -0.259, 0.259, 0.966, 344.52, 4116.848)"><g transform="translate(0 0)"><g transform="translate(0 0)"><path d="M4.587,22.16.347,18.212a1.088,1.088,0,0,1,.739-1.886h.931L.011,1.232A1.088,1.088,0,0,1,.943.01,1.068,1.068,0,0,1,1.086,0h4.34a1.084,1.084,0,0,1,.9.484L16.858,16.326H28.539l-4.53-8.178a1.089,1.089,0,0,1,.949-1.617H29.3a1.083,1.083,0,0,1,.651.218l12.732,9.578h7.791a15.353,15.353,0,0,1,14.58,10.54,1.089,1.089,0,0,1,.055.344,3.26,3.26,0,0,1-3.255,3.265H39.391L29.9,36.822a1.088,1.088,0,0,1-.6.183h-4.34a1.089,1.089,0,0,1-.806-1.817l4.27-4.76a40.729,40.729,0,0,1-16.638-4.257l-2.553-1.28L1.514,28.21A1.088,1.088,0,0,1,.32,26.44ZM4.846,2.177H2.325L4.206,16.326H14.251Zm24.092,6.53H26.8l4.219,7.619h8.043ZM16.705,21.68l-4.861,2.09.91.456A38.556,38.556,0,0,0,29.95,28.3h.383l1.49-1.66L33.916,24.3l1.612,1.456-.977,1.088-2.215,2.472-4.943,5.507h1.579l9.493-6.348,6.511-4.354,1.2,1.811L42.646,28.3H61.852a1.086,1.086,0,0,0,1.074-.938,13.216,13.216,0,0,0-2.67-4.5H53.172V20.679h4.542A13.144,13.144,0,0,0,50.473,18.5H3.849L6.122,20.62l.707-.71a1.083,1.083,0,0,1,.767-.319h8.681a1.089,1.089,0,0,1,.428,2.089Zm-5.714.088H8.046L5.838,23.983Z" fill="#022086"/><rect width="2.259" height="2.332" transform="translate(48.004 20.331)" fill="#022086"/><rect width="2.332" height="2.332" transform="translate(43.34 20.331)" fill="#022086"/><rect width="2.332" height="2.332" transform="translate(34.788 20.331)" fill="#022086"/><rect width="2.332" height="2.332" transform="translate(30.123 20.331)" fill="#022086"/></g></g></g></g></svg>