<svg xmlns="http://www.w3.org/2000/svg" width="91.864" height="93.843" viewBox="0 0 91.864 93.843"><g transform="translate(0.5 0.5)"><path d="M34,65.059v41.724a6.44,6.44,0,0,0,6.487,6.375H45.4a10.176,10.176,0,0,0,20.15,0H95.621a10.176,10.176,0,0,0,20.15,0h2.605a6.44,6.44,0,0,0,6.487-6.375V89.027c0-.012-.03-.023-.03-.035s-.031-.053-.033-.079,0-.043-.007-.065-.007-.049-.011-.074-.008-.044-.013-.067-.011-.046-.018-.069-.012-.044-.02-.066-.016-.044-.024-.067-.017-.043-.026-.063-.02-.043-.031-.064-.02-.041-.033-.061l-.036-.06c-.012-.02-.026-.041-.041-.06l-.04-.053c-.014-.018-.032-.041-.049-.06s-.015-.018-.023-.027L111.557,74.07a6.412,6.412,0,0,0-4.737-2.046h-14.5V65.059a6.405,6.405,0,0,0-6.484-6.337h-.528A22.258,22.258,0,0,0,86.34,50.54a23.271,23.271,0,0,0-6.9-15,22.753,22.753,0,0,0-31.784-.017,23.321,23.321,0,0,0-6.9,15.021,22.246,22.246,0,0,0,1.026,8.179h-1.3A6.408,6.408,0,0,0,34,65.059Zm71.7,54.034a7.313,7.313,0,1,1,7.312-7.313,7.313,7.313,0,0,1-7.312,7.313Zm-13.372-44.2h14.5A3.531,3.531,0,0,1,109.446,76l10.668,11.579H92.325Zm0,15.553H122v16.341a3.572,3.572,0,0,1-3.622,3.51h-2.605a10.176,10.176,0,0,0-20.15,0h-3.3ZM55.479,119.093a7.313,7.313,0,1,1,7.313-7.313A7.313,7.313,0,0,1,55.479,119.093Zm-11.864-68.4a20.351,20.351,0,0,1,6.05-13.13,19.9,19.9,0,0,1,27.766,0,20.35,20.35,0,0,1,6.05,13.13A18.869,18.869,0,0,1,82.293,58.6a20.848,20.848,0,0,1-4.585,7.113L63.548,80.492,49.39,65.712A20.832,20.832,0,0,1,44.8,58.6a18.872,18.872,0,0,1-1.189-7.911Zm-.68,10.9a27.183,27.183,0,0,0,4.386,6.154L62.513,83.577a1.422,1.422,0,0,0,1.034.43,1.438,1.438,0,0,0,1.034-.447L79.776,67.743a27.184,27.184,0,0,0,4.386-6.156H85.84a3.538,3.538,0,0,1,3.619,3.472v45.234H65.554a10.176,10.176,0,0,0-20.15,0H40.487a3.573,3.573,0,0,1-3.622-3.51V65.059a3.541,3.541,0,0,1,3.622-3.472Z" transform="translate(-34 -29.06)" fill="#fff" stroke="#fff" stroke-width="1"/><path d="M144.715,122.039a1.433,1.433,0,0,0,1.994.181l8.822-7.177a1.433,1.433,0,1,0-1.808-2.222l-7.737,6.295-2.156-2.525a1.433,1.433,0,1,0-2.179,1.86Z" transform="translate(-119.347 -95.423)" fill="#fff" stroke="#fff" stroke-width="1"/><path d="M118.472,88.294a15.5,15.5,0,1,0-15.416-15.5A15.477,15.477,0,0,0,118.472,88.294Zm0-28.142a12.639,12.639,0,1,1-12.551,12.638,12.608,12.608,0,0,1,12.551-12.638Z" transform="translate(-88.924 -51.51)" fill="#fff" stroke="#fff" stroke-width="1"/></g></svg>