<svg xmlns="http://www.w3.org/2000/svg" viewBox="0 0 60.592 56.369"><path d="M104.078,65.208a11.26,11.26,0,0,0-15.727,0,11.587,11.587,0,0,0-.881.976,27.654,27.654,0,1,0,14,17.835l2.777-2.893a11.705,11.705,0,0,0,2.569-4,10.756,10.756,0,0,0,.674-4.511A11.478,11.478,0,0,0,104.078,65.208ZM74.6,65.053a25.705,25.705,0,0,1,2.952.173,32.5,32.5,0,0,0-8.027,7.959,3.973,3.973,0,0,0-4.679,2.021c-.889-.073-1.785-.111-2.672-.111a32.118,32.118,0,0,0-8.795,1.22A25.636,25.636,0,0,1,74.6,65.053ZM70.346,77A1.945,1.945,0,1,1,68.4,75.059,1.945,1.945,0,0,1,70.346,77ZM74.6,116.337A25.634,25.634,0,0,1,51.838,78.9l.019.051a30.011,30.011,0,0,1,10.318-1.815c.746,0,1.5.029,2.249.085a3.947,3.947,0,0,0,1.418,2.84,32.3,32.3,0,0,0-1.6,17.626,3.978,3.978,0,0,0,2.378,7.437,32.142,32.142,0,0,0,8.574,11.208C74.993,116.334,74.8,116.337,74.6,116.337Zm-8.932-17.05a1.945,1.945,0,1,1-1.437,1.879A1.945,1.945,0,0,1,65.669,99.287Zm26.544,10.028a25.576,25.576,0,0,1-14.021,6.77,30.133,30.133,0,0,1-9.672-11.7,3.98,3.98,0,0,0-2.3-7.2,30.234,30.234,0,0,1-.5-5.5,29.926,29.926,0,0,1,1.98-10.754,3.977,3.977,0,0,0,4.28-2.159A30.179,30.179,0,0,1,90.743,97.711a3.983,3.983,0,0,0,1.464,7.415c.049.707.076,1.419.076,2.126,0,.684-.024,1.375-.07,2.063Zm.774-6.215a1.814,1.814,0,0,1-.278.02,1.945,1.945,0,0,1-.466-3.834,1.906,1.906,0,0,1,.466-.057,1.945,1.945,0,0,1,.278,3.87Zm1.332,3.97c0-.738-.032-1.479-.087-2.216a3.982,3.982,0,0,0-1.516-7.662A32.2,32.2,0,0,0,72.376,76.75a4,4,0,0,0-1.1-2.5,30.42,30.42,0,0,1,9.25-8.5,25.551,25.551,0,0,1,5.8,2.143,11.45,11.45,0,0,0-1.387,4.726,10.76,10.76,0,0,0,.674,4.511,11.7,11.7,0,0,0,2.569,4l7.3,7.615a1.019,1.019,0,0,0,1.472,0l2.822-2.945a25.82,25.82,0,0,1,.471,4.9,25.525,25.525,0,0,1-5.924,16.374ZM104.9,76.413a9.681,9.681,0,0,1-2.131,3.3l-6.559,6.847-6.56-6.847a9.682,9.682,0,0,1-2.13-3.3,8.734,8.734,0,0,1-.551-3.661,9.441,9.441,0,0,1,2.807-6.091,9.221,9.221,0,0,1,12.868,0,9.441,9.441,0,0,1,2.807,6.091,8.734,8.734,0,0,1-.551,3.66Z" transform="translate(-46.92 -62.007)" fill="#042287"/><path d="M353.018,96.759a5.494,5.494,0,1,0,5.466,5.494A5.494,5.494,0,0,0,353.018,96.759Zm0,8.949a3.455,3.455,0,1,1,3.427-3.455A3.455,3.455,0,0,1,353.018,105.708Z" transform="translate(-303.723 -91.698)" fill="#042287"/></svg>