<svg xmlns="http://www.w3.org/2000/svg" width="102.849" height="102.372" viewBox="0 0 102.849 102.372"><g transform="translate(-344.52 -4080.461)"><g transform="translate(368.604 4080.461)"><g transform="translate(0 0)"><path d="M44.132,42.367H5.3a5.3,5.3,0,0,1-5.3-5.3A5.032,5.032,0,0,1,.83,34.25L20.209,2.542a5.264,5.264,0,0,1,9.028.028l19.4,31.747a4.933,4.933,0,0,1,.791,2.754A5.3,5.3,0,0,1,44.132,42.367ZM24.714,3.531a1.709,1.709,0,0,0-1.476.823L3.8,36.156a1.567,1.567,0,0,0-.272.914A1.77,1.77,0,0,0,5.3,38.836H44.132A1.77,1.77,0,0,0,45.9,37.071a1.5,1.5,0,0,0-.229-.847L26.207,4.381a1.724,1.724,0,0,0-1.493-.851Z" transform="translate(0 0)" fill="#022086"/></g><g transform="translate(22.948 10.592)"><path d="M8.265,20.653A1.766,1.766,0,0,1,6.5,18.887V4.765a1.765,1.765,0,1,1,3.531,0V18.887A1.766,1.766,0,0,1,8.265,20.653Z" transform="translate(-6.5 -3)" fill="#022086"/></g><g transform="translate(22.948 31.8)"><path d="M8.265,12.512a1.433,1.433,0,0,1-.671-.141,1.312,1.312,0,0,1-.565-.388,1.246,1.246,0,0,1-.388-.568,1.418,1.418,0,0,1-.141-.667,1.679,1.679,0,0,1,.526-1.239,1.776,1.776,0,0,1,2.471,0,1.66,1.66,0,0,1,.533,1.239,1.418,1.418,0,0,1-.141.667,1.3,1.3,0,0,1-.388.568,1.254,1.254,0,0,1-.565.388A1.442,1.442,0,0,1,8.265,12.512Z" transform="translate(-6.5 -9.007)" fill="#022086"/></g></g><g transform="matrix(0.966, -0.259, 0.259, 0.966, 344.52, 4132.103)"><g transform="translate(0 0)"><g transform="translate(0 0)"><path d="M6.509,31.45l-6.017-5.6A1.545,1.545,0,0,1,1.541,23.17H2.863L.015,1.749A1.544,1.544,0,0,1,1.338.014,1.516,1.516,0,0,1,1.541,0H7.7A1.539,1.539,0,0,1,8.983.687L23.926,23.17H40.5l-6.43-11.607a1.546,1.546,0,0,1,1.348-2.3h6.16a1.537,1.537,0,0,1,.924.309L60.576,23.17H71.633A21.79,21.79,0,0,1,92.326,38.129a1.546,1.546,0,0,1,.079.488,4.627,4.627,0,0,1-4.62,4.634H55.9L42.433,52.26a1.545,1.545,0,0,1-.85.26h-6.16a1.546,1.546,0,0,1-1.144-2.578l6.06-6.755a57.8,57.8,0,0,1-23.614-6.041L13.1,35.329,2.148,40.037A1.544,1.544,0,0,1,.454,37.525ZM6.878,3.089H3.3L5.969,23.17H20.225ZM41.07,12.358H38.04L44.028,23.17H55.443ZM23.709,30.769l-6.9,2.966,1.292.647a54.72,54.72,0,0,0,24.405,5.78h.544l2.114-2.356,2.971-3.312,2.289,2.067-1.386,1.545-3.143,3.508L38.88,49.43h2.241l13.472-9.009,9.24-6.179,1.709,2.57-5.017,3.349H87.784a1.542,1.542,0,0,0,1.525-1.332,18.756,18.756,0,0,0-3.79-6.392H75.464V29.349H81.91A18.654,18.654,0,0,0,71.633,26.26H5.462l3.226,3,1-1.007a1.538,1.538,0,0,1,1.089-.453H23.1a1.545,1.545,0,0,1,.607,2.964Zm-8.11.125h-4.18L8.285,34.037Z" fill="#022086"/><rect width="3.207" height="3.31" transform="translate(68.13 28.854)" fill="#022086"/><rect width="3.31" height="3.31" transform="translate(61.51 28.854)" fill="#022086"/><rect width="3.31" height="3.31" transform="translate(49.373 28.854)" fill="#022086"/><rect width="3.31" height="3.31" transform="translate(42.753 28.854)" fill="#022086"/></g></g></g></g></svg>