<svg xmlns="http://www.w3.org/2000/svg" viewBox="0 0 28 28"><g transform="translate(1.5 1.5)"><path d="M9.25,3h12.5A6.25,6.25,0,0,1,28,9.25v12.5A6.25,6.25,0,0,1,21.75,28H9.25A6.25,6.25,0,0,1,3,21.75V9.25A6.25,6.25,0,0,1,9.25,3Z" transform="translate(-3 -3)" fill="none" stroke="#39a0f6" stroke-linecap="round" stroke-linejoin="round" stroke-width="3"/><path d="M21.346,15.916a4.666,4.666,0,1,1-3.931-3.931,4.666,4.666,0,0,1,3.931,3.931Z" transform="translate(-4.174 -4.157)" fill="none" stroke="#39a0f6" stroke-linecap="round" stroke-linejoin="round" stroke-width="3"/><path d="M26.25,9.75h0" transform="translate(-6.875 -4.125)" fill="none" stroke="#39a0f6" stroke-linecap="round" stroke-linejoin="round" stroke-width="3"/></g></svg>