<svg xmlns="http://www.w3.org/2000/svg" width="63" height="63"><g transform="translate(-15 -3513)"><circle cx="31.5" cy="31.5" r="31.5" transform="translate(15 3513)" fill="#022086"/><path d="M31.283 3539.298v10.454a.567.567 0 00.567.567h12.723a.567.567 0 00.567-.567v-10.454a.567.567 0 00-.567-.567H31.85a.567.567 0 00-.567.567zm5.592.567h2.593v2.193l-1.085-.467a.54.54 0 00-.439 0l-1.072.468zm-4.457 0h3.322v3.057a.553.553 0 00.776.521l1.648-.712 1.649.713a.565.565 0 00.789-.521v-3.057h3.4v9.319H32.418zm15.234-.567v10.454a.567.567 0 00.567.567h13.133a.567.567 0 00.567-.567v-10.454a.567.567 0 00-.567-.567H48.219a.567.567 0 00-.567.567zm5.673.567h3v2.228l-1.311-.511a.52.52 0 00-.392 0l-1.3.511zm-4.538 0h3.4v3.057a.544.544 0 00.747.529l1.877-.731 1.879.731a.562.562 0 00.765-.529v-3.057h3.4v9.319H48.786zm4.056-14.991H39.71a.567.567 0 00-.567.567v10.454a.567.567 0 00.567.567h13.133a.567.567 0 00.567-.567v-10.454a.567.567 0 00-.567-.567zm-8.023 1.135h2.917v2.173l-1.271-.506a.493.493 0 00-.385 0l-1.261.506zm7.455 9.319H40.277v-9.319h3.4v3.005a.541.541 0 00.745.528l1.853-.729 1.856.729a.559.559 0 00.206.039.5.5 0 00.3-.1.549.549 0 00.227-.469v-3.003h3.4zm7.204 18.557h4.619a.567.567 0 100-1.134H28.446a.567.567 0 100 1.134h4.619v7.131h-4.619a.567.567 0 000 1.135h35.656a.567.567 0 100-1.135h-4.623zm-1.135 4.31v2.822h-5.182v-2.822a.567.567 0 10-1.135 0v2.822h-5.185v-2.822a.567.567 0 10-1.135 0v2.822h-5.186v-2.822a.567.567 0 10-1.135 0v2.822H34.2v-7.131h2.107v2.846a.567.567 0 101.135 0v-2.846h5.186v2.846a.567.567 0 101.135 0v-2.846h5.186v2.846a.567.567 0 101.135 0v-2.846h5.185v2.846a.567.567 0 101.135 0v-2.846h1.945z" fill="#fff"/></g></svg>