<svg xmlns="http://www.w3.org/2000/svg" width="63" height="63"><g transform="translate(-15 -3337)"><circle cx="31.5" cy="31.5" r="31.5" transform="translate(15 3337)" fill="#022086"/><g fill="#fff"><path d="M61.187 3353.115h-5.1a3.8 3.8 0 00-3.762-3.167h-1.178a3.825 3.825 0 00-3.801-3.76h-.948a3.823 3.823 0 00-3.806 3.761h-1.177a3.759 3.759 0 00-2.689 1.089 3.713 3.713 0 00-1.07 2.077h-5.147a2.718 2.718 0 00-2.683 2.712v32.606a2.694 2.694 0 002.683 2.684h28.678a2.694 2.694 0 002.683-2.684v-32.606a2.718 2.718 0 00-2.683-2.712zm-14.789-5.542h.947a2.417 2.417 0 011.713.721 2.486 2.486 0 01.708 1.654h-5.788a2.456 2.456 0 012.42-2.375zm-7.372 6.172a2.381 2.381 0 012.385-2.411h10.915a2.427 2.427 0 012.436 2.411v3.563H39.026zm-.711 4.948h17.126a.709.709 0 00.5-.2.7.7 0 00.21-.49v-.531h1.781v27.71H35.764v-27.712h1.88v.531a.677.677 0 00.674.693zm24.166 29.74a1.307 1.307 0 01-1.3 1.3H32.509a1.307 1.307 0 01-1.3-1.3v-32.606a1.331 1.331 0 011.3-1.326h5.135v1.587h-2.6a.678.678 0 00-.667.7v29.1a.657.657 0 00.667.675h23.6a.657.657 0 00.667-.675v-29.1a.678.678 0 00-.667-.7h-2.5v-1.587h5.037a1.331 1.331 0 011.3 1.326z"/><path d="M43.097 3375.855a.693.693 0 00.968.2l9.5-6.334a.693.693 0 10-.769-1.153l-8.913 5.942-2.786-4.354a.693.693 0 10-1.167.747z"/></g></g></svg>