<svg xmlns="http://www.w3.org/2000/svg" width="101.799" height="102.974"><defs><filter id="a" x="21.957" y="23.11" width="79.842" height="79.864" filterUnits="userSpaceOnUse"><feOffset dy="3"/><feGaussianBlur stdDeviation="8" result="b"/><feFlood flood-color="#00153a" flood-opacity=".412"/><feComposite operator="in" in2="b"/><feComposite in="SourceGraphic"/></filter></defs><g filter="url(#a)"><path d="M61.553 44.113L45.96 54.488v21.49h31.842v-21.49z" fill="#fff"/></g><path d="M54.991 73.846h-6.186v-20.19l6.186-5.8z" fill="#d4e1f4"/><path d="M18.404 9.907a7.657 7.657 0 107.658 7.658 7.657 7.657 0 00-7.658-7.658zm0 12.609a4.951 4.951 0 114.951-4.951 4.9 4.9 0 01-4.951 4.951z" fill="#d6c247"/><path d="M86.276 50.509L63.545 32.365a1.353 1.353 0 00-1.688 0L39.125 50.509a1.353 1.353 0 00-.158 1.967l4.536 4.995a1.351 1.351 0 001 .443 1.334 1.334 0 00.841-.3l.752-.606v14.441l-26.87-25.25-1.851 1.972 29.159 27.4v-.039a1.317 1.317 0 00.926.329h30.478a1.339 1.339 0 001.411-1.282v-17.57l.729.606a1.335 1.335 0 001.834-.146l4.529-4.995a1.354 1.354 0 00-.165-1.967zm-9.634 22.642H48.805V54.844L62.724 43.72l13.919 11.124zm4.107-18.441l-17.2-13.781a1.353 1.353 0 00-1.692 0l-17.2 13.781-2.711-2.985 20.76-16.571 20.76 16.571z" fill="#0635c9"/><path d="M31.209 5.327a18.053 18.053 0 00-25.609 0 18.812 18.812 0 00-1.688 24.856l13.409 17.913a1.353 1.353 0 002.167 0l13.416-17.921a18.812 18.812 0 00-1.695-24.848zm-.479 23.235L18.404 45.027 6.086 28.572A16.107 16.107 0 017.518 7.238a15.346 15.346 0 0121.774 0 16.105 16.105 0 011.439 21.324z" fill="#d6c247"/></svg>