<svg xmlns="http://www.w3.org/2000/svg" width="264.811" height="140.846"><g fill="#0635c9"><path d="M127.079 106.603a9.254 9.254 0 009.243-9.243c0-4.51-3.51-12.793-9.243-12.793s-9.243 8.283-9.243 12.793a9.254 9.254 0 009.243 9.243zm0-16.711c.4 0 1.349.629 2.343 2.364a11.627 11.627 0 011.576 5.1 3.918 3.918 0 11-7.836 0c-.001-3 2.568-7.464 3.917-7.464z"/><path d="M155.639 122.71a2.661 2.661 0 004.928-.614 27.142 27.142 0 0018.839-37.844 2.663 2.663 0 10-4.838 2.225 21.634 21.634 0 011.992 9.107 21.857 21.857 0 01-15.912 21v-42a21.818 21.818 0 018.164 4.329 2.662 2.662 0 003.437-4.067 27.157 27.157 0 00-11.682-5.771 2.661 2.661 0 00-4.927-.617c-1.174-.039.036-.01-13.838-.02v-3.829a5 5 0 00-4.992-4.992h-.693V29.856a10.968 10.968 0 00-10.957-10.958h-1.015v-7.942A10.969 10.969 0 00113.189-.002H2.788a2.663 2.663 0 100 5.325h110.4a5.638 5.638 0 015.631 5.631v7.944H45.567a10.968 10.968 0 00-10.956 10.958v9.9H27.6a5.463 5.463 0 00-5.457 5.457v5.426a21.125 21.125 0 00-11.076 8.385 2.662 2.662 0 104.428 2.957 15.792 15.792 0 0113.155-7.043h17.242A15.826 15.826 0 0161.7 70.748v20.223H12.847V70.709a2.663 2.663 0 00-5.325-.039v20.557a2.658 2.658 0 000 4.809v30.429H5.4a5.4 5.4 0 00-5.4 5.4v3.588a5.4 5.4 0 005.4 5.4h63.75a5.4 5.4 0 005.4-5.4v-3.588a5.4 5.4 0 00-5.4-5.4h-2.125V96.038a2.658 2.658 0 000-4.81v-20.48a21.168 21.168 0 00-14.626-20.1v-5.431a5.463 5.463 0 00-5.457-5.457h-7.006v-9.9a5.638 5.638 0 015.631-5.631h73.254v35.392h-1.472a5 5 0 00-4.992 4.992v3.829c-14.541.014-12.439-.023-13.837.023a2.66 2.66 0 00-4.928.614 27.143 27.143 0 000 53.022 2.66 2.66 0 004.928.614c1.339.044.478.011 3.728.023v3.734h-14.21a5.682 5.682 0 00-5.675 5.676v3.029a5.682 5.682 0 005.675 5.675h6.228a2.663 2.663 0 000-5.325h-6.228a.351.351 0 01-.35-.35v-3.029a.351.351 0 01.35-.351h78.083a.351.351 0 01.351.351v3.029a.351.351 0 01-.351.35H104.91a2.663 2.663 0 000 5.325h61.21a5.682 5.682 0 005.676-5.675v-3.029a5.682 5.682 0 00-5.676-5.676h-14.21v-3.734c3.112-.011 2.4.022 3.728-.022zm-86.418 9.153v3.588a.071.071 0 01-.071.071H5.4a.071.071 0 01-.071-.071v-3.588a.071.071 0 01.071-.071h63.75a.07.07 0 01.071.071zm-56.374-5.4V96.298H61.7v30.171zM47.075 45.21v4.436c-.965-.054-18.646-.054-19.6 0V45.21a.132.132 0 01.132-.132h19.335a.132.132 0 01.132.132zm77.071-20.989h1.015a5.638 5.638 0 015.631 5.631v29.761h-6.646V24.225zm-6.464 40.717h18.8v3.5h-18.8zM77.6 95.585a21.857 21.857 0 0115.912-21v42.003a21.857 21.857 0 01-15.912-21zm21.235 21.813v-43.62c.9-.024 55.885-.018 56.489 0v43.62c-.814.016-55.468.022-56.489 0zm47.751 9.074h-39.013v-3.734h39.013z"/></g><path d="M240.75 50.831V38.736h-23.862v11.931h-26.845A26.975 26.975 0 00163 77.512v11.93a27.287 27.287 0 0010.282 21.277H163v23.862h12.643a8.94 8.94 0 0014.4 3.68 8.94 8.94 0 0014.4-3.68h18.924a8.94 8.94 0 0014.4 3.68 8.94 8.94 0 0014.4-3.68h12.643v-23.862h-10.282a27.286 27.286 0 0010.282-21.277v-11.93a26.956 26.956 0 00-24.06-26.681zm-17.9-6.13h11.934v5.965h-11.931zm-29.824 11.935h11.931v5.965h-11.931zm0 11.931h11.931v5.965h-11.931zm0 11.931h11.931v5.965h-11.931zm-8.948 54.083a2.983 2.983 0 112.983-2.983 2.986 2.986 0 01-2.983 2.983zm11.931 0a2.983 2.983 0 112.983-2.983 2.986 2.986 0 01-2.983 2.983zm35.793 0a2.983 2.983 0 112.983-2.983 2.986 2.986 0 01-2.985 2.983zm11.931 0a2.983 2.983 0 112.983-2.983 2.986 2.986 0 01-2.983 2.983zm15.113-17.9v11.935h-6.678a8.94 8.94 0 00-14.4-3.68 8.94 8.94 0 00-14.4 3.68h-18.924a8.94 8.94 0 00-14.4-3.68 8.94 8.94 0 00-14.4 3.68h-6.679v-11.931zm0-27.242a21.462 21.462 0 01-21.079 21.28h-47.724a21.462 21.462 0 01-21.078-21.277v-11.93a20.976 20.976 0 0118.1-20.669v41.548h5.965v-5.966h11.927v5.965h5.965V56.636h26.845a21 21 0 0121.078 20.876z" fill="#d6c247"/></svg>