<svg xmlns="http://www.w3.org/2000/svg" width="112.685" height="111.245"><path d="M39.878 39.856l24.749-14.289-2.605-1.5L37.21 38.392zm-.679 25.809v-25.9l-2.668-1.549v28.655l24.814 14.326v-2.741z" fill="#d4e1f4"/><path d="M29.662 100.944a7.983 7.983 0 013.468 8.175 1.793 1.793 0 003.26 1.318 7.984 7.984 0 018.175-3.468 1.793 1.793 0 001.318-3.261 7.982 7.982 0 01-3.468-8.174 1.793 1.793 0 00-3.26-1.318 7.982 7.982 0 01-8.175 3.468 1.793 1.793 0 00-1.318 3.26zm9.277-1.5a11.545 11.545 0 001.72 4.053 11.551 11.551 0 00-4.053 1.72 11.541 11.541 0 00-1.72-4.053 11.546 11.546 0 004.054-1.72zm72.305-88.54a12.03 12.03 0 01-9.462-9.462 1.793 1.793 0 00-3.517 0 12.03 12.03 0 01-9.462 9.462 1.793 1.793 0 000 3.517 12.03 12.03 0 019.462 9.462 1.793 1.793 0 003.517 0 12.03 12.03 0 019.462-9.462 1.793 1.793 0 000-3.517zm-11.221 7.568a15.582 15.582 0 00-5.81-5.81 15.585 15.585 0 005.81-5.81 15.585 15.585 0 005.81 5.81 15.582 15.582 0 00-5.81 5.809zM23.884 85.896a1.793 1.793 0 000-3.517 12.03 12.03 0 01-9.462-9.462 1.793 1.793 0 00-3.517 0 12.03 12.03 0 01-9.462 9.462 1.793 1.793 0 000 3.517 12.03 12.03 0 019.462 9.462 1.793 1.793 0 003.517 0 12.03 12.03 0 019.462-9.462zm-11.221 4.051a15.582 15.582 0 00-5.81-5.81 15.584 15.584 0 005.81-5.81 15.585 15.585 0 005.81 5.81 15.582 15.582 0 00-5.81 5.81z" fill="#d4c045"/><path d="M59.289 92.336a40.239 40.239 0 10-40.221-40.221 40.267 40.267 0 0040.221 40.221zm-9.559-75.6a36.64 36.64 0 11-27.076 35.375A36.727 36.727 0 0149.73 16.74z" fill="#0635c9"/><path d="M33.991 67.72l24.37 14.051a1.852 1.852 0 00.913.24 1.822 1.822 0 00.9-.24L84.451 67.72a1.74 1.74 0 00.837-1.553v-28.1a1.76 1.76 0 00-.061-.646c-.007-.017.02-.035.013-.051-.02-.047-.028-.091-.051-.137-.014-.026-.019-.054-.034-.08s-.043-.073-.068-.109-.04-.061-.063-.091-.051-.06-.077-.089-.055-.061-.085-.09-.056-.051-.085-.075-.066-.055-.1-.081-.062-.043-.094-.063-.042-.03-.064-.043l-8.473-4.893-.042-.023-15.821-9.133a1.793 1.793 0 00-1.793 0L34.01 36.502a1.855 1.855 0 00-.982 1.565v28.1a1.856 1.856 0 00.963 1.553zm2.626-26.553l6.148 3.506v16.78a1.829 1.829 0 002.517 1.657l1.768-.728 2.371 2.69a1.8 1.8 0 001.348.608 1.624 1.624 0 00.6-.116 1.766 1.766 0 001.13-1.678V50.301l4.868 2.848v23.96l-20.751-11.98zm11.581 2.471l20.749-11.979 2.617 1.511-20.749 11.979zm.716 4.592v10.908l-.043-.085a1.809 1.809 0 00-2.041-.473l-.479.194v-12.03zm32.792 16.9L60.954 77.109V53.148l20.751-11.981zm-1.668-27.069l-20.749 11.98-4.887-2.822L75.151 35.24zM59.289 26.082l6.072 3.505-20.749 11.979-6.072-3.505z" fill="#0635c9"/></svg>