<svg xmlns="http://www.w3.org/2000/svg" width="63" height="63"><path d="M31.5 0A31.5 31.5 0 110 31.5 31.5 31.5 0 0131.5 0z" fill="#022086"/><g fill="#fff"><path d="M50.188 27.517h-2.054a2.023 2.023 0 00-1.931-1.485h-2.194V20.67a.566.566 0 00-.276-.5l-15.47-8.935a.571.571 0 00-.574 0L12.214 20.17a.576.576 0 00-.287.5v17.87a.577.577 0 00.289.5l15.477 8.935a.577.577 0 00.289.077.607.607 0 00.3-.077l8.144-4.7v3.4a2.445 2.445 0 002.461 2.448h11.3a2.458 2.458 0 002.481-2.451V30.006a2.491 2.491 0 00-2.48-2.489zm-3.965-.33a.838.838 0 01.838.838v.056a.838.838 0 01-.838.838h-3.355a.838.838 0 01-.838-.838v-.058a.838.838 0 01.838-.838zM27.981 12.401l6.431 3.713-14.321 8.268-6.431-3.713zm-.549 34.075l-14.35-8.269V21.668l14.35 8.269zm.549-17.539l-6.735-3.889 14.321-8.268 6.736 3.889zm8.441 1.069v11.939l-7.835 4.531V29.937l14.268-8.269v4.364h.018a2.023 2.023 0 00-1.931 1.485h-2.055a2.477 2.477 0 00-2.465 2.489zm15.092 16.668a1.3 1.3 0 01-1.327 1.3h-11.3a1.289 1.289 0 01-1.311-1.3V30.006a1.321 1.321 0 011.311-1.335h2.077a1.975 1.975 0 001.909 1.4h3.33a1.975 1.975 0 001.909-1.4h2.077a1.335 1.335 0 011.327 1.335z"/><path d="M39.552 35.847h.6a.577.577 0 100-1.155h-.023v-1.567h1.592a.556.556 0 00.549.39.579.579 0 00.58-.576v-.388a.585.585 0 00-.584-.58h-2.72a.576.576 0 00-.573.58v2.72a.573.573 0 00.573.577zm.003 5.278h2.723a.577.577 0 00.577-.577v-2.722a.577.577 0 00-.577-.577h-2.722a.577.577 0 00-.577.577v2.723a.577.577 0 00.576.576zm.577-2.722h1.567v1.567h-1.567zm.024 6.846h-.023v-1.567h1.561a.58.58 0 101.161 0v-.555a.6.6 0 00-.584-.6h-2.72a.593.593 0 00-.573.6v2.72a.557.557 0 00.573.557h.6a.577.577 0 000-1.155z"/><path d="M43.6 32.679l-1.691 1.691-.514-.514a.577.577 0 10-.816.816l.923.923a.577.577 0 00.816 0l2.1-2.1a.577.577 0 00-.816-.816zm0 10.66l-1.691 1.691-.514-.514a.577.577 0 00-.816.816l.923.923a.577.577 0 00.816 0l2.1-2.1a.577.577 0 10-.816-.817zm5.923-9.966h-3.626a.577.577 0 100 1.155h3.626a.577.577 0 000-1.155zm0 5.278h-3.626a.577.577 0 100 1.155h3.626a.577.577 0 000-1.155zm0 5.278h-3.626a.577.577 0 100 1.155h3.626a.577.577 0 000-1.155z"/></g></svg>