<svg xmlns="http://www.w3.org/2000/svg" width="91.338" height="93.396"><path d="M35.825 77.555a10.227 10.227 0 00-19.108-3.384 10.227 10.227 0 0114.994 7.5h24.042v-4.114zm-25.19 0a3.591 3.591 0 01-3.641-3.528V32.709h-.473a3.56 3.56 0 00-3.641 3.49v41.942a3.591 3.591 0 003.641 3.528h4.95a10.167 10.167 0 011.572-4.114z" fill="#d4e1f4"/><path d="M25.5 26.768a1.44 1.44 0 002 .182l8.868-7.215a1.44 1.44 0 10-1.818-2.234l-7.777 6.327-2.168-2.538a1.44 1.44 0 10-2.19 1.87z" fill="#d4c045"/><path d="M29.702 36.988a15.585 15.585 0 10-15.5-15.584 15.558 15.558 0 0015.5 15.584zm0-28.289a12.7 12.7 0 11-12.616 12.7 12.674 12.674 0 0112.616-12.7z" fill="#d4c045"/><path d="M6.521 84.549H12.8a1.44 1.44 0 000-2.88H6.521a3.591 3.591 0 01-3.641-3.528V36.199a3.559 3.559 0 013.641-3.49h2.8a1.44 1.44 0 100-2.88h-2.8A6.442 6.442 0 000 36.199v41.942a6.474 6.474 0 006.521 6.408zm52.108-41.348v-7a6.438 6.438 0 00-6.518-6.37h-2.534v2.88h2.534a3.556 3.556 0 013.638 3.49v45.47H30.446v2.88h32.833a1.44 1.44 0 100-2.88h-4.65V61.715h29.829v16.426a3.591 3.591 0 01-3.641 3.528h-3.956a1.44 1.44 0 100 2.88h3.956a6.474 6.474 0 006.521-6.408V60.292c0-.012-.03-.023-.031-.035s-.016-.053-.018-.079-.011-.043-.014-.065-.011-.049-.015-.074-.01-.045-.015-.067l-.019-.07-.021-.066-.025-.067c-.009-.022-.017-.043-.027-.064l-.031-.064a.932.932 0 00-.033-.062l-.036-.06a2.17 2.17 0 00-.041-.061l-.04-.053-.05-.06-.023-.027-12.939-14.06a6.445 6.445 0 00-4.762-2.057zm27.935 15.634H58.629V46.081H73.2a3.55 3.55 0 012.64 1.115z" fill="#0635c9"/><path d="M21.591 72.934a10.231 10.231 0 1010.231 10.231 10.231 10.231 0 00-10.231-10.231zm0 17.581a7.351 7.351 0 117.351-7.351 7.351 7.351 0 01-7.351 7.352zm50.479 2.884a10.231 10.231 0 10-10.231-10.231A10.231 10.231 0 0072.07 93.399zm0-17.582a7.351 7.351 0 11-7.351 7.351 7.351 7.351 0 017.351-7.351zM28.662 54.791a1.44 1.44 0 002.08 0l15.273-15.943a23.816 23.816 0 005.229-8.137 21.831 21.831 0 001.369-9.154 23.335 23.335 0 00-6.936-15.055 22.878 22.878 0 00-31.95 0 23.335 23.335 0 00-6.936 15.056 21.829 21.829 0 001.366 9.154 23.816 23.816 0 005.228 8.138zm-19-33.037a20.458 20.458 0 016.082-13.2 20 20 0 0127.911 0 20.457 20.457 0 016.082 13.2 18.967 18.967 0 01-1.195 7.953 20.956 20.956 0 01-4.609 7.15L29.702 51.713 15.47 36.856a20.94 20.94 0 01-4.613-7.154 18.97 18.97 0 01-1.195-7.952z" fill="#d4c045"/></svg>