<svg xmlns="http://www.w3.org/2000/svg" width="63" height="63"><g transform="translate(-15 -3425)"><circle cx="31.5" cy="31.5" r="31.5" transform="translate(15 3425)" fill="#022086"/><g fill="#fff"><path d="M65.371 3466.812v-.052c0-.009 0-.017-.005-.026s0-.017-.007-.026 0-.017-.008-.025l-.009-.025-.01-.024-.012-.024c0-.008-.008-.015-.012-.023l-.014-.022-.016-.023-.015-.02-.019-.023-.009-.01-2.9-3.17a1.682 1.682 0 00-1.228-.552h-3.096v-1.307a1.612 1.612 0 00-1.624-1.639h-.418a10.825 10.825 0 00.264-2.327v-12.342a.536.536 0 00-.3-.487l-14.03-6.892a.539.539 0 00-.476 0l-14.04 6.871a.542.542 0 00-.3.487v12.362a12.873 12.873 0 005.175 9.788l9.1 6.2a.542.542 0 00.611 0l2.728-1.854a1.674 1.674 0 001.476.9h.923a2.511 2.511 0 004.9 0h6.4a2.511 2.511 0 004.9 0h.4a1.68 1.68 0 001.667-1.68v-4.013c0-.004.005-.012.004-.022zm-20.846 3.632l-2.851 1.938-8.8-6a11.7 11.7 0 01-4.706-8.892v-12.021l13.487-6.609 13.484 6.626v12.007a9.821 9.821 0 01-.295 2.327h-2.5a8 8 0 00.465-2.487v-9.9a.554.554 0 00-.316-.487l-10.592-5.2a.55.55 0 00-.481 0l-10.598 5.182a.563.563 0 00-.325.487v9.919a9.678 9.678 0 003.79 7.118l7.067 4.813a.557.557 0 00.31.094.581.581 0 00.318-.094l2.548-1.729zm0-8.984v4.766l-2.851 1.938-6.776-4.6a8.6 8.6 0 01-3.311-6.23v-9.582l10.075-4.918 10.075 4.933v9.566a7.514 7.514 0 01-.534 2.487h-5.029a1.629 1.629 0 00-1.648 1.639zm5.023 11.942a1.426 1.426 0 111.426-1.426 1.426 1.426 0 01-1.426 1.426zm7.378-6.55v4.591H52a2.511 2.511 0 00-4.9 0h-.923a.578.578 0 01-.563-.594v-9.389a.543.543 0 01.563-.554h10.21a.527.527 0 01.543.554zm1.085-3h3.094a.605.605 0 01.429.21l2.063 2.27h-5.586zm2.841 9.552a1.426 1.426 0 111.426-1.426 1.426 1.426 0 01-1.426 1.426zm3.435-2.552a.593.593 0 01-.582.594h-.4a2.511 2.511 0 00-4.9 0h-.39v-4.03h6.272z"/><path d="M44.886 3452.972l-4.3 3.941-2.117-2.295a.544.544 0 10-.8.736l2.483 2.692a.543.543 0 00.765.032l4.7-4.306a.543.543 0 10-.733-.8z"/></g></g></svg>