<svg xmlns="http://www.w3.org/2000/svg" viewBox="0 0 185.701 173.058"><path d="M14.918 47.337L80.544 9.448 73.637 5.46 7.843 43.446zm-2.481 73.194v-68.69l-7.075-4.109v75.983l65.8 37.989v-7.269z" fill="#d4e1f4"/><path d="M125.911 112.535h2.754a2.631 2.631 0 000-5.263h-.1v-7.142h7.258a2.533 2.533 0 002.5 1.777 2.639 2.639 0 002.646-2.625v-1.771a2.666 2.666 0 00-2.66-2.644h-12.4a2.626 2.626 0 00-2.61 2.644v12.4a2.613 2.613 0 002.612 2.628zm15.056 9.022a2.631 2.631 0 00-2.632-2.631H125.93a2.631 2.631 0 00-2.631 2.631v12.405a2.631 2.631 0 002.631 2.631h12.405a2.631 2.631 0 002.631-2.631zm-12.405 2.631h7.142v7.142h-7.142zm.104 31.201h-.1v-7.142h7.116a2.645 2.645 0 105.29.005v-2.536a2.744 2.744 0 00-2.66-2.732h-12.4a2.7 2.7 0 00-2.613 2.733v12.4a2.538 2.538 0 002.612 2.54h2.755a2.631 2.631 0 100-5.263z" fill="#d6c247"/><path d="M144.368 98.098l-7.706 7.706-2.344-2.345a2.632 2.632 0 00-3.722 3.721l4.205 4.2a2.631 2.631 0 003.721 0l9.568-9.568a2.632 2.632 0 00-3.722-3.721zm0 48.586l-7.706 7.706-2.344-2.345a2.632 2.632 0 10-3.722 3.722l4.205 4.2a2.631 2.631 0 003.721 0l9.568-9.568a2.632 2.632 0 00-3.722-3.722zm26.994-45.426h-16.528a2.631 2.631 0 000 5.263h16.528a2.631 2.631 0 100-5.263zm0 24.058h-16.528a2.631 2.631 0 000 5.263h16.528a2.631 2.631 0 100-5.263zm0 24.058h-16.528a2.631 2.631 0 000 5.263h16.528a2.631 2.631 0 100-5.263z" fill="#d6c247"/><path d="M1.316 127.092l70.541 40.727a2.631 2.631 0 002.631 0l41.032-23.69-2.566-4.558-37.019 21.41V85.599l65.033-37.689v22.523h5.263V43.358a2.579 2.579 0 00-1.258-2.279L74.459.352a2.6 2.6 0 00-2.617 0L1.309 41.08A2.625 2.625 0 000 43.358v81.454a2.631 2.631 0 001.316 2.279zm3.947-79.181L70.672 85.6v75.383l-65.409-37.69zm37.21 15.406l65.274-37.686 30.7 17.725-65.274 37.685zm30.7-57.651l29.311 16.923L37.21 60.278 7.9 43.356z" fill="#0635c9"/><path d="M174.391 74.568h-9.364a9.222 9.222 0 00-8.8-6.766h-15.181a9.222 9.222 0 00-8.8 6.766h-9.364a11.291 11.291 0 00-11.236 11.346v75.972a11.143 11.143 0 0011.236 11.171h51.509a11.2 11.2 0 0011.309-11.171V85.914a11.353 11.353 0 00-11.309-11.346zm-14.253 2.571a3.82 3.82 0 01-3.82 3.82h-15.291a3.82 3.82 0 01-3.82-3.82v-.255a3.82 3.82 0 013.82-3.82h15.291a3.82 3.82 0 013.82 3.82zm20.3 84.747a5.937 5.937 0 01-6.046 5.909h-51.51a5.875 5.875 0 01-5.974-5.909V85.914a6.023 6.023 0 015.974-6.083h9.464a9 9 0 008.7 6.39h15.177a9 9 0 008.7-6.39h9.467a6.084 6.084 0 016.046 6.083z" fill="#d6c247"/></svg>