<svg xmlns="http://www.w3.org/2000/svg" width="96.215" height="92.445"><path d="M72.488 17.461L37.23.142a1.355 1.355 0 00-1.2 0L.761 17.415A1.362 1.362 0 000 18.642v31.066c0 8.969 5.591 19.544 13 24.6l22.861 15.591a1.363 1.363 0 001.536 0l8.361-5.7a1.364 1.364 0 10-1.537-2.253l-7.593 5.178-22.087-15.071c-6.735-4.592-11.814-14.2-11.814-22.346V19.49L36.62 2.882l33.886 16.652v30.174a23.622 23.622 0 01-.878 6.238 1.369 1.369 0 00.963 1.675 1.349 1.349 0 001.662-.954 26.352 26.352 0 00.98-6.959V18.685a1.348 1.348 0 00-.745-1.224z" fill="#0635c9"/><path d="M63.868 23.193L37.251 10.127a1.381 1.381 0 00-1.209 0L9.484 23.155a1.324 1.324 0 00-.716 1.225v24.927c0 6.31 4.2 14.339 9.414 17.9l17.711 12.1a1.325 1.325 0 00.756.237 1.344 1.344 0 00.762-.237l8.5-5.8a1.367 1.367 0 00-1.543-2.257l-7.736 5.276L19.716 64.95c-4.485-3.057-8.224-10.221-8.224-15.643V25.231L36.714 12.87l25.222 12.4v24.04a17.879 17.879 0 01-1.447 6.523 1.356 1.356 0 00.737 1.775 1.39 1.39 0 001.8-.752 20.589 20.589 0 001.638-7.546V24.417a1.394 1.394 0 00-.794-1.224z" fill="#0635c9"/><path d="M44.74 38.345l-10.812 9.9-5.317-5.766a1.363 1.363 0 10-2 1.849l6.238 6.765a1.363 1.363 0 001.923.081l11.814-10.821a1.364 1.364 0 10-1.842-2.011z" fill="#0635c9"/><path d="M96.21 73.125c0-.021 0-.042-.006-.063s-.006-.046-.01-.068a1.494 1.494 0 00-.03-.13l-.019-.064-.023-.063a1.11 1.11 0 00-.085-.179l-.034-.056-.039-.058a.724.724 0 00-.038-.05l-.047-.057-.022-.026-7.282-7.966a4.232 4.232 0 00-3.086-1.388h-7.581v-3.282a4.219 4.219 0 00-4.284-4.118H47.965a4.093 4.093 0 00-4.141 4.118v23.6a4.18 4.18 0 004.142 4.22h2.32a6.309 6.309 0 0012.321 0h16.086a6.309 6.309 0 0012.321 0h1.01a4.221 4.221 0 004.19-4.22V73.199l-.004-.074zm-10.722-7.441a1.524 1.524 0 011.078.529l5.184 5.7H77.908V65.68zM46.55 83.277v-23.6a1.365 1.365 0 011.415-1.392h25.659a1.492 1.492 0 011.56 1.392v25.1H62.606a6.309 6.309 0 00-12.321 0h-2.32a1.451 1.451 0 01-1.415-1.494zm9.9 6.41a3.584 3.584 0 113.584-3.584 3.584 3.584 0 01-3.588 3.585zm28.407 0a3.584 3.584 0 113.584-3.584 3.584 3.584 0 01-3.589 3.585zm8.637-6.41a1.491 1.491 0 01-1.463 1.494h-1.013a6.309 6.309 0 00-12.321 0h-.785V74.643h15.581z" fill="#d4c045"/><path d="M86.566 66.213l5.184 5.7H77.907v-6.229m-52.349.045c-4.485-3.057-8.224-10.221-8.224-15.644V26.009l23.09-11.316-3.71-1.824L11.491 25.23v24.076c0 5.423 3.74 12.587 8.224 15.644l16.919 11.572 2.357-1.606z" fill="#d4e1f4"/></svg>