<svg xmlns="http://www.w3.org/2000/svg" width="286.009" height="178.174"><g fill="#0635c9"><path d="M244.476 100.867h5.933v5.933h-5.933zm0-11.867h5.933v5.933h-5.933zm0 35.6h5.933v5.933h-5.933zm0-11.867h5.933v5.933h-5.933zm0 35.6h5.933v5.933h-5.933zm0-11.866h5.933v5.933h-5.933z"/><path d="M285.268 18.8a2.967 2.967 0 00-2.225-1h-22.146l-7.912-11.867h6.325V0h-23.734v5.933h6.325L233.989 17.8h-22.146a2.967 2.967 0 00-2.943 3.335l5.91 47.283V80.1a2.967 2.967 0 002.967 2.967h14.833v17.8H110.977a2.967 2.967 0 00-2.967 2.966v71.2a2.967 2.967 0 002.967 2.967H277.11a2.967 2.967 0 002.967-2.967v-11.867a2.967 2.967 0 00-2.967-2.966h-14.834v-35.6h8.9v-5.933h-8.9V106.8h8.9v-5.933h-8.9v-17.8h14.834a2.967 2.967 0 002.967-2.967V68.417l5.91-47.283a2.967 2.967 0 00-.719-2.334zM250.41 65.266V23.733h14.439l-5.192 41.533zm-15.18 0l-5.192-41.533h14.439v41.533zm12.214-56.96l6.325 9.493h-12.65zm-32.24 15.427h8.853l5.192 41.533h-8.853zm-.394 139.433v8.9H113.943V106.8H232.61v53.4h-14.834a2.967 2.967 0 00-2.966 2.966zm59.333 8.9h-53.4v-5.933h53.4zm-17.8-11.867h-17.8V83.066h17.8zm-35.6-83.066V71.2h53.4v5.933zm53.747-11.867h-8.852l5.192-41.533h8.853z"/><path d="M223.71 112.733H122.844a2.967 2.967 0 00-2.967 2.967v23.733a2.967 2.967 0 002.967 2.967H223.71a2.967 2.967 0 002.967-2.967V115.7a2.967 2.967 0 00-2.967-2.967zm-47.467 5.933h17.8v17.8h-17.8zm-5.933 17.8h-17.8v-17.8h17.8zm-44.5-17.8h20.767v17.8H125.81zm94.933 17.8h-20.766v-17.8h20.767zm-97.9-94.933h21.06a14.86 14.86 0 0014.54 11.867h29.667a14.833 14.833 0 002.533-29.45 8.918 8.918 0 00-8.467-6.15h-.062a14.658 14.658 0 00-20.7-2.907 14.807 14.807 0 00-6.372-2.806 9 9 0 00-8.526-6.153 14.786 14.786 0 00-26.385 6.183 14.833 14.833 0 002.712 29.416zM170.31 17.8a8.9 8.9 0 017.746 4.628 2.967 2.967 0 003.358 1.43 3.106 3.106 0 01.762-.125 2.967 2.967 0 012.967 2.967 2.967 2.967 0 002.967 2.967 8.9 8.9 0 110 17.8h-29.667a8.9 8.9 0 110-17.8 2.967 2.967 0 002.967-2.967 8.9 8.9 0 018.9-8.9zm-47.467 0a2.967 2.967 0 002.967-2.967 8.865 8.865 0 0116.661-4.254 2.967 2.967 0 003.474 1.391 2.178 2.178 0 01.632-.1 2.967 2.967 0 012.967 2.967 2.967 2.967 0 002.966 2.963 8.847 8.847 0 014.937 1.546 14.729 14.729 0 00-1.721 4.637A14.857 14.857 0 00143.933 35.6h-21.09a8.9 8.9 0 010-17.8z"/></g><path d="M122.85 146.981v-.053a3.013 3.013 0 00-.061-.611c0-.012 0-.025-.006-.037a3.591 3.591 0 00-1-1.85l-18.943-18.949a3.6 3.6 0 00-2.54-1.059h-18a3.6 3.6 0 00-3.6 3.6v35.751H68.383v-38.627l27.469-19.716h23.4a3.6 3.6 0 003.6-3.6v-14.4a3.6 3.6 0 00-3.6-3.6h-29.19a3.6 3.6 0 00-2.1.675L1.5 146.573a3.6 3.6 0 00-1.5 2.924v17.884a3.6 3.6 0 003.6 3.6h23.491a10.8 10.8 0 0020.356 0H90.6a10.8 10.8 0 0020.357 0h8.3a3.6 3.6 0 003.6-3.6v-20.399zm-12.289-3.6h-10.025v-10.025zm-49.376 20.4H47.447a10.8 10.8 0 00-20.356 0H14.565l46.62-33.464zM7.2 151.344l84.02-60.311h24.432v7.2H94.694a3.6 3.6 0 00-2.1.675l-85.4 61.3zm30.071 19.632a3.6 3.6 0 113.6-3.6 3.6 3.6 0 01-3.602 3.6zm63.507 0a3.6 3.6 0 113.6-3.6 3.6 3.6 0 01-3.602 3.6zm10.178-7.2a10.8 10.8 0 00-20.357 0H85.9v-32.154h7.437v15.356a3.6 3.6 0 003.6 3.6h18.715v13.2z" fill="#d6c247"/></svg>