<svg xmlns="http://www.w3.org/2000/svg" viewBox="0 0 171.209 162.105"><path d="M19.462 80.761A75.343 75.343 0 0175.239 8.524V5.891a75.892 75.892 0 00-51.234 21.863A74.837 74.837 0 001.683 80.761c0 41.311 34.124 74.919 76.062 74.919a78.764 78.764 0 008.92-.511c-37.782-4.336-67.203-36.049-67.203-74.408z" fill="#d4e1f4"/><path d="M138.564 14.623a15.874 15.874 0 1015.793 15.874 15.874 15.874 0 00-15.793-15.874zm0 25.857a9.983 9.983 0 119.9-9.983 9.983 9.983 0 01-9.9 9.983z" fill="#d6c247"/><path d="M67.519 41.894l-1.729 5.631a87.182 87.182 0 0157.76 58.145l5.643-1.692a93.078 93.078 0 00-61.674-62.084zm-15.8 7.995a93.25 93.25 0 00-5.057 55.606l5.756-1.255a87.357 87.357 0 014.734-52.076z" fill="#0635c9"/><path d="M157.9 62.612l-.707-2.861-5.717 1.417.707 2.861a74.215 74.215 0 01-19.15 69.907c.037-1.073.061-2.146.061-3.211 0-3.125-.158-6.282-.469-9.383l-5.861.589a88.5 88.5 0 01.439 8.794c0 2.657-.122 6.181-.362 8.842a73.88 73.88 0 01-40.8 16.353 87.045 87.045 0 01-28.588-35.91l-5.413 2.323a92.858 92.858 0 0024.735 33.745A74.206 74.206 0 0114.3 47.636a86.842 86.842 0 0125.913-3.928 88.735 88.735 0 019.359.5l.623-5.857a94.662 94.662 0 00-9.982-.531 84.106 84.106 0 00-21.864 2.992A74.223 74.223 0 0180.125 7.694q3.247 0 6.48.289A93.813 93.813 0 0060.07 34.312l4.9 3.265A94.432 94.432 0 0195.453 9.388l-.2-.126a74.138 74.138 0 0119.385 6.931l2.609 1.37 2.74-5.215-2.609-1.37A80.133 80.133 0 009.854 43.463l-.737 1.376a80.1 80.1 0 0071.007 117.209q2.115 0 4.2-.11c.08.055.158.112.238.168l.842-.236a.222.222 0 01.08.029l.031-.037A80.167 80.167 0 00157.9 62.605z" fill="#0635c9"/><path d="M161.285 9.247a32.534 32.534 0 00-45.439 0 33.163 33.163 0 00-9.856 21.4 31.087 31.087 0 001.948 13.032 33.81 33.81 0 007.422 11.559l21.08 22a2.945 2.945 0 004.254 0l21.08-22a33.82 33.82 0 007.423-11.559 31.076 31.076 0 001.947-13.032 33.163 33.163 0 00-9.859-21.4zm2.389 32.375a27.973 27.973 0 01-6.156 9.539l-18.952 19.782-18.952-19.782a27.973 27.973 0 01-6.155-9.539 25.235 25.235 0 01-1.592-10.576 27.278 27.278 0 018.11-17.6 26.643 26.643 0 0137.178 0 27.277 27.277 0 018.11 17.6 25.235 25.235 0 01-1.593 10.577zm-35.236 60.03a11.511 11.511 0 100 23.021 11.066 11.066 0 001.687-.126 11.51 11.51 0 00-1.687-22.9zm.8 17.072a5.241 5.241 0 01-.8.058 5.62 5.62 0 01-1.346-11.076 5.508 5.508 0 011.346-.164 5.619 5.619 0 01.8 11.181zm-77.461-17.097a11.511 11.511 0 1011.51 11.511 11.511 11.511 0 00-11.51-11.511zm1.949 16.783a5.621 5.621 0 113.671-5.272 5.621 5.621 0 01-3.671 5.272zM58.2 31.82a11.52 11.52 0 105.814 1.58 11.52 11.52 0 00-5.814-1.58zm5.545 12.419a5.616 5.616 0 11.074-.908 5.616 5.616 0 01-.069.908z" fill="#d6c247"/></svg>