<svg xmlns="http://www.w3.org/2000/svg" width="87.389" height="96.279"><path d="M9.013 91.304L5.489 62.548H3.044l3.79 30.934h15.32l-.667-2.178zm46.278-25.278a45.338 45.338 0 00-8.245.383 1.526 1.526 0 00.418 3.022 42.257 42.257 0 017.69-.354l8.589.389a6.225 6.225 0 00-2.415-3.169z" fill="#d4e1f4"/><path d="M80.28 62.435l-1.59.858-20.072 13.782a17.471 17.471 0 01-10.694 1.478l-15.539-2.861a7.3 7.3 0 00-5.306.723l-.071.042-6.362 4.022 1.137 3.731 6.75-4.267c.023-.015.047-.029.071-.042a7.294 7.294 0 015.306-.723l15.539 2.861a17.471 17.471 0 0010.694-1.478l25.506-17.513a4.717 4.717 0 00-5.369-.613z" fill="#d4e1f4"/><path d="M43.435 2.729h.165a17.291 17.291 0 0117.285 17.176l.021 3.2-1.624.015a1.364 1.364 0 00-1.351 1.377l.139 14.924a1.315 1.315 0 00.409.94 1.345 1.345 0 00.955.369h.013l1.621.006.016 1.762a4.043 4.043 0 01-3.992 4.079h-2.943a4.465 4.465 0 00-4.288-3.31h-.042l-7.1.089a4.453 4.453 0 00-4.4 4.49v.534a4.471 4.471 0 004.437 4.435h.042l7.1-.082a4.442 4.442 0 004.267-3.4l2.938-.019a6.772 6.772 0 006.7-6.828l-.016-1.752.874-.008a5.848 5.848 0 005.787-5.9l-.056-5.97a5.841 5.841 0 00-5.9-5.786l-.871.008-.021-3.2a20.02 20.02 0 10-40.039.265l.022 3.3-.877.008a5.848 5.848 0 00-5.787 5.9l.056 5.969a5.841 5.841 0 005.84 5.787h.056l5.223-.049a1.364 1.364 0 001.351-1.377l-.139-14.938a1.376 1.376 0 00-1.364-1.366h.003l-1.618.029-.022-3.289a17.314 17.314 0 0117.13-17.4zm7.652 46.749a1.715 1.715 0 01-1.2.528l-7.1.082h-.016a1.738 1.738 0 01-1.709-1.718v-.533a1.735 1.735 0 011.694-1.751L49.845 46h.016a1.732 1.732 0 011.71 1.717v.54a1.725 1.725 0 01-.49 1.225zm13.446-23.751h.03a3.181 3.181 0 013.112 3.142l.056 5.979a3.121 3.121 0 01-3.084 3.147l-3.859.039-.114-12.146 1.613.035zM26.718 38.353l-3.859.036a3.113 3.113 0 01-3.142-3.084l-.056-5.97a3.141 3.141 0 013.084-3.17l2.232-.049 1.624.013z" fill="#d4c045"/><path d="M33.234 35.898l9.8 5.666a1.331 1.331 0 00.674.183 1.346 1.346 0 00.678-.183l9.777-5.666a1.331 1.331 0 00.646-1.181V23.385a1.333 1.333 0 00-.648-1.181l-9.8-5.666a1.348 1.348 0 00-1.356 0l-9.775 5.666a1.33 1.33 0 00-.641 1.181v11.332a1.333 1.333 0 00.645 1.181zm2.081-10.152l7.016 4.091v8.182l-7.016-4.091zm8.381 1.727l-2.274-1.313 7.084-4.09 2.274 1.313zm1.364 10.545v-8.182l7.016-4.091v8.182zm-1.364-18.723l2.081 1.2-7.084 4.089-2.081-1.2z" fill="#d4c045"/><path d="M4.053 95.081a1.364 1.364 0 001.355 1.2h18.2a1.364 1.364 0 001.306-1.762l-2.339-7.673 7.286-4.607a4.251 4.251 0 013.092-.4l.085.02 15.141 2.792a19.832 19.832 0 0012.256-1.73 1.4 1.4 0 00.167-.1l26.193-17.986a1.364 1.364 0 00.4-1.828 7.424 7.424 0 00-9.9-2.709l-.279.15a6.376 6.376 0 00-7.472-1.743l-.03.016-.915.493a8.236 8.236 0 00-9.308-.718l-5.622 3.091h-7.493a10.708 10.708 0 01-4.62-1.093l-1.039-.52a18.056 18.056 0 00-18.794 1.827c-.03.022-.058.042-.087.067l-2.508 2.231a8.473 8.473 0 01-2.97 1.714l-1.357-4.439a1.354 1.354 0 00-1.306-.954H1.364A1.345 1.345 0 00.01 61.93zm66.742-33.948a3.526 3.526 0 013.7.676l-9.636 5.2-.347.183a8.856 8.856 0 00-1.133-2.063zm-10.185-.282l.033-.018a5.507 5.507 0 015.233-.15l-4.541 2.447a8.818 8.818 0 00-2.605-1.255zm-39.667 5.284l2.465-2.195a15.341 15.341 0 0115.921-1.526l1.039.537a13.451 13.451 0 005.808 1.366H56.25a6.107 6.107 0 015.956 4.656l-7-.334a43.929 43.929 0 00-7.99.36 1.363 1.363 0 10.374 2.7 41.18 41.18 0 017.492-.347l8.594.388h.062a1.364 1.364 0 001.364-1.364c0-.136 0-.272-.01-.407l1.046-.552 12.449-6.716a4.7 4.7 0 015.46.711l-24.91 17.1a17.084 17.084 0 01-10.47 1.449l-15.1-2.78a6.97 6.97 0 00-5.074.69l-.063.038-6.688 4.227-4.789-15.715a11.2 11.2 0 003.989-2.286zm-8.458-2.984l9.277 30.4H6.616l-3.711-30.4z" fill="#0635c9"/><path d="M13.553 92.904a3.791 3.791 0 10-3.79-3.79 3.791 3.791 0 003.79 3.79zm0-4.853a1.062 1.062 0 11-1.062 1.062 1.062 1.062 0 011.062-1.062z" fill="#0635c9"/></svg>