<svg xmlns="http://www.w3.org/2000/svg" viewBox="0 0 212 185.299"><path d="M134.328 180.385h-15.111v-49.318l15.111-14.166z" fill="#d4e1f4"/><path d="M44.956 24.2a18.7 18.7 0 1018.705 18.705A18.7 18.7 0 0044.956 24.2zm0 30.8A12.094 12.094 0 1157.05 42.906 11.965 11.965 0 0144.956 55z" fill="#d6c247"/><path d="M210.747 123.377l-55.522-44.321a3.305 3.305 0 00-4.124 0l-55.526 44.321a3.306 3.306 0 00-.385 4.806l11.08 12.2a3.3 3.3 0 002.448 1.083 3.258 3.258 0 002.053-.726l1.837-1.481v35.275l-65.645-61.69-4.521 4.817 71.226 66.922v-.094a3.217 3.217 0 002.262.8h74.45a3.271 3.271 0 003.442-3.117V139.26l1.78 1.48a3.261 3.261 0 004.479-.357l11.063-12.2a3.308 3.308 0 00-.4-4.806zm-23.532 55.308h-68v-44.719l34-27.173 34 27.173zm10.031-45.047l-42.021-33.663a3.306 3.306 0 00-4.134 0l-42.021 33.663-6.623-7.292 50.711-40.477 50.71 40.477z" fill="#0635c9"/><path d="M76.234 13.012a44.1 44.1 0 00-62.555 0 47.019 47.019 0 00-13.574 29.9c-.756 10.558 2.6 21.494 9.45 30.816l32.755 43.758a3.306 3.306 0 005.292 0l32.772-43.778c6.838-9.3 10.188-20.234 9.434-30.788a47.026 47.026 0 00-13.574-29.907zm-1.17 56.755l-30.109 40.22-30.093-40.191c-5.908-8.035-8.809-17.413-8.165-26.411a40.407 40.407 0 0111.665-25.706 37.486 37.486 0 0153.186 0 40.411 40.411 0 0111.664 25.708c.644 8.99-2.256 18.368-8.15 26.38z" fill="#d6c247"/></svg>