<svg xmlns="http://www.w3.org/2000/svg" width="112.273" height="112.273"><defs><filter id="a" x="0" y="0" width="112.273" height="112.273" filterUnits="userSpaceOnUse"><feOffset dy="3"/><feGaussianBlur stdDeviation="8" result="b"/><feFlood flood-color="#000d3a" flood-opacity=".361"/><feComposite operator="in" in2="b"/><feComposite in="SourceGraphic"/></filter></defs><g transform="translate(0 .002)" filter="url(#a)"><circle cx="32.137" cy="32.137" transform="translate(24 21)" fill="#fff" r="32.137"/></g><path d="M31.967 53.225a30.844 30.844 0 0122.834-29.573v-1.078a31.069 31.069 0 00-20.974 8.95 30.637 30.637 0 00-9.138 21.7c0 16.912 13.97 30.671 31.138 30.671a32.244 32.244 0 003.652-.209 30.884 30.884 0 01-27.512-30.461z" fill="#d4e1f4"/><path d="M80.726 26.149a6.5 6.5 0 106.465 6.5 6.5 6.5 0 00-6.465-6.5zm0 10.585a4.087 4.087 0 114.054-4.087 4.087 4.087 0 01-4.054 4.087z" fill="#d6c247"/><path d="M51.641 37.313l-.708 2.305a35.691 35.691 0 0123.646 23.8l2.31-.692a38.1 38.1 0 00-25.248-25.413zm-6.468 3.273a38.175 38.175 0 00-2.07 22.764l2.356-.514a35.762 35.762 0 011.938-21.319z" fill="#0635c9"/><path d="M88.641 45.794l-.289-1.171-2.341.58.29 1.171a30.382 30.382 0 01-7.839 28.62c.015-.439.025-.879.025-1.315 0-1.28-.065-2.572-.192-3.841l-2.4.241c.119 1.189.18 2.4.18 3.6 0 1.088-.05 2.53-.148 3.62a30.245 30.245 0 01-16.7 6.694 35.635 35.635 0 01-11.7-14.7l-2.216.951a38.014 38.014 0 0010.126 13.815 30.379 30.379 0 01-25.583-44.396 35.552 35.552 0 0110.608-1.608 36.328 36.328 0 013.831.2l.255-2.4a38.754 38.754 0 00-4.086-.212 34.432 34.432 0 00-8.951 1.225A30.386 30.386 0 0156.8 23.31q1.329 0 2.653.118a38.405 38.405 0 00-10.862 10.779l2.009 1.336a38.659 38.659 0 0112.477-11.54l-.084-.052a30.351 30.351 0 017.936 2.837l1.068.561 1.122-2.135-1.068-.561a32.8 32.8 0 00-44.018 13.3l-.3.563A32.79 32.79 0 0056.8 86.501q.866 0 1.721-.045l.1.069.345-.1a.091.091 0 01.033.012l.013-.015a32.819 32.819 0 0029.631-40.634z" fill="#0635c9"/><path d="M90.026 23.948a13.319 13.319 0 00-18.6 0 13.576 13.576 0 00-4.035 8.76 12.726 12.726 0 00.8 5.335 13.841 13.841 0 003.035 4.732l8.63 9.007a1.206 1.206 0 001.741 0l8.63-9.007a13.845 13.845 0 003.039-4.732 12.722 12.722 0 00.8-5.335 13.576 13.576 0 00-4.04-8.76zm.978 13.254a11.452 11.452 0 01-2.52 3.905l-7.759 8.1-7.759-8.1a11.452 11.452 0 01-2.52-3.905 10.331 10.331 0 01-.652-4.33 11.167 11.167 0 013.32-7.2 10.907 10.907 0 0115.22 0 11.167 11.167 0 013.32 7.2 10.331 10.331 0 01-.649 4.33zM76.58 61.774a4.713 4.713 0 100 9.425 4.535 4.535 0 00.691-.052 4.712 4.712 0 00-.691-9.373zm.328 6.989a2.138 2.138 0 01-.328.024 2.3 2.3 0 01-.551-4.534 2.254 2.254 0 01.551-.067 2.3 2.3 0 01.328 4.577zm-31.711-6.997a4.713 4.713 0 104.712 4.712 4.713 4.713 0 00-4.712-4.712zm.8 6.871a2.3 2.3 0 111.5-2.158 2.3 2.3 0 01-1.502 2.158zm1.829-35.448a4.716 4.716 0 102.38.647 4.716 4.716 0 00-2.38-.647zm2.27 5.084a2.3 2.3 0 11.03-.372 2.3 2.3 0 01-.03.372z" fill="#d6c247"/></svg>