<svg xmlns="http://www.w3.org/2000/svg" viewBox="0 0 219.941 171.214"><path d="M190.103 150.385a10.414 10.414 0 105.256 1.428 10.414 10.414 0 00-5.256-1.428zm5.013 11.227a5.077 5.077 0 11.067-.821 5.077 5.077 0 01-.068.821z" fill="#d6c247"/><g fill="#0635c9"><path d="M154.92 25.609a2.508 2.508 0 10-3.256-3.816l-5.414 4.619a2.508 2.508 0 003.256 3.816zm-10.936 51.858v3.086a2.508 2.508 0 005.016 0v-3.086a2.508 2.508 0 10-5.016 0zM17.183 129.272a6.7 6.7 0 109.475 0 6.708 6.708 0 00-9.475 0zm5.928 5.927a1.683 1.683 0 110-2.381 1.682 1.682 0 010 2.381zm23.204-16.11a6.7 6.7 0 10-9.474 0 6.7 6.7 0 009.474 0zm-5.927-5.928a1.682 1.682 0 012.381 0 1.683 1.683 0 11-2.381 0zm-11.489 7.681a2.507 2.507 0 000 3.547l2.642 2.642a2.508 2.508 0 003.547-3.546l-2.642-2.642a2.508 2.508 0 00-3.547-.001zm53.044-81.854h11.678a2.508 2.508 0 100-5.016H81.943a2.508 2.508 0 000 5.016z"/><path d="M168.701 166.2h-41.69v-10.04a4.72 4.72 0 00-4.715-4.715h-4.775V140.6a3.914 3.914 0 00-3.909-3.909h-3.148L98.818 46.715h4.391a5.739 5.739 0 005.733-5.733v-9.727l26.792 2.877V108.5a2.508 2.508 0 003.764 2.171c7.418-4.293 13.38-11.062 17.722-20.12a2.508 2.508 0 10-4.523-2.168 42.2 42.2 0 01-11.948 15.413V23.244l16.157-13.785c4.941 28.625 4.708 52.1-.695 69.8a2.51 2.51 0 104.8 1.465c5.727-18.759 5.924-43.514.587-73.575a4.187 4.187 0 00-6.842-2.449l-17.223 14.694L64.492 5.151a2.508 2.508 0 00-.96 4.923l72.2 14.079v4.934L17.692 16.411l.6-1.084A19.82 19.82 0 0139.513 5.39l13.992 2.729a2.508 2.508 0 10.96-4.923L40.473.467a24.819 24.819 0 00-26.581 12.444l-2.41 4.384a2.508 2.508 0 001.93 3.7l8.029.862v4.689a5.57 5.57 0 005.564 5.564h2.654v74.313l-10.348 10.346a2.508 2.508 0 003.547 3.547l13.222-13.222a9.02 9.02 0 1112.756 12.756l-20.928 20.928a9.02 9.02 0 01-12.756-12.756l.615-.615a2.508 2.508 0 10-3.547-3.547l-.615.615a14.028 14.028 0 001.538 21.177L6.459 166.2H2.508a2.508 2.508 0 000 5.016h166.193a2.508 2.508 0 100-5.015zm-56.2-14.753H63.06v-9.737h49.445zm-9.008-29.495l-25.7-9.972 23.125-9.954zm-3.554-27.493l-19.9-9.606 17.415-9.606zm-6.062-46.842l2.463 19.032-13.939-9.039zm-6.774-.752l-5.993 5.219.675-5.219zm-7.267 15.06l14.424 9.354-16.837 9.287zm-3.46 26.73l20.23 9.765-22.762 9.8zm-3.47 26.808l27.237 10.567-19.577 10.633c-.017.009-.033.021-.05.03H70.159zm18.114 21.23l13.44-7.3.945 7.3zm12.9-95.71a.718.718 0 01-.717.717H72.355a.717.717 0 01-.717-.717V27.249l32.286 3.467v10.267zM26.454 26.548V22.4l11.419 1.226v2.925a.548.548 0 01-.548.548H27.002a.549.549 0 01-.548-.548zM52.382 123.4a14.038 14.038 0 00-17.711-21.61V32.111h2.654a5.57 5.57 0 005.567-5.563v-2.386l23.735 2.549v14.272a5.739 5.739 0 005.733 5.733h4.391l-11.649 89.977h-3.149a3.913 3.913 0 00-3.909 3.909v10.844h-4.776a4.72 4.72 0 00-4.715 4.715V166.2H39.68l-7.388-22.712zm-40.648 42.8l5.954-18.3a14.083 14.083 0 0010.409-1.1l6.308 19.4zm41.836 0v-9.737h68.422v9.737z"/></g><g fill="#d6c247"><path d="M190.43 85.119a14.35 14.35 0 1014.277 14.35 14.35 14.35 0 00-14.277-14.35zm0 23.374a9.025 9.025 0 118.952-9.025 9.025 9.025 0 01-8.952 9.025z"/><path d="M210.969 80.259a29.41 29.41 0 00-41.077 0 29.979 29.979 0 00-8.907 19.344 28.1 28.1 0 001.761 11.781 30.564 30.564 0 006.71 10.45l19.057 19.89a2.663 2.663 0 003.846 0l19.057-19.89a30.573 30.573 0 006.71-10.45 28.092 28.092 0 001.759-11.781 29.979 29.979 0 00-8.916-19.344zm2.159 29.267a25.288 25.288 0 01-5.565 8.623l-17.133 17.884-17.133-17.883a25.288 25.288 0 01-5.564-8.623 22.813 22.813 0 01-1.439-9.561 24.659 24.659 0 017.331-15.909 24.085 24.085 0 0133.609 0 24.658 24.658 0 017.331 15.909 22.812 22.812 0 01-1.437 9.561z"/></g></svg>