<svg xmlns="http://www.w3.org/2000/svg" width="104.403" height="114.579"><defs><filter id="a" x="0" y="0" width="104.403" height="114.579" filterUnits="userSpaceOnUse"><feOffset dy="3"/><feGaussianBlur stdDeviation="8" result="b"/><feFlood flood-color="#00153a" flood-opacity=".412"/><feComposite operator="in" in2="b"/><feComposite in="SourceGraphic"/></filter></defs><g transform="translate(-.004 .001)" filter="url(#a)"><path d="M51.62 21.003L24 37.284v33.725l27.62 16.572 28.783-16.572V37.284z" fill="#fff"/></g><path d="M28.363 38.917L55.23 23.409l-2.826-1.633-26.937 15.551zm-1.016 29.968V40.764l-2.9-1.682v31.106L51.388 85.74v-2.976z" fill="#d4e1f4"/><path d="M73.802 65.611h1.131a1.077 1.077 0 000-2.155h-.043v-2.924h2.971a1.037 1.037 0 001.024.727 1.08 1.08 0 001.083-1.075v-.725a1.092 1.092 0 00-1.091-1.081h-5.075a1.075 1.075 0 00-1.069 1.082v5.075a1.07 1.07 0 001.069 1.076zm6.164 3.693a1.077 1.077 0 00-1.077-1.077h-5.078a1.077 1.077 0 00-1.078 1.077v5.078a1.077 1.077 0 001.077 1.077h5.078a1.077 1.077 0 001.077-1.077zm-5.078 1.077h2.924v2.924h-2.924zm.045 12.773h-.043V80.23h2.913a1.083 1.083 0 102.166 0v-1.038a1.123 1.123 0 00-1.092-1.116h-5.075a1.107 1.107 0 00-1.069 1.119v5.075a1.039 1.039 0 001.069 1.04h1.131a1.077 1.077 0 100-2.155z" fill="#d6c247"/><path d="M81.357 59.701l-3.155 3.155-.96-.96a1.078 1.078 0 00-1.524 1.524l1.722 1.721a1.077 1.077 0 001.524 0l3.917-3.917a1.077 1.077 0 00-1.524-1.523zm0 19.886l-3.155 3.155-.96-.96a1.078 1.078 0 00-1.524 1.524l1.722 1.721a1.077 1.077 0 001.524 0l3.917-3.917a1.078 1.078 0 00-1.524-1.524zm11.051-18.593h-6.766a1.077 1.077 0 100 2.154h6.766a1.077 1.077 0 100-2.154zm0 9.849h-6.766a1.077 1.077 0 000 2.155h6.766a1.077 1.077 0 100-2.155zm0 9.849h-6.766a1.077 1.077 0 100 2.154h6.766a1.077 1.077 0 100-2.154z" fill="#d6c247"/><path d="M22.795 71.57l28.878 16.673a1.077 1.077 0 001.077 0l16.8-9.7-1.051-1.866-15.157 8.767v-30.86l26.623-15.429v9.22h2.154V37.291a1.056 1.056 0 00-.515-.933L52.738 19.685a1.066 1.066 0 00-1.071 0L22.792 36.358a1.074 1.074 0 00-.536.933v33.346a1.077 1.077 0 00.539.933zm1.616-32.416l26.777 15.43v30.86L24.41 70.015zm15.233 6.307l26.722-15.427 12.569 7.256-26.723 15.428zm12.568-23.6l12 6.928-26.723 15.429-12-6.928z" fill="#0635c9"/><path d="M93.649 50.068h-3.833a3.776 3.776 0 00-3.6-2.77h-6.213a3.775 3.775 0 00-3.6 2.77h-3.841a4.622 4.622 0 00-4.6 4.645v31.1a4.562 4.562 0 004.6 4.573h21.087a4.587 4.587 0 004.63-4.573v-31.1a4.647 4.647 0 00-4.63-4.645zm-5.835 1.052a1.564 1.564 0 01-1.564 1.564h-6.26a1.564 1.564 0 01-1.564-1.564v-.1a1.564 1.564 0 011.564-1.564h6.26a1.564 1.564 0 011.564 1.564zm8.31 34.694a2.43 2.43 0 01-2.475 2.419H72.562a2.405 2.405 0 01-2.446-2.419v-31.1a2.466 2.466 0 012.446-2.49h3.875a3.685 3.685 0 003.562 2.616h6.213a3.684 3.684 0 003.562-2.616h3.875a2.491 2.491 0 012.475 2.49z" fill="#d6c247"/></svg>