<svg xmlns="http://www.w3.org/2000/svg" width="593.331" height="519.531"><defs><linearGradient id="a" x1="-5956.843" y1=".718" x2="-5953.265" y2=".272" gradientUnits="objectBoundingBox"><stop offset=".005" stop-color="#10054d"/><stop offset="1" stop-color="#273b98"/></linearGradient></defs><path d="M263.039 420.44c-89.464-15.769-157.665-94-157.665-187.92s68.2-172.151 157.665-187.917V.003C149.183 16.187 61.334 114.265 61.334 232.52s87.849 216.335 201.705 232.523z" fill="#d4c045" opacity=".78"/><path d="M589.994 250.728l-127.1-72.475L0 446.939l62.81 35.9-20.877 12.118 7.193 4.11 20.872-12.119 57.018 32.588z" fill="#92b4d1" opacity=".2"/><path d="M541.639 240.526c0 4.4 1.52 7.528 3.986 9.036.071.036 16.312 9.371 16.385 9.407 2.572 1.436.92-1.819 4.823-4.069 7.863-4.536 14.219-15.523 14.219-24.535 0-4.452 4.128-4.488 1.6-5.972l-16.875-9.491c-2.561-1.388-6.055-1.125-9.922 1.1-7.846 4.537-14.216 15.512-14.216 24.524z" fill="#084c94"/><path d="M558.383 250.053c0 9.012 6.354 12.65 14.217 8.114s14.219-15.522 14.219-24.534-6.367-12.638-14.219-8.1-14.217 15.508-14.217 24.52z" fill="#03336e"/><path d="M565.803 246.319c0 4.7 3.315 6.594 7.407 4.225a16.3 16.3 0 007.409-12.782c0-4.691-3.314-6.582-7.409-4.225a16.345 16.345 0 00-7.407 12.782z" fill="#3f92d1"/><path d="M571.918 225.187c3.758-2.166 7.181-2.465 9.73-1.185-2.382-.67-5.314-.168-8.509 1.664-7.851 4.536-14.217 15.523-14.217 24.534 0 4.691 1.735 7.923 4.488 9.3-3.471-.969-5.708-4.428-5.708-9.778-.001-9.017 6.354-20.003 14.216-24.535z" fill="#2672ab"/><path d="M503.234 262.835c0 4.4 1.521 7.516 4 9.024.071.048 16.3 9.371 16.373 9.419 2.573 1.436.932-1.819 4.835-4.081 7.851-4.524 14.217-15.511 14.217-24.523 0-4.452 4.117-4.488 1.592-5.984 0 0-16.791-9.443-16.863-9.479-2.561-1.388-6.068-1.137-9.933 1.1-7.854 4.525-14.221 15.512-14.221 24.524z" fill="#084c94"/><path d="M519.977 272.361c0 9.012 6.367 12.638 14.219 8.1s14.219-15.511 14.219-24.522-6.368-12.638-14.219-8.1-14.219 15.51-14.219 24.522z" fill="#03336e"/><path d="M527.409 268.627c0 4.691 3.314 6.582 7.407 4.225a16.344 16.344 0 007.409-12.782c0-4.692-3.315-6.582-7.409-4.225a16.324 16.324 0 00-7.407 12.782z" fill="#3f92d1"/><path d="M533.513 247.491c3.77-2.166 7.192-2.465 9.73-1.2-2.37-.658-5.314-.168-8.5 1.676-7.849 4.539-14.211 15.514-14.211 24.525 0 4.692 1.722 7.923 4.488 9.311-3.47-.969-5.721-4.428-5.721-9.778-.004-9.011 6.363-19.996 14.214-24.534z" fill="#2672ab"/><path d="M534.723 259.409v10.714l39.286-22.256v-11.06z" fill="#03336e"/><path d="M181.473 451.092c0 4.4 1.52 7.516 3.986 9.024.071.048 16.312 9.371 16.312 9.371 2.645 1.484 1.006-1.771 4.907-4.033 7.851-4.524 14.218-15.51 14.218-24.522 0-4.452 4.117-4.488 1.591-5.984l-16.863-9.479c-2.573-1.388-6.068-1.137-9.934 1.1-7.853 4.524-14.217 15.511-14.217 24.523z" fill="#084c94"/><path d="M198.217 460.618c0 9.012 6.368 12.638 14.219 8.1s14.217-15.511 14.217-24.523-6.367-12.638-14.217-8.1-14.219 15.511-14.219 24.523z" fill="#03336e"/><path d="M205.637 456.884c0 4.691 3.326 6.582 7.407 4.225a16.335 16.335 0 007.42-12.782c0-4.692-3.326-6.582-7.42-4.225a16.356 16.356 0 00-7.407 12.782z" fill="#3f92d1"/><path d="M211.756 435.748c3.758-2.166 7.181-2.465 9.73-1.2-2.37-.658-5.314-.168-8.5 1.676-7.863 4.536-14.229 15.511-14.229 24.523 0 4.691 1.735 7.923 4.5 9.311-3.47-.969-5.72-4.428-5.72-9.778-.002-9.009 6.365-19.996 14.219-24.532z" fill="#2672ab"/><path d="M143.08 473.401c0 4.4 1.52 7.516 3.986 9.024l16.384 9.419c2.561 1.436.921-1.831 4.823-4.081 7.851-4.536 14.218-15.51 14.218-24.522 0-4.464 4.128-4.5 1.6-5.984-.071-.036-16.8-9.443-16.875-9.479-2.561-1.388-6.068-1.137-9.921 1.089-7.843 4.535-14.215 15.522-14.215 24.534z" fill="#084c94"/><path d="M159.812 482.927c0 9.012 6.367 12.638 14.217 8.1s14.231-15.511 14.231-24.523-6.367-12.638-14.231-8.114-14.217 15.525-14.217 24.537z" fill="#03336e"/><path d="M167.244 479.192c0 4.691 3.315 6.582 7.408 4.225a16.342 16.342 0 007.408-12.782c0-4.7-3.315-6.594-7.408-4.225a16.306 16.306 0 00-7.408 12.782z" fill="#3f92d1"/><path d="M173.346 458.057c3.77-2.178 7.193-2.465 9.731-1.2-2.37-.658-5.314-.168-8.5 1.675-7.851 4.536-14.218 15.511-14.218 24.523 0 4.691 1.724 7.923 4.488 9.3-3.471-.969-5.721-4.416-5.721-9.778.003-9.009 6.37-19.979 14.22-24.52z" fill="#2672ab"/><path d="M174.559 469.971v10.716l39.287-22.256v-11.06zm-47.592-.194v15.436l97.31-56.589 29.779-4.741 238.746-138.838 28.483-29.14 68.708-39.955v-14.983z" fill="#03336e"/><path d="M127.016 469.772v15.436L0 412.951v-15.772z" fill="#084c94"/><path d="M0 397.179l127.016 72.593 462.978-268.806-127.1-72.474z" fill="#0061ab"/><path d="M18.355 381.523L137.468 449.6l434.17-252.079-119.189-67.965z" fill="#022652" opacity=".2"/><path d="M41.804 455.159v8.829l26.218-15.246v-8.8z" fill="#03336e"/><path d="M836.458 125.4v8.829l-7.193-4.092v-8.848z" transform="translate(-794.651 329.762)" fill="url(#a)"/><path d="M34.615 451.048l7.193 4.111 26.214-15.221-7.2-4.1z" fill="#2672ab"/><path d="M39.555 456.239v12.413l4.776-2.762v-12.378z" fill="#03336e"/><path d="M39.558 456.239v12.413l-10.11-5.752v-12.44z" fill="#084c94"/><path d="M29.448 450.46l10.11 5.779 4.772-2.726-10.117-5.77zm100.857-108.858v139.315L593.33 211.656V72.797z" fill="#2672ab"/><path d="M141.281 347.922L582.353 91.861v113.486L141.281 461.841z" fill="#084c94" opacity=".7"/><path d="M155.285 341.631l-5.772 3.82v113.92l5.772-3.831z" fill="#72b5e8" opacity=".3"/><path d="M149.248 344.919l-2.195-.094v113.923l2.195.085z" fill="#084c94" opacity=".8"/><path d="M174.21 330.638l-5.77 3.82v113.92l5.77-3.831z" fill="#72b5e8" opacity=".3"/><path d="M168.174 333.93l-2.2-.094v113.919l2.2.085z" fill="#084c94" opacity=".8"/><path d="M193.137 319.645l-5.771 3.821v113.919l5.771-3.831z" fill="#72b5e8" opacity=".3"/><path d="M187.101 322.939l-2.2-.1v113.92l2.2.084z" fill="#084c94" opacity=".8"/><path d="M212.063 308.652l-5.771 3.82v113.92l5.771-3.831z" fill="#72b5e8" opacity=".3"/><path d="M206.026 311.945l-2.2-.095v113.919l2.2.085z" fill="#084c94" opacity=".8"/><path d="M230.989 297.658l-5.771 3.822v113.918l5.771-3.831z" fill="#72b5e8" opacity=".3"/><path d="M224.952 300.952l-2.194-.1v113.92l2.194.085z" fill="#084c94" opacity=".8"/><path d="M249.916 286.665l-5.772 3.82v113.92l5.772-3.831z" fill="#72b5e8" opacity=".3"/><path d="M243.879 289.959l-2.2-.1v113.92l2.2.084z" fill="#084c94" opacity=".8"/><path d="M268.84 275.673l-5.771 3.82v113.92l5.771-3.832z" fill="#72b5e8" opacity=".3"/><path d="M262.805 278.965l-2.2-.094V392.79l2.2.085z" fill="#084c94" opacity=".8"/><path d="M287.769 264.679l-5.772 3.821v113.92l5.772-3.831z" fill="#72b5e8" opacity=".3"/><path d="M281.732 267.973l-2.2-.1v113.924l2.2.085z" fill="#084c94" opacity=".8"/><path d="M306.691 253.686l-5.77 3.82v113.92l5.77-3.831z" fill="#72b5e8" opacity=".3"/><path d="M300.656 256.978l-2.2-.095v113.92l2.2.085z" fill="#084c94" opacity=".8"/><path d="M325.621 242.694l-5.77 3.824v113.915l5.772-3.831z" fill="#72b5e8" opacity=".3"/><path d="M319.583 245.986l-2.2-.1v113.92l2.2.085z" fill="#084c94" opacity=".8"/><path d="M344.546 231.7l-5.771 3.82v113.923l5.771-3.831z" fill="#72b5e8" opacity=".3"/><path d="M338.509 234.993l-2.2-.1v113.92l2.2.084z" fill="#084c94" opacity=".8"/><path d="M363.471 220.707l-5.77 3.82v113.92l5.77-3.831z" fill="#72b5e8" opacity=".3"/><path d="M357.436 223.999l-2.2-.095v113.92l2.2.085z" fill="#084c94" opacity=".8"/><path d="M382.399 209.713l-5.772 3.821v113.92l5.772-3.831z" fill="#72b5e8" opacity=".3"/><path d="M376.36 213.006l-2.2-.1v113.92l2.2.085z" fill="#084c94" opacity=".8"/><path d="M401.328 198.719l-5.771 3.82v113.92l5.771-3.831z" fill="#72b5e8" opacity=".3"/><path d="M395.287 202.013l-2.2-.094v113.919l2.2.085z" fill="#084c94" opacity=".8"/><path d="M420.249 187.728l-5.776 3.817v113.923l5.771-3.831z" fill="#72b5e8" opacity=".3"/><path d="M414.212 191.02l-2.194-.095v113.92l2.194.085z" fill="#084c94" opacity=".8"/><path d="M439.176 176.734l-5.771 3.821v113.919l5.771-3.831z" fill="#72b5e8" opacity=".3"/><path d="M433.139 180.028l-2.2-.1v113.92l2.2.084z" fill="#084c94" opacity=".8"/><path d="M458.102 165.741l-5.771 3.82v113.92l5.771-3.831z" fill="#72b5e8" opacity=".3"/><path d="M452.066 169.033l-2.2-.094v113.919l2.2.085z" fill="#084c94" opacity=".8"/><path d="M477.029 154.748l-5.771 3.821v113.919l5.771-3.831z" fill="#72b5e8" opacity=".3"/><path d="M470.991 158.042l-2.2-.1v113.92l2.2.085z" fill="#084c94" opacity=".8"/><path d="M495.954 143.755l-5.771 3.82v113.92l5.771-3.831z" fill="#72b5e8" opacity=".3"/><path d="M489.919 147.047l-2.2-.095v113.924l2.2.084z" fill="#084c94" opacity=".8"/><path d="M514.881 132.762l-5.771 3.82v113.919l5.771-3.831z" fill="#72b5e8" opacity=".3"/><path d="M508.841 136.054l-2.2-.094v113.919l2.2.085z" fill="#084c94" opacity=".8"/><path d="M533.809 121.769l-5.772 3.821v113.919l5.772-3.831z" fill="#72b5e8" opacity=".3"/><path d="M527.771 125.063l-2.2-.1v113.925l2.2.084z" fill="#084c94" opacity=".8"/><path d="M552.733 110.776l-5.772 3.82v113.92l5.772-3.831z" fill="#72b5e8" opacity=".3"/><path d="M546.695 114.068l-2.194-.095v113.92l2.194.085z" fill="#084c94" opacity=".8"/><path d="M571.659 99.782l-5.771 3.821v113.919l5.771-3.831z" fill="#72b5e8" opacity=".3"/><path d="M565.621 103.078l-2.194-.1v113.92l2.194.085z" fill="#084c94" opacity=".8"/><path d="M141.281 347.922v11.49l437.231-253.83v102l3.842-2.234V91.861z" fill="#03336e" opacity=".5"/><path d="M130.353 341.601v139.32L3.337 408.664V269.009z" fill="#3f92d1"/><path d="M14.313 402.28V287.925l105.064 60.045v114.08z" fill="#2672ab" opacity=".7"/><path d="M3.337 269.009l127.016 72.588 462.978-268.8L466.231.322z" fill="#72b5e8"/><path d="M108.718 343.972l5.771 3.82v113.92l-5.771-3.831z" fill="#72b5e8" opacity=".3"/><path d="M114.755 347.264l2.195-.094v113.919l-2.195.085z" fill="#084c94" opacity=".8"/><path d="M91.611 333.919l5.77 3.82v113.92l-5.77-3.831z" fill="#72b5e8" opacity=".3"/><path d="M97.647 337.209l2.2-.094v113.919l-2.2.085z" fill="#084c94" opacity=".8"/><path d="M74.506 323.863l5.771 3.821v113.921l-5.771-3.831z" fill="#72b5e8" opacity=".3"/><path d="M80.538 327.157l2.195-.1v113.92l-2.195.084z" fill="#084c94" opacity=".8"/><path d="M57.398 313.81l5.771 3.82v113.919l-5.771-3.831z" fill="#72b5e8" opacity=".3"/><path d="M63.435 317.102l2.2-.1v113.92l-2.2.085z" fill="#084c94" opacity=".8"/><path d="M40.291 303.755l5.772 3.82v113.92l-5.772-3.831z" fill="#72b5e8" opacity=".3"/><path d="M46.328 307.048l2.2-.094v113.918l-2.2.085z" fill="#084c94" opacity=".8"/><path d="M23.185 293.701l5.771 3.82v113.92l-5.771-3.831z" fill="#72b5e8" opacity=".3"/><path d="M29.221 296.994l2.195-.1v113.92l-2.195.084z" fill="#084c94" opacity=".8"/><path d="M122.72 350.262v11.489L16.332 299.503v102l-3.842-2.233V285.779z" fill="#03336e" opacity=".5"/><path d="M329.452 0v44.6c89.464 15.766 157.665 94 157.665 187.917S418.916 404.671 329.452 420.44v44.6c113.856-16.187 201.7-114.265 201.7-232.523S443.308 16.184 329.452 0z" fill="#d4c045" opacity=".78"/></svg>