<svg xmlns="http://www.w3.org/2000/svg" width="38.829" height="49.924"><path d="M32.815 47.2a1.234 1.234 0 01-.345-.05 1.187 1.187 0 01-.794-1.481l4.448-14.7-16.313-7.03-16.313 7.03 4.448 14.7a1.188 1.188 0 01-2.275.687L.915 30.642a1.192 1.192 0 01.666-1.436l17.759-7.655a1.179 1.179 0 01.941 0l17.759 7.655a1.188 1.188 0 01.666 1.436l-4.755 15.714a1.186 1.186 0 01-1.136.844z" fill="#fff"/><path d="M37.641 49.924a10.373 10.373 0 01-8.682-4.562.53.53 0 00-.43-.193.526.526 0 00-.428.193 10.545 10.545 0 01-17.367 0 .535.535 0 00-.858 0 10.387 10.387 0 01-8.684 4.562 1.189 1.189 0 110-2.377 8.005 8.005 0 006.7-3.5 3.056 3.056 0 014.814 0 8.167 8.167 0 0013.411 0 2.874 2.874 0 012.409-1.255 2.871 2.871 0 012.407 1.25 8 8 0 006.7 3.5 1.189 1.189 0 010 2.377zM6.735 29.098a1.189 1.189 0 01-1.189-1.188v-2.948a1.189 1.189 0 112.377 0v2.948a1.188 1.188 0 01-1.188 1.188zm26.151 0a1.189 1.189 0 01-1.189-1.189v-8.891h-10.7v3.614a1.189 1.189 0 11-2.377 0v-4.8a1.189 1.189 0 011.191-1.191h13.075a1.189 1.189 0 011.189 1.189v10.08a1.188 1.188 0 01-1.189 1.188z" fill="#fff"/><path d="M19.81 23.821a1.189 1.189 0 01-1.189-1.189v-3.613h-4.754a1.189 1.189 0 01-1.189-1.187V8.321a1.189 1.189 0 011.189-1.189h11.886a1.189 1.189 0 011.189 1.189v9.511a1.189 1.189 0 11-2.377 0V9.509h-9.51v7.132h4.755a1.189 1.189 0 011.189 1.191v4.8a1.189 1.189 0 01-1.189 1.189z" fill="#fff"/><path d="M19.811 9.509a1.189 1.189 0 01-1.189-1.188V1.189a1.189 1.189 0 112.377 0v7.132a1.189 1.189 0 01-1.188 1.188z" fill="#fff"/></svg>