<svg xmlns="http://www.w3.org/2000/svg" width="46.767" height="46.765"><path d="M27.986 46.764c-.053 0-.109 0-.162-.006a2.067 2.067 0 01-1.508-.842l-2.356-3.233a.841.841 0 00-.177-.175l-3.453-2.543a2.071 2.071 0 01-.236-3.133 2.139 2.139 0 012.392-.449l2.533 1.107 5.267-5.667.456-1.157-.456.861-9.21-4.872a2.17 2.17 0 01-1.074-1.613 2.144 2.144 0 01.616-1.789 1.931 1.931 0 011.773-.52l13.387 2.835a.207.207 0 00.2-.06l4.8-5.1a3.442 3.442 0 012.463-.918 3.424 3.424 0 012.625.892 3.683 3.683 0 01.894 2.625 3.448 3.448 0 01-.92 2.465l-5.113 4.821a.208.208 0 00-.064.2l3.079 13.547a1.922 1.922 0 01-.512 1.8 2.109 2.109 0 01-1.781.618 2.141 2.141 0 01-1.586-1.013l-5.125-9.476-.959-.711.664.713-5.657 5.261 1.107 2.537a2.146 2.146 0 01-.45 2.391 2.078 2.078 0 01-1.463.6zm6.6-12.8a2.155 2.155 0 011.841 1.027l5.125 9.476.992.68-.69-.688-3.081-13.525a2.153 2.153 0 01.629-2.069l5.109-4.815a1.682 1.682 0 00.306-1.076 1.9 1.9 0 00-.323-1.218 1.813 1.813 0 00-1.218-.323 1.661 1.661 0 00-1.072.306l-4.8 5.1a2.167 2.167 0 01-2.038.631L21.98 24.632l-.448 1.151.456-.861 9.205 4.871a2.181 2.181 0 011.07 1.573 2.156 2.156 0 01-.553 1.771l-5.733 6.177a.969.969 0 01-1.1.23l-3.168-1.383a.213.213 0 00-.232.043l3.47 2.73a2.79 2.79 0 01.59.592l2.358 3.233c.24-.047.257-.142.22-.222l-1.384-3.164a.974.974 0 01.228-1.1l6.163-5.729a2.166 2.166 0 011.465-.573zm10.593-9.209h.019zm-25.681-4.296a.974.974 0 01-.436-1.845l18.5-9.256a.976.976 0 011.411.871v8.282a.975.975 0 01-1.949 0v-6.707l-17.091 8.55a.962.962 0 01-.435.1z" fill="#fff"/><path d="M16.748 37.997a.965.965 0 01-.474-.123L.5 29.106a.975.975 0 01-.5-.852V10.23a.974.974 0 011.409-.871l18.5 9.256a.975.975 0 01-.871 1.744L1.949 11.806v15.875l15.273 8.49a.974.974 0 01-.474 1.826z" fill="#fff"/><path d="M38 11.2a.982.982 0 01-.436-.1l-18.09-9.037L1.411 11.1a.974.974 0 01-.873-1.741L19.038.1a.978.978 0 01.871 0l18.523 9.259A.974.974 0 0138 11.2z" fill="#fff"/><path d="M9.826 22.873a.975.975 0 01-.974-.974v-7.245a.976.976 0 01.538-.871l18.5-9.256a.975.975 0 01.871 1.744l-17.96 8.983v6.643a.973.973 0 01-.974.972z" fill="#fff"/></svg>