<svg xmlns="http://www.w3.org/2000/svg" viewBox="0 0 512.005 512.005" fill="#fff"><path d="M405.939 318.646l-3.755 11.247a21.6 21.6 0 004.002 20.83 21.33 21.33 0 0016.401 7.68 22.793 22.793 0 003.132-.222c37.888-5.53 45.85-21.018 45.85-33.033-.034-16.589-24.943-20.07-43.674-21.248a21.59 21.59 0 00-21.956 14.746zm17.314 22.639a4.215 4.215 0 01-3.985-1.545 4.555 4.555 0 01-.853-4.446l3.755-11.247a4.61 4.61 0 014.702-3.115 67.41 67.41 0 0127.537 5.427c-1.758 9.857-24.141 13.902-31.156 14.926zm-129.459-22.639a21.564 21.564 0 00-21.956-14.746c-18.773 1.178-43.639 4.659-43.639 21.248 0 12.015 7.962 27.503 45.858 33.033 1.035.146 2.078.22 3.123.222a21.33 21.33 0 0016.401-7.68 21.57 21.57 0 003.959-20.804l-3.746-11.273zm-13.303 21.094a4.27 4.27 0 01-3.977 1.545c-7.049-1.024-29.431-5.06-31.147-14.925a67.413 67.413 0 0127.537-5.427 4.6 4.6 0 014.702 3.115l3.746 11.238a4.547 4.547 0 01-.861 4.454zm9.642-211.737H409.6c4.713 0 8.533-3.82 8.533-8.533s-3.82-8.533-8.533-8.533H290.133a8.533 8.533 0 000 17.066zm218.07 368.366l-58.121-38.741c48.828-10.479 53.385-44.749 53.385-56.559v-230.4c0-27.247-6.238-46.874-18.56-58.342a36.565 36.565 0 00-18.406-9.438l-.06-.094a47.818 47.818 0 00-1.886-3.14l-.597-.896a49.07 49.07 0 00-6.443-7.586l-1.007-.93a48.39 48.39 0 00-10.308-7.125 42.14 42.14 0 00-1.553-.759 50.055 50.055 0 00-6.878-2.748 59.92 59.92 0 00-7.996-1.809 56.883 56.883 0 00-2.176-.316 71.17 71.17 0 00-9.463-.683h-18.62l108.134-60.826A8.533 8.533 0 00503.467.003H179.2a8.53 8.53 0 00-5.333 1.869L3.2 138.405c-.128.102-.179.256-.299.358a8.67 8.67 0 00-1.135 1.357 8.766 8.766 0 00-.853 1.28 8.74 8.74 0 00-.461 1.476 8.637 8.637 0 00-.35 1.707c-.017.188-.102.324-.102.486v256a8.532 8.532 0 003.61 6.972l145.067 102.4a8.536 8.536 0 004.924 1.562h349.867a8.534 8.534 0 008.169-6.059 8.54 8.54 0 00-3.434-9.575zm-41.6-341.734v-.179a386 386 0 002.005-21.837v-.853l.478-10.018a21.332 21.332 0 014.497 3.413c5.879 5.649 12.817 18.133 12.817 45.508v230.4c0 25.284-21.649 40.499-59.733 42.445v-33.911c0-14.138-11.462-25.6-25.6-25.6H307.2c-14.138 0-25.6 11.462-25.6 25.6v34.133c-26.163 0-45.542-5.692-56.849-16.128a37.03 37.03 0 01-4.403-4.753c-.213-.273-.375-.58-.572-.853a32.962 32.962 0 01-2.927-4.983c-.205-.435-.444-.853-.631-1.306a34.967 34.967 0 01-1.937-6.11c-.102-.486-.179-.981-.273-1.468a40.17 40.17 0 01-.674-7.066v-230.4c0-27.375 6.938-39.859 12.8-45.508a21.823 21.823 0 012.21-1.886c.393-.299.785-.529 1.178-.776s.64-.452.947-.631l.162-.077a320.35 320.35 0 00.478 10.01v.853a377.85 377.85 0 002.005 21.837v.145a482.29 482.29 0 0024.678 102.827 36.524 36.524 0 0034.27 24.141h115.61a36.523 36.523 0 0034.253-24.141 482.314 482.314 0 0024.678-102.828zM409.6 409.603v34.133H298.667v-34.133a8.533 8.533 0 018.533-8.533h93.867a8.532 8.532 0 018.533 8.533zm-59.733-170.659c-15.535 0-29.09 10.537-32.922 25.592h-24.883a19.424 19.424 0 01-18.202-12.851 470.85 470.85 0 01-22.519-89.549h197.043a470.42 470.42 0 01-22.511 89.549 19.42 19.42 0 01-18.202 12.851h-24.883c-3.831-15.055-17.387-25.592-32.921-25.592zm14.771 25.592h-29.542a17.066 17.066 0 0129.542 0zm53.495-170.667a50.976 50.976 0 018.849.768c.853.145 1.519.384 2.304.563l.256.068a40.34 40.34 0 014.727 1.331c.853.324 1.647.7 2.44 1.067a35.267 35.267 0 013.413 1.707c.725.435 1.391.853 2.031 1.331a42.81 42.81 0 012.56 1.963c.546.469 1.084.947 1.57 1.425.674.674 1.28 1.331 1.835 1.988.375.452.785.913 1.109 1.34.478.657.853 1.254 1.254 1.843.23.358.512.759.7 1.092a19.49 19.49 0 01.742 1.425c.111.23.282.529.367.725 0 4.804-.188 9.719-.444 14.686l-.145 2.697a362.9 362.9 0 01-1.178 15.147H249.242c-.521-5.12-.853-10.24-1.186-15.215l-.145-2.628c-.247-4.949-.41-9.847-.444-14.635a30.72 30.72 0 016.707-9.139c.614-.58 1.169-1.161 1.886-1.707l.205-.154a33.035 33.035 0 013.951-2.611c.205-.111.393-.23.597-.35a36.93 36.93 0 014.949-2.167l1.033-.358a42.59 42.59 0 016.076-1.493l1.058-.145a53.084 53.084 0 017.671-.563h136.533zM17.067 149.216L182.195 17.069h288.7L364.698 76.802H281.6a71.04 71.04 0 00-9.455.674c-.742.094-1.459.196-2.176.316a55.58 55.58 0 00-14.891 4.565l-1.545.759a49.03 49.03 0 00-8.994 5.973L23.04 165.191a33.75 33.75 0 00-5.973 2.799v-18.774zm179.439 256.077c.135 2.357.42 4.703.853 7.023l-74.24-41.813a104.106 104.106 0 01-3.652-29.167v-28.595l29.568 8.209a16.87 16.87 0 0014.891-2.859 16.913 16.913 0 006.741-13.577V206.91a17.065 17.065 0 00-6.386-13.317 17.07 17.07 0 00-14.384-3.349l-30.43 6.767v-9.276a84.1 84.1 0 018.346-40.508l80.87-27.759c-.427.606-.802 1.297-1.203 1.937s-.768 1.152-1.126 1.775a64.68 64.68 0 00-2.219 4.267c-.23.495-.486.956-.708 1.459a67.71 67.71 0 00-2.389 6.357c-.179.555-.324 1.169-.495 1.707a81.29 81.29 0 00-1.408 5.308c-.196.853-.367 1.783-.546 2.679a69.513 69.513 0 00-.853 5.12l-.401 2.961c-.23 1.869-.401 3.806-.555 5.769l-.213 2.748a164.686 164.686 0 00-.265 9.071v230.443c-.001 1.178.076 2.646.204 4.224zm-77.039-110.268v-80.538l34.133-7.578v97.604l-34.133-9.488zM102.4 307.962v33.374a140.203 140.203 0 001.169 18.142l-41.062-23.125a78.936 78.936 0 01-2.773-20.617v-19.627l42.666 11.853zm-42.667-29.525v-50.671l42.667-9.481v72.004l-42.667-11.852zm42.667-90.701V200.8l-42.667 9.481v-14.012a75.495 75.495 0 014.821-27.307l42.249-14.507a119.013 119.013 0 00-4.403 33.281zm-85.333 9.736a17.07 17.07 0 0111.52-16.137l16.128-5.547a100.91 100.91 0 00-2.048 20.48v17.809l-25.6 5.692v-22.297zm0 39.757l25.6-5.683v42.146l-25.6-7.108v-29.355zm0 47.062l25.6 7.117v24.329c0 3.285.154 6.519.444 9.685l-17.357-9.779a17.066 17.066 0 01-8.687-14.865v-16.487zm139.238 210.645L17.067 396.649v-23.04l199.902 121.327h-60.664zm93.551 0L17.067 353.598v-23.287c.111.06.196.137.307.196l197.718 111.411c12.433 10.581 32.819 18.884 66.509 18.884h136.533c1.988 0 3.738-.154 5.641-.205l51.533 34.338H249.856z"/></svg>