<svg xmlns="http://www.w3.org/2000/svg" width="45.408" height="37.84"><path d="M12.298 34.056H8.514a.946.946 0 110-1.892h3.784a.946.946 0 110 1.892zm9.46 0h-1.892a.946.946 0 010-1.892h.946V2.838a.948.948 0 00-.946-.946H.946A.946.946 0 01.946 0h18.92A2.841 2.841 0 0122.7 2.838V33.11a.946.946 0 01-.942.946zm20.812-.004h-3.782a.946.946 0 110-1.892h3.784a.948.948 0 00.946-.946v-17.97H28.38v18.92h2.838a.946.946 0 110 1.892h-3.784a.946.946 0 01-.946-.946V12.298a.946.946 0 01.946-.946h17.028a.946.946 0 01.946.946v18.92a2.841 2.841 0 01-2.838 2.834z" fill="#fff"/><path d="M14.19 24.596a.946.946 0 01-.946-.946V6.622a.946.946 0 111.892 0V23.65a.946.946 0 01-.946.946zm-9.46 0a.946.946 0 01-.946-.946V6.622a.946.946 0 111.892 0V23.65a.946.946 0 01-.946.946zM35.002 37.84a4.73 4.73 0 114.73-4.73 4.735 4.735 0 01-4.73 4.73zm0-7.568a2.838 2.838 0 102.838 2.838 2.841 2.841 0 00-2.838-2.838zm-18.92 7.568a4.73 4.73 0 114.73-4.73 4.735 4.735 0 01-4.73 4.73zm0-7.568a2.838 2.838 0 102.838 2.838 2.841 2.841 0 00-2.838-2.838zM4.73 37.84a4.73 4.73 0 114.73-4.73 4.735 4.735 0 01-4.73 4.73zm0-7.568a2.838 2.838 0 102.838 2.838 2.841 2.841 0 00-2.838-2.838zm35.948-17.028a.946.946 0 01-.946-.946A10.418 10.418 0 0029.326 1.892h-.946V12.3a.946.946 0 11-1.892 0V.946A.946.946 0 0127.434 0h1.892a12.312 12.312 0 0112.3 12.3.946.946 0 01-.948.944zm3.786 11.352H33.11a.946.946 0 01-.946-.946v-5.676a.946.946 0 01.946-.946h11.354a.946.946 0 110 1.892H34.056v3.784h10.408a.946.946 0 110 1.892z" fill="#fff"/><path d="M27.434 34.056h-5.676a.946.946 0 110-1.892h5.676a.946.946 0 110 1.892z" fill="#fff"/></svg>