<svg xmlns="http://www.w3.org/2000/svg" width="108.055" height="111.259"><g fill="#fff" stroke="#fff"><path d="M95.024 66.737l-.3.161a7.855 7.855 0 00-9.175-2.108l-.038.02-1.082.583a10.134 10.134 0 00-11.416-.888l-6.857 3.74h-9.144a13 13 0 01-5.621-1.3l-1.27-.62a22.137 22.137 0 00-23.039 2.247 1.529 1.529 0 00-.11.089l-3.067 2.729a10.289 10.289 0 01-3.549 2.061l-1.64-5.422a1.769 1.769 0 00-1.655-1.269H2.231a1.8 1.8 0 00-1.718 2l4.943 40.5a1.7 1.7 0 001.72 1.5H29.42a1.671 1.671 0 001.656-2.171L28.23 99.26l8.867-5.6a5.131 5.131 0 013.732-.477c.036.009.072.018.108.025l18.514 3.411a24.307 24.307 0 0015.021-2.12 1.765 1.765 0 00.212-.124l32.021-21.986a1.73 1.73 0 00.5-2.319 9.138 9.138 0 00-12.181-3.333zm-7.892 1.131a4.216 4.216 0 014.386.761l-11.7 6.31-.362.191a10.878 10.878 0 00-1.326-2.413zm-12.445-.346l.041-.023a6.671 6.671 0 016.231-.236l-5.413 2.917a10.849 10.849 0 00-3.025-1.479zM8.708 107.296L4.187 70.222h11.594l11.3 37.074zM72.83 91.452a20.827 20.827 0 01-12.76 1.764l-18.458-3.4a8.581 8.581 0 00-6.246.85 1.302 1.302 0 00-.08.048l-8.107 5.125L21.37 76.76a13.756 13.756 0 004.84-2.789l3.012-2.682a18.691 18.691 0 0119.4-1.858l1.27.625A16.477 16.477 0 0057.02 71.7h12.315a7.43 7.43 0 017.2 5.6l-8.471-.389a53.784 53.784 0 00-9.778.449 1.73 1.73 0 10.474 3.426 50.3 50.3 0 019.148-.423l10.5.475h.078a1.73 1.73 0 001.73-1.73c0-.154-.005-.307-.012-.46l1.246-.657 15.218-8.21a5.683 5.683 0 016.545.807z"/><path d="M12.436 102.019a4.7 4.7 0 104.7-4.7 4.7 4.7 0 00-4.7 4.7zm4.7-1.236a1.236 1.236 0 11-1.236 1.236 1.236 1.236 0 011.232-1.236zm35.96-36.698a1.755 1.755 0 001.744 0l26.165-15.083a1.767 1.767 0 00.9-1.5V17.337a1.765 1.765 0 00-.9-1.5L54.862.755a1.746 1.746 0 00-1.739 0L26.956 15.838a1.769 1.769 0 00-.906 1.5v30.166a1.765 1.765 0 00.9 1.5zm25.354-17.58L55.709 59.59V33.416L78.45 20.33zm-1.8-29.169L53.979 30.423l-9.859-5.692 22.665-13.088zM53.979 4.251l9.345 5.4-22.665 13.08-9.345-5.4zM29.51 20.331l22.74 13.086v26.174L29.51 46.505z"/></g></svg>