<svg xmlns="http://www.w3.org/2000/svg" width="84.879" height="78.963"><path d="M80.068 4.483a15.773 15.773 0 00-22.03 0 16.233 16.233 0 00-1.234 1.367 38.739 38.739 0 1019.61 24.983l3.89-4.053a16.4 16.4 0 003.6-5.6 15.067 15.067 0 00.944-6.319 16.078 16.078 0 00-4.78-10.378zM38.78 4.266a36.012 36.012 0 014.136.243 45.533 45.533 0 00-11.249 11.149 5.565 5.565 0 00-6.555 2.835c-1.246-.1-2.5-.155-3.742-.155a44.992 44.992 0 00-12.32 1.705A35.912 35.912 0 0138.78 4.266zm-5.965 16.742a2.725 2.725 0 11-2.725-2.725 2.724 2.724 0 012.725 2.725zm5.961 55.1A35.909 35.909 0 016.89 23.663l.026.071a42.04 42.04 0 0114.454-2.541c1.046 0 2.1.041 3.15.119a5.528 5.528 0 001.986 3.981 45.245 45.245 0 00-2.247 24.69 5.572 5.572 0 003.33 10.41 45.026 45.026 0 0012.01 15.7c-.273.01-.547.014-.819.014zM26.264 52.223a2.725 2.725 0 11-2.012 2.632 2.725 2.725 0 012.012-2.632zm37.184 14.048a35.828 35.828 0 01-19.642 9.484 42.211 42.211 0 01-13.549-16.393 5.576 5.576 0 00-3.223-10.087 42.353 42.353 0 01-.706-7.709A41.922 41.922 0 0129.1 26.5a5.571 5.571 0 006-3.024 42.276 42.276 0 0126.292 26.538 5.579 5.579 0 002.051 10.388 41.676 41.676 0 01.006 5.867zm1.084-8.706a2.541 2.541 0 01-.389.028 2.725 2.725 0 01-.653-5.37 2.671 2.671 0 01.653-.079 2.724 2.724 0 01.389 5.421zm1.866 5.561a45.11 45.11 0 00-.122-3.1 5.578 5.578 0 00-2.124-10.734A45.11 45.11 0 0035.66 20.653a5.6 5.6 0 00-1.547-3.507A42.613 42.613 0 0147.07 5.237a35.793 35.793 0 018.132 3 16.04 16.04 0 00-1.942 6.62 15.072 15.072 0 00.944 6.319 16.392 16.392 0 003.6 5.6l10.22 10.667a1.428 1.428 0 002.062 0l3.953-4.126a36.169 36.169 0 01.659 6.864 35.756 35.756 0 01-8.3 22.937zm14.828-42.944a13.562 13.562 0 01-2.985 4.625l-9.188 9.586-9.189-9.592a13.562 13.562 0 01-2.984-4.625 12.235 12.235 0 01-.772-5.128 13.225 13.225 0 013.932-8.533 12.918 12.918 0 0118.025 0 13.225 13.225 0 013.932 8.533 12.235 12.235 0 01-.771 5.128z" fill="#042287"/><path d="M69.053 7.09a7.7 7.7 0 107.657 7.7 7.7 7.7 0 00-7.657-7.7zm0 12.536a4.84 4.84 0 114.8-4.84 4.84 4.84 0 01-4.8 4.84z" fill="#042287"/></svg>