<svg xmlns="http://www.w3.org/2000/svg" width="75.483" height="62.902"><path d="M20.443 56.612h-6.29a1.573 1.573 0 110-3.145h6.29a1.573 1.573 0 010 3.145zm15.726 0h-3.145a1.573 1.573 0 010-3.145H34.6V4.718a1.575 1.575 0 00-1.573-1.573H1.573a1.573 1.573 0 010-3.145h31.451a4.723 4.723 0 014.718 4.718v50.321a1.573 1.573 0 01-1.573 1.573zm34.595 0h-6.29a1.573 1.573 0 110-3.145h6.29a1.575 1.575 0 001.573-1.573V22.016H47.176v31.455h4.718a1.573 1.573 0 010 3.145h-6.29a1.573 1.573 0 01-1.573-1.576v-34.6a1.573 1.573 0 011.573-1.569h28.305a1.573 1.573 0 011.573 1.573v31.451a4.723 4.723 0 01-4.718 4.717z" fill="#fff"/><path d="M23.589 40.886a1.573 1.573 0 01-1.573-1.573V11.008a1.573 1.573 0 113.145 0v28.305a1.573 1.573 0 01-1.572 1.573zm-15.726 0a1.573 1.573 0 01-1.573-1.573V11.008a1.573 1.573 0 113.145 0v28.305a1.573 1.573 0 01-1.572 1.573zm50.322 22.017a7.863 7.863 0 117.863-7.863 7.872 7.872 0 01-7.863 7.863zm0-12.58a4.718 4.718 0 104.718 4.718 4.723 4.723 0 00-4.718-4.719zm-31.451 12.58a7.863 7.863 0 117.863-7.863 7.872 7.872 0 01-7.863 7.863zm0-12.58a4.718 4.718 0 104.718 4.718 4.723 4.723 0 00-4.718-4.719zM7.863 62.903a7.863 7.863 0 117.863-7.863 7.872 7.872 0 01-7.863 7.863zm0-12.58a4.718 4.718 0 104.718 4.718 4.723 4.723 0 00-4.718-4.719zm59.756-28.307a1.573 1.573 0 01-1.573-1.573 17.319 17.319 0 00-17.3-17.3h-1.57v17.3a1.573 1.573 0 01-3.145 0V1.573A1.573 1.573 0 0145.604 0h3.145a20.467 20.467 0 0120.443 20.443 1.573 1.573 0 01-1.573 1.573zm6.291 18.87H55.04a1.573 1.573 0 01-1.573-1.572v-9.435a1.573 1.573 0 011.573-1.573h18.87a1.573 1.573 0 010 3.145h-17.3v6.29h17.3a1.573 1.573 0 010 3.145z" fill="#fff"/><path d="M45.604 56.612h-9.435a1.573 1.573 0 010-3.145h9.435a1.573 1.573 0 110 3.145z" fill="#fff"/></svg>