<svg xmlns="http://www.w3.org/2000/svg" width="93.412" height="79.446"><path d="M1.719 5.189l10.5-2.185a6.958 6.958 0 018.22 5.388l10.68 51.333a10.126 10.126 0 1013.362 9.056l47.792-9.943a1.43 1.43 0 10-.582-2.8l-47.764 9.938a10.123 10.123 0 00-10-6.78L23.236 7.811a9.806 9.806 0 00-11.6-7.6l-10.5 2.185a1.43 1.43 0 10.582 2.8zm32.664 56.854a7.294 7.294 0 11-1.5.155 7.294 7.294 0 011.5-.156z" fill="#042287"/><path d="M35.184 27.744a1.426 1.426 0 001.689 1.107l3.48-.724 6.772 32.547a1.428 1.428 0 001.689 1.107l42.245-8.789a1.428 1.428 0 001.107-1.689l-6.772-32.547 3.407-.709a1.428 1.428 0 001.107-1.689l-1.965-9.443a1.428 1.428 0 00-1.689-1.107l-51.928 10.8a1.428 1.428 0 00-1.107 1.689zm53.9 22.743l-39.449 8.208-6.485-31.151 11.665-2.428 3.427 16.477a1.428 1.428 0 002.371.755l5.12-4.77 6.769 2.305a1.428 1.428 0 001.858-1.643l-3.428-16.476 11.665-2.428zM57.61 24.536l10.526-2.19 2.914 14.029-5.21-1.774a1.428 1.428 0 00-1.434.306l-3.891 3.624zM85.438 8.895l1.383 6.647-49.132 10.222-1.383-6.646z" fill="#042287"/></svg>