<svg xmlns="http://www.w3.org/2000/svg" width="114.532" height="104.058"><g fill="#fff" stroke="#fff"><path d="M62.503.5a1.65 1.65 0 000 3.3 48.2 48.2 0 11-47.659 55.514h9.623a1.6 1.6 0 001.389-2.471L14.709 39.355a1.649 1.649 0 00-2.779.008L.783 56.863a1.577 1.577 0 00-.05 1.635 1.612 1.612 0 001.444.815h9.34A51.515 51.515 0 1062.503.5zM5.176 56.019l8.143-12.783 8.144 12.783z"/><path d="M40.092 60.811v3.653c0 .791.95 1.2 1.7 1.2h13.41c.678 0 1.318-.861 1.318-1.8a1.612 1.612 0 00-1.318-1.728h-11.11v-1.327c0-4.331 12.22-6.967 12.22-15.063 0-4.519-3.681-7.494-8.049-7.494-4.1 0-7.715 2.636-7.715 6.665 0 1.695.756 2.222 1.81 2.222 1.318 0 2.11-.753 2.11-1.506a3.478 3.478 0 013.8-3.728 3.861 3.861 0 014.1 3.954c.005 5.801-12.276 8.851-12.276 14.952zm29.645-21.038c0-.941-1.243-1.532-2-1.532a1.914 1.914 0 00-1.732 1.1l-9.113 17.966a1.62 1.62 0 00-.226.8 1.343 1.343 0 001.393 1.442h9.33v4.915c0 .866.984 1.318 2 1.318.979 0 2-.452 2-1.318v-4.915h1.77c.716 0 1.356-.96 1.356-1.864 0-.941-.452-1.9-1.356-1.9h-1.77v-5.1c0-.941-1.021-1.318-2-1.318-1.017 0-2 .377-2 1.318v5.1h-5.6l7.758-15.43a1.3 1.3 0 00.19-.582zm5.882-10.653c-.72 0-1.165.325-1.165.789v15.95c0 .395.446.813 1.165.813.65 0 1.188-.418 1.188-.813v-5.758a2.342 2.342 0 012.3-2.415 2.539 2.539 0 012.412 2.415v5.758c0 .534.608.813 1.165.813.6 0 1.188-.279 1.188-.813v-5.758a4.4 4.4 0 00-4.064-4.574 3.333 3.333 0 00-3 1.765v-7.384c0-.463-.539-.788-1.189-.788zm11.933 6.547c-.7 0-1.094.325-1.094.789v9.4c0 .395.446.813 1.142.813s1.212-.418 1.212-.813v-4.759c0-2.113 1.384-3.439 2.8-3.439h.743a1.068 1.068 0 000-2.118h-.742a3.547 3.547 0 00-3.036 1.936v-1.021c-.001-.463-.419-.788-1.025-.788z"/></g></svg>