<svg xmlns="http://www.w3.org/2000/svg" width="64.546" height="82.99"><path d="M54.548 78.461a2.051 2.051 0 01-.573-.083 1.973 1.973 0 01-1.32-2.462l7.394-24.439-27.117-11.686L5.814 51.477l7.393 24.439a1.975 1.975 0 01-3.782 1.142L1.522 50.937a1.981 1.981 0 011.107-2.387l29.52-12.726a1.959 1.959 0 011.565 0l29.521 12.725a1.975 1.975 0 011.106 2.388l-7.9 26.122a1.971 1.971 0 01-1.893 1.402z" fill="#fff"/><path d="M62.57 82.99a17.243 17.243 0 01-14.432-7.584.882.882 0 00-.715-.32.875.875 0 00-.711.32 17.529 17.529 0 01-28.869 0 .889.889 0 00-1.427 0 17.266 17.266 0 01-14.44 7.584 1.976 1.976 0 010-3.952 13.308 13.308 0 0011.144-5.825 5.08 5.08 0 018 0 13.577 13.577 0 0022.293 0 4.777 4.777 0 014-2.079 4.772 4.772 0 014 2.079 13.3 13.3 0 0011.157 5.821 1.976 1.976 0 010 3.952zM11.196 48.371a1.977 1.977 0 01-1.976-1.976v-4.9a1.976 1.976 0 113.952 0v4.9a1.974 1.974 0 01-1.976 1.976zm43.47 0a1.977 1.977 0 01-1.976-1.976v-14.78H34.907v6.007a1.976 1.976 0 11-3.952 0v-7.983a1.977 1.977 0 011.976-1.976h21.735a1.977 1.977 0 011.976 1.976v16.756a1.974 1.974 0 01-1.976 1.976z" fill="#fff"/><path d="M32.932 39.597a1.977 1.977 0 01-1.976-1.976v-6.006h-7.9a1.977 1.977 0 01-1.98-1.976V13.831a1.977 1.977 0 011.976-1.976h19.76a1.977 1.977 0 011.976 1.976v15.808a1.976 1.976 0 11-3.952 0V15.807H25.028v11.856h7.9a1.977 1.977 0 011.976 1.976v7.983a1.977 1.977 0 01-1.972 1.975z" fill="#fff"/><path d="M32.931 15.808a1.977 1.977 0 01-1.976-1.976V1.976a1.976 1.976 0 113.952 0v11.856a1.977 1.977 0 01-1.976 1.976z" fill="#fff"/></svg>