<svg xmlns="http://www.w3.org/2000/svg" width="94.236" height="90.543"><path d="M94.231 71.621c0-.021 0-.041-.006-.062s-.006-.045-.01-.067a1.168 1.168 0 00-.029-.126l-.019-.063-.022-.061a.763.763 0 00-.025-.06l-.029-.059a.628.628 0 00-.031-.057l-.033-.055-.038-.057a.695.695 0 00-.037-.049l-.046-.056-.021-.026-7.132-7.8a4.141 4.141 0 00-3.023-1.359h-7.616v-3.217a3.968 3.968 0 00-4.008-4.035h-1.028a26.644 26.644 0 00.649-5.729V18.299a1.32 1.32 0 00-.729-1.2L36.464.138a1.326 1.326 0 00-1.172 0L.746 17.057A1.334 1.334 0 000 18.255v30.429c0 8.785 5.475 19.142 12.736 24.092l22.392 15.272a1.335 1.335 0 001.5 0l6.714-4.564a4.12 4.12 0 003.632 2.213h2.272a6.179 6.179 0 0012.067 0h15.76a6.179 6.179 0 0012.067 0h.992a4.134 4.134 0 004.1-4.134v-9.87c0-.011.001-.048-.001-.072zm-51.31 8.938L35.9 85.328 14.253 70.57c-6.6-4.5-11.582-13.907-11.582-21.886V19.088l33.2-16.266 33.185 16.309v29.553a24.173 24.173 0 01-.725 5.729h-6.143a19.7 19.7 0 001.146-6.122V23.913a1.365 1.365 0 00-.777-1.2l-26.071-12.8a1.353 1.353 0 00-1.184 0L9.193 22.678a1.385 1.385 0 00-.8 1.2v24.413c0 6.18 4.205 14.043 9.316 17.53L35.1 77.667a1.372 1.372 0 00.764.232 1.431 1.431 0 00.782-.232l6.271-4.257zm0-22.112v11.73l-7.021 4.77-16.674-11.333c-4.392-3-8.162-10.013-8.162-15.323v-23.58l24.8-12.106 24.8 12.141v23.545a18.494 18.494 0 01-1.315 6.122h-12.37a4.009 4.009 0 00-4.058 4.035zm12.364 29.391a3.51 3.51 0 113.51-3.51 3.51 3.51 0 01-3.51 3.51zm18.158-16.112v11.3H61.318a6.181 6.181 0 00-12.067 0h-2.272a1.422 1.422 0 01-1.387-1.463V58.447a1.337 1.337 0 011.387-1.364h25.127a1.3 1.3 0 011.337 1.364zm2.671-7.394h7.615a1.489 1.489 0 011.055.518l5.079 5.588H76.114zm6.993 23.506a3.51 3.51 0 113.51-3.51 3.51 3.51 0 01-3.51 3.51zm8.458-6.278a1.461 1.461 0 01-1.433 1.463h-.992a6.181 6.181 0 00-12.067 0h-.96v-9.92h15.452z" fill="#022086"/><path d="M43.821 37.557l-10.59 9.7-5.21-5.649a1.335 1.335 0 10-1.963 1.811l6.112 6.627a1.335 1.335 0 001.883.08l11.572-10.6a1.335 1.335 0 10-1.8-1.969z" fill="#022086"/></svg>