<svg xmlns="http://www.w3.org/2000/svg" width="102.849" height="102.372"><path d="M68.216 42.367H29.384a5.3 5.3 0 01-5.3-5.3 5.032 5.032 0 01.83-2.817L44.293 2.542a5.264 5.264 0 019.028.028l19.4 31.747a4.933 4.933 0 01.791 2.754 5.3 5.3 0 01-5.296 5.296zM48.798 3.531a1.709 1.709 0 00-1.476.823L27.884 36.156a1.567 1.567 0 00-.272.914 1.77 1.77 0 001.772 1.766h38.832a1.77 1.77 0 001.768-1.765 1.5 1.5 0 00-.229-.847L50.291 4.381a1.724 1.724 0 00-1.493-.851z" fill="#022086"/><path d="M48.797 28.245a1.766 1.766 0 01-1.765-1.766V12.357a1.766 1.766 0 113.531 0v14.122a1.766 1.766 0 01-1.766 1.766zm0 7.06a1.433 1.433 0 01-.671-.141 1.312 1.312 0 01-.565-.388 1.246 1.246 0 01-.388-.568 1.418 1.418 0 01-.141-.667 1.679 1.679 0 01.526-1.239 1.776 1.776 0 012.471 0 1.66 1.66 0 01.533 1.239 1.418 1.418 0 01-.141.667 1.3 1.3 0 01-.388.568 1.254 1.254 0 01-.565.388 1.442 1.442 0 01-.671.141z" fill="#022086"/><g fill="#022086"><path d="M14.433 80.337L7.17 76.486a1.545 1.545 0 01.32-2.86l1.277-.343-8.3-19.955a1.544 1.544 0 01.83-2.019 1.516 1.516 0 01.192-.066l5.95-1.595a1.54 1.54 0 011.417.331l20.258 17.848 16.01-4.292-9.218-9.547a1.546 1.546 0 01.707-2.571l5.95-1.596a1.537 1.537 0 01.973.06l20.981 8.454L75.2 55.471a21.793 21.793 0 0123.863 9.091 1.546 1.546 0 01.203.451 4.628 4.628 0 01-3.263 5.673l-30.8 8.258-10.676 12.191a1.545 1.545 0 01-.754.471l-5.95 1.596a1.546 1.546 0 01-1.774-2.194l4.105-8.095a57.807 57.807 0 01-24.376.28l-3.972-.816-9.36 7.384a1.544 1.544 0 01-2.287-1.987zM7.444 52.845l-3.456.926 7.78 18.707 13.77-3.692zm35.43.098l-2.927.784 8.585 8.894 11.027-2.957zM30.872 75.224l-5.897 4.652 1.416.29a54.726 54.726 0 0025.072-.737l.525-.14 1.432-2.824 2.012-3.969L58.18 73.9l-.939 1.852-2.127 4.202-4.753 9.367 2.165-.58 10.68-12.192 7.326-8.362 2.317 2.04-3.98 4.535 26.333-7.06a1.542 1.542 0 001.128-1.682 18.758 18.758 0 00-5.316-5.193L81.3 63.431l-.8-2.983 6.227-1.67A18.656 18.656 0 0076 58.456L12.078 75.595l3.893 2.062.705-1.232a1.538 1.538 0 01.935-.72l11.904-3.191a1.545 1.545 0 011.354 2.706zm-7.802 2.221l-4.038 1.083-2.213 3.848z"/><path d="M73.287 61.87l3.098-.831.857 3.197-3.098.83zm-6.395 1.714l3.197-.857.858 3.197-3.198.857zm-11.724 3.143l3.197-.857.857 3.198-3.197.857zm-6.395 1.715l3.197-.857.857 3.197-3.197.857z"/></g></svg>