<svg xmlns="http://www.w3.org/2000/svg" viewBox="0 0 72.467 72.132"><path d="M48.07 29.851H20.701a3.736 3.736 0 01-3.731-3.731 3.545 3.545 0 01.585-1.988L31.209 1.791a3.709 3.709 0 016.361.02L51.239 24.18a3.476 3.476 0 01.557 1.94 3.736 3.736 0 01-3.726 3.731zM34.383 2.488a1.2 1.2 0 00-1.04.58L19.649 25.476a1.1 1.1 0 00-.192.644 1.247 1.247 0 001.244 1.244H48.07a1.247 1.247 0 001.244-1.244 1.053 1.053 0 00-.162-.6L35.436 3.087a1.215 1.215 0 00-1.052-.6z" fill="#022086"/><path d="M34.383 19.901a1.244 1.244 0 01-1.244-1.244v-9.95a1.244 1.244 0 112.488 0v9.95a1.244 1.244 0 01-1.244 1.244zm0 4.975a1.01 1.01 0 01-.473-.1.925.925 0 01-.4-.274.878.878 0 01-.274-.4 1 1 0 01-.1-.47 1.183 1.183 0 01.371-.873 1.251 1.251 0 011.741 0 1.169 1.169 0 01.376.873 1 1 0 01-.1.47.918.918 0 01-.274.4.884.884 0 01-.4.274 1.016 1.016 0 01-.467.1z" fill="#022086"/><g fill="#022086"><path d="M10.17 56.606L5.052 53.89a1.088 1.088 0 01.226-2.013l.899-.241L.33 37.574a1.088 1.088 0 01.584-1.422 1.068 1.068 0 01.135-.046l4.193-1.124a1.084 1.084 0 01.994.234l14.277 12.576 11.284-3.026-6.494-6.726a1.09 1.09 0 01.498-1.808l4.194-1.125a1.083 1.083 0 01.686.042l14.78 5.955 7.526-2.018A15.355 15.355 0 0169.8 45.492a1.09 1.09 0 01.142.318 3.26 3.26 0 01-2.299 3.997l-21.699 5.818-7.525 8.588a1.088 1.088 0 01-.532.332l-4.192 1.124a1.09 1.09 0 01-1.25-1.546l2.892-5.704a40.734 40.734 0 01-17.174.197l-2.798-.576-6.597 5.206a1.088 1.088 0 01-1.612-1.4zM5.245 37.235l-2.435.653 5.481 13.18 9.704-2.601zm24.964.068l-2.065.554 6.049 6.267 7.77-2.083zm-8.457 15.7l-4.154 3.278.997.205a38.56 38.56 0 0017.666-.518l.37-.1 1.01-1.989 1.416-2.802 1.934.989-.662 1.304-1.5 2.961-3.348 6.6 1.525-.409 7.526-8.59 5.162-5.893 1.628 1.439-2.796 3.201 18.553-4.974a1.086 1.086 0 00.794-1.184 13.218 13.218 0 00-3.744-3.656L57.285 44.7l-.565-2.109 4.388-1.176a13.146 13.146 0 00-7.56-.23L8.51 53.261l2.744 1.46.5-.87a1.083 1.083 0 01.658-.506l8.386-2.249a1.09 1.09 0 01.954 1.907zm-5.497 1.565l-2.845.763-1.559 2.712z"/><path d="M51.638 43.594l2.182-.585.604 2.252-2.182.585zm-4.506 1.208l2.253-.604.604 2.252-2.253.604zm-8.262 2.215l2.254-.604.604 2.252-2.253.604zm-4.505 1.208l2.252-.604.604 2.253-2.252.604z"/></g></svg>