<svg xmlns="http://www.w3.org/2000/svg" width="86.47" height="91.039"><g fill="#fff" stroke="#fff"><path d="M42.793 36.782L32.6 46.119l-5-5.423a1.33 1.33 0 10-1.955 1.8l5.9 6.4a1.33 1.33 0 001.875.079l11.17-10.232a1.33 1.33 0 00-1.8-1.961z"/><path d="M78.709 53.329a2.923 2.923 0 00-2.49-1.346h-6.812a24.2 24.2 0 00.418-4.427V18.22a1.324 1.324 0 00-.738-1.193L35.742.647a1.327 1.327 0 00-1.17 0L1.232 16.982A1.318 1.318 0 00.5 18.176v29.379c0 8.494 5.282 18.508 12.3 23.294l21.61 14.743a1.319 1.319 0 001.492 0l8.472-5.783v7.773a2.959 2.959 0 002.955 2.953h35.713a2.935 2.935 0 002.927-2.953V65.128a1.287 1.287 0 00-.2-.7zm-10.956 1.314h8.465a.266.266 0 01.248.1l5.774 9.019H66.6v-9.12h1.157zM44.374 76.594l-9.221 6.291L14.3 68.653c-6.358-4.335-11.14-13.4-11.14-21.1V19.009L35.165 3.322l32 15.726v28.507a21.74 21.74 0 01-.471 4.427h-5.765a18.424 18.424 0 00.73-4.807V23.641a1.337 1.337 0 00-.752-1.193L35.745 10.092a1.334 1.334 0 00-1.173 0L9.415 22.409a1.332 1.332 0 00-.748 1.195v23.571c0 5.978 4.024 13.586 8.968 16.958l16.771 11.438a1.328 1.328 0 001.5 0l8.471-5.779zm19.563-21.952v9.117H48.131l5.774-9.019a.266.266 0 01.248-.1zm-19.353 9.781a1.3 1.3 0 00-.21.7v1.446l-9.221 6.29-16.021-10.923c-4.231-2.886-7.806-9.646-7.806-14.761V24.434l23.835-11.668L59 24.469v22.706a16.167 16.167 0 01-.849 4.807h-4a2.923 2.923 0 00-2.491 1.347zM67.356 87.88h-4.368V73.42l4.368 2.828zm15.954-.294a.274.274 0 01-.268.294H70.015V75.529a1.331 1.331 0 00-.6-1.113l-6.993-4.564a1.36 1.36 0 00-1.376-.057 1.345 1.345 0 00-.713 1.17V87.88h-13a.3.3 0 01-.3-.294V66.418H83.31z"/></g></svg>