<svg xmlns="http://www.w3.org/2000/svg" viewBox="0 0 44.616 71.745"><path d="M22.308 0C10.008 0 0 9.308 0 20.732a.955.955 0 00.213.617H.186L15.74 40.963v6.7a1.085 1.085 0 001.148.988h3.111l-3.625 4.212h-5.085a1.028 1.028 0 00-1.023 1.057v16.808a1 1 0 001.023 1.017h22.038a1 1 0 001.023-1.017V53.922a1.028 1.028 0 00-1.023-1.057h-5.089l-3.674-4.212h3.223a1.11 1.11 0 00.769-.281.955.955 0 00.321-.707v-6.776l15.524-19.54a.955.955 0 00.214-.617C44.616 9.308 34.609 0 22.308 0zM2.297 20.539a5.56 5.56 0 011.121-2.048l.047-.048a4.186 4.186 0 012.933-1.144 4.272 4.272 0 012.956 1.163l.024.021a3.611 3.611 0 011.229 2.723.949.949 0 00.074.364v.019l7.47 18.06h-.709zm10.5.508a3.629 3.629 0 011.224-2.556l.047-.048a4.186 4.186 0 012.933-1.144 4.273 4.273 0 012.956 1.163l.023.02a3.611 3.611 0 011.229 2.723v18.444h-.718zM26.157 60.6a1.039 1.039 0 00.53-.85V54.9h5.47v14.812h-19.7V54.9h5.473v4.85a1 1 0 00.493.85 1.167 1.167 0 001.035.084l2.813-1.129 2.813 1.129a1.165 1.165 0 00.434.083 1.287 1.287 0 00.638-.167zm-6.038-2.4v-3.3h4.379v3.3l-1.755-.69a1.22 1.22 0 00-.887 0zm5.3-5.338H19.17l3.1-3.616zm1.264-6.245h-8.757v-4.935h8.757zm-3.284-6.971V21.205a3.612 3.612 0 011.229-2.724l.047-.044a4.185 4.185 0 012.933-1.141 4.274 4.274 0 012.955 1.163l.024.022a3.649 3.649 0 011.224 2.567l-7.6 18.6zm3.772 0h-.614l7.384-18.064v-.009a.972.972 0 00.072-.365 3.617 3.617 0 011.229-2.726l.047-.045a4.184 4.184 0 012.933-1.142 4.274 4.274 0 012.955 1.163l.024.022a5.609 5.609 0 011.121 2.057zm11.044-24.385a6.471 6.471 0 00-4.5 1.759 5.634 5.634 0 00-.8.871 5.639 5.639 0 00-.811-.883 6.646 6.646 0 00-9 .011 5.628 5.628 0 00-.8.871 5.633 5.633 0 00-.811-.883 6.646 6.646 0 00-9 .011 5.633 5.633 0 00-.8.871 5.641 5.641 0 00-.811-.882 6.687 6.687 0 00-8.142-.677c2.129-8.194 10.091-14.3 19.559-14.3S39.74 8.144 41.863 16.347a6.515 6.515 0 00-3.654-1.087z" fill="#022086"/></svg>