<svg xmlns="http://www.w3.org/2000/svg" width="91.864" height="93.843"><g fill="#fff" stroke="#fff"><path d="M.5 36.499v41.724a6.44 6.44 0 006.487 6.375H11.9a10.176 10.176 0 0020.15 0h30.071a10.176 10.176 0 0020.15 0h2.605a6.44 6.44 0 006.487-6.375V60.467c0-.012-.03-.023-.03-.035s-.031-.053-.033-.079 0-.043-.007-.065-.007-.049-.011-.074a1.14 1.14 0 00-.031-.136c-.007-.023-.012-.044-.02-.066l-.024-.067c-.008-.023-.017-.043-.026-.063l-.031-.064c-.011-.021-.02-.041-.033-.061l-.036-.06a.58.58 0 00-.041-.06l-.04-.053a1.182 1.182 0 00-.049-.06l-.023-.027L78.057 45.51a6.412 6.412 0 00-4.737-2.046h-14.5v-6.965a6.405 6.405 0 00-6.484-6.337h-.528a22.258 22.258 0 001.032-8.182 23.271 23.271 0 00-6.9-15 22.753 22.753 0 00-31.784-.017 23.321 23.321 0 00-6.9 15.021 22.246 22.246 0 001.026 8.179h-1.3A6.408 6.408 0 00.5 36.499zm71.7 54.034a7.313 7.313 0 117.312-7.313 7.313 7.313 0 01-7.312 7.313zm-13.372-44.2h14.5a3.531 3.531 0 012.618 1.107l10.668 11.579H58.825zm0 15.553H88.5v16.341a3.572 3.572 0 01-3.622 3.51h-2.605a10.176 10.176 0 00-20.15 0h-3.3zM21.979 90.533a7.313 7.313 0 117.313-7.313 7.313 7.313 0 01-7.313 7.313zm-11.864-68.4a20.351 20.351 0 016.05-13.13 19.9 19.9 0 0127.766 0 20.35 20.35 0 016.05 13.13 18.869 18.869 0 01-1.188 7.907 20.848 20.848 0 01-4.585 7.113l-14.16 14.779-14.158-14.78a20.832 20.832 0 01-4.59-7.112 18.872 18.872 0 01-1.189-7.911zm-.68 10.9a27.183 27.183 0 004.386 6.154l15.192 15.83a1.422 1.422 0 001.034.43A1.438 1.438 0 0031.081 55l15.195-15.817a27.184 27.184 0 004.386-6.156h1.678a3.538 3.538 0 013.619 3.472v45.234H32.054a10.176 10.176 0 00-20.15 0H6.987a3.573 3.573 0 01-3.622-3.51V36.499a3.541 3.541 0 013.622-3.472z"/><path d="M25.868 27.116a1.433 1.433 0 001.994.181l8.822-7.177a1.433 1.433 0 10-1.808-2.222l-7.737 6.295-2.156-2.525a1.433 1.433 0 10-2.179 1.86z"/><path d="M30.048 37.284a15.5 15.5 0 10-15.416-15.5 15.477 15.477 0 0015.416 15.5zm0-28.142A12.639 12.639 0 1117.497 21.78 12.608 12.608 0 0130.048 9.142z"/></g></svg>