<svg xmlns="http://www.w3.org/2000/svg" width="111.661" height="72.03"><g fill="#022086"><path d="M105.918 29.898l5.357-6.354a1.636 1.636 0 00.374-1.248L109.16 1.439a1.636 1.636 0 00-2.829-.912L95.062 12.802l-20.594 2.1a1.636 1.636 0 10.331 3.255l21.212-2.16a1.635 1.635 0 001.039-.521l9.282-10.111 1.983 16.615-4.753 5.637-9.617 6.487a1.636 1.636 0 00-.717 1.467l.747 11.014a1.636 1.636 0 001.477 1.517l6.849.652 3.51 8.936-1.6 4.132-4.675-6.238a1.636 1.636 0 00-1.564-.635l-7.1 1.121a1.636 1.636 0 00-1.28 1.05l-2.3 6.245-13.279 2.692a1.636 1.636 0 10.65 3.206l14.174-2.873a1.635 1.635 0 001.21-1.038l2.285-6.2 5.18-.818 5.846 7.805a1.636 1.636 0 002.834-.389l2.9-7.475a1.634 1.634 0 000-1.19l-4.111-10.466a1.636 1.636 0 00-1.367-1.03l-6.466-.616-.59-8.688 9.025-6.087a1.618 1.618 0 00.335-.3zM66.834 67.512l-5.421 1.1L48.5 55.062a1.635 1.635 0 00-1.584-.458l-9.37 2.361-4.2-5.17a1.636 1.636 0 00-1.114-.6l-15.7-1.495a1.636 1.636 0 00-1.791 1.628v3.444l-6.21 6.349L6.5 52.198l2.636-6.924a1.635 1.635 0 00-1.019-2.136l-4.529-1.485 5.5-22.481 10.386-6.354 8.812 4.1a1.636 1.636 0 101.38-2.966l-9.607-4.469a1.636 1.636 0 00-1.543.088L6.8 16.733a1.637 1.637 0 00-.735 1.006L.047 42.346a1.636 1.636 0 001.079 1.943l4.339 1.423-2.2 5.785a1.635 1.635 0 00-.066.945l2.812 12.334a1.636 1.636 0 002.764.78l8.774-8.97a1.635 1.635 0 00.466-1.144v-2.313l13.224 1.26 4.427 5.448a1.636 1.636 0 001.669.555l9.456-2.383L59.67 71.521a1.637 1.637 0 001.509.475l6.307-1.278a1.636 1.636 0 00-.65-3.206z"/><path d="M68.327 10.378A58.674 58.674 0 0152.264 8.45a61.035 61.035 0 00-15.191-2V4.583a1.636 1.636 0 00-3.271 0v37.852a1.636 1.636 0 003.271 0v-8.163A57.472 57.472 0 0151.5 36.187a62.187 62.187 0 0016.826 2.018 1.636 1.636 0 001.636-1.636V12.014a1.636 1.636 0 00-1.635-1.636zm-16.826 1.253a61.034 61.034 0 0015.19 2v4.982a57.471 57.471 0 01-14.427-1.915 61.035 61.035 0 00-15.191-2V9.716A57.482 57.482 0 0151.5 11.631zm.764 21.37a61.035 61.035 0 00-15.191-2V26.04a57.484 57.484 0 0114.427 1.914c.54.13 1.079.259 1.628.386a1.636 1.636 0 00.739-3.187c-.54-.125-1.072-.253-1.6-.381a61.054 61.054 0 00-15.19-2v-4.803a57.472 57.472 0 0114.427 1.915 61.034 61.034 0 0015.19 2v4.793a68.345 68.345 0 01-5.741-.322 1.636 1.636 0 00-.331 3.255c1.878.191 3.877.3 6.072.34v4.961A57.481 57.481 0 0152.264 33z"/></g></svg>