<svg xmlns="http://www.w3.org/2000/svg" width="89.354" height="90.535"><path d="M8.266 35.034v25.389a1.378 1.378 0 001.378 1.378h30.9a1.378 1.378 0 001.378-1.378V35.034a1.378 1.378 0 00-1.378-1.378h-30.9a1.378 1.378 0 00-1.378 1.378zm13.58 1.378h6.3v5.327l-2.628-1.137a1.312 1.312 0 00-1.066 0l-2.6 1.137zm-10.825 0h8.069v7.424a1.344 1.344 0 001.885 1.265l4-1.732 4.006 1.732a1.372 1.372 0 001.916-1.265v-7.424h8.269v22.634H11.021zm37.002-1.378v25.389a1.378 1.378 0 001.378 1.378h31.884a1.378 1.378 0 001.378-1.378V35.034a1.378 1.378 0 00-1.378-1.378H49.401a1.378 1.378 0 00-1.378 1.378zM61.8 36.412h7.282v5.41l-3.184-1.24a1.263 1.263 0 00-.953 0l-3.146 1.24zm-11.022 0h8.266v7.424a1.322 1.322 0 001.814 1.284l4.558-1.774 4.563 1.774a1.365 1.365 0 001.859-1.284v-7.424h8.266v22.634H50.778zM60.619 0H28.735a1.378 1.378 0 00-1.378 1.378v25.389a1.378 1.378 0 001.378 1.378h31.884a1.378 1.378 0 001.378-1.378V1.378A1.378 1.378 0 0060.619 0zM41.134 2.755h7.085v5.279l-3.087-1.23a1.2 1.2 0 00-.935 0l-3.063 1.23zm18.107 22.634H30.112V2.755h8.266v7.3a1.315 1.315 0 001.809 1.282l4.5-1.771 4.507 1.771a1.358 1.358 0 00.5.1 1.226 1.226 0 00.727-.24 1.334 1.334 0 00.552-1.138v-7.3h8.266zM76.758 70.46h11.219a1.378 1.378 0 100-2.755h-86.6a1.378 1.378 0 100 2.755H12.6v17.32H1.378a1.378 1.378 0 100 2.755h86.6a1.378 1.378 0 100-2.755h-11.22zM74 80.928v6.853H61.4v-6.853a1.378 1.378 0 10-2.755 0v6.853h-12.6v-6.853a1.378 1.378 0 10-2.755 0v6.853H30.7v-6.853a1.378 1.378 0 10-2.755 0v6.853h-12.6v-17.32h5.117v6.912a1.378 1.378 0 102.755 0v-6.912h12.6v6.912a1.378 1.378 0 002.755 0v-6.912h12.6v6.912a1.378 1.378 0 102.755 0v-6.912h12.6v6.912a1.378 1.378 0 102.755 0v-6.912H74z" fill="#022086"/></svg>