<svg xmlns="http://www.w3.org/2000/svg" viewBox="0 0 63.787 64.63"><path d="M5.901 25.008v18.124a.983.983 0 00.983.984h22.059a.983.983 0 00.983-.984V25.008a.983.983 0 00-.983-.983H6.884a.983.983 0 00-.983.984zm9.694.984h4.5v3.8l-1.876-.811a.937.937 0 00-.761 0l-1.859.811zm-7.727 0h5.76v5.3a.959.959 0 001.346.9l2.857-1.236 2.859 1.236a.979.979 0 001.367-.9v-5.3h5.9v16.157H7.868zm26.414-.984v18.124a.984.984 0 00.983.984h22.761a.983.983 0 00.983-.984V25.008a.983.983 0 00-.983-.983H35.265a.984.984 0 00-.983.984zm9.835.984h5.2v3.862l-2.273-.885a.9.9 0 00-.68 0l-2.245.885zm-7.868 0h5.9v5.3a.944.944 0 001.295.917l3.254-1.267 3.257 1.267a.975.975 0 001.327-.917v-5.3h5.9v16.157H36.249zM43.273 0H20.512a.983.983 0 00-.983.983v18.125a.983.983 0 00.983.983h22.761a.984.984 0 00.984-.983V.983A.983.983 0 0043.274 0zM29.364 1.967h5.058v3.768l-2.2-.878a.854.854 0 00-.667 0l-2.187.878zM42.29 18.124H21.496V1.967h5.9v5.211a.939.939 0 001.292.915l3.213-1.264 3.217 1.264a.969.969 0 00.357.068.875.875 0 00.519-.171.952.952 0 00.394-.813v-5.21h5.9zm12.505 32.175H62.8a.984.984 0 100-1.967H.984a.984.984 0 100 1.967h8.008v12.364H.984a.984.984 0 100 1.967H62.8a.984.984 0 100-1.967h-8.005zm-1.967 7.472v4.892h-8.992v-4.892a.984.984 0 00-1.967 0v4.892h-8.992v-4.892a.984.984 0 00-1.967 0v4.892h-8.992v-4.892a.984.984 0 00-1.967 0v4.892h-8.992V50.299h3.653v4.933a.984.984 0 001.967 0v-4.934h8.992v4.934a.984.984 0 001.967 0v-4.934h8.992v4.934a.984.984 0 001.967 0v-4.934h8.992v4.934a.984.984 0 001.967 0v-4.934h3.372z" fill="#022086"/></svg>