<svg xmlns="http://www.w3.org/2000/svg" width="100.504" height="81.203"><path d="M76.791 35.776A21.713 21.713 0 1098.5 57.49a21.7 21.7 0 00-21.709-21.714zm9.65 22.662a1.469 1.469 0 01-1.464 1.462h-9.133a1.469 1.469 0 01-1.464-1.464V46.892a1.469 1.469 0 011.464-1.464h1.9a1.469 1.469 0 011.456 1.464v8.185h5.774a1.469 1.469 0 011.464 1.464zm-9.65-27.487c.814 0 1.616.05 2.413.122v-7.36a7.421 7.421 0 00-7.238-7.238H59.9V9.238A7.421 7.421 0 0052.665 2H28.539A7.421 7.421 0 0021.3 9.238v7.238H9.238A7.421 7.421 0 002 23.713v12.063h59.579a26.376 26.376 0 0115.212-4.825zM50.252 16.476h-19.3V11.65h19.3zm1.028 33.776H33.364a2.412 2.412 0 01-2.413-2.413V40.6H2v21.715a7.421 7.421 0 007.238 7.238h43.944a26.183 26.183 0 01-1.9-19.3z" fill="none" stroke="#fff" stroke-width="4"/></svg>