<svg xmlns="http://www.w3.org/2000/svg" width="99.17" height="68.352"><path d="M97.516 38.531a1.66 1.66 0 00-1.653 1.666v3.887h-3.305V4.445A4.44 4.44 0 0088.15.002L11.019.018a4.438 4.438 0 00-4.408 4.443v39.64H3.306v-3.887a1.653 1.653 0 10-3.306 0V51.32a1.653 1.653 0 103.306 0v-3.886h3.306v1.072a4.437 4.437 0 004.408 4.442h1.258c.008.016.01.032.019.048l3.306 6.663a1.646 1.646 0 001.479.921h3.134a10.433 10.433 0 0020.177 0h3.133A1.654 1.654 0 0045 59.657l3.306-6.663c.008-.016.011-.032.019-.048l2.515-.016c.008.016.01.032.019.048l3.306 6.663a1.646 1.646 0 001.479.921h3.134a10.433 10.433 0 0020.177 0h3.133a1.654 1.654 0 001.479-.921l3.306-6.663c.008-.016.011-.032.019-.048h1.257a4.438 4.438 0 004.408-4.442v-1.073h3.306v3.886a1.653 1.653 0 103.306 0v-11.1a1.661 1.661 0 00-1.653-1.67zM9.917 4.459a1.122 1.122 0 011.1-1.111l77.132-.016a1.12 1.12 0 011.103 1.113v34.12h-8.815V11.601a1.653 1.653 0 10-3.306 0v26.965H60.6V11.601a1.653 1.653 0 10-3.306 0v26.965l-15.426.016V11.616a1.653 1.653 0 10-3.306 0v26.965H22.037V11.616a1.653 1.653 0 10-3.306 0v26.965H9.917zm9.938 52.786H18.1l-2.132-4.3h5.053a10.549 10.549 0 00-1.166 4.3zm15.511 5.659a7.122 7.122 0 01-10.128 0 7.243 7.243 0 01-.224-9.96H35.59a7.243 7.243 0 01-.224 9.96zm7.134-5.659h-1.752a10.518 10.518 0 00-1.165-4.3h5.052zm15.919-.017h-1.755l-2.132-4.3h5.053a10.543 10.543 0 00-1.164 4.301zm15.511 5.659a7.122 7.122 0 01-10.128 0 7.243 7.243 0 01-.224-9.96h10.578a7.243 7.243 0 01-.224 9.96zm7.136-5.659h-1.753a10.518 10.518 0 00-1.165-4.3H83.2zm7.083-7.631l-77.132.016a1.122 1.122 0 01-1.1-1.111v-6.591h10.05a1.626 1.626 0 00.418.061 1.578 1.578 0 00.418-.061h19a1.626 1.626 0 00.418.061 1.578 1.578 0 00.418-.061l17.9-.016a1.626 1.626 0 00.418.061 1.577 1.577 0 00.418-.061h19a1.626 1.626 0 00.418.061 1.577 1.577 0 00.418-.061h10.05v6.591a1.121 1.121 0 01-1.11 1.112z" fill="#fff"/></svg>