<svg xmlns="http://www.w3.org/2000/svg" viewBox="0 0 60.487 56.369"><path d="M56.8 24.288h-3.05a3 3 0 00-2.867-2.2h-3.252v-7.965a.84.84 0 00-.41-.742L24.253.115a.848.848 0 00-.852 0L.426 13.38a.855.855 0 00-.426.743v26.531a.857.857 0 00.429.742l22.977 13.27a.857.857 0 00.429.115.9.9 0 00.441-.115l12.091-6.974v5.041a3.629 3.629 0 003.659 3.633H56.8a3.65 3.65 0 003.684-3.639V27.984a3.7 3.7 0 00-3.684-3.696zm-5.887-.49a1.244 1.244 0 011.244 1.244v.083a1.244 1.244 0 01-1.24 1.241h-4.981a1.244 1.244 0 01-1.244-1.244v-.083a1.244 1.244 0 011.244-1.244zM23.834 1.847l9.547 5.512L12.12 19.634l-9.547-5.512zm-.815 50.589L1.714 40.159V15.605l21.305 12.276zm.815-26.039l-10-5.773L35.1 8.349l10 5.773zm12.532 1.587v17.725l-11.632 6.727V27.881l21.182-12.276v6.479h.027a3 3 0 00-2.867 2.2h-3.05a3.678 3.678 0 00-3.66 3.7zM58.773 52.73a1.934 1.934 0 01-1.973 1.924H40.026a1.914 1.914 0 01-1.946-1.925V27.984a1.962 1.962 0 011.946-1.981h3.083a2.932 2.932 0 002.834 2.082h4.943a2.932 2.932 0 002.834-2.082h3.08a1.982 1.982 0 011.969 1.981z" fill="#022086"/><path d="M41.013 36.656h.9a.857.857 0 100-1.714h-.034v-2.326h2.364a.825.825 0 00.815.579.86.86 0 00.862-.855v-.577a.869.869 0 00-.866-.861h-4.038a.855.855 0 00-.851.861v4.038a.851.851 0 00.851.856zm.005 7.836h4.043a.857.857 0 00.857-.857v-4.041a.857.857 0 00-.857-.857H41.02a.857.857 0 00-.857.857v4.043a.857.857 0 00.855.855zm.857-4.041h2.326v2.326h-2.326zm.035 10.163h-.034v-2.326h2.318a.862.862 0 101.723 0v-.826a.894.894 0 00-.866-.89h-4.039a.881.881 0 00-.851.89V51.5a.827.827 0 00.851.827h.9a.857.857 0 100-1.714z" fill="#022086"/><path d="M47.023 31.953l-2.51 2.51-.764-.764a.857.857 0 10-1.212 1.212l1.37 1.37a.857.857 0 001.212 0l3.113-3.118a.857.857 0 10-1.212-1.212zm0 15.825l-2.51 2.51-.764-.764a.858.858 0 00-1.211 1.215l1.37 1.37a.857.857 0 001.212 0l3.116-3.116a.857.857 0 10-1.212-1.212zm8.794-14.796h-5.383a.857.857 0 000 1.714h5.383a.857.857 0 000-1.714zm0 7.837h-5.383a.857.857 0 000 1.714h5.383a.857.857 0 000-1.714zm0 7.836h-5.383a.857.857 0 000 1.714h5.383a.857.857 0 000-1.714z" fill="#022086"/></svg>