<svg xmlns="http://www.w3.org/2000/svg" width="70.8" height="93.44"><g fill="#042287"><path d="M65.221 14.407h-10.6a7.913 7.913 0 00-7.823-6.586h-2.449A7.956 7.956 0 0036.436 0h-1.971a7.951 7.951 0 00-7.915 7.821H24.1a7.818 7.818 0 00-5.6 2.266 7.723 7.723 0 00-2.226 4.32h-10.7A5.653 5.653 0 000 20.046v67.812a5.6 5.6 0 005.579 5.582h59.642a5.6 5.6 0 005.579-5.582V20.046a5.653 5.653 0 00-5.579-5.639zM34.465 2.881h1.969a5.027 5.027 0 013.562 1.5 5.169 5.169 0 011.472 3.44H29.432a5.108 5.108 0 015.033-4.94zM19.141 15.717A4.953 4.953 0 0124.1 10.7h22.7a5.048 5.048 0 015.066 5.015v7.409H19.141zm-1.479 10.291h35.616a1.474 1.474 0 001.033-.422 1.454 1.454 0 00.436-1.019v-1.1h3.7v57.628h-46.1V23.463h3.91v1.1a1.408 1.408 0 001.4 1.441zM67.92 87.859a2.719 2.719 0 01-2.7 2.7H5.579a2.719 2.719 0 01-2.7-2.7V20.046a2.769 2.769 0 012.7-2.758h10.68v3.293h-5.4a1.41 1.41 0 00-1.388 1.456v60.53a1.366 1.366 0 001.388 1.4h49.089a1.366 1.366 0 001.388-1.4V22.038a1.41 1.41 0 00-1.388-1.456h-5.2v-3.294h10.475a2.769 2.769 0 012.7 2.758z"/><path d="M27.6 61.698a1.441 1.441 0 002.013.422l19.758-13.172a1.442 1.442 0 10-1.6-2.4L29.236 58.909l-5.794-9.054a1.441 1.441 0 10-2.427 1.553z"/></g></svg>