<svg xmlns="http://www.w3.org/2000/svg" width="84.732" height="78.963"><path d="M79.572 34.024H75.3a4.208 4.208 0 00-4.017-3.087h-4.561V19.784a1.177 1.177 0 00-.574-1.04L33.975.161a1.188 1.188 0 00-1.194 0L.6 18.744a1.2 1.2 0 00-.6 1.04V56.95a1.2 1.2 0 00.6 1.04l32.187 18.583a1.2 1.2 0 00.6.161 1.263 1.263 0 00.617-.161l16.937-9.769v7.062a5.084 5.084 0 005.127 5.1h23.5a5.113 5.113 0 005.16-5.1V39.201a5.18 5.18 0 00-5.156-5.177zm-8.246-.686a1.743 1.743 0 011.743 1.743v.116a1.743 1.743 0 01-1.743 1.743h-6.977a1.743 1.743 0 01-1.743-1.743v-.116a1.743 1.743 0 011.743-1.743zM33.388 2.587l13.374 7.722-29.784 17.2L3.6 19.782zm-1.142 70.866L2.4 56.257v-34.4l29.845 17.2zm1.141-36.476L19.38 28.89l29.784-17.2 14.009 8.087zM50.942 39.2v24.83l-16.294 9.423v-34.4l29.673-17.2v9.076h.037a4.208 4.208 0 00-4.017 3.087h-4.272a5.152 5.152 0 00-5.127 5.185zm31.389 34.666a2.709 2.709 0 01-2.759 2.7h-23.5a2.681 2.681 0 01-2.726-2.7V39.201a2.748 2.748 0 012.726-2.776h4.319a4.107 4.107 0 003.97 2.916h6.925a4.107 4.107 0 003.97-2.916h4.319a2.776 2.776 0 012.759 2.776z" fill="#022086"/><path d="M57.452 51.348h1.257a1.2 1.2 0 100-2.4h-.049v-3.262h3.312a1.156 1.156 0 001.141.811 1.2 1.2 0 001.207-1.2v-.808a1.217 1.217 0 00-1.212-1.203h-5.656a1.2 1.2 0 00-1.192 1.206v5.656a1.192 1.192 0 001.192 1.2zm.007 10.977h5.66a1.2 1.2 0 001.2-1.2v-5.661a1.2 1.2 0 00-1.2-1.2h-5.66a1.2 1.2 0 00-1.2 1.2v5.66a1.2 1.2 0 001.2 1.201zm1.2-5.66h3.259v3.259h-3.259zm.049 14.236h-.048v-3.26h3.247a1.207 1.207 0 102.414 0v-1.157a1.252 1.252 0 00-1.214-1.243h-5.656a1.233 1.233 0 00-1.191 1.247v5.653a1.158 1.158 0 001.192 1.159h1.257a1.2 1.2 0 000-2.4z" fill="#022086"/><path d="M65.871 44.76l-3.516 3.516-1.07-1.07a1.202 1.202 0 00-1.7 1.7l1.919 1.919a1.2 1.2 0 001.7 0l4.366-4.366a1.202 1.202 0 00-1.7-1.7zm0 22.169l-3.516 3.516-1.07-1.07a1.202 1.202 0 00-1.7 1.7l1.919 1.919a1.2 1.2 0 001.7 0l4.366-4.366a1.202 1.202 0 00-1.7-1.7zM78.19 46.202h-7.541a1.2 1.2 0 000 2.4h7.541a1.2 1.2 0 000-2.4zm0 10.978h-7.541a1.2 1.2 0 000 2.4h7.541a1.2 1.2 0 000-2.4zm0 10.977h-7.541a1.2 1.2 0 000 2.4h7.541a1.2 1.2 0 000-2.4z" fill="#022086"/></svg>