<svg xmlns="http://www.w3.org/2000/svg" viewBox="0 0 99.673 34.454"><path d="M42 3.877h2.516V14.75H42zm15.066 0V14.75H55l-5.421-6.6v6.6h-2.485V3.877h2.081l5.406 6.6v-6.6zm2.575 0h4.939a6.944 6.944 0 013.13.676 5.061 5.061 0 012.112 1.9 5.351 5.351 0 01.754 2.858 5.351 5.351 0 01-.754 2.858 5.058 5.058 0 01-2.112 1.9 6.941 6.941 0 01-3.13.676h-4.939zm4.815 8.807a3.653 3.653 0 002.6-.909 3.21 3.21 0 00.971-2.462 3.21 3.21 0 00-.971-2.462 3.653 3.653 0 00-2.6-.909h-2.3v6.741zm16.438.047v2.019h-8.415V3.877h8.217v2.019h-5.717v2.361h5.048v1.957h-5.048v2.516zm8.745 2.019l-2.625-3.775-2.579 3.775h-2.886l4.023-5.53-3.821-5.343h2.858l2.5 3.526 2.454-3.526h2.718l-3.79 5.25 4.054 5.623zM44.197 30.321a5.39 5.39 0 01-2.113-2 5.52 5.52 0 01-.769-2.9 5.521 5.521 0 01.769-2.9 5.39 5.39 0 012.113-2 6.277 6.277 0 013.021-.722 6.338 6.338 0 012.555.5 5.121 5.121 0 011.918 1.429l-1.615 1.491a3.474 3.474 0 00-2.734-1.274 3.632 3.632 0 00-1.8.443 3.148 3.148 0 00-1.235 1.235 3.63 3.63 0 00-.443 1.8 3.63 3.63 0 00.443 1.8 3.148 3.148 0 001.235 1.235 3.63 3.63 0 001.8.443 3.456 3.456 0 002.734-1.289l1.615 1.491a5.033 5.033 0 01-1.926 1.444 6.4 6.4 0 01-2.563.5 6.246 6.246 0 01-3.005-.726zm16.127-1.795h-5.048l-.959 2.327h-2.579l4.847-10.873h2.485l4.862 10.873h-2.641zm-.792-1.911l-1.72-4.162-1.724 4.163zm12.462 4.238l-2.1-3.029H67.58v3.029h-2.516v-10.87h4.713a6.042 6.042 0 012.509.482 3.729 3.729 0 011.639 1.367 3.768 3.768 0 01.575 2.1 3.691 3.691 0 01-.583 2.089 3.69 3.69 0 01-1.654 1.344l2.434 3.488zm-.637-8.334a2.644 2.644 0 00-1.724-.489h-2.05v3.79h2.05a2.614 2.614 0 001.724-.5 1.728 1.728 0 00.59-1.4 1.723 1.723 0 00-.59-1.397zm12.473 2.73h2.3v4.411a6.568 6.568 0 01-2.05 1.025 7.963 7.963 0 01-2.345.357 6.359 6.359 0 01-3.045-.722 5.381 5.381 0 01-2.12-2 5.52 5.52 0 01-.769-2.9 5.521 5.521 0 01.769-2.9 5.354 5.354 0 012.136-2 6.48 6.48 0 013.076-.722 6.735 6.735 0 012.594.482 5.14 5.14 0 011.957 1.4l-1.615 1.488a3.737 3.737 0 00-2.812-1.227 3.84 3.84 0 00-1.848.435 3.119 3.119 0 00-1.258 1.227 3.608 3.608 0 00-.451 1.817 3.577 3.577 0 00.451 1.8 3.184 3.184 0 001.25 1.235 3.705 3.705 0 001.825.443 4.079 4.079 0 001.957-.466zm6.842 5.064a5.419 5.419 0 01-2.128-2.011 5.492 5.492 0 01-.769-2.882 5.492 5.492 0 01.769-2.881 5.422 5.422 0 012.128-2.012 6.348 6.348 0 013.052-.73 6.3 6.3 0 013.044.73 5.492 5.492 0 012.128 2.012 5.45 5.45 0 01.777 2.881 5.45 5.45 0 01-.777 2.882 5.488 5.488 0 01-2.128 2.011 6.3 6.3 0 01-3.044.73 6.343 6.343 0 01-3.052-.73zm4.792-1.856a3.178 3.178 0 001.219-1.235 3.63 3.63 0 00.443-1.8 3.631 3.631 0 00-.443-1.8 3.179 3.179 0 00-1.219-1.235 3.454 3.454 0 00-1.74-.443 3.453 3.453 0 00-1.74.443 3.175 3.175 0 00-1.219 1.235 3.63 3.63 0 00-.443 1.8 3.63 3.63 0 00.443 1.8 3.175 3.175 0 001.219 1.235 3.45 3.45 0 001.74.443 3.451 3.451 0 001.74-.443z" fill="#142b57"/><g fill="#142b57"><path d="M14.944 31.148A14.162 14.162 0 013.263 17.225 14.161 14.161 0 0114.944 3.302v-3.3A17.429 17.429 0 000 17.229a17.429 17.429 0 0014.944 17.227zM19.865 0v3.3a14.161 14.161 0 0111.681 13.923 14.162 14.162 0 01-11.681 13.925v3.3a17.429 17.429 0 0014.944-17.221A17.428 17.428 0 0019.865 0z"/><path d="M13.458 20.516a.784.784 0 00.081.018l1.132-1.153-.316-.062a11.239 11.239 0 01-1.586-.41 1.937 1.937 0 01-1.184-1.02h4.553l1.39-1.418c-.212 0-.425-.007-.637-.007a179.511 179.511 0 00-3.817-.002h-1.171a5.731 5.731 0 01-2.664-.58 2.206 2.206 0 01-1.091-1.05h8.672a3.947 3.947 0 011.342.2 2.906 2.906 0 01.418.185 10.23 10.23 0 001.067-.936 4.793 4.793 0 00-.56-.3 4.857 4.857 0 00-1.95-.421 721.269 721.269 0 00-7.047-.009H7.616a3.922 3.922 0 00-.407.028 7.416 7.416 0 01-.264.026l-.194.018-.009.2c-.1 2.512 1.615 3.156 3.274 3.78l.054.021a3.391 3.391 0 001.855 2.332 6.936 6.936 0 001.4.52z"/><path d="M13.584 20.665l-.063-.011c-.03-.005-.06-.013-.091-.021l-.135-.035a7.061 7.061 0 01-1.424-.529 3.511 3.511 0 01-1.9-2.35c-1.7-.638-3.447-1.3-3.346-3.9l.014-.3.3-.028c.1-.007.186-.016.261-.025a4.019 4.019 0 01.421-.028h2.474c2.327 0 4.708-.009 7.049.009a4.96 4.96 0 012 .432 4.991 4.991 0 01.574.3l.13.08-.108.108a10.338 10.338 0 01-1.079.947l-.062.047-.069-.036a2.748 2.748 0 00-.4-.178 3.823 3.823 0 00-1.3-.189H8.359a2.2 2.2 0 00.947.821 5.61 5.61 0 002.608.567h1.17c1.254-.008 2.541-.014 3.818 0h.431l.489.006-1.624 1.658h-4.4a1.861 1.861 0 001.023.784 11.183 11.183 0 001.569.405l.537.105zm-6.715-6.924v.093c-.094 2.424 1.5 3.025 3.2 3.661l.116.044.014.063a3.277 3.277 0 001.792 2.251 6.836 6.836 0 001.375.511l.133.034h.011l.927-.945-.1-.019a11.446 11.446 0 01-1.6-.415 2.047 2.047 0 01-1.253-1.084l-.08-.172h4.68l1.155-1.179h-.352c-1.28-.017-2.563-.01-3.815 0h-1.171a5.846 5.846 0 01-2.719-.594 2.317 2.317 0 01-1.146-1.107l-.079-.172h8.861a4.051 4.051 0 011.383.2 2.767 2.767 0 01.364.156 10.148 10.148 0 00.883-.768 4.715 4.715 0 00-.413-.21 4.712 4.712 0 00-1.9-.411c-2.339-.018-4.72-.014-7.023-.009h-2.5a3.763 3.763 0 00-.394.027 7.264 7.264 0 01-.268.026z"/><path d="M27.641 14.166l-.039.155a.375.375 0 01-.178.238 9.081 9.081 0 00-2.682 2.394l-.152.175a285.375 285.375 0 01-4.487 5.093 6.392 6.392 0 01-2.917 1.83 6.467 6.467 0 01-1.469.267l.434-.49 1.075-1.213a4.892 4.892 0 00.883-.442 5.83 5.83 0 00.366-.253c.65-.486 3.066-3.364 3.068-3.345.63-.67 1.231-1.361 1.814-2.033.624-.714 1.265-1.45 1.941-2.16a2.449 2.449 0 00-1.816-.769 16.085 16.085 0 01-1.8 0 3.954 3.954 0 01-1.148-.242 1.173 1.173 0 01-.447-.384 5.475 5.475 0 00-.246-.274l-.414-.468s1.409.014 1.592.012c.262 0 1.692.021 2.135 0a4.1 4.1 0 012.589.774c.386.255.8.5 1.193.725.178.106.359.212.538.32z"/><path d="M15.432 24.46l1.724-1.947.028-.011a4.769 4.769 0 00.862-.431c.116-.073.233-.154.358-.248a36.577 36.577 0 002.743-2.977c.17-.2.259-.3.313-.351.609-.647 1.18-1.3 1.811-2.03l.064-.073a67.486 67.486 0 011.794-2 2.265 2.265 0 00-1.635-.656 16.241 16.241 0 01-1.81 0 4.08 4.08 0 01-1.184-.25 1.272 1.272 0 01-.5-.419 5.359 5.359 0 00-.242-.269l-.6-.676h.273c.014 0 1.41.016 1.589.012h.445c.545 0 1.369.011 1.685-.007a4.22 4.22 0 012.663.793c.386.255.8.5 1.187.722l.137.081c.134.079.269.159.4.24l.24.146-.061.242a.491.491 0 01-.244.319 8.986 8.986 0 00-2.641 2.363l-.152.175c-1.71 1.98-3.136 3.6-4.489 5.095a6.512 6.512 0 01-2.972 1.865 6.615 6.615 0 01-1.5.272zm1.866-1.741l-1.288 1.453a6.388 6.388 0 001.141-.236 6.269 6.269 0 002.862-1.8 289.444 289.444 0 004.486-5.091l.151-.175a9.167 9.167 0 012.719-2.423.262.262 0 00.115-.161l.017-.067-.086-.053-.4-.238-.136-.08a24.95 24.95 0 01-1.2-.728 3.979 3.979 0 00-2.515-.754c-.324.019-1.153.012-1.7.007h-.44c-.133 0-.9-.005-1.321-.009l.233.263c.1.1.179.194.248.276a1.075 1.075 0 00.4.349 3.838 3.838 0 001.112.234 15.955 15.955 0 001.782 0 2.553 2.553 0 011.9.8l.093.084-.086.09c-.651.683-1.272 1.395-1.874 2.083l-.064.073a65.86 65.86 0 01-1.817 2.036l-.031.033-.271.313a36.266 36.266 0 01-2.782 3.013c-.13.1-.253.183-.374.259a5.036 5.036 0 01-.874.449z"/></g></svg>