<svg xmlns="http://www.w3.org/2000/svg" viewBox="0 0 232.42 44.144"><path d="M53.017 4.22h3.876v16.749h-3.876zm23.211 0v16.749h-3.182L64.695 10.8v10.169h-3.828V4.22h3.206L72.4 14.389V4.22zm3.966 0h7.609a10.7 10.7 0 014.821 1.041 7.8 7.8 0 013.254 2.931 8.243 8.243 0 011.161 4.4 8.243 8.243 0 01-1.161 4.4 7.791 7.791 0 01-3.254 2.931 10.692 10.692 0 01-4.821 1.041h-7.609zm7.417 13.566a5.628 5.628 0 004.008-1.4 4.945 4.945 0 001.5-3.792 4.945 4.945 0 00-1.5-3.792 5.627 5.627 0 00-4.008-1.4h-3.537v10.384zm25.319.07v3.111H99.965V4.218h12.657v3.111h-8.805v3.636h7.776v3.015h-7.776v3.876zm13.47 3.113l-4.043-5.813-3.972 5.814h-4.448l6.2-8.518-5.886-8.231h4.4l3.852 5.431 3.78-5.431h4.187l-5.838 8.087 6.245 8.661zm20.565-.802a8.3 8.3 0 01-3.254-3.087 8.5 8.5 0 01-1.184-4.463 8.5 8.5 0 011.184-4.462 8.3 8.3 0 013.254-3.087 9.669 9.669 0 014.654-1.113 9.762 9.762 0 013.936.766 7.889 7.889 0 012.955 2.2l-2.488 2.3a5.351 5.351 0 00-4.211-1.962 5.6 5.6 0 00-2.776.682 4.85 4.85 0 00-1.9 1.9 5.591 5.591 0 00-.682 2.775 5.591 5.591 0 00.682 2.776 4.849 4.849 0 001.9 1.9 5.592 5.592 0 002.776.682 5.323 5.323 0 004.211-1.986l2.488 2.3a7.753 7.753 0 01-2.967 2.225 9.851 9.851 0 01-3.948.766 9.621 9.621 0 01-4.63-1.112zm24.849-2.764h-7.776l-1.484 3.589h-3.972l7.466-16.749h3.828l7.492 16.749h-4.07zm-1.22-2.943l-2.656-6.412-2.656 6.412zm19.188 6.532l-3.23-4.666h-3.565v4.666h-3.876V4.243h7.25a9.307 9.307 0 013.864.742 5.744 5.744 0 012.524 2.105 5.8 5.8 0 01.885 3.23 5.686 5.686 0 01-.9 3.218 5.684 5.684 0 01-2.548 2.07l3.757 5.384zm-.981-12.837a4.072 4.072 0 00-2.656-.754h-3.158v5.838h3.158a4.027 4.027 0 002.656-.765 2.661 2.661 0 00.909-2.154 2.654 2.654 0 00-.908-2.165zm19.213 4.2h3.541v6.8a10.118 10.118 0 01-3.158 1.579 12.267 12.267 0 01-3.613.55 9.8 9.8 0 01-4.69-1.113 8.289 8.289 0 01-3.266-3.087 8.5 8.5 0 01-1.184-4.463 8.5 8.5 0 011.184-4.462 8.248 8.248 0 013.29-3.087 9.981 9.981 0 014.737-1.113 10.375 10.375 0 014 .742 7.918 7.918 0 013.008 2.15l-2.488 2.3a5.757 5.757 0 00-4.331-1.89 5.915 5.915 0 00-2.847.67 4.8 4.8 0 00-1.938 1.891 5.558 5.558 0 00-.694 2.8 5.51 5.51 0 00.694 2.776 4.9 4.9 0 001.926 1.9 5.707 5.707 0 002.811.682 6.283 6.283 0 003.015-.718zm10.54 7.799a8.347 8.347 0 01-3.278-3.1 8.46 8.46 0 01-1.184-4.439 8.46 8.46 0 011.184-4.438 8.353 8.353 0 013.278-3.1 9.779 9.779 0 014.7-1.125 9.708 9.708 0 014.689 1.125 8.46 8.46 0 013.278 3.1 8.394 8.394 0 011.2 4.438 8.4 8.4 0 01-1.2 4.439 8.454 8.454 0 01-3.278 3.1 9.7 9.7 0 01-4.689 1.125 9.771 9.771 0 01-4.7-1.125zm7.382-2.859a4.9 4.9 0 001.878-1.9 5.591 5.591 0 00.682-2.776 5.592 5.592 0 00-.682-2.775 4.9 4.9 0 00-1.878-1.9 5.32 5.32 0 00-2.68-.682 5.318 5.318 0 00-2.68.682 4.891 4.891 0 00-1.878 1.9 5.592 5.592 0 00-.682 2.775 5.591 5.591 0 00.682 2.776 4.89 4.89 0 001.878 1.9 5.315 5.315 0 002.68.682 5.316 5.316 0 002.68-.682z" fill="#142b57"/><g fill="#142b57"><path d="M19.147 39.91A18.144 18.144 0 014.181 22.072 18.144 18.144 0 0119.147 4.234V0A22.33 22.33 0 000 22.072a22.33 22.33 0 0019.147 22.076zM25.451 0v4.234a18.144 18.144 0 0114.966 17.838A18.144 18.144 0 0125.451 39.91v4.234a22.33 22.33 0 0019.147-22.072A22.33 22.33 0 0025.451 0z"/><path d="M17.242 26.284c.035.009.069.018.1.023l1.45-1.478-.405-.08a14.4 14.4 0 01-2.032-.525 2.482 2.482 0 01-1.517-1.307h5.833q.89-.907 1.78-1.817c-.272 0-.544-.009-.816-.009-.686-.009-1.375-.015-2.061-.015-.95 0-1.9.006-2.828.012l-1.459.006h-.041a7.343 7.343 0 01-3.413-.743 2.827 2.827 0 01-1.4-1.345h11.111a5.057 5.057 0 011.719.251 3.721 3.721 0 01.535.237 13.108 13.108 0 001.367-1.2 6.136 6.136 0 00-.717-.38 6.224 6.224 0 00-2.5-.54 939.188 939.188 0 00-9.029-.012q-1.585 0-3.17.006a5.025 5.025 0 00-.521.035c-.1.012-.211.024-.339.033l-.249.023-.012.254c-.124 3.218 2.07 4.044 4.194 4.844l.069.026a4.345 4.345 0 002.377 2.988 8.885 8.885 0 001.795.667z"/><path d="M17.4 26.475l-.08-.014a1.61 1.61 0 01-.116-.026l-.173-.045a9.046 9.046 0 01-1.825-.678 4.5 4.5 0 01-2.439-3.011c-2.172-.817-4.416-1.665-4.287-4.992l.018-.39.383-.036c.128-.009.239-.02.335-.032a5.155 5.155 0 01.539-.036q1.585 0 3.169-.006a906.94 906.94 0 019.031.012 6.355 6.355 0 012.56.553 6.4 6.4 0 01.736.39l.167.1-.138.139a13.246 13.246 0 01-1.383 1.213l-.079.06-.088-.046a3.523 3.523 0 00-.512-.227 4.9 4.9 0 00-1.669-.242H10.696a2.817 2.817 0 001.213 1.052 7.187 7.187 0 003.342.726l1.5-.006a275.076 275.076 0 015.444.005l.626.008-2.077 2.128h-5.64a2.385 2.385 0 001.311 1 14.329 14.329 0 002.01.519l.689.135zm-8.6-8.872l-.006.119c-.12 3.106 1.927 3.876 4.094 4.691l.148.057.018.081a4.2 4.2 0 002.3 2.884 8.759 8.759 0 001.762.654l.171.044h.015l1.188-1.21-.122-.024a14.663 14.663 0 01-2.055-.531 2.623 2.623 0 01-1.606-1.388l-.1-.221h6.011l1.48-1.511h-.451a234.24 234.24 0 00-4.888 0l-1.5.006a7.49 7.49 0 01-3.484-.761 2.968 2.968 0 01-1.469-1.418l-.1-.22h11.353a5.19 5.19 0 011.771.26 3.549 3.549 0 01.467.2 13 13 0 001.131-.984c-.173-.1-.351-.19-.529-.27a6.037 6.037 0 00-2.436-.526c-3-.024-6.048-.018-9-.012-1.086 0-2.143.006-3.2.006a4.821 4.821 0 00-.5.034c-.1.012-.213.024-.344.033z"/><path d="M35.413 18.15l-.05.2a.48.48 0 01-.227.305 11.634 11.634 0 00-3.437 3.068l-.194.224c-2.18 2.525-4.006 4.6-5.749 6.525a8.19 8.19 0 01-3.737 2.345 8.285 8.285 0 01-1.882.342l.556-.628 1.378-1.554a6.267 6.267 0 001.132-.566c.159-.1.316-.21.469-.324.833-.623 3.928-4.31 3.931-4.286.808-.858 1.578-1.743 2.324-2.6.8-.915 1.621-1.858 2.487-2.767a3.137 3.137 0 00-2.327-.985 20.6 20.6 0 01-2.3-.006 5.065 5.065 0 01-1.471-.31 1.5 1.5 0 01-.573-.493c-.087-.1-.191-.221-.316-.351l-.531-.6s1.8.018 2.039.015c.336 0 2.168.027 2.736-.006a5.25 5.25 0 013.318.991 30.8 30.8 0 001.528.929c.229.135.46.271.689.41z"/><path d="M19.771 31.338l2.209-2.494.036-.014a6.109 6.109 0 001.1-.552c.148-.093.3-.2.459-.317a46.862 46.862 0 003.515-3.814c.218-.253.331-.384.4-.449a84.854 84.854 0 002.32-2.6l.082-.093c.738-.845 1.5-1.718 2.3-2.562a2.9 2.9 0 00-2.1-.84 20.808 20.808 0 01-2.319-.006 5.228 5.228 0 01-1.516-.32 1.63 1.63 0 01-.636-.537 8.172 8.172 0 00-.31-.345l-.767-.866h.35c.018 0 1.807.021 2.035.015h.57c.7.006 1.754.015 2.159-.009a5.407 5.407 0 013.412 1.016c.494.327 1.023.636 1.521.924l.175.1c.172.1.345.2.516.308l.307.187-.079.31a.629.629 0 01-.313.409 11.513 11.513 0 00-3.384 3.028l-.194.225a371.236 371.236 0 01-5.751 6.527 8.344 8.344 0 01-3.808 2.39 8.475 8.475 0 01-1.916.349zm2.391-2.231l-1.65 1.862a8.184 8.184 0 001.462-.3 8.031 8.031 0 003.667-2.3 370.54 370.54 0 005.747-6.522l.194-.224a11.745 11.745 0 013.484-3.1.336.336 0 00.147-.206l.022-.086-.11-.067c-.17-.1-.342-.2-.513-.305l-.174-.1c-.5-.29-1.034-.6-1.535-.933a5.1 5.1 0 00-3.222-.966c-.416.024-1.478.015-2.18.009h-.564c-.171 0-1.154-.007-1.692-.012l.3.337c.123.128.229.249.318.354a1.378 1.378 0 00.509.447 4.918 4.918 0 001.425.3 20.444 20.444 0 002.284.006 3.271 3.271 0 012.437 1.008l.119.107-.11.115c-.834.875-1.63 1.787-2.4 2.669l-.081.093a85.158 85.158 0 01-2.328 2.609l-.04.043c-.062.07-.2.226-.347.4a46.463 46.463 0 01-3.564 3.86 6.965 6.965 0 01-.479.331 6.453 6.453 0 01-1.126.573z"/></g><path d="M59.509 29.496v7.77h-1.421v-6.549h-4.029v6.549h-1.421v-7.77zm8.015 6.561v1.21h-5.828v-7.77h5.672v1.21h-4.229v2.02h3.752v1.187h-3.752v2.142zm4.807-6.561a4.3 4.3 0 011.759.333 2.558 2.558 0 011.149.955 2.671 2.671 0 01.4 1.476 2.678 2.678 0 01-.4 1.471 2.546 2.546 0 01-1.149.96 4.3 4.3 0 01-1.759.333h-1.754v2.242h-1.443v-7.77zm-.067 4.307a2.217 2.217 0 001.432-.4 1.393 1.393 0 00.488-1.143 1.393 1.393 0 00-.488-1.143 2.217 2.217 0 00-1.432-.4h-1.687v3.086zm10.568 2.254v1.21h-5.828v-7.77h5.672v1.21h-4.224v2.02h3.752v1.187h-3.752v2.142zm6.727-2.831a2.1 2.1 0 011.132.683 1.86 1.86 0 01.389 1.2 1.87 1.87 0 01-.755 1.587 3.6 3.6 0 01-2.187.566h-3.686v-7.77h3.475a3.474 3.474 0 012.043.522 1.706 1.706 0 01.732 1.48 1.865 1.865 0 01-.294 1.055 1.84 1.84 0 01-.849.677zm-3.685-.411h1.932a1.743 1.743 0 001.065-.281.966.966 0 00.366-.821.981.981 0 00-.366-.827 1.717 1.717 0 00-1.066-.283h-1.932zm2.22 3.341q1.532 0 1.532-1.154 0-1.132-1.532-1.132h-2.22v2.287zm8.226 1.221a4.431 4.431 0 01-2.142-.516 3.823 3.823 0 01-1.5-1.432 3.934 3.934 0 01-.544-2.048 3.934 3.934 0 01.544-2.047 3.823 3.823 0 011.5-1.432 4.431 4.431 0 012.142-.516 4.431 4.431 0 012.142.516 3.835 3.835 0 011.5 1.426 3.926 3.926 0 01.544 2.054 3.926 3.926 0 01-.546 2.052 3.835 3.835 0 01-1.5 1.426 4.431 4.431 0 01-2.141.518zm0-1.265a2.8 2.8 0 001.4-.35 2.529 2.529 0 00.977-.977 2.8 2.8 0 00.355-1.4 2.8 2.8 0 00-.355-1.4 2.529 2.529 0 00-.977-.977 2.8 2.8 0 00-1.4-.35 2.8 2.8 0 00-1.4.35 2.529 2.529 0 00-.977.977 2.8 2.8 0 00-.355 1.4 2.8 2.8 0 00.355 1.4 2.529 2.529 0 00.977.977 2.8 2.8 0 001.399.35zm9.646-2.9a2.21 2.21 0 011.093.716 1.8 1.8 0 01.394 1.16 1.779 1.779 0 01-.455 1.216 2.914 2.914 0 01-1.216.794 4.806 4.806 0 01-1.66.278 5.828 5.828 0 01-1.56-.216 5.17 5.17 0 01-1.449-.649l.466-1.055a4.07 4.07 0 001.132.527 4.343 4.343 0 001.232.183 2.832 2.832 0 001.46-.344 1.054 1.054 0 00.583-.944.863.863 0 00-.422-.777 2.174 2.174 0 00-1.163-.267h-1.81v-1.13h1.7a1.688 1.688 0 001.01-.266.846.846 0 00.366-.722.938.938 0 00-.494-.844 2.4 2.4 0 00-1.26-.3 4.124 4.124 0 00-1.077.15 4.186 4.186 0 00-1.043.438l-.455-1.166a5.271 5.271 0 011.271-.483 5.722 5.722 0 011.338-.161 4.6 4.6 0 011.593.266 2.775 2.775 0 011.16.76 1.7 1.7 0 01.433 1.16 1.687 1.687 0 01-.311 1.01 1.987 1.987 0 01-.856.669zm5.983.777h-1.443v3.275h-1.421v-7.77h1.421v3.253h1.487l2.231-3.253h1.528l-2.649 3.765 2.749 4.008h-1.627zm4.907-4.5h1.421v5.517l4.175-5.51h1.343v7.77h-1.422v-5.505l-4.174 5.506h-1.347zm18.882 0v7.77h-.566v-7.26h-5.262v7.26h-.566v-7.77zm6.128 7.826a4.151 4.151 0 01-2.065-.516 3.8 3.8 0 01-1.449-1.408 3.9 3.9 0 01-.527-2.009 3.9 3.9 0 01.527-2.01 3.8 3.8 0 011.449-1.415 4.151 4.151 0 012.065-.516 4.187 4.187 0 012.065.511 3.762 3.762 0 011.449 1.41 3.919 3.919 0 01.527 2.02 3.919 3.919 0 01-.527 2.02 3.762 3.762 0 01-1.449 1.41 4.187 4.187 0 01-2.066.51zm0-.522a3.533 3.533 0 001.765-.444 3.271 3.271 0 001.243-1.215 3.414 3.414 0 00.455-1.748 3.414 3.414 0 00-.455-1.752 3.271 3.271 0 00-1.243-1.227 3.533 3.533 0 00-1.765-.444 3.564 3.564 0 00-1.771.444 3.26 3.26 0 00-1.249 1.227 3.414 3.414 0 00-.455 1.748 3.414 3.414 0 00.455 1.752 3.26 3.26 0 001.249 1.227 3.564 3.564 0 001.77.44zm13.365-3.53a2.167 2.167 0 011.3.633 1.871 1.871 0 01.438 1.3 1.81 1.81 0 01-.7 1.532 3.393 3.393 0 01-2.076.533h-3.341v-7.77h3.13a3.121 3.121 0 011.9.511 1.719 1.719 0 01.683 1.465 1.784 1.784 0 01-.355 1.132 2.027 2.027 0 01-.979.672zm-3.808-.178h2.553a2.425 2.425 0 001.5-.4 1.366 1.366 0 00.522-1.154 1.378 1.378 0 00-.522-1.166 2.425 2.425 0 00-1.5-.4h-2.553zm2.786 3.7q2.2 0 2.2-1.621a1.387 1.387 0 00-.555-1.221 2.865 2.865 0 00-1.643-.389h-2.786v3.23zm8.3.533a4.156 4.156 0 01-2.059-.511 3.773 3.773 0 01-1.443-1.41 3.919 3.919 0 01-.527-2.02 3.919 3.919 0 01.527-2.02 3.773 3.773 0 011.443-1.41 4.156 4.156 0 012.059-.511 4.312 4.312 0 011.554.272 3.2 3.2 0 011.21.8l-.355.366a3.253 3.253 0 00-2.387-.921 3.6 3.6 0 00-1.776.444 3.249 3.249 0 00-1.251 1.237 3.414 3.414 0 00-.455 1.748 3.414 3.414 0 00.455 1.748 3.249 3.249 0 001.254 1.227 3.6 3.6 0 001.776.444 3.255 3.255 0 002.387-.932l.355.366a3.25 3.25 0 01-1.216.81 4.248 4.248 0 01-1.547.277zm9.957-.566v.511h-5.362v-7.77h5.2v.511h-4.629v3.064h4.141v.5h-4.141v3.186zm9.236.511l-.011-6.649-3.249 5.62h-.278l-3.252-5.594v6.627h-.555v-7.77h.477l3.475 6.005 3.475-6.005h.468l.011 7.77zm9.236-7.77l-3.586 6.641a2.544 2.544 0 01-.816.955 1.794 1.794 0 01-1 .311 2.312 2.312 0 01-.888-.2l.178-.466a1.871 1.871 0 00.71.155 1.518 1.518 0 001.31-.877l.266-.455-3.186-6.061h.622l2.875 5.528 2.929-5.528zm11.767 7.77l-.011-6.649-3.249 5.62h-.278l-3.252-5.595v6.627h-.555v-7.77h.477l3.475 6.005 3.475-6.005h.465l.011 7.77zm3.352-7.77h.566v6.816l5.3-6.816h.5v7.77h-.571v-6.8l-5.3 6.8h-.5zm11.944 0a3.484 3.484 0 012.3.694 2.37 2.37 0 01.833 1.926 2.358 2.358 0 01-.833 1.915 3.484 3.484 0 01-2.3.694h-2.22v2.542h-.566v-7.77zm0 4.718a2.9 2.9 0 001.9-.544 1.906 1.906 0 00.655-1.554 1.923 1.923 0 00-.655-1.56 2.882 2.882 0 00-1.9-.549h-2.22v4.21zm10.661-4.715l-3.586 6.638a2.544 2.544 0 01-.816.955 1.794 1.794 0 01-1 .311 2.312 2.312 0 01-.888-.2l.178-.466a1.871 1.871 0 00.71.155 1.518 1.518 0 001.31-.877l.266-.455-3.186-6.061h.622l2.875 5.528 2.931-5.528z" fill="#142b57"/></svg>