<svg xmlns="http://www.w3.org/2000/svg" viewBox="0 0 50.542 66.703" fill="##042287"><path d="M46.559 10.285h-7.566a5.649 5.649 0 00-5.585-4.7H31.66A5.679 5.679 0 0026.01 0H24.6a5.676 5.676 0 00-5.65 5.583H17.2a5.581 5.581 0 00-4 1.618 5.513 5.513 0 00-1.589 3.084H3.983A4.036 4.036 0 000 14.31v48.409A4 4 0 003.983 66.7h42.576a4 4 0 003.983-3.985V14.31a4.036 4.036 0 00-3.983-4.025zM24.6 2.057h1.406a3.589 3.589 0 012.543 1.07 3.69 3.69 0 011.05 2.456H21.01a3.646 3.646 0 013.59-3.526zM13.664 11.22A3.535 3.535 0 0117.2 7.64h16.2a3.6 3.6 0 013.616 3.58v5.289H13.664zm-1.056 7.346h25.425a1.052 1.052 0 00.737-.3 1.038 1.038 0 00.311-.727v-.788h2.645v41.137H8.815V16.749h2.792v.788a1.005 1.005 0 001 1.028zm35.877 44.153a1.941 1.941 0 01-1.926 1.928H3.983a1.941 1.941 0 01-1.926-1.928V14.31a1.977 1.977 0 011.926-1.969h7.624v2.351H7.749a1.007 1.007 0 00-.991 1.039v43.21a.975.975 0 00.991 1h35.043a.975.975 0 00.991-1V15.732a1.007 1.007 0 00-.991-1.04h-3.711v-2.35h7.477a1.977 1.977 0 011.926 1.969z" fill="#042287"/><path d="M19.703 44.043a1.029 1.029 0 001.437.3l14.1-9.4a1.028 1.028 0 10-1.141-1.711l-13.232 8.822-4.13-6.466a1.029 1.029 0 10-1.733 1.109z" fill="#042287"/></svg>