<svg xmlns="http://www.w3.org/2000/svg" viewBox="0 0 66.422 50.092" fill="##042287"><path d="M38.193 35.657H5.507A4.463 4.463 0 011.05 31.2a4.235 4.235 0 01.7-2.374L18.059 2.139a4.43 4.43 0 017.6.024l16.326 26.719a4.152 4.152 0 01.665 2.318 4.463 4.463 0 01-4.457 4.457zM21.85 2.971a1.438 1.438 0 00-1.242.692L4.25 30.431a1.319 1.319 0 00-.229.77 1.49 1.49 0 001.486 1.486h32.686a1.49 1.49 0 001.486-1.487 1.258 1.258 0 00-.193-.713L23.107 3.688a1.451 1.451 0 00-1.257-.717z" fill="#022086"/><path d="M21.85 23.771a1.486 1.486 0 01-1.486-1.486V10.4a1.486 1.486 0 112.971 0v11.885a1.486 1.486 0 01-1.485 1.486zm0 5.944a1.206 1.206 0 01-.565-.119 1.1 1.1 0 01-.475-.327 1.049 1.049 0 01-.327-.478 1.194 1.194 0 01-.119-.562 1.413 1.413 0 01.443-1.043 1.5 1.5 0 012.08 0 1.4 1.4 0 01.449 1.043 1.194 1.194 0 01-.119.562 1.1 1.1 0 01-.327.478 1.056 1.056 0 01-.475.327 1.214 1.214 0 01-.565.119zm26.743 8.973a1.486 1.486 0 01-1.486-1.486v-6a1.486 1.486 0 112.971 0v6a1.486 1.486 0 01-1.485 1.486zM32.25 45.285a1.486 1.486 0 01-1.486-1.486v-3.684a1.486 1.486 0 012.971 0v3.684a1.484 1.484 0 01-1.485 1.486z" fill="#022086"/><path d="M64.936 45.284a1.486 1.486 0 01-1.486-1.486V32.685H50.078v4.517a1.486 1.486 0 11-2.971 0v-6a1.486 1.486 0 011.486-1.488h16.343a1.486 1.486 0 011.486 1.486v12.6a1.484 1.484 0 01-1.486 1.484z" fill="#022086"/><path d="M56.021 32.686a1.486 1.486 0 01-1.486-1.486V20.8h-10.4a1.486 1.486 0 010-2.971h11.886a1.486 1.486 0 011.486 1.486V31.2a1.486 1.486 0 01-1.486 1.486z" fill="#022086"/><path d="M48.593 20.8a1.486 1.486 0 01-1.486-1.486V10.4a1.486 1.486 0 112.971 0v8.914a1.486 1.486 0 01-1.485 1.486z" fill="#022086"/><path fill="none" stroke="#022086" stroke-linecap="round" stroke-width="3" d="M1.5 48.592h32.627"/></svg>