<svg xmlns="http://www.w3.org/2000/svg" viewBox="0 0 66.683 56.714" fill="##042287"><path d="M1.227 3.704l7.5-1.56a4.967 4.967 0 015.868 3.847l7.624 36.645a7.229 7.229 0 109.539 6.464L65.875 42a1.021 1.021 0 10-.415-2l-34.1 7.094a7.226 7.226 0 00-7.139-4.84L16.587 5.576A7 7 0 008.307.148l-7.5 1.56a1.021 1.021 0 10.415 2zM24.549 44.29a5.207 5.207 0 11-1.068.111 5.207 5.207 0 011.068-.111z" fill="#042287"/><path d="M25.116 19.805a1.018 1.018 0 001.206.79l2.484-.517 4.834 23.234a1.019 1.019 0 001.206.79l30.157-6.274a1.019 1.019 0 00.79-1.206l-4.834-23.234 2.432-.506a1.019 1.019 0 00.79-1.206l-1.4-6.741a1.019 1.019 0 00-1.206-.79l-37.07 7.713a1.019 1.019 0 00-.79 1.206zM63.59 36.041L35.429 41.9l-4.627-22.238 8.327-1.733 2.447 11.762a1.019 1.019 0 001.693.539l3.655-3.4 4.832 1.646a1.019 1.019 0 001.327-1.173l-2.447-11.762 8.327-1.733zM41.125 17.516l7.514-1.564 2.083 10.014-3.719-1.266a1.019 1.019 0 00-1.023.218l-2.777 2.587zM60.991 6.35l.987 4.745-35.073 7.3-.987-4.745z" fill="#042287"/></svg>