<svg xmlns="http://www.w3.org/2000/svg" viewBox="0 0 60.592 56.369" fill="##042287"><path d="M57.158 3.201a11.26 11.26 0 00-15.727 0 11.587 11.587 0 00-.881.976 27.654 27.654 0 1014 17.835l2.777-2.893a11.705 11.705 0 002.569-4 10.756 10.756 0 00.674-4.511 11.478 11.478 0 00-3.412-7.407zM27.68 3.046a25.705 25.705 0 012.952.173 32.5 32.5 0 00-8.027 7.959 3.973 3.973 0 00-4.679 2.021 32.736 32.736 0 00-2.672-.111 32.118 32.118 0 00-8.795 1.22A25.636 25.636 0 0127.68 3.046zm-4.254 11.947a1.945 1.945 0 11-1.946-1.941 1.945 1.945 0 011.946 1.941zM27.68 54.33A25.634 25.634 0 014.918 16.893l.019.051a30.011 30.011 0 0110.318-1.815c.746 0 1.5.029 2.249.085a3.947 3.947 0 001.418 2.84 32.3 32.3 0 00-1.6 17.626 3.978 3.978 0 002.378 7.437 32.142 32.142 0 008.574 11.208c-.201.002-.394.005-.594.005zm-8.932-17.05a1.945 1.945 0 11-1.437 1.879 1.945 1.945 0 011.438-1.879zm26.544 10.028a25.576 25.576 0 01-14.021 6.77 30.133 30.133 0 01-9.672-11.7 3.98 3.98 0 00-2.3-7.2 30.234 30.234 0 01-.5-5.5 29.926 29.926 0 011.98-10.754 3.977 3.977 0 004.28-2.159 30.179 30.179 0 0118.764 18.939 3.983 3.983 0 001.464 7.415c.049.707.076 1.419.076 2.126 0 .684-.024 1.375-.07 2.063zm.774-6.215a1.814 1.814 0 01-.278.02 1.945 1.945 0 01-.466-3.834 1.906 1.906 0 01.466-.057 1.945 1.945 0 01.278 3.87zm1.332 3.97c0-.738-.032-1.479-.087-2.216a3.982 3.982 0 00-1.516-7.662 32.2 32.2 0 00-20.339-20.442 4 4 0 00-1.1-2.5 30.42 30.42 0 019.25-8.5 25.551 25.551 0 015.8 2.143 11.45 11.45 0 00-1.387 4.726 10.76 10.76 0 00.674 4.511 11.7 11.7 0 002.569 4l7.3 7.615a1.019 1.019 0 001.472 0l2.822-2.945a25.82 25.82 0 01.471 4.9 25.525 25.525 0 01-5.924 16.374zM57.98 14.406a9.681 9.681 0 01-2.131 3.3l-6.559 6.847-6.56-6.847a9.682 9.682 0 01-2.13-3.3 8.734 8.734 0 01-.551-3.661 9.441 9.441 0 012.807-6.091 9.221 9.221 0 0112.868 0 9.441 9.441 0 012.807 6.091 8.734 8.734 0 01-.551 3.66z" fill="#042287"/><path d="M49.295 5.061a5.494 5.494 0 105.466 5.494 5.494 5.494 0 00-5.466-5.494zm0 8.949a3.455 3.455 0 113.427-3.455 3.455 3.455 0 01-3.427 3.455z" fill="#042287"/></svg>