<svg xmlns="http://www.w3.org/2000/svg" viewBox="0 0 67.272 64.635" fill="##042287"><path d="M67.268 51.127v-.044c0-.015 0-.032-.007-.048s-.006-.03-.009-.045l-.012-.045c-.005-.015-.008-.03-.014-.045l-.016-.044c-.006-.014-.011-.029-.018-.043l-.02-.042c-.006-.014-.014-.027-.022-.041l-.024-.039-.027-.041a.354.354 0 00-.026-.035l-.033-.04-.015-.018-5.091-5.57a2.956 2.956 0 00-2.158-.97h-5.441v-2.294a2.832 2.832 0 00-2.861-2.88h-.734a19.021 19.021 0 00.463-4.089V13.063a.942.942 0 00-.521-.856L26.031.097a.947.947 0 00-.836 0L.532 12.176a.952.952 0 00-.532.856v21.722a22.618 22.618 0 009.092 17.2l15.985 10.9a.953.953 0 001.074 0l4.793-3.258a2.941 2.941 0 002.593 1.58h1.622a4.411 4.411 0 008.614 0H55.02a4.411 4.411 0 008.614 0h.708a2.951 2.951 0 002.929-2.951v-7.046l-.003-.052zM30.64 57.508l-5.009 3.4-15.456-10.531a20.559 20.559 0 01-8.268-15.624V13.626L25.6 2.015l23.7 11.642v21.1a17.256 17.256 0 01-.517 4.089h-4.389a14.064 14.064 0 00.818-4.37v-17.4a.974.974 0 00-.555-.856L26.046 7.081a.966.966 0 00-.845 0L6.563 16.189a.989.989 0 00-.571.856v17.428a17.005 17.005 0 006.65 12.514l12.418 8.456a.979.979 0 00.546.166 1.021 1.021 0 00.558-.166l4.477-3.039zm0-15.785v8.374l-5.009 3.405-11.906-8.09A15.113 15.113 0 017.9 34.473V17.638l17.7-8.64 17.7 8.667v16.808a13.2 13.2 0 01-.938 4.37h-8.83a2.862 2.862 0 00-2.9 2.88zm8.826 20.984a2.506 2.506 0 112.506-2.506 2.506 2.506 0 01-2.506 2.506zm12.963-11.5v8.067h-8.656a4.412 4.412 0 00-8.614 0h-1.623a1.015 1.015 0 01-.99-1.044v-16.5a.954.954 0 01.99-.974h17.938a.926.926 0 01.955.974zm1.906-5.278h5.436a1.063 1.063 0 01.753.37l3.625 3.988h-9.814zm4.992 16.783a2.506 2.506 0 112.506-2.506 2.506 2.506 0 01-2.506 2.501zm6.038-4.482a1.043 1.043 0 01-1.023 1.044h-.708a4.412 4.412 0 00-8.614 0h-.685v-7.086h11.03z" fill="#022086"/><path d="M31.282 26.81l-7.56 6.924-3.719-4.032a.953.953 0 10-1.4 1.292l4.363 4.731a.953.953 0 001.344.057l8.261-7.566a.953.953 0 10-1.288-1.406z" fill="#022086"/></svg>