<svg xmlns="http://www.w3.org/2000/svg" viewBox="0 0 68.437 70.77"><path d="M68.437 37.62a6.516 6.516 0 00-6.509-6.509h-11.8a20.677 20.677 0 002.8-10.743v-.7a8.778 8.778 0 00-8.641-8.776h-.066a4.459 4.459 0 00-4.394 4.012c-.879 10.613-11.106 16.082-17.946 19.408v-1.1a2.077 2.077 0 00-2.077-2.077H2.077A2.077 2.077 0 000 33.212v35.451a2.077 2.077 0 002.077 2.077h13.294a6.515 6.515 0 005.823-3.606c7.4 3.214 13.826 3.632 21.207 3.632 1.261 0 2.55-.012 3.877-.025a472.12 472.12 0 014.572-.028h6.568a6.506 6.506 0 005.6-9.816 6.5 6.5 0 002.216-8.863 6.5 6.5 0 001.412-9.945 6.485 6.485 0 001.791-4.469zM17.726 64.236a2.357 2.357 0 01-2.354 2.354h-2.355v-6.786a2.077 2.077 0 10-4.154 0v6.786H4.155v-31.3h13.571v28.943zm39.771-20.107h4.352a2.354 2.354 0 010 4.708h-4.352a2.077 2.077 0 100 4.154h2.136a2.354 2.354 0 010 4.708h-2.215a2.077 2.077 0 000 4.154 2.354 2.354 0 110 4.708H50.85c-1.609 0-3.135.014-4.612.028-9.26.087-16.063.152-24.331-3.687V38.915l.664-.321c3.611-1.741 8.556-4.125 12.809-7.737 5.206-4.421 8.095-9.673 8.586-15.609a.307.307 0 01.253-.2 4.645 4.645 0 014.551 4.624v.7c0 4.318-1.126 7.05-3.482 10.743h-3.3a2.077 2.077 0 000 4.154h19.94a2.354 2.354 0 010 4.708h-4.431a2.078 2.078 0 000 4.155zm6.62-28.778h-4.428a2.077 2.077 0 100 4.154h4.431a2.077 2.077 0 000-4.154z" fill="#fff"/><path d="M33.098 15.351h-4.431a2.077 2.077 0 100 4.154h4.431a2.077 2.077 0 100-4.154zm8.445-10.474l-2.216-3.838a2.078 2.078 0 10-3.6 2.077l2.216 3.838a2.078 2.078 0 103.6-2.077zM56.293.279a2.077 2.077 0 00-2.837.76L51.24 4.877a2.077 2.077 0 103.595 2.077l2.216-3.838a2.077 2.077 0 00-.758-2.837z" fill="#fff"/></svg>