<svg xmlns="http://www.w3.org/2000/svg" viewBox="0 0 138.108 134.346"><path d="M135.411 112.261a2.7 2.7 0 00-2.7 2.7v13.993H5.395v-13.996a2.7 2.7 0 10-5.395 0v16.69a2.7 2.7 0 002.7 2.7h132.711a2.7 2.7 0 002.7-2.7v-16.69a2.7 2.7 0 00-2.7-2.697zm0-38.27h-15.229L76.191 51.84a13.091 13.091 0 00-4.439-23.789v-5.16A20.405 20.405 0 0089.433 2.697a2.7 2.7 0 00-2.7-2.7h-35.36a2.7 2.7 0 00-2.7 2.7 20.405 20.405 0 0017.684 20.195v7.578a2.7 2.7 0 002.7 2.7 7.7 7.7 0 11-7.023 10.867 2.7 2.7 0 00-4.917 2.221 13.093 13.093 0 004.8 5.587l-43.99 22.146H2.7a2.7 2.7 0 00-2.7 2.7v16.69a2.7 2.7 0 105.395 0V79.386h127.319v13.993a2.7 2.7 0 105.395 0V76.688a2.7 2.7 0 00-2.698-2.697zm-81.1-68.6h29.48a14.985 14.985 0 01-29.48 0zm14.74 48.892l39.132 19.7H29.922z" fill="#fff" fill-rule="evenodd"/><path d="M19.773 118.601V89.736a2.7 2.7 0 10-5.395 0v28.865a2.7 2.7 0 105.395 0zm34.653 0V89.736a2.7 2.7 0 00-5.395 0v28.865a2.7 2.7 0 105.395 0zm-17.326 0V89.736a2.7 2.7 0 10-5.395 0v28.865a2.7 2.7 0 105.395 0zm51.977 0V89.736a2.7 2.7 0 10-5.395 0v28.865a2.7 2.7 0 105.395 0zm34.653 0V89.736a2.7 2.7 0 10-5.395 0v28.865a2.7 2.7 0 105.395 0zm-51.978 0V89.736a2.7 2.7 0 10-5.395 0v28.865a2.7 2.7 0 105.395 0zm34.652 0V89.736a2.7 2.7 0 10-5.395 0v28.865a2.7 2.7 0 105.395 0zM2.7 106.866a2.7 2.7 0 10-2.7-2.7 2.7 2.7 0 002.7 2.7zm132.714-5.395a2.7 2.7 0 102.7 2.7 2.7 2.7 0 00-2.7-2.7z" fill="#fff" fill-rule="evenodd"/></svg>