<svg xmlns="http://www.w3.org/2000/svg" viewBox="0 0 242.52 83.833"><path d="M102.191 9.434h6.122V35.89h-6.122zm36.659 0V35.89h-5.026l-13.191-16.063V35.89h-6.046V9.434h5.063l13.152 16.063V9.434zm6.271 0h12.018a16.9 16.9 0 017.616 1.644 12.316 12.316 0 015.14 4.63 13.02 13.02 0 011.833 6.954 13.02 13.02 0 01-1.833 6.954 12.307 12.307 0 01-5.14 4.629 16.888 16.888 0 01-7.616 1.644h-12.018zm11.716 21.429a8.889 8.889 0 006.33-2.211 7.81 7.81 0 002.362-5.99 7.811 7.811 0 00-2.362-5.99 8.889 8.889 0 00-6.33-2.211h-5.593v16.4zm39.99.113v4.913h-20.481V9.433h19.993v4.913h-13.912v5.744h12.283v4.763h-12.283v6.122zm21.278 4.914l-6.387-9.184-6.274 9.184h-7.027l9.789-13.455-9.3-13h6.954l6.085 8.579 5.971-8.579h6.614l-9.222 12.774 9.864 13.682zM107.543 73.775a13.116 13.116 0 01-5.14-4.876 13.432 13.432 0 01-1.87-7.049 13.433 13.433 0 011.87-7.048 13.116 13.116 0 015.14-4.876 15.272 15.272 0 017.351-1.757 15.421 15.421 0 016.217 1.209 12.462 12.462 0 014.663 3.479l-3.931 3.627a8.452 8.452 0 00-6.651-3.1 8.838 8.838 0 00-4.384 1.077 7.66 7.66 0 00-3 3.005 8.832 8.832 0 00-1.077 4.384 8.831 8.831 0 001.077 4.384 7.659 7.659 0 003 3 8.833 8.833 0 004.384 1.077 8.408 8.408 0 006.651-3.137l3.931 3.628a12.247 12.247 0 01-4.686 3.514 15.56 15.56 0 01-6.236 1.21 15.2 15.2 0 01-7.309-1.751zm39.245-4.366h-12.283l-2.344 5.669h-6.274l11.793-26.456h6.047l11.83 26.456h-6.425zm-1.927-4.649l-4.2-10.129-4.2 10.129zm30.31 10.318l-5.1-7.37h-5.631v7.37h-6.123V48.622h11.452a14.7 14.7 0 016.1 1.172 9.073 9.073 0 013.987 3.326 9.168 9.168 0 011.4 5.1 8.981 8.981 0 01-1.417 5.083 8.977 8.977 0 01-4.026 3.269l5.934 8.5zm-1.545-20.277a6.432 6.432 0 00-4.2-1.191h-4.989v9.222h4.989a6.36 6.36 0 004.2-1.209 4.2 4.2 0 001.436-3.4 4.192 4.192 0 00-1.436-3.422zm30.344 6.634h5.594v10.733a15.981 15.981 0 01-4.989 2.494 19.375 19.375 0 01-5.707.87 15.472 15.472 0 01-7.408-1.757 13.092 13.092 0 01-5.159-4.876 13.432 13.432 0 01-1.871-7.049 13.432 13.432 0 011.871-7.048 13.028 13.028 0 015.2-4.876 15.765 15.765 0 017.483-1.757 16.388 16.388 0 016.312 1.172 12.507 12.507 0 014.761 3.4l-3.93 3.628a9.094 9.094 0 00-6.841-2.986 9.344 9.344 0 00-4.5 1.058 7.59 7.59 0 00-3.061 2.986 8.779 8.779 0 00-1.1 4.421 8.7 8.7 0 001.1 4.384 7.747 7.747 0 003.042 3 9.015 9.015 0 004.441 1.077 9.925 9.925 0 004.762-1.134zm16.647 12.322a13.184 13.184 0 01-5.174-4.9 13.364 13.364 0 01-1.871-7.011 13.363 13.363 0 011.871-7.011 13.193 13.193 0 015.178-4.895 15.447 15.447 0 017.427-1.776 15.335 15.335 0 017.407 1.776 13.364 13.364 0 015.178 4.895 13.259 13.259 0 011.889 7.011 13.26 13.26 0 01-1.892 7.011 13.354 13.354 0 01-5.178 4.894 15.323 15.323 0 01-7.407 1.777 15.435 15.435 0 01-7.428-1.771zm11.66-4.516a7.733 7.733 0 002.966-3 8.832 8.832 0 001.077-4.384 8.832 8.832 0 00-1.077-4.39 7.734 7.734 0 00-2.966-3.005 8.4 8.4 0 00-4.233-1.077 8.4 8.4 0 00-4.233 1.077 7.727 7.727 0 00-2.968 3.005 8.832 8.832 0 00-1.077 4.384 8.831 8.831 0 001.077 4.384 7.726 7.726 0 002.966 3 8.4 8.4 0 004.233 1.077 8.4 8.4 0 004.236-1.073z" fill="#fff"/><g fill="#fff"><path d="M36.361 75.792A34.457 34.457 0 017.939 41.916 34.457 34.457 0 0136.361 8.041V0A42.407 42.407 0 000 41.916a42.407 42.407 0 0036.361 41.917zM48.334 0v8.041a34.456 34.456 0 0128.422 33.876 34.457 34.457 0 01-28.422 33.875v8.041a42.407 42.407 0 0036.361-41.917A42.406 42.406 0 0048.334 0z"/><path d="M32.744 49.918c.066.017.131.033.2.044l2.754-2.806-.77-.151a27.344 27.344 0 01-3.859-1 4.714 4.714 0 01-2.881-2.482h11.078q1.69-1.723 3.381-3.451c-.517-.006-1.034-.017-1.551-.017-1.3-.017-2.611-.028-3.914-.028-1.8 0-3.6.011-5.371.022l-2.771.011h-.077a13.945 13.945 0 01-6.482-1.411 5.369 5.369 0 01-2.655-2.554l7.136-.006q6.984 0 13.964.006a9.6 9.6 0 013.265.476 7.069 7.069 0 011.016.45 24.889 24.889 0 002.6-2.276 11.66 11.66 0 00-1.363-.723 11.819 11.819 0 00-4.744-1.025c-5.712-.044-11.529-.033-17.147-.022q-3.01.008-6.02.011a9.547 9.547 0 00-.989.067c-.187.023-.4.045-.643.062l-.472.044-.022.482c-.236 6.112 3.931 7.68 7.966 9.2l.132.05a8.251 8.251 0 004.514 5.675 16.875 16.875 0 003.409 1.266c.098.034.205.058.316.086z"/><path d="M33.043 50.28l-.153-.027a2.925 2.925 0 01-.221-.05l-.328-.085a17.179 17.179 0 01-3.466-1.288 8.543 8.543 0 01-4.631-5.718c-4.125-1.552-8.386-3.162-8.141-9.48l.034-.74.728-.069c.243-.017.453-.039.636-.06a9.781 9.781 0 011.024-.069q3.01 0 6.019-.012c5.661-.011 11.456-.022 17.15.023a12.069 12.069 0 014.862 1.05 12.143 12.143 0 011.4.741l.317.2-.263.263a25.161 25.161 0 01-2.626 2.3l-.15.114-.167-.088a6.688 6.688 0 00-.973-.432 9.3 9.3 0 00-3.17-.46q-6.977-.008-13.964-.006l-6.649.005a5.35 5.35 0 002.3 2 13.649 13.649 0 006.346 1.379l2.847-.011a472 472 0 019.291.006c.347 0 .7.005 1.049.01l1.19.014-3.952 4.033H28.676a4.529 4.529 0 002.489 1.908 27.21 27.21 0 003.818.986l1.308.256zM16.704 33.432l-.011.226c-.228 5.9 3.659 7.36 7.775 8.908l.281.108.035.154a7.974 7.974 0 004.362 5.475 16.633 16.633 0 003.347 1.242l.324.084.028.007 2.256-2.3-.231-.045a27.849 27.849 0 01-3.9-1.009 4.981 4.981 0 01-3.049-2.636l-.194-.419h11.416l2.811-2.869c-.286 0-.571-.007-.857-.007-3.114-.04-6.237-.025-9.283-.006l-2.85.011a14.224 14.224 0 01-6.616-1.445 5.637 5.637 0 01-2.789-2.693l-.192-.418 7.6-.006q6.985 0 13.964.006a9.855 9.855 0 013.364.494 6.738 6.738 0 01.886.38 24.686 24.686 0 002.148-1.869c-.329-.189-.666-.36-1-.512a11.464 11.464 0 00-4.626-1c-5.691-.045-11.485-.035-17.088-.023-2.063.006-4.07.012-6.077.012a9.151 9.151 0 00-.959.065 14.37 14.37 0 01-.653.063z"/><path d="M67.253 34.468l-.1.378a.912.912 0 01-.432.58c-2.648 1.339-4.532 3.518-6.521 5.826l-.369.426c-4.139 4.795-7.609 8.733-10.918 12.391a15.554 15.554 0 01-7.1 4.453 15.734 15.734 0 01-3.574.65l1.056-1.193 2.616-2.952a11.9 11.9 0 002.149-1.075c.3-.191.6-.4.891-.616 1.583-1.182 7.46-8.185 7.465-8.14 1.534-1.63 3-3.311 4.414-4.946 1.517-1.737 3.079-3.529 4.723-5.254a5.958 5.958 0 00-4.416-1.872 39.126 39.126 0 01-4.371-.012 9.618 9.618 0 01-2.793-.588 2.853 2.853 0 01-1.088-.935c-.165-.2-.363-.42-.6-.667l-1.012-1.138s3.427.035 3.872.029c.638-.006 4.118.05 5.2-.011a9.97 9.97 0 016.3 1.882c.94.622 1.935 1.2 2.9 1.765.434.257.874.515 1.309.779z"/><path d="M37.547 59.513l4.2-4.736.068-.027a11.6 11.6 0 002.1-1.049c.282-.177.567-.374.871-.6 1.211-.9 5.04-5.346 6.675-7.243.414-.48.629-.73.763-.853l-.009-.008c1.481-1.574 2.872-3.168 4.407-4.938l.155-.177c1.4-1.6 2.85-3.262 4.365-4.865a5.511 5.511 0 00-3.979-1.595 39.519 39.519 0 01-4.4-.011 9.93 9.93 0 01-2.88-.607 3.1 3.1 0 01-1.208-1.019 13.408 13.408 0 00-.588-.654l-1.457-1.645.665.007c.034 0 3.432.04 3.865.029.178 0 .576 0 1.082.006 1.326.011 3.331.028 4.1-.017a10.269 10.269 0 016.479 1.93c.939.621 1.942 1.208 2.889 1.756l.333.2c.327.193.655.388.98.585l.583.355-.149.588a1.194 1.194 0 01-.594.776c-2.6 1.309-4.457 3.467-6.426 5.751l-.382.415a715.486 715.486 0 01-10.923 12.4 15.845 15.845 0 01-7.231 4.538 16.1 16.1 0 01-3.639.662zm4.541-4.236l-3.133 3.536a15.543 15.543 0 002.776-.573 15.252 15.252 0 006.963-4.373c3.289-3.636 6.757-7.571 10.914-12.387l.368-.425c2.009-2.329 3.906-4.53 6.616-5.9a.638.638 0 00.279-.392l.042-.164-.21-.128a118.96 118.96 0 00-.974-.58l-.331-.2c-.952-.551-1.964-1.142-2.915-1.772a9.681 9.681 0 00-6.12-1.834c-.789.045-2.806.029-4.14.017-.5 0-.894-.009-1.071-.006-.324.006-2.191-.013-3.213-.023l.568.641c.233.244.435.473.6.673a2.616 2.616 0 00.967.85 9.341 9.341 0 002.707.57 38.825 38.825 0 004.337.011 6.212 6.212 0 014.633 1.947l.226.2-.21.219c-1.583 1.663-3.1 3.394-4.559 5.069l-.155.177c-1.538 1.774-2.933 3.372-4.421 4.954l-.077.081c-.117.132-.373.429-.659.761-1.648 1.912-5.507 6.389-6.768 7.331-.317.238-.615.444-.911.629a12.25 12.25 0 01-2.129 1.091z"/></g></svg>