<svg xmlns="http://www.w3.org/2000/svg" viewBox="0 0 132.734 120.057"><path d="M132.734 16.424v-.044c0-.058 0-.115-.012-.171 0-.021-.006-.041-.01-.062a2.3 2.3 0 00-.029-.154c0-.02-.01-.04-.015-.06a1.777 1.777 0 00-.052-.161c0-.01-.006-.02-.01-.03l-5.274-13.5a3.5 3.5 0 00-3.28-2.24h-9.6a1.9 1.9 0 000 3.791h9.42l4.2 10.745H88.379L85.893 3.791h14.656a1.9 1.9 0 100-3.791H23.87a3.5 3.5 0 00-3.28 2.24l-5.274 13.5c0 .01-.006.02-.01.03-.02.053-.037.106-.052.161l-.015.06c-.012.051-.022.1-.029.154 0 .021-.007.041-.01.062-.006.057-.01.114-.012.171v27.899a1.9 1.9 0 103.791 0v-25.95h40.173v28.809a2.868 2.868 0 004.769 2.147L73.96 40.39 84 49.283a2.868 2.868 0 004.77-2.147V18.327h40.176v85.013a2.47 2.47 0 01-2.467 2.467H91.724v-.065c0-.17-.008-.34-.023-.508a6.82 6.82 0 008.029-9.238 7.25 7.25 0 00-.217-.463l-.042-.083q-.114-.216-.242-.422l-.051-.079a6.537 6.537 0 00-.284-.412l-.006-.007c-.1-.131-.2-.258-.312-.382l-.059-.068q-.161-.179-.333-.346l-.068-.064a6.814 6.814 0 00-.373-.327l-.013-.01c-.127-.1-.258-.2-.392-.291l-.073-.051q-.2-.135-.412-.257l-.034-.021a6.824 6.824 0 00-1.28-11.184q-.3-.157-.615-.286l-29.5-12.028 13.731-4.25a6.227 6.227 0 004.1-7.766 6.085 6.085 0 00-2.08-3 6.381 6.381 0 00-5.236-1.228l-.027.006c-.1.024-10.631 2.391-21.625 4.534l-1.431.277-1.107.212-.312.059q-.961.182-1.864.35l-.72.133c-13.807 2.543-17.685 2.589-18.762 2.443h-.012l-.047-.007-.032-.01h-.022a1.472 1.472 0 01-.16-.037l-.311-.127.387-.949a3.749 3.749 0 00-.016-2.888 3.817 3.817 0 00-.355-.656 3.747 3.747 0 00-1.7-1.375l-10.18-4.151a3.773 3.773 0 00-4.916 2.065L.279 83.38a3.778 3.778 0 002.069 4.918l10.18 4.151a3.773 3.773 0 004.918-2.069l.094-.229 2.347.957A20.82 20.82 0 0126 94.95q.488.442.949.915t.89.975q.215.251.422.509a24.628 24.628 0 009.89 7.379l2.641 1.077H21.443a2.47 2.47 0 01-2.467-2.467v-4.8a1.9 1.9 0 00-3.791 0v4.8a6.264 6.264 0 006.257 6.257h28.64L74.5 119.55a6.818 6.818 0 009.354-7.044 7.04 7.04 0 003.78-.5 6.758 6.758 0 002.932-2.411h35.911a6.264 6.264 0 006.257-6.257V16.432a.068.068 0 010-.008zM65.917 3.791H82l2.486 10.745H63.431zM59.54 14.536H19.856l4.2-10.745h37.971zm25.437 30.55l-9.116-8.076a2.871 2.871 0 00-3.8 0l-9.115 8.076V18.327h22.031zM13.943 88.933L3.8 84.795l12.435-30.5 10.148 4.138zm75.722 11.438l-2.175-.887h-.006L64.83 90.247a1.9 1.9 0 00-1.43 3.503l22.655 9.237a3.022 3.022 0 01.275.128c.025.013.048.029.072.043.062.035.125.071.184.11.028.019.054.041.082.06.052.037.105.074.155.115.03.024.057.052.086.077.044.039.089.077.131.118s.054.06.082.089.077.081.113.124.051.068.077.1l.1.128c.034.044.047.076.07.113s.055.086.08.131.041.083.061.124.045.088.065.133.034.089.051.133.036.089.051.135.026.093.039.139.027.091.038.137.017.095.026.142.018.094.025.142.009.1.012.144.01.1.011.144v.291c0 .048-.01.094-.015.141s-.01.1-.018.151-.019.092-.029.138-.02.1-.034.153-.028.089-.042.134-.031.1-.05.152l-.047.1c0 .008-.005.016-.008.024a2.946 2.946 0 01-1.556 1.535 3.208 3.208 0 01-2.468.031l-4.014-1.637-.056-.02-.056-.026-18.438-7.499a1.9 1.9 0 00-1.431 3.51l18.426 7.513.06.021c.02.007.034.017.053.025a3.03 3.03 0 11-2.287 5.61L51.174 105.95l-11.593-4.727a20.824 20.824 0 01-8.364-6.241 24.62 24.62 0 00-9.89-7.379l-2.35-.958 4.677-11.485 4.424-10.849.326.133a4.924 4.924 0 001.924.348 49.14 49.14 0 008.276-.7c2.97-.419 6.612-1.026 10.865-1.808l.314-.058.6-.111.473-.088.546-.1.588-.111.476-.09.732-.14.379-.073 1.146-.222a860.875 860.875 0 0022.006-4.61c.047-.01.095-.016.142-.023a2.489 2.489 0 012.759 1.66 2.429 2.429 0 01-1.6 3.032l-18.787 5.809a1.9 1.9 0 00-.155 3.566l34.4 14.028a3.03 3.03 0 01-1.127 5.835h-.017c-.092 0-.184 0-.276-.012-.027 0-.054-.008-.081-.011-.07-.009-.141-.017-.21-.03-.044-.009-.088-.022-.131-.032s-.105-.023-.157-.038-.106-.037-.159-.056-.085-.027-.126-.044l-22.657-9.238a1.9 1.9 0 00-1.431 3.51l27.468 11.2a3.046 3.046 0 01.53.279 3.032 3.032 0 011.231 3.385q-.043.143-.1.284a3.05 3.05 0 01-.131.281 3.1 3.1 0 01-.7.872l-.05.045a3.045 3.045 0 01-3.065.464z" fill="#fff"/></svg>