<svg xmlns="http://www.w3.org/2000/svg" viewBox="0 0 132.085 133.831"><path d="M12.219 51.787v37.531a2.037 2.037 0 002.037 2.037h45.677a2.037 2.037 0 002.037-2.037V51.787a2.037 2.037 0 00-2.037-2.037H14.256a2.037 2.037 0 00-2.037 2.037zm20.075 2.036h9.31v7.875l-3.885-1.68a1.94 1.94 0 00-1.575 0l-3.849 1.68zm-16 0h11.925v10.974a1.987 1.987 0 002.787 1.87l5.917-2.56 5.921 2.56a2.028 2.028 0 002.832-1.87V53.823h12.219v33.458h-41.6zm54.695-2.036v37.531a2.037 2.037 0 002.036 2.037h47.132a2.037 2.037 0 002.037-2.037V51.787a2.036 2.036 0 00-2.037-2.037H73.025a2.037 2.037 0 00-2.036 2.037zm20.366 2.036h10.764v8l-4.707-1.833a1.867 1.867 0 00-1.408 0l-4.65 1.833zm-16.292 0h12.219v10.974a1.955 1.955 0 002.681 1.9l6.738-2.623 6.745 2.623a2.018 2.018 0 002.748-1.9V53.823h12.219v33.458h-43.35zM89.608 0H42.477a2.037 2.037 0 00-2.037 2.037v37.53a2.037 2.037 0 002.037 2.037h47.132a2.037 2.037 0 002.037-2.037V2.037A2.037 2.037 0 0089.608 0zm-28.8 4.073h10.474v7.8l-4.564-1.818a1.769 1.769 0 00-1.382 0l-4.528 1.818zm26.766 33.458H44.513V4.073h12.219v10.79a1.943 1.943 0 002.675 1.9l6.653-2.618 6.662 2.618a2.008 2.008 0 00.739.141 1.812 1.812 0 001.075-.354 1.972 1.972 0 00.816-1.682V4.073h12.219zm25.891 66.624h16.583a2.037 2.037 0 100-4.073H2.037a2.037 2.037 0 100 4.073H18.62v25.6H2.037a2.037 2.037 0 000 4.073h128.012a2.037 2.037 0 000-4.073h-16.584zm-4.073 15.473v10.13h-18.62v-10.13a2.037 2.037 0 10-4.073 0v10.13h-18.62v-10.13a2.037 2.037 0 00-4.073 0v10.13h-18.62v-10.13a2.037 2.037 0 00-4.073 0v10.13h-18.62v-25.6h7.564v10.218a2.037 2.037 0 104.073 0v-10.221h18.62v10.218a2.037 2.037 0 104.073 0v-10.218h18.62v10.218a2.037 2.037 0 104.073 0v-10.218h18.62v10.218a2.037 2.037 0 104.073 0v-10.218h6.982z" fill="#fff"/></svg>