<svg xmlns="http://www.w3.org/2000/svg" viewBox="0 0 102.653 136.166"><g fill="#fff"><path d="M60.023 58.219L46.641 71.601l-4-4a2.927 2.927 0 00-4.139 4.139l6.07 6.07a3 3 0 004.139 0l15.451-15.451a2.927 2.927 0 00-4.139-4.139z"/><path d="M51.332 42.078a25.949 25.949 0 00-18.353 44.285 26.382 26.382 0 0018.349 7.588 25.936 25.936 0 100-51.873zm14.072 40.008a19.866 19.866 0 01-33.938-14.072 18.753 18.753 0 015.794-14.072 19.9 19.9 0 0128.144 28.144z"/><path d="M102.378 27.178v-.138L76.165.69l-.138-.138a.135.135 0 01-.138-.138.135.135 0 01-.138-.138A2.269 2.269 0 0074.372 0H9.393a9.381 9.381 0 00-6.622 2.759A9.635 9.635 0 00.012 9.381v117.4a9.16 9.16 0 002.621 6.622 9.9 9.9 0 006.622 2.759h84.017a9.181 9.181 0 006.484-2.621l.138-.138a9.635 9.635 0 002.759-6.622V28.558a4.081 4.081 0 00-.275-1.38zM76.855 9.933h.138l15.589 15.589h-11.45a4.452 4.452 0 01-2.9-1.1l-.138-.138a4.3 4.3 0 01-1.242-2.9zm20 116.713a3.455 3.455 0 01-1.1 2.483l-.138.138a3.913 3.913 0 01-2.345.966H9.393a3.966 3.966 0 01-2.483-.966 3.325 3.325 0 01-.966-2.483V9.243h-.138a3.966 3.966 0 01.966-2.483 3.325 3.325 0 012.483-.966h61.806v15.59a10.019 10.019 0 003.035 7.174l.138.138a9.7 9.7 0 006.9 2.759h15.727z"/></g></svg>