<svg xmlns="http://www.w3.org/2000/svg" viewBox="0 0 29.452 17.496"><path d="M28.78 1.186c.2-.683 0-1.186-.973-1.186h-3.22a1.383 1.383 0 00-1.4.913 26.983 26.983 0 01-3.958 6.588c-.749.749-1.093.99-1.5.99-.2 0-.514-.241-.514-.924V1.186c0-.82-.23-1.186-.908-1.186h-5.066a.777.777 0 00-.82.738c0 .776 1.159.957 1.279 3.144v4.746c0 1.039-.186 1.23-.6 1.23-1.093 0-3.751-4.013-5.325-8.606C5.462.361 5.15 0 4.325 0H1.104c-.919 0-1.1.432-1.1.913 0 .853 1.093 5.09 5.09 10.689 2.663 3.822 6.413 5.894 9.825 5.894 2.05 0 2.3-.459 2.3-1.252 0-3.652-.186-4 .842-4 .476 0 1.3.241 3.209 2.083 2.187 2.187 2.548 3.166 3.773 3.166h3.22c.919 0 1.383-.459 1.115-1.367-.612-1.908-4.751-5.834-4.937-6.1-.476-.612-.339-.886 0-1.432.005-.005 3.937-5.539 4.341-7.414z" fill="#39a0f6"/></svg>