<svg xmlns="http://www.w3.org/2000/svg" viewBox="0 0 99.673 34.454"><g transform="translate(87.791 189.548)"><g transform="translate(-46.475 -185.671)"><g transform="translate(0 0)"><path d="M96.484-172.536H99v10.873H96.484Z" transform="translate(-95.8 172.536)" fill="#142b57"/><path d="M128.809-172.536v10.873h-2.066l-5.421-6.6v6.6h-2.485v-10.873h2.081l5.406,6.6v-6.6Z" transform="translate(-113.059 172.536)" fill="#142b57"/><path d="M173.9-172.536h4.939a6.944,6.944,0,0,1,3.13.676,5.061,5.061,0,0,1,2.112,1.9,5.351,5.351,0,0,1,.754,2.858,5.351,5.351,0,0,1-.754,2.858,5.058,5.058,0,0,1-2.112,1.9,6.941,6.941,0,0,1-3.13.676H173.9Zm4.815,8.807a3.653,3.653,0,0,0,2.6-.909,3.21,3.21,0,0,0,.971-2.462,3.21,3.21,0,0,0-.971-2.462,3.653,3.653,0,0,0-2.6-.909h-2.3v6.741Z" transform="translate(-155.575 172.536)" fill="#142b57"/><path d="M238.615-163.682v2.019H230.2v-10.873h8.217v2.019H232.7v2.361h5.048v1.957H232.7v2.516Z" transform="translate(-199.037 172.536)" fill="#142b57"/><path d="M278.09-161.663l-2.625-3.775-2.579,3.775H270l4.023-5.53-3.821-5.343h2.858l2.5,3.526,2.454-3.526h2.718l-3.79,5.25,4.054,5.623Z" transform="translate(-229.767 172.536)" fill="#142b57"/><path d="M96.366-92.164a5.39,5.39,0,0,1-2.113-2,5.52,5.52,0,0,1-.769-2.9,5.521,5.521,0,0,1,.769-2.9,5.39,5.39,0,0,1,2.113-2,6.277,6.277,0,0,1,3.021-.722,6.338,6.338,0,0,1,2.555.5,5.121,5.121,0,0,1,1.918,1.429l-1.615,1.491a3.474,3.474,0,0,0-2.734-1.274,3.632,3.632,0,0,0-1.8.443,3.148,3.148,0,0,0-1.235,1.235,3.63,3.63,0,0,0-.443,1.8,3.63,3.63,0,0,0,.443,1.8,3.148,3.148,0,0,0,1.235,1.235,3.63,3.63,0,0,0,1.8.443,3.456,3.456,0,0,0,2.734-1.289l1.615,1.491a5.033,5.033,0,0,1-1.926,1.444,6.4,6.4,0,0,1-2.563.5A6.246,6.246,0,0,1,96.366-92.164Z" transform="translate(-93.485 118.608)" fill="#142b57"/><path d="M147.8-93.327h-5.048L141.793-91h-2.579l4.847-10.873h2.485L151.408-91h-2.641Zm-.792-1.911L145.288-99.4l-1.724,4.163Z" transform="translate(-128.792 117.976)" fill="#142b57"/><path d="M204.617-91l-2.1-3.029h-2.314V-91h-2.516V-101.87H202.4a6.042,6.042,0,0,1,2.509.482,3.729,3.729,0,0,1,1.639,1.367,3.768,3.768,0,0,1,.575,2.1,3.691,3.691,0,0,1-.583,2.089,3.69,3.69,0,0,1-1.654,1.344L207.32-91Zm-.637-8.334a2.644,2.644,0,0,0-1.724-.489h-2.05v3.79h2.05a2.614,2.614,0,0,0,1.724-.5,1.728,1.728,0,0,0,.59-1.4A1.723,1.723,0,0,0,203.98-99.33Z" transform="translate(-173.939 117.976)" fill="#142b57"/><path d="M252.812-97.236h2.3v4.411a6.568,6.568,0,0,1-2.05,1.025,7.963,7.963,0,0,1-2.345.357,6.359,6.359,0,0,1-3.045-.722,5.381,5.381,0,0,1-2.12-2,5.52,5.52,0,0,1-.769-2.9,5.521,5.521,0,0,1,.769-2.9,5.354,5.354,0,0,1,2.136-2,6.48,6.48,0,0,1,3.076-.722,6.735,6.735,0,0,1,2.594.482,5.14,5.14,0,0,1,1.957,1.4L253.7-99.317a3.737,3.737,0,0,0-2.812-1.227,3.84,3.84,0,0,0-1.848.435,3.119,3.119,0,0,0-1.258,1.227,3.608,3.608,0,0,0-.451,1.817,3.577,3.577,0,0,0,.451,1.8,3.184,3.184,0,0,0,1.25,1.235,3.705,3.705,0,0,0,1.825.443,4.079,4.079,0,0,0,1.957-.466Z" transform="translate(-210.298 118.608)" fill="#142b57"/><path d="M300.223-92.172a5.419,5.419,0,0,1-2.128-2.011,5.492,5.492,0,0,1-.769-2.882,5.492,5.492,0,0,1,.769-2.881,5.422,5.422,0,0,1,2.128-2.012,6.348,6.348,0,0,1,3.052-.73,6.3,6.3,0,0,1,3.044.73,5.492,5.492,0,0,1,2.128,2.012,5.45,5.45,0,0,1,.777,2.881,5.45,5.45,0,0,1-.777,2.882,5.488,5.488,0,0,1-2.128,2.011,6.3,6.3,0,0,1-3.044.73A6.343,6.343,0,0,1,300.223-92.172Zm4.792-1.856a3.178,3.178,0,0,0,1.219-1.235,3.63,3.63,0,0,0,.443-1.8,3.631,3.631,0,0,0-.443-1.8,3.179,3.179,0,0,0-1.219-1.235,3.454,3.454,0,0,0-1.74-.443,3.453,3.453,0,0,0-1.74.443,3.175,3.175,0,0,0-1.219,1.235,3.63,3.63,0,0,0-.443,1.8,3.63,3.63,0,0,0,.443,1.8,3.175,3.175,0,0,0,1.219,1.235,3.45,3.45,0,0,0,1.74.443A3.451,3.451,0,0,0,305.015-94.028Z" transform="translate(-250.867 118.608)" fill="#142b57"/></g></g><g transform="translate(-87.791 -189.548)"><path d="M-72.847-158.4a14.162,14.162,0,0,1-11.681-13.923,14.161,14.161,0,0,1,11.681-13.923v-3.3a17.429,17.429,0,0,0-14.944,17.227,17.429,17.429,0,0,0,14.944,17.227Z" transform="translate(87.791 189.548)" fill="#142b57"/><path d="M-.634-189.548v3.3a14.161,14.161,0,0,1,11.681,13.923A14.162,14.162,0,0,1-.634-158.4v3.3A17.429,17.429,0,0,0,14.31-172.321,17.428,17.428,0,0,0-.634-189.548Z" transform="translate(20.499 189.548)" fill="#142b57"/><g transform="translate(6.615 12.117)"><g transform="translate(0 1.312)"><path d="M-51.515-123.132c.027.007.054.014.081.018l1.132-1.153-.316-.062a11.239,11.239,0,0,1-1.586-.41,1.937,1.937,0,0,1-1.184-1.02h4.553l1.39-1.418c-.212,0-.425-.007-.637-.007-.535-.007-1.073-.011-1.609-.011-.741,0-1.48,0-2.208.009l-1.139,0h-.032a5.731,5.731,0,0,1-2.664-.58,2.206,2.206,0,0,1-1.091-1.05l2.933,0q2.87,0,5.739,0a3.947,3.947,0,0,1,1.342.2,2.906,2.906,0,0,1,.418.185,10.23,10.23,0,0,0,1.067-.936,4.793,4.793,0,0,0-.56-.3,4.857,4.857,0,0,0-1.95-.421c-2.348-.018-4.738-.014-7.047-.009q-1.237,0-2.474,0a3.922,3.922,0,0,0-.407.028c-.077.009-.165.018-.264.026l-.194.018-.009.2c-.1,2.512,1.615,3.156,3.274,3.78l.054.021a3.391,3.391,0,0,0,1.855,2.332,6.936,6.936,0,0,0,1.4.52Z" transform="translate(58.358 130.219)" fill="#142b57"/><path d="M-51.8-123.394l-.063-.011c-.03-.005-.06-.013-.091-.021l-.135-.035a7.061,7.061,0,0,1-1.424-.529,3.511,3.511,0,0,1-1.9-2.35c-1.7-.638-3.447-1.3-3.346-3.9l.014-.3.3-.028c.1-.007.186-.016.261-.025a4.019,4.019,0,0,1,.421-.028q1.237,0,2.474,0c2.327,0,4.708-.009,7.049.009a4.96,4.96,0,0,1,2,.432,4.991,4.991,0,0,1,.574.3l.13.08-.108.108a10.338,10.338,0,0,1-1.079.947l-.062.047-.069-.036a2.748,2.748,0,0,0-.4-.178,3.823,3.823,0,0,0-1.3-.189q-2.868,0-5.739,0l-2.732,0a2.2,2.2,0,0,0,.947.821,5.61,5.61,0,0,0,2.608.567l1.17,0c1.254-.008,2.541-.014,3.818,0h0c.143,0,.287,0,.431,0l.489.006-1.624,1.658h-4.4a1.861,1.861,0,0,0,1.023.784,11.183,11.183,0,0,0,1.569.405l.537.105Zm-6.715-6.924,0,.093c-.094,2.424,1.5,3.025,3.2,3.661l.116.044.014.063a3.277,3.277,0,0,0,1.792,2.251,6.836,6.836,0,0,0,1.375.511l.133.034.011,0,.927-.945-.1-.019a11.446,11.446,0,0,1-1.6-.415,2.047,2.047,0,0,1-1.253-1.084l-.08-.172H-49.3l1.155-1.179-.352,0c-1.28-.017-2.563-.01-3.815,0l-1.171,0a5.846,5.846,0,0,1-2.719-.594,2.317,2.317,0,0,1-1.146-1.107l-.079-.172,3.122,0q2.871,0,5.739,0a4.051,4.051,0,0,1,1.383.2,2.767,2.767,0,0,1,.364.156,10.148,10.148,0,0,0,.883-.768c-.135-.077-.274-.148-.413-.21a4.712,4.712,0,0,0-1.9-.411c-2.339-.018-4.72-.014-7.023-.009-.848,0-1.673,0-2.5,0a3.763,3.763,0,0,0-.394.027c-.077.009-.167.018-.268.026Z" transform="translate(58.769 130.63)" fill="#142b57"/></g><g transform="translate(8.817)"><path d="M-6.908-133.915l-.039.155a.375.375,0,0,1-.178.238,9.081,9.081,0,0,0-2.682,2.394l-.152.175c-1.7,1.971-3.127,3.589-4.487,5.093a6.392,6.392,0,0,1-2.917,1.83,6.467,6.467,0,0,1-1.469.267l.434-.49,1.075-1.213a4.892,4.892,0,0,0,.883-.442c.124-.078.246-.164.366-.253.65-.486,3.066-3.364,3.068-3.345.63-.67,1.231-1.361,1.814-2.033.624-.714,1.265-1.45,1.941-2.16a2.449,2.449,0,0,0-1.816-.769,16.085,16.085,0,0,1-1.8,0,3.954,3.954,0,0,1-1.148-.242,1.173,1.173,0,0,1-.447-.384c-.068-.081-.149-.173-.246-.274l-.414-.468s1.409.014,1.592.012c.262,0,1.692.021,2.135,0a4.1,4.1,0,0,1,2.589.774c.386.255.8.5,1.193.725.178.106.359.212.538.32Z" transform="translate(19.117 135.964)" fill="#142b57"/><path d="M-20.085-124.042l1.724-1.947.028-.011a4.769,4.769,0,0,0,.862-.431c.116-.073.233-.154.358-.248a36.577,36.577,0,0,0,2.743-2.977c.17-.2.259-.3.313-.351l0,0c.609-.647,1.18-1.3,1.811-2.03l.064-.073c.576-.66,1.171-1.341,1.794-2a2.265,2.265,0,0,0-1.635-.656,16.241,16.241,0,0,1-1.81,0,4.08,4.08,0,0,1-1.184-.25,1.272,1.272,0,0,1-.5-.419c-.067-.08-.147-.17-.242-.269l-.6-.676.273,0c.014,0,1.41.016,1.589.012l.445,0c.545,0,1.369.011,1.685-.007a4.22,4.22,0,0,1,2.663.793c.386.255.8.5,1.187.722l.137.081c.134.079.269.159.4.24l.24.146-.061.242a.491.491,0,0,1-.244.319,8.986,8.986,0,0,0-2.641,2.363l-.152.175c-1.71,1.98-3.136,3.6-4.489,5.095a6.512,6.512,0,0,1-2.972,1.865,6.615,6.615,0,0,1-1.5.272Zm1.866-1.741-1.288,1.453a6.388,6.388,0,0,0,1.141-.236,6.269,6.269,0,0,0,2.862-1.8c1.352-1.494,2.777-3.112,4.486-5.091l.151-.175a9.167,9.167,0,0,1,2.719-2.423.262.262,0,0,0,.115-.161l.017-.067-.086-.053c-.133-.08-.267-.16-.4-.238l-.136-.08c-.391-.226-.807-.47-1.2-.728a3.979,3.979,0,0,0-2.515-.754c-.324.019-1.153.012-1.7.007-.206,0-.367,0-.44,0-.133,0-.9-.005-1.321-.009l.233.263c.1.1.179.194.248.276a1.075,1.075,0,0,0,.4.349,3.838,3.838,0,0,0,1.112.234,15.955,15.955,0,0,0,1.782,0,2.553,2.553,0,0,1,1.9.8l.093.084-.086.09c-.651.683-1.272,1.395-1.874,2.083l-.064.073c-.632.729-1.205,1.386-1.817,2.036l-.031.033c-.048.054-.153.176-.271.313a36.266,36.266,0,0,1-2.782,3.013c-.13.1-.253.183-.374.259A5.036,5.036,0,0,1-18.219-125.783Z" transform="translate(20.085 136.385)" fill="#142b57"/></g></g></g></g></svg>