<svg xmlns="http://www.w3.org/2000/svg" viewBox="0 0 232.42 44.144"><g transform="translate(-180 -40)"><g transform="translate(180 40)"><g transform="translate(53.017 3.956)"><g transform="translate(0 0)"><path d="M96.484-172.536h3.876v16.749H96.484Z" transform="translate(-96.484 172.8)" fill="#142b57"/><path d="M134.2-172.536v16.749h-3.182l-8.351-10.169v10.169h-3.828v-16.749h3.206l8.327,10.169v-10.169Z" transform="translate(-110.989 172.8)" fill="#142b57"/><path d="M173.9-172.536h7.609a10.7,10.7,0,0,1,4.821,1.041,7.8,7.8,0,0,1,3.254,2.931,8.243,8.243,0,0,1,1.161,4.4,8.243,8.243,0,0,1-1.161,4.4,7.791,7.791,0,0,1-3.254,2.931,10.692,10.692,0,0,1-4.821,1.041H173.9Zm7.417,13.566a5.628,5.628,0,0,0,4.008-1.4,4.945,4.945,0,0,0,1.5-3.792,4.945,4.945,0,0,0-1.5-3.792,5.627,5.627,0,0,0-4.008-1.4H177.78v10.384Z" transform="translate(-146.723 172.8)" fill="#142b57"/><path d="M243.165-158.9v3.111H230.2v-16.749h12.657v3.111h-8.805v3.636h7.776v3.015h-7.776v3.876Z" transform="translate(-183.252 172.8)" fill="#142b57"/><path d="M282.463-155.787,278.42-161.6l-3.972,5.814H270l6.2-8.518-5.886-8.231h4.4l3.852,5.431,3.78-5.431h4.187l-5.838,8.087,6.245,8.661Z" transform="translate(-209.08 172.8)" fill="#142b57"/><g transform="translate(89.51)"><path d="M97.923-86.477a8.3,8.3,0,0,1-3.254-3.087,8.5,8.5,0,0,1-1.184-4.463,8.5,8.5,0,0,1,1.184-4.462,8.3,8.3,0,0,1,3.254-3.087,9.669,9.669,0,0,1,4.654-1.113,9.762,9.762,0,0,1,3.936.766,7.889,7.889,0,0,1,2.955,2.2l-2.488,2.3a5.351,5.351,0,0,0-4.211-1.962,5.6,5.6,0,0,0-2.776.682,4.85,4.85,0,0,0-1.9,1.9,5.591,5.591,0,0,0-.682,2.775,5.591,5.591,0,0,0,.682,2.776,4.849,4.849,0,0,0,1.9,1.9,5.592,5.592,0,0,0,2.776.682,5.323,5.323,0,0,0,4.211-1.986l2.488,2.3a7.753,7.753,0,0,1-2.967,2.225,9.851,9.851,0,0,1-3.948.766A9.621,9.621,0,0,1,97.923-86.477Z" transform="translate(-93.485 102.688)" fill="#142b57"/><path d="M152.446-88.71H144.67l-1.484,3.589h-3.972l7.466-16.749h3.828L158-85.121H153.93Zm-1.22-2.943-2.656-6.412-2.656,6.412Z" transform="translate(-123.159 102.157)" fill="#142b57"/><path d="M208.36-85.121l-3.23-4.666h-3.565v4.666h-3.876V-101.87h7.25a9.307,9.307,0,0,1,3.864.742,5.744,5.744,0,0,1,2.524,2.105,5.8,5.8,0,0,1,.885,3.23,5.686,5.686,0,0,1-.9,3.218,5.684,5.684,0,0,1-2.548,2.07l3.757,5.384Zm-.981-12.837a4.072,4.072,0,0,0-2.656-.754h-3.158v5.838h3.158a4.027,4.027,0,0,0,2.656-.765,2.661,2.661,0,0,0,.909-2.154A2.654,2.654,0,0,0,207.38-97.958Z" transform="translate(-161.105 102.157)" fill="#142b57"/><path d="M257.151-94.289h3.541v6.8a10.118,10.118,0,0,1-3.158,1.579,12.267,12.267,0,0,1-3.613.55,9.8,9.8,0,0,1-4.69-1.113,8.289,8.289,0,0,1-3.266-3.087,8.5,8.5,0,0,1-1.184-4.463,8.5,8.5,0,0,1,1.184-4.462,8.248,8.248,0,0,1,3.29-3.087,9.981,9.981,0,0,1,4.737-1.113,10.375,10.375,0,0,1,4,.742A7.918,7.918,0,0,1,261-99.793l-2.488,2.3a5.757,5.757,0,0,0-4.331-1.89,5.915,5.915,0,0,0-2.847.67,4.8,4.8,0,0,0-1.938,1.891,5.558,5.558,0,0,0-.694,2.8,5.51,5.51,0,0,0,.694,2.776,4.9,4.9,0,0,0,1.926,1.9,5.707,5.707,0,0,0,2.811.682,6.283,6.283,0,0,0,3.015-.718Z" transform="translate(-191.664 102.688)" fill="#142b57"/><path d="M301.788-86.49a8.347,8.347,0,0,1-3.278-3.1,8.46,8.46,0,0,1-1.184-4.439,8.46,8.46,0,0,1,1.184-4.438,8.353,8.353,0,0,1,3.278-3.1,9.779,9.779,0,0,1,4.7-1.125,9.708,9.708,0,0,1,4.689,1.125,8.46,8.46,0,0,1,3.278,3.1,8.394,8.394,0,0,1,1.2,4.438,8.4,8.4,0,0,1-1.2,4.439,8.454,8.454,0,0,1-3.278,3.1,9.7,9.7,0,0,1-4.689,1.125A9.771,9.771,0,0,1,301.788-86.49Zm7.382-2.859a4.9,4.9,0,0,0,1.878-1.9,5.591,5.591,0,0,0,.682-2.776,5.592,5.592,0,0,0-.682-2.775,4.9,4.9,0,0,0-1.878-1.9,5.32,5.32,0,0,0-2.68-.682,5.318,5.318,0,0,0-2.68.682,4.891,4.891,0,0,0-1.878,1.9,5.592,5.592,0,0,0-.682,2.775,5.591,5.591,0,0,0,.682,2.776,4.89,4.89,0,0,0,1.878,1.9,5.315,5.315,0,0,0,2.68.682A5.316,5.316,0,0,0,309.17-89.349Z" transform="translate(-225.761 102.688)" fill="#142b57"/></g></g></g><g transform="translate(0)"><path d="M-68.644-149.638a18.144,18.144,0,0,1-14.966-17.838,18.144,18.144,0,0,1,14.966-17.838v-4.234a22.33,22.33,0,0,0-19.147,22.072A22.33,22.33,0,0,0-68.644-145.4Z" transform="translate(87.791 189.548)" fill="#142b57"/><path d="M-.634-189.548v4.234a18.144,18.144,0,0,1,14.966,17.838A18.144,18.144,0,0,1-.634-149.638v4.234a22.33,22.33,0,0,0,19.147-22.072A22.33,22.33,0,0,0-.634-189.548Z" transform="translate(26.085 189.548)" fill="#142b57"/><g transform="translate(8.475 15.524)"><g transform="translate(0 1.68)"><path d="M-49.625-121.173c.035.009.069.018.1.023l1.45-1.478-.405-.08a14.4,14.4,0,0,1-2.032-.525,2.482,2.482,0,0,1-1.517-1.307h5.833q.89-.907,1.78-1.817c-.272,0-.544-.009-.816-.009-.686-.009-1.375-.015-2.061-.015-.95,0-1.9.006-2.828.012l-1.459.006h-.041a7.343,7.343,0,0,1-3.413-.743,2.827,2.827,0,0,1-1.4-1.345l3.758,0q3.678,0,7.353,0a5.057,5.057,0,0,1,1.719.251,3.721,3.721,0,0,1,.535.237,13.108,13.108,0,0,0,1.367-1.2,6.136,6.136,0,0,0-.717-.38,6.224,6.224,0,0,0-2.5-.54c-3.008-.023-6.071-.018-9.029-.012q-1.585,0-3.17.006a5.025,5.025,0,0,0-.521.035c-.1.012-.211.024-.339.033l-.249.023-.012.254c-.124,3.218,2.07,4.044,4.194,4.844l.069.026a4.345,4.345,0,0,0,2.377,2.988,8.885,8.885,0,0,0,1.795.667Z" transform="translate(58.392 130.253)" fill="#142b57"/><path d="M-49.844-121.359l-.08-.014c-.039-.007-.077-.016-.116-.026l-.173-.045a9.046,9.046,0,0,1-1.825-.678,4.5,4.5,0,0,1-2.439-3.011c-2.172-.817-4.416-1.665-4.287-4.992l.018-.39.383-.036c.128-.009.239-.02.335-.032a5.155,5.155,0,0,1,.539-.036q1.585,0,3.169-.006c2.981-.006,6.032-.012,9.031.012a6.355,6.355,0,0,1,2.56.553,6.4,6.4,0,0,1,.736.39l.167.1-.138.139a13.246,13.246,0,0,1-1.383,1.213l-.079.06-.088-.046a3.523,3.523,0,0,0-.512-.227,4.9,4.9,0,0,0-1.669-.242q-3.674,0-7.353,0l-3.5,0a2.817,2.817,0,0,0,1.213,1.052,7.187,7.187,0,0,0,3.342.726l1.5-.006c1.606-.011,3.256-.018,4.892,0h0c.183,0,.368,0,.552.005l.626.008L-46.5-124.76h-5.64a2.385,2.385,0,0,0,1.311,1,14.329,14.329,0,0,0,2.01.519l.689.135Zm-8.6-8.872-.006.119c-.12,3.106,1.927,3.876,4.094,4.691l.148.057.018.081a4.2,4.2,0,0,0,2.3,2.884,8.759,8.759,0,0,0,1.762.654l.171.044.015,0,1.188-1.21-.122-.024a14.663,14.663,0,0,1-2.055-.531,2.623,2.623,0,0,1-1.606-1.388l-.1-.221h6.011l1.48-1.511c-.15,0-.3,0-.451,0-1.64-.021-3.284-.013-4.888,0l-1.5.006a7.49,7.49,0,0,1-3.484-.761,2.968,2.968,0,0,1-1.469-1.418l-.1-.22,4,0q3.678,0,7.353,0a5.19,5.19,0,0,1,1.771.26,3.549,3.549,0,0,1,.467.2,13,13,0,0,0,1.131-.984c-.173-.1-.351-.19-.529-.27a6.037,6.037,0,0,0-2.436-.526c-3-.024-6.048-.018-9-.012-1.086,0-2.143.006-3.2.006a4.821,4.821,0,0,0-.5.034c-.1.012-.213.024-.344.033Z" transform="translate(58.769 130.63)" fill="#142b57"/></g><g transform="translate(11.296)"><path d="M-3.555-133.373l-.05.2a.48.48,0,0,1-.227.305A11.634,11.634,0,0,0-7.269-129.8l-.194.224c-2.18,2.525-4.006,4.6-5.749,6.525a8.19,8.19,0,0,1-3.737,2.345,8.285,8.285,0,0,1-1.882.342l.556-.628,1.378-1.554a6.267,6.267,0,0,0,1.132-.566c.159-.1.316-.21.469-.324.833-.623,3.928-4.31,3.931-4.286.808-.858,1.578-1.743,2.324-2.6.8-.915,1.621-1.858,2.487-2.767a3.137,3.137,0,0,0-2.327-.985,20.6,20.6,0,0,1-2.3-.006,5.065,5.065,0,0,1-1.471-.31,1.5,1.5,0,0,1-.573-.493c-.087-.1-.191-.221-.316-.351l-.531-.6s1.8.018,2.039.015c.336,0,2.168.027,2.736-.006a5.25,5.25,0,0,1,3.318.991c.495.327,1.019.634,1.528.929.229.135.46.271.689.41Z" transform="translate(19.197 135.999)" fill="#142b57"/><path d="M-20.085-120.571l2.209-2.494.036-.014a6.109,6.109,0,0,0,1.1-.552c.148-.093.3-.2.459-.317a46.862,46.862,0,0,0,3.515-3.814c.218-.253.331-.384.4-.449l0,0c.78-.829,1.512-1.668,2.32-2.6l.082-.093c.738-.845,1.5-1.718,2.3-2.562a2.9,2.9,0,0,0-2.1-.84,20.808,20.808,0,0,1-2.319-.006,5.228,5.228,0,0,1-1.516-.32,1.63,1.63,0,0,1-.636-.537c-.086-.1-.188-.218-.31-.345l-.767-.866.35,0c.018,0,1.807.021,2.035.015l.57,0c.7.006,1.754.015,2.159-.009a5.407,5.407,0,0,1,3.412,1.016c.494.327,1.023.636,1.521.924l.175.1c.172.1.345.2.516.308l.307.187-.079.31a.629.629,0,0,1-.313.409,11.513,11.513,0,0,0-3.384,3.028l-.194.225c-2.19,2.537-4.018,4.611-5.751,6.527a8.344,8.344,0,0,1-3.808,2.39,8.475,8.475,0,0,1-1.916.349Zm2.391-2.231-1.65,1.862a8.184,8.184,0,0,0,1.462-.3,8.031,8.031,0,0,0,3.667-2.3c1.732-1.914,3.558-3.987,5.747-6.522l.194-.224a11.745,11.745,0,0,1,3.484-3.1.336.336,0,0,0,.147-.206l.022-.086-.11-.067c-.17-.1-.342-.2-.513-.305l-.174-.1c-.5-.29-1.034-.6-1.535-.933a5.1,5.1,0,0,0-3.222-.966c-.416.024-1.478.015-2.18.009-.264,0-.471,0-.564,0-.171,0-1.154-.007-1.692-.012l.3.337c.123.128.229.249.318.354a1.378,1.378,0,0,0,.509.447,4.918,4.918,0,0,0,1.425.3,20.444,20.444,0,0,0,2.284.006A3.271,3.271,0,0,1-7.338-133.6l.119.107-.11.115c-.834.875-1.63,1.787-2.4,2.669l-.081.093c-.81.934-1.544,1.776-2.328,2.609l-.04.043c-.062.07-.2.226-.347.4a46.463,46.463,0,0,1-3.564,3.86c-.167.125-.324.234-.479.331A6.453,6.453,0,0,1-17.694-122.8Z" transform="translate(20.085 136.385)" fill="#142b57"/></g></g></g></g><path d="M8.257-9.838v7.77H6.836V-8.617H2.807v6.549H1.386v-7.77Zm8.015,6.561v1.21H10.444v-7.77h5.672v1.21H11.887v2.02h3.752V-5.42H11.887v2.142Zm4.807-6.561a4.3,4.3,0,0,1,1.759.333,2.558,2.558,0,0,1,1.149.955,2.671,2.671,0,0,1,.4,1.476,2.678,2.678,0,0,1-.4,1.471,2.546,2.546,0,0,1-1.149.96,4.3,4.3,0,0,1-1.759.333H19.325v2.242H17.882v-7.77Zm-.067,4.307a2.217,2.217,0,0,0,1.432-.4,1.393,1.393,0,0,0,.488-1.143,1.393,1.393,0,0,0-.488-1.143,2.217,2.217,0,0,0-1.432-.4H19.325v3.086ZM31.58-3.277v1.21H25.752v-7.77h5.672v1.21H27.2v2.02h3.752V-5.42H27.2v2.142Zm6.727-2.831a2.1,2.1,0,0,1,1.132.683,1.86,1.86,0,0,1,.389,1.2,1.87,1.87,0,0,1-.755,1.587,3.6,3.6,0,0,1-2.187.566H33.2v-7.77h3.475a3.474,3.474,0,0,1,2.043.522A1.706,1.706,0,0,1,39.45-7.84a1.865,1.865,0,0,1-.294,1.055A1.84,1.84,0,0,1,38.307-6.108Zm-3.685-.411h1.932A1.743,1.743,0,0,0,37.619-6.8a.966.966,0,0,0,.366-.821.981.981,0,0,0-.366-.827,1.717,1.717,0,0,0-1.066-.283H34.621Zm2.22,3.341q1.532,0,1.532-1.154,0-1.132-1.532-1.132h-2.22v2.287Zm8.226,1.221a4.431,4.431,0,0,1-2.142-.516,3.823,3.823,0,0,1-1.5-1.432,3.934,3.934,0,0,1-.544-2.048A3.934,3.934,0,0,1,41.426-8a3.823,3.823,0,0,1,1.5-1.432,4.431,4.431,0,0,1,2.142-.516,4.431,4.431,0,0,1,2.142.516,3.835,3.835,0,0,1,1.5,1.426,3.926,3.926,0,0,1,.544,2.054A3.926,3.926,0,0,1,48.708-3.9a3.835,3.835,0,0,1-1.5,1.426A4.431,4.431,0,0,1,45.067-1.956Zm0-1.265a2.8,2.8,0,0,0,1.4-.35,2.529,2.529,0,0,0,.977-.977,2.8,2.8,0,0,0,.355-1.4,2.8,2.8,0,0,0-.355-1.4,2.529,2.529,0,0,0-.977-.977,2.8,2.8,0,0,0-1.4-.35,2.8,2.8,0,0,0-1.4.35,2.529,2.529,0,0,0-.977.977,2.8,2.8,0,0,0-.355,1.4,2.8,2.8,0,0,0,.355,1.4,2.529,2.529,0,0,0,.977.977A2.8,2.8,0,0,0,45.067-3.222Zm9.646-2.9a2.21,2.21,0,0,1,1.093.716,1.8,1.8,0,0,1,.394,1.16,1.779,1.779,0,0,1-.455,1.216,2.914,2.914,0,0,1-1.216.794,4.806,4.806,0,0,1-1.66.278,5.828,5.828,0,0,1-1.56-.216,5.17,5.17,0,0,1-1.449-.649l.466-1.055a4.07,4.07,0,0,0,1.132.527,4.343,4.343,0,0,0,1.232.183,2.832,2.832,0,0,0,1.46-.344,1.054,1.054,0,0,0,.583-.944.863.863,0,0,0-.422-.777A2.174,2.174,0,0,0,53.149-5.5H51.339V-6.63h1.7a1.688,1.688,0,0,0,1.01-.266.846.846,0,0,0,.366-.722.938.938,0,0,0-.494-.844,2.4,2.4,0,0,0-1.26-.3,4.124,4.124,0,0,0-1.077.15,4.186,4.186,0,0,0-1.043.438l-.455-1.166a5.271,5.271,0,0,1,1.271-.483,5.722,5.722,0,0,1,1.338-.161,4.6,4.6,0,0,1,1.593.266,2.775,2.775,0,0,1,1.16.76,1.7,1.7,0,0,1,.433,1.16,1.687,1.687,0,0,1-.311,1.01A1.987,1.987,0,0,1,54.714-6.119Zm5.983.777H59.254v3.275H57.833v-7.77h1.421v3.253h1.487l2.231-3.253H64.5L61.851-6.075,64.6-2.067H62.973Zm4.907-4.5h1.421v5.517L71.2-9.838h1.343v7.77H71.121V-7.573L66.947-2.067H65.6Zm18.882,0v7.77H83.92v-7.26H78.658v7.26h-.566v-7.77Zm6.128,7.826a4.151,4.151,0,0,1-2.065-.516A3.8,3.8,0,0,1,87.1-3.943a3.9,3.9,0,0,1-.527-2.009A3.9,3.9,0,0,1,87.1-7.962a3.8,3.8,0,0,1,1.449-1.415,4.151,4.151,0,0,1,2.065-.516,4.187,4.187,0,0,1,2.065.511,3.762,3.762,0,0,1,1.449,1.41,3.919,3.919,0,0,1,.527,2.02,3.919,3.919,0,0,1-.527,2.02,3.762,3.762,0,0,1-1.449,1.41A4.187,4.187,0,0,1,90.613-2.012Zm0-.522a3.533,3.533,0,0,0,1.765-.444A3.271,3.271,0,0,0,93.622-4.2a3.414,3.414,0,0,0,.455-1.748A3.414,3.414,0,0,0,93.622-7.7a3.271,3.271,0,0,0-1.243-1.227,3.533,3.533,0,0,0-1.765-.444,3.564,3.564,0,0,0-1.771.444A3.26,3.26,0,0,0,87.594-7.7a3.414,3.414,0,0,0-.455,1.748A3.414,3.414,0,0,0,87.594-4.2a3.26,3.26,0,0,0,1.249,1.227A3.564,3.564,0,0,0,90.613-2.533Zm13.365-3.53a2.167,2.167,0,0,1,1.3.633,1.871,1.871,0,0,1,.438,1.3,1.81,1.81,0,0,1-.7,1.532,3.393,3.393,0,0,1-2.076.533H99.6v-7.77h3.13a3.121,3.121,0,0,1,1.9.511,1.719,1.719,0,0,1,.683,1.465,1.784,1.784,0,0,1-.355,1.132A2.027,2.027,0,0,1,103.979-6.063Zm-3.808-.178h2.553a2.425,2.425,0,0,0,1.5-.4,1.366,1.366,0,0,0,.522-1.154,1.378,1.378,0,0,0-.522-1.166,2.425,2.425,0,0,0-1.5-.4h-2.553Zm2.786,3.7q2.2,0,2.2-1.621a1.387,1.387,0,0,0-.555-1.221,2.865,2.865,0,0,0-1.643-.389h-2.786v3.23Zm8.3.533a4.156,4.156,0,0,1-2.059-.511,3.773,3.773,0,0,1-1.443-1.41,3.919,3.919,0,0,1-.527-2.02,3.919,3.919,0,0,1,.527-2.02,3.773,3.773,0,0,1,1.443-1.41,4.156,4.156,0,0,1,2.059-.511,4.312,4.312,0,0,1,1.554.272,3.2,3.2,0,0,1,1.21.8l-.355.366a3.253,3.253,0,0,0-2.387-.921,3.6,3.6,0,0,0-1.776.444A3.249,3.249,0,0,0,108.252-7.7a3.414,3.414,0,0,0-.455,1.748,3.414,3.414,0,0,0,.455,1.748,3.249,3.249,0,0,0,1.254,1.227,3.6,3.6,0,0,0,1.776.444,3.255,3.255,0,0,0,2.387-.932l.355.366a3.25,3.25,0,0,1-1.216.81A4.248,4.248,0,0,1,111.261-2.012Zm9.957-.566v.511h-5.362v-7.77h5.2v.511h-4.629v3.064h4.141v.5h-4.141v3.186Zm9.236.511-.011-6.649L127.19-3.1h-.278L123.66-8.694v6.627h-.555v-7.77h.477l3.475,6.005,3.475-6.005H131l.011,7.77Zm9.236-7.77L136.1-3.2a2.544,2.544,0,0,1-.816.955,1.794,1.794,0,0,1-1,.311,2.312,2.312,0,0,1-.888-.2l.178-.466a1.871,1.871,0,0,0,.71.155,1.518,1.518,0,0,0,1.31-.877l.266-.455-3.186-6.061h.622l2.875,5.528L139.1-9.838Zm11.767,7.77-.011-6.649L148.193-3.1h-.278l-3.252-5.595v6.627h-.555v-7.77h.477l3.475,6.005,3.475-6.005H152l.011,7.77Zm3.352-7.77h.566v6.816l5.3-6.816h.5v7.77H160.6v-6.8l-5.3,6.8h-.5Zm11.944,0a3.484,3.484,0,0,1,2.3.694,2.37,2.37,0,0,1,.833,1.926,2.358,2.358,0,0,1-.833,1.915,3.484,3.484,0,0,1-2.3.694h-2.22v2.542h-.566v-7.77Zm0,4.718a2.9,2.9,0,0,0,1.9-.544,1.906,1.906,0,0,0,.655-1.554,1.923,1.923,0,0,0-.655-1.56,2.882,2.882,0,0,0-1.9-.549h-2.22V-5.12ZM177.41-9.838,173.824-3.2a2.544,2.544,0,0,1-.816.955,1.794,1.794,0,0,1-1,.311,2.312,2.312,0,0,1-.888-.2l.178-.466a1.871,1.871,0,0,0,.71.155,1.518,1.518,0,0,0,1.31-.877l.266-.455-3.186-6.061h.622l2.875,5.528,2.931-5.528Z" transform="translate(231.252 79.334)" fill="#142b57"/></g></svg>