<svg xmlns="http://www.w3.org/2000/svg" xmlns:xlink="http://www.w3.org/1999/xlink" width="593.331" height="519.531" viewBox="0 0 593.331 519.531"><defs><linearGradient id="a" x1="-5956.843" y1="0.718" x2="-5953.265" y2="0.272" gradientUnits="objectBoundingBox"><stop offset="0.005" stop-color="#10054d"/><stop offset="1" stop-color="#273b98"/></linearGradient></defs><g transform="translate(-1286 -3990.852)"><path d="M113.914,230.892c-89.464-15.769-157.665-94-157.665-187.92s68.2-172.151,157.665-187.917v-44.6C.058-173.361-87.791-75.283-87.791,42.972S.058,259.307,113.914,275.495Z" transform="translate(1435.125 4180.4)" fill="#d4c045" opacity="0.78"/><g transform="translate(459.626 3907.549)"><g transform="translate(826.374 211.796)"><path d="M1416.367,170.967l-127.1-72.475L826.373,367.178l62.81,35.9-20.877,12.118,7.193,4.11,20.872-12.119,57.018,32.588Z" transform="translate(-826.373 -48.732)" fill="#92b4d1" opacity="0.2"/><g transform="translate(541.639 85.556)"><path d="M871.63,127.96c0,4.4,1.52,7.528,3.986,9.036.071.036,16.312,9.371,16.385,9.407,2.572,1.436.92-1.819,4.823-4.069,7.863-4.536,14.219-15.523,14.219-24.535,0-4.452,4.128-4.488,1.6-5.972l-16.875-9.491c-2.561-1.388-6.055-1.125-9.922,1.1C878,107.973,871.63,118.948,871.63,127.96Z" transform="translate(-871.63 -101.483)" fill="#084c94"/><path d="M873.03,128.756c0,9.012,6.354,12.65,14.217,8.114s14.219-15.522,14.219-24.534-6.367-12.638-14.219-8.1S873.03,119.744,873.03,128.756Z" transform="translate(-856.286 -92.752)" fill="#03336e"/><path d="M873.649,116.823c0,4.7,3.315,6.594,7.407,4.225a16.3,16.3,0,0,0,7.409-12.782c0-4.691-3.314-6.582-7.409-4.225A16.345,16.345,0,0,0,873.649,116.823Z" transform="translate(-849.485 -84.553)" fill="#3f92d1"/><path d="M887.19,104.2c3.758-2.166,7.181-2.465,9.73-1.185-2.382-.67-5.314-.168-8.509,1.664-7.851,4.536-14.217,15.523-14.217,24.534,0,4.691,1.735,7.923,4.488,9.3-3.471-.969-5.708-4.428-5.708-9.778C872.973,119.718,879.328,108.732,887.19,104.2Z" transform="translate(-856.911 -93.062)" fill="#2672ab"/></g><g transform="translate(503.234 107.861)"><path d="M868.421,129.827c0,4.4,1.521,7.516,4,9.024.071.048,16.3,9.371,16.373,9.419,2.573,1.436.932-1.819,4.835-4.081,7.851-4.524,14.217-15.511,14.217-24.523,0-4.452,4.117-4.488,1.592-5.984,0,0-16.791-9.443-16.863-9.479-2.561-1.388-6.068-1.137-9.933,1.1C874.788,109.828,868.421,120.815,868.421,129.827Z" transform="translate(-868.421 -103.346)" fill="#084c94"/><path d="M869.82,130.62c0,9.012,6.367,12.638,14.219,8.1s14.219-15.511,14.219-24.522-6.368-12.638-14.219-8.1S869.82,121.608,869.82,130.62Z" transform="translate(-853.077 -94.613)" fill="#03336e"/><path d="M870.441,118.687c0,4.691,3.314,6.582,7.407,4.225a16.344,16.344,0,0,0,7.409-12.782c0-4.692-3.315-6.582-7.409-4.225A16.324,16.324,0,0,0,870.441,118.687Z" transform="translate(-846.266 -86.414)" fill="#3f92d1"/><path d="M883.981,106.062c3.77-2.166,7.192-2.465,9.73-1.2-2.37-.658-5.314-.168-8.5,1.676C877.362,111.077,871,122.052,871,131.063c0,4.692,1.722,7.923,4.488,9.311-3.47-.969-5.721-4.428-5.721-9.778C869.763,121.585,876.13,110.6,883.981,106.062Z" transform="translate(-853.702 -94.925)" fill="#2672ab"/></g><path d="M871.053,125.986V136.7l39.286-22.256V103.384Z" transform="translate(-336.33 4.93)" fill="#03336e"/><g transform="translate(181.473 296.118)"><path d="M841.536,145.557c0,4.4,1.52,7.516,3.986,9.024.071.048,16.312,9.371,16.312,9.371,2.645,1.484,1.006-1.771,4.907-4.033,7.851-4.524,14.218-15.51,14.218-24.522,0-4.452,4.117-4.488,1.591-5.984l-16.863-9.479c-2.573-1.388-6.068-1.137-9.934,1.1C847.9,125.558,841.536,136.545,841.536,145.557Z" transform="translate(-841.536 -119.076)" fill="#084c94"/><path d="M842.935,146.35c0,9.012,6.368,12.638,14.219,8.1s14.217-15.511,14.217-24.523-6.367-12.638-14.217-8.1S842.935,137.338,842.935,146.35Z" transform="translate(-826.191 -110.343)" fill="#03336e"/><path d="M843.556,134.417c0,4.691,3.326,6.582,7.407,4.225a16.335,16.335,0,0,0,7.42-12.782c0-4.692-3.326-6.582-7.42-4.225A16.356,16.356,0,0,0,843.556,134.417Z" transform="translate(-819.392 -102.144)" fill="#3f92d1"/><path d="M857.1,121.792c3.758-2.166,7.181-2.465,9.73-1.2-2.37-.658-5.314-.168-8.5,1.676-7.863,4.536-14.229,15.511-14.229,24.523,0,4.691,1.735,7.923,4.5,9.311-3.47-.969-5.72-4.428-5.72-9.778C842.879,137.315,849.246,126.328,857.1,121.792Z" transform="translate(-826.817 -110.655)" fill="#2672ab"/></g><g transform="translate(143.08 318.426)"><path d="M838.328,147.422c0,4.4,1.52,7.516,3.986,9.024l16.384,9.419c2.561,1.436.921-1.831,4.823-4.081,7.851-4.536,14.218-15.51,14.218-24.522,0-4.464,4.128-4.5,1.6-5.984-.071-.036-16.8-9.443-16.875-9.479-2.561-1.388-6.068-1.137-9.921,1.089C844.7,127.423,838.328,138.41,838.328,147.422Z" transform="translate(-838.328 -120.94)" fill="#084c94"/><path d="M839.727,148.218c0,9.012,6.367,12.638,14.217,8.1s14.231-15.511,14.231-24.523-6.367-12.638-14.231-8.114S839.727,139.206,839.727,148.218Z" transform="translate(-822.995 -112.21)" fill="#03336e"/><path d="M840.348,136.287c0,4.691,3.315,6.582,7.408,4.225a16.342,16.342,0,0,0,7.408-12.782c0-4.7-3.315-6.594-7.408-4.225A16.306,16.306,0,0,0,840.348,136.287Z" transform="translate(-816.184 -104.014)" fill="#3f92d1"/><path d="M853.887,123.659c3.77-2.178,7.193-2.465,9.731-1.2-2.37-.658-5.314-.168-8.5,1.675-7.851,4.536-14.218,15.511-14.218,24.523,0,4.691,1.724,7.923,4.488,9.3-3.471-.969-5.721-4.416-5.721-9.778C839.67,139.17,846.037,128.2,853.887,123.659Z" transform="translate(-823.621 -112.521)" fill="#2672ab"/></g><path d="M840.959,143.578v10.716l39.287-22.256V120.978Z" transform="translate(-666.4 197.9)" fill="#03336e"/><path d="M836.982,369.2v15.436l97.31-56.589,29.779-4.741,238.746-138.838,28.483-29.14,68.708-39.955V100.39Z" transform="translate(-710.015 -27.916)" fill="#03336e"/><path d="M953.389,189.377v15.436L826.373,132.556V116.784Z" transform="translate(-826.373 151.902)" fill="#084c94"/><path d="M826.373,363.02l127.016,72.593,462.978-268.806-127.1-72.474Z" transform="translate(-826.373 -94.334)" fill="#0061ab"/><path d="M827.906,346.39l119.113,68.077,434.17-252.079L1262,94.423Z" transform="translate(-809.551 -93.36)" fill="#022652" opacity="0.2"/><path d="M829.866,135.578v8.829l26.218-15.246v-8.8Z" transform="translate(-788.062 191.088)" fill="#03336e"/><path d="M836.458,125.4v8.829l-7.193-4.092v-8.848Z" transform="translate(-794.651 201.269)" fill="url(#a)"/><path d="M829.266,135.228l7.193,4.111,26.214-15.221-7.2-4.1Z" transform="translate(-794.651 187.327)" fill="#2672ab"/><path d="M829.678,124.218v12.413l4.776-2.762V121.491Z" transform="translate(-790.123 203.528)" fill="#03336e"/><path d="M838.944,127.015v12.413l-10.11-5.752V121.236Z" transform="translate(-799.386 200.731)" fill="#084c94"/><path d="M828.834,123.726l10.11,5.779,4.772-2.726-10.117-5.77Z" transform="translate(-799.386 198.241)" fill="#2672ab"/></g><g transform="translate(829.711 83.625)"><path d="M837.262,358.485V497.8l463.025-269.261V89.68Z" transform="translate(-710.294 -17.205)" fill="#2672ab"/><path d="M838.178,347.334,1279.25,91.273V204.759L838.178,461.253Z" transform="translate(-700.234 0.266)" fill="#084c94" opacity="0.7"/><g transform="translate(143.716 99.46)"><g transform="translate(0 241.849)"><path d="M844.638,112.143l-5.772,3.82v113.92l5.772-3.831Z" transform="translate(-836.406 -112.143)" fill="#72b5e8" opacity="0.3"/><path d="M840.855,112.5l-2.195-.094V226.329l2.195.085Z" transform="translate(-838.66 -109.212)" fill="#084c94" opacity="0.8"/></g><g transform="translate(18.925 230.856)"><path d="M846.219,111.224l-5.77,3.82V228.964l5.77-3.831Z" transform="translate(-837.987 -111.224)" fill="#72b5e8" opacity="0.3"/><path d="M842.437,111.586l-2.2-.094V225.411l2.2.085Z" transform="translate(-840.241 -108.294)" fill="#084c94" opacity="0.8"/></g><g transform="translate(37.851 219.863)"><path d="M847.8,110.306l-5.771,3.821V228.046l5.771-3.831Z" transform="translate(-839.567 -110.306)" fill="#72b5e8" opacity="0.3"/><path d="M844.019,110.669l-2.2-.1v113.92l2.2.084Z" transform="translate(-841.822 -107.375)" fill="#084c94" opacity="0.8"/></g><g transform="translate(56.777 208.87)"><path d="M849.382,109.387l-5.771,3.82v113.92l5.771-3.831Z" transform="translate(-841.149 -109.387)" fill="#72b5e8" opacity="0.3"/><path d="M845.6,109.749l-2.2-.095V223.573l2.2.085Z" transform="translate(-843.404 -106.456)" fill="#084c94" opacity="0.8"/></g><g transform="translate(75.704 197.876)"><path d="M850.962,108.469l-5.771,3.822V226.209l5.771-3.831Z" transform="translate(-842.73 -108.469)" fill="#72b5e8" opacity="0.3"/><path d="M847.181,108.832l-2.194-.1v113.92l2.194.085Z" transform="translate(-844.986 -105.538)" fill="#084c94" opacity="0.8"/></g><g transform="translate(94.63 186.883)"><path d="M852.545,107.55l-5.772,3.82v113.92l5.772-3.831Z" transform="translate(-844.312 -107.55)" fill="#72b5e8" opacity="0.3"/><path d="M848.763,107.913l-2.2-.1v113.92l2.2.084Z" transform="translate(-846.567 -104.619)" fill="#084c94" opacity="0.8"/></g><g transform="translate(113.556 175.891)"><path d="M854.125,106.632l-5.771,3.82v113.92l5.771-3.832Z" transform="translate(-845.894 -106.632)" fill="#72b5e8" opacity="0.3"/><path d="M850.344,106.993l-2.2-.094V220.818l2.2.085Z" transform="translate(-848.148 -103.701)" fill="#084c94" opacity="0.8"/></g><g transform="translate(132.483 164.897)"><path d="M855.707,105.713l-5.772,3.821V223.454l5.772-3.831Z" transform="translate(-847.474 -105.713)" fill="#72b5e8" opacity="0.3"/><path d="M851.925,106.076l-2.2-.1V219.9l2.2.085Z" transform="translate(-849.729 -102.782)" fill="#084c94" opacity="0.8"/></g><g transform="translate(151.408 153.904)"><path d="M857.287,104.795l-5.77,3.82v113.92l5.77-3.831Z" transform="translate(-849.057 -104.795)" fill="#72b5e8" opacity="0.3"/><path d="M853.507,105.156l-2.2-.095V218.981l2.2.085Z" transform="translate(-851.312 -101.864)" fill="#084c94" opacity="0.8"/></g><g transform="translate(170.334 142.912)"><path d="M858.87,103.876,853.1,107.7V221.615l5.772-3.831Z" transform="translate(-850.636 -103.876)" fill="#72b5e8" opacity="0.3"/><path d="M855.089,104.239l-2.2-.1v113.92l2.2.085Z" transform="translate(-852.893 -100.947)" fill="#084c94" opacity="0.8"/></g><g transform="translate(189.26 131.918)"><path d="M860.45,102.957l-5.771,3.82V220.7l5.771-3.831Z" transform="translate(-852.217 -102.957)" fill="#72b5e8" opacity="0.3"/><path d="M856.67,103.32l-2.2-.1v113.92l2.2.084Z" transform="translate(-854.474 -100.027)" fill="#084c94" opacity="0.8"/></g><g transform="translate(208.187 120.925)"><path d="M862.032,102.039l-5.77,3.82v113.92l5.77-3.831Z" transform="translate(-853.801 -102.039)" fill="#72b5e8" opacity="0.3"/><path d="M858.251,102.4l-2.2-.095V216.225l2.2.085Z" transform="translate(-856.055 -99.108)" fill="#084c94" opacity="0.8"/></g><g transform="translate(227.112 109.931)"><path d="M863.615,101.12l-5.772,3.821V218.861l5.772-3.831Z" transform="translate(-855.381 -101.12)" fill="#72b5e8" opacity="0.3"/><path d="M859.832,101.483l-2.2-.1v113.92l2.2.085Z" transform="translate(-857.637 -98.19)" fill="#084c94" opacity="0.8"/></g><g transform="translate(246.039 98.939)"><path d="M865.2,100.2l-5.771,3.82v113.92l5.771-3.831Z" transform="translate(-856.964 -100.202)" fill="#72b5e8" opacity="0.3"/><path d="M861.413,100.563l-2.2-.094V214.388l2.2.085Z" transform="translate(-859.218 -97.271)" fill="#084c94" opacity="0.8"/></g><g transform="translate(264.965 87.946)"><path d="M866.776,99.283,861,103.1V217.023l5.771-3.831Z" transform="translate(-858.545 -99.283)" fill="#72b5e8" opacity="0.3"/><path d="M862.993,99.645l-2.194-.095V213.47l2.194.085Z" transform="translate(-860.799 -96.353)" fill="#084c94" opacity="0.8"/></g><g transform="translate(283.891 76.952)"><path d="M868.357,98.365l-5.771,3.821V216.105l5.771-3.831Z" transform="translate(-860.125 -98.365)" fill="#72b5e8" opacity="0.3"/><path d="M864.577,98.728l-2.2-.1v113.92l2.2.084Z" transform="translate(-862.382 -95.434)" fill="#084c94" opacity="0.8"/></g><g transform="translate(302.818 65.959)"><path d="M869.939,97.446l-5.771,3.82v113.92l5.771-3.831Z" transform="translate(-861.708 -97.446)" fill="#72b5e8" opacity="0.3"/><path d="M866.158,97.808l-2.2-.094V211.633l2.2.085Z" transform="translate(-863.963 -94.516)" fill="#084c94" opacity="0.8"/></g><g transform="translate(321.743 54.966)"><path d="M871.52,96.528l-5.771,3.821V214.268l5.771-3.831Z" transform="translate(-863.287 -96.528)" fill="#72b5e8" opacity="0.3"/><path d="M867.739,96.891l-2.2-.1v113.92l2.2.085Z" transform="translate(-865.544 -93.597)" fill="#084c94" opacity="0.8"/></g><g transform="translate(340.669 43.973)"><path d="M873.1,95.609l-5.771,3.82v113.92l5.771-3.831Z" transform="translate(-864.868 -95.609)" fill="#72b5e8" opacity="0.3"/><path d="M869.322,95.971l-2.2-.095V209.8l2.2.084Z" transform="translate(-867.125 -92.679)" fill="#084c94" opacity="0.8"/></g><g transform="translate(359.595 32.98)"><path d="M874.683,94.691l-5.771,3.82V212.43l5.771-3.831Z" transform="translate(-866.45 -94.691)" fill="#72b5e8" opacity="0.3"/><path d="M870.9,95.052l-2.2-.094V208.877l2.2.085Z" transform="translate(-868.707 -91.76)" fill="#084c94" opacity="0.8"/></g><g transform="translate(378.522 21.987)"><path d="M876.265,93.772l-5.772,3.821V211.512l5.772-3.831Z" transform="translate(-868.031 -93.772)" fill="#72b5e8" opacity="0.3"/><path d="M872.484,94.135l-2.2-.1V207.96l2.2.084Z" transform="translate(-870.288 -90.841)" fill="#084c94" opacity="0.8"/></g><g transform="translate(397.448 10.994)"><path d="M877.847,92.854l-5.772,3.82v113.92l5.772-3.831Z" transform="translate(-869.615 -92.854)" fill="#72b5e8" opacity="0.3"/><path d="M874.063,93.215l-2.194-.095V207.04l2.194.085Z" transform="translate(-871.869 -89.923)" fill="#084c94" opacity="0.8"/></g><g transform="translate(416.374)"><path d="M879.427,91.935l-5.771,3.821V209.675l5.771-3.831Z" transform="translate(-871.195 -91.935)" fill="#72b5e8" opacity="0.3"/><path d="M875.645,92.3l-2.194-.1v113.92l2.194.085Z" transform="translate(-873.451 -89.004)" fill="#084c94" opacity="0.8"/></g></g><path d="M838.178,347.334v11.49l437.231-253.83v102l3.842-2.234V91.273Z" transform="translate(-700.234 0.266)" fill="#03336e" opacity="0.5"/><path d="M953.668,178.667v139.32L826.652,245.73V106.075Z" transform="translate(-826.652 162.612)" fill="#3f92d1"/><path d="M827.569,222.01V107.655L932.633,167.7V281.78Z" transform="translate(-816.593 179.948)" fill="#2672ab" opacity="0.7"/><path d="M826.652,352.312,953.668,424.9l462.978-268.8-127.1-72.475Z" transform="translate(-826.652 -83.625)" fill="#72b5e8"/><g transform="translate(19.848 293.379)"><g transform="translate(85.533 50.271)"><path d="M835.457,112.338l5.771,3.82V230.078l-5.771-3.831Z" transform="translate(-835.457 -112.338)" fill="#72b5e8" opacity="0.3"/><path d="M835.962,112.7l2.195-.094V226.525l-2.195.085Z" transform="translate(-829.925 -109.408)" fill="#084c94" opacity="0.8"/></g><g transform="translate(68.426 40.216)"><path d="M834.028,111.5l5.77,3.82v113.92l-5.77-3.831Z" transform="translate(-834.028 -111.498)" fill="#72b5e8" opacity="0.3"/><path d="M834.532,111.86l2.2-.094V225.685l-2.2.085Z" transform="translate(-828.496 -108.568)" fill="#084c94" opacity="0.8"/></g><g transform="translate(51.32 30.162)"><path d="M832.6,110.658l5.771,3.821V228.4l-5.771-3.831Z" transform="translate(-832.599 -110.658)" fill="#72b5e8" opacity="0.3"/><path d="M833.1,111.021l2.195-.1v113.92l-2.195.084Z" transform="translate(-827.067 -107.727)" fill="#084c94" opacity="0.8"/></g><g transform="translate(34.213 20.109)"><path d="M831.169,109.818l5.771,3.82V227.557l-5.771-3.831Z" transform="translate(-831.169 -109.818)" fill="#72b5e8" opacity="0.3"/><path d="M831.674,110.181l2.2-.1v113.92l-2.2.085Z" transform="translate(-825.637 -106.889)" fill="#084c94" opacity="0.8"/></g><g transform="translate(17.106 10.054)"><path d="M829.74,108.978l5.772,3.82v113.92l-5.772-3.831Z" transform="translate(-829.74 -108.978)" fill="#72b5e8" opacity="0.3"/><path d="M830.244,109.34l2.2-.094V223.164l-2.2.085Z" transform="translate(-824.207 -106.047)" fill="#084c94" opacity="0.8"/></g><path d="M828.311,108.138l5.771,3.82v113.92l-5.771-3.831Z" transform="translate(-828.311 -108.138)" fill="#72b5e8" opacity="0.3"/><path d="M828.815,108.5l2.195-.1v113.92l-2.195.084Z" transform="translate(-822.779 -105.207)" fill="#084c94" opacity="0.8"/></g><path d="M937.647,171.959v11.489L831.259,121.2v102l-3.842-2.233V107.476Z" transform="translate(-818.264 177.981)" fill="#03336e" opacity="0.5"/></g></g><path d="M-.634-189.548v44.6c89.464,15.766,157.665,94,157.665,187.917S88.83,215.123-.634,230.892v44.6c113.856-16.187,201.7-114.265,201.7-232.523S113.222-173.364-.634-189.548Z" transform="translate(1616.086 4180.4)" fill="#d4c045" opacity="0.78"/></g></svg>