<svg xmlns="http://www.w3.org/2000/svg" width="45.408" height="37.84" viewBox="0 0 45.408 37.84"><g transform="translate(7.568 32.164)"><path d="M8.73,21.892H4.946a.946.946,0,1,1,0-1.892H8.73a.946.946,0,1,1,0,1.892Z" transform="translate(-4 -20)" fill="#fff"/></g><g transform="translate(0 0)"><path d="M21.758,37.056H19.866a.946.946,0,0,1,0-1.892h.946V5.838a.948.948,0,0,0-.946-.946H.946A.946.946,0,0,1,.946,3h18.92A2.841,2.841,0,0,1,22.7,5.838V36.11A.946.946,0,0,1,21.758,37.056Z" transform="translate(0 -3)" fill="#fff"/></g><g transform="translate(26.488 11.352)"><path d="M30.082,31.7H26.3a.946.946,0,1,1,0-1.892h3.784a.948.948,0,0,0,.946-.946V10.892H15.892v18.92H18.73a.946.946,0,1,1,0,1.892H14.946A.946.946,0,0,1,14,30.758V9.946A.946.946,0,0,1,14.946,9H31.974a.946.946,0,0,1,.946.946v18.92A2.841,2.841,0,0,1,30.082,31.7Z" transform="translate(-14 -9)" fill="#fff"/></g><g transform="translate(13.244 5.676)"><path d="M7.946,24.92A.946.946,0,0,1,7,23.974V6.946a.946.946,0,1,1,1.892,0V23.974A.946.946,0,0,1,7.946,24.92Z" transform="translate(-7 -6)" fill="#fff"/></g><g transform="translate(3.784 5.676)"><path d="M2.946,24.92A.946.946,0,0,1,2,23.974V6.946a.946.946,0,1,1,1.892,0V23.974A.946.946,0,0,1,2.946,24.92Z" transform="translate(-2 -6)" fill="#fff"/></g><g transform="translate(30.272 28.38)"><path d="M20.73,27.46a4.73,4.73,0,1,1,4.73-4.73A4.735,4.735,0,0,1,20.73,27.46Zm0-7.568a2.838,2.838,0,1,0,2.838,2.838A2.841,2.841,0,0,0,20.73,19.892Z" transform="translate(-16 -18)" fill="#fff"/></g><g transform="translate(11.352 28.38)"><path d="M10.73,27.46a4.73,4.73,0,1,1,4.73-4.73A4.735,4.735,0,0,1,10.73,27.46Zm0-7.568a2.838,2.838,0,1,0,2.838,2.838A2.841,2.841,0,0,0,10.73,19.892Z" transform="translate(-6 -18)" fill="#fff"/></g><g transform="translate(0 28.38)"><path d="M4.73,27.46a4.73,4.73,0,1,1,4.73-4.73A4.735,4.735,0,0,1,4.73,27.46Zm0-7.568A2.838,2.838,0,1,0,7.568,22.73,2.841,2.841,0,0,0,4.73,19.892Z" transform="translate(0 -18)" fill="#fff"/></g><g transform="translate(26.488 0)"><path d="M28.19,16.244a.946.946,0,0,1-.946-.946A10.418,10.418,0,0,0,16.838,4.892h-.946V15.3A.946.946,0,1,1,14,15.3V3.946A.946.946,0,0,1,14.946,3h1.892a12.312,12.312,0,0,1,12.3,12.3A.946.946,0,0,1,28.19,16.244Z" transform="translate(-14 -3)" fill="#fff"/></g><g transform="translate(32.164 17.028)"><path d="M29.3,19.568H17.946A.946.946,0,0,1,17,18.622V12.946A.946.946,0,0,1,17.946,12H29.3a.946.946,0,1,1,0,1.892H18.892v3.784H29.3a.946.946,0,1,1,0,1.892Z" transform="translate(-17 -12)" fill="#fff"/></g><g transform="translate(20.812 32.164)"><path d="M17.622,21.892H11.946a.946.946,0,1,1,0-1.892h5.676a.946.946,0,1,1,0,1.892Z" transform="translate(-11 -20)" fill="#fff"/></g></svg>