<svg xmlns="http://www.w3.org/2000/svg" width="38.829" height="49.924" viewBox="0 0 38.829 49.924"><g transform="translate(0.865 21.453)"><path d="M39.981,37.771a1.234,1.234,0,0,1-.345-.05,1.187,1.187,0,0,1-.794-1.481l4.448-14.7-16.313-7.03-16.313,7.03,4.448,14.7a1.188,1.188,0,0,1-2.275.687L8.081,21.213a1.192,1.192,0,0,1,.666-1.436l17.759-7.655a1.179,1.179,0,0,1,.941,0l17.759,7.655a1.188,1.188,0,0,1,.666,1.436L41.117,36.927A1.186,1.186,0,0,1,39.981,37.771Z" transform="translate(-8.031 -12.024)" fill="#fff"/></g><g transform="translate(0 42.792)"><path d="M45.308,28.132a10.373,10.373,0,0,1-8.682-4.562.53.53,0,0,0-.43-.193h0a.526.526,0,0,0-.428.193,10.545,10.545,0,0,1-17.367,0,.535.535,0,0,0-.858,0,10.387,10.387,0,0,1-8.684,4.562,1.189,1.189,0,1,1,0-2.377,8.005,8.005,0,0,0,6.7-3.5,3.056,3.056,0,0,1,4.814,0,8.167,8.167,0,0,0,13.411,0A2.874,2.874,0,0,1,36.193,21h0A2.871,2.871,0,0,1,38.6,22.25a8,8,0,0,0,6.7,3.5,1.189,1.189,0,0,1,0,2.377Z" transform="translate(-7.667 -21)" fill="#fff"/></g><g transform="translate(5.546 23.773)"><path d="M11.189,18.325A1.189,1.189,0,0,1,10,17.137V14.189a1.189,1.189,0,1,1,2.377,0v2.948A1.188,1.188,0,0,1,11.189,18.325Z" transform="translate(-10 -13)" fill="#fff"/></g><g transform="translate(18.622 16.641)"><path d="M29.764,22.457a1.189,1.189,0,0,1-1.189-1.189V12.377h-10.7v3.614a1.189,1.189,0,1,1-2.377,0v-4.8A1.189,1.189,0,0,1,16.689,10H29.764a1.189,1.189,0,0,1,1.189,1.189v10.08A1.188,1.188,0,0,1,29.764,22.457Z" transform="translate(-15.5 -10)" fill="#fff"/></g><g transform="translate(12.678 7.132)"><path d="M20.132,22.689A1.189,1.189,0,0,1,18.943,21.5V17.887H14.189A1.189,1.189,0,0,1,13,16.7V7.189A1.189,1.189,0,0,1,14.189,6H26.075a1.189,1.189,0,0,1,1.189,1.189V16.7a1.189,1.189,0,1,1-2.377,0V8.377H15.377v7.132h4.755A1.189,1.189,0,0,1,21.321,16.7v4.8A1.189,1.189,0,0,1,20.132,22.689Z" transform="translate(-13 -6)" fill="#fff"/></g><g transform="translate(18.622 0)"><path d="M16.689,12.509A1.189,1.189,0,0,1,15.5,11.321V4.189a1.189,1.189,0,1,1,2.377,0v7.132A1.189,1.189,0,0,1,16.689,12.509Z" transform="translate(-15.5 -3)" fill="#fff"/></g></svg>