<svg xmlns="http://www.w3.org/2000/svg" width="46.767" height="46.765" viewBox="0 0 46.767 46.765"><g transform="translate(19.486 19.482)"><path d="M18.5,37.281c-.053,0-.109,0-.162-.006a2.067,2.067,0,0,1-1.508-.842L14.474,33.2a.841.841,0,0,0-.177-.175l-3.453-2.543a2.071,2.071,0,0,1-.236-3.133A2.139,2.139,0,0,1,13,26.9l2.533,1.107L20.8,22.34l.456-1.157-.456.861L11.59,17.172a2.17,2.17,0,0,1-1.074-1.613,2.144,2.144,0,0,1,.616-1.789,1.931,1.931,0,0,1,1.773-.52l13.387,2.835a.207.207,0,0,0,.2-.06l4.8-5.1a3.442,3.442,0,0,1,2.463-.918,3.424,3.424,0,0,1,2.625.892,3.683,3.683,0,0,1,.894,2.625,3.448,3.448,0,0,1-.92,2.465l-5.113,4.821a.208.208,0,0,0-.064.2l3.079,13.547a1.922,1.922,0,0,1-.512,1.8,2.109,2.109,0,0,1-1.781.618,2.141,2.141,0,0,1-1.586-1.013l-5.125-9.476-.959-.711.664.713L19.3,31.749l1.107,2.537a2.146,2.146,0,0,1-.45,2.391,2.078,2.078,0,0,1-1.463.6Zm6.6-12.8a2.155,2.155,0,0,1,1.841,1.027l5.125,9.476.992.68-.69-.688L29.287,21.451a2.153,2.153,0,0,1,.629-2.069l5.109-4.815a1.682,1.682,0,0,0,.306-1.076,1.9,1.9,0,0,0-.323-1.218,1.813,1.813,0,0,0-1.218-.323,1.661,1.661,0,0,0-1.072.306l-4.8,5.1a2.167,2.167,0,0,1-2.038.631L12.494,15.149,12.046,16.3l.456-.861,9.205,4.871a2.181,2.181,0,0,1,1.07,1.573,2.156,2.156,0,0,1-.553,1.771l-5.733,6.177a.969.969,0,0,1-1.1.23l-3.168-1.383a.213.213,0,0,0-.232.043l3.47,2.73a2.79,2.79,0,0,1,.59.592l2.358,3.233c.24-.047.257-.142.22-.222L17.245,31.89a.974.974,0,0,1,.228-1.1l6.163-5.729a2.166,2.166,0,0,1,1.465-.573Zm10.593-9.209h.019Z" transform="translate(-10 -9.999)" fill="#fff"/></g><g transform="translate(18.524 9.254)"><path d="M10.48,15.955a.974.974,0,0,1-.436-1.845l18.5-9.256a.976.976,0,0,1,1.411.871v8.282a.974.974,0,0,1-1.949,0V7.3l-17.091,8.55a.962.962,0,0,1-.435.1Z" transform="translate(-9.506 -4.75)" fill="#fff"/></g><g transform="translate(0 9.256)"><path d="M16.748,33.491a.965.965,0,0,1-.474-.123L.5,24.6a.975.975,0,0,1-.5-.852V5.724a.974.974,0,0,1,1.409-.871l18.5,9.256a.975.975,0,0,1-.871,1.744L1.949,7.3V23.175l15.273,8.49a.974.974,0,0,1-.474,1.826Z" transform="translate(0 -4.75)" fill="#fff"/></g><g transform="translate(0 0)"><path d="M38,11.2a.982.982,0,0,1-.436-.1L19.474,2.063,1.411,11.1A.974.974,0,0,1,.538,9.359L19.038.1a.978.978,0,0,1,.871,0L38.432,9.359A.974.974,0,0,1,38,11.2Z" transform="translate(0 0)" fill="#fff"/></g><g transform="translate(8.852 4.426)"><path d="M5.517,20.719a.975.975,0,0,1-.974-.974V12.5a.976.976,0,0,1,.538-.871l18.5-9.256a.975.975,0,0,1,.871,1.744L6.492,13.1v6.643a.973.973,0,0,1-.974.972Z" transform="translate(-4.543 -2.272)" fill="#fff"/></g></svg>