<svg xmlns="http://www.w3.org/2000/svg" viewBox="0 0 50.542 66.703" fill="##042287"><path d="M130.559,39.285h-7.566a5.649,5.649,0,0,0-5.585-4.7H115.66A5.679,5.679,0,0,0,110.01,29H108.6a5.676,5.676,0,0,0-5.65,5.583H101.2a5.581,5.581,0,0,0-4,1.618,5.513,5.513,0,0,0-1.589,3.084H87.983A4.036,4.036,0,0,0,84,43.31V91.719A4,4,0,0,0,87.983,95.7h42.576a4,4,0,0,0,3.983-3.985V43.31A4.036,4.036,0,0,0,130.559,39.285ZM108.6,31.057h1.406a3.589,3.589,0,0,1,2.543,1.07,3.69,3.69,0,0,1,1.05,2.456H105.01A3.646,3.646,0,0,1,108.6,31.057ZM97.664,40.22A3.535,3.535,0,0,1,101.2,36.64h16.2a3.6,3.6,0,0,1,3.616,3.58v5.289H97.664Zm-1.056,7.346h25.425a1.052,1.052,0,0,0,.737-.3,1.038,1.038,0,0,0,.311-.727v-.788h2.645V86.888H92.815V45.749h2.792v.788a1.005,1.005,0,0,0,1,1.028Zm35.877,44.153a1.941,1.941,0,0,1-1.926,1.928H87.983a1.941,1.941,0,0,1-1.926-1.928V43.31a1.977,1.977,0,0,1,1.926-1.969h7.624v2.351H91.749a1.007,1.007,0,0,0-.991,1.039v43.21a.975.975,0,0,0,.991,1h35.043a.975.975,0,0,0,.991-1V44.732a1.007,1.007,0,0,0-.991-1.04h-3.711V41.342h7.477a1.977,1.977,0,0,1,1.926,1.969Z" transform="translate(-84 -29)" fill="#042287"/><path d="M189.866,264.985a1.029,1.029,0,0,0,1.437.3l14.1-9.4a1.028,1.028,0,1,0-1.141-1.711l-13.232,8.822L186.9,256.53a1.028,1.028,0,1,0-1.733,1.109Z" transform="translate(-170.163 -220.942)" fill="#042287"/></svg>