<svg xmlns="http://www.w3.org/2000/svg" viewBox="0 0 63.787 64.63" fill="##042287"><path d="M71,197.983v18.124a.983.983,0,0,0,.983.984H94.042a.983.983,0,0,0,.983-.984V197.983a.983.983,0,0,0-.983-.983H71.983a.983.983,0,0,0-.983.984Zm9.694.984h4.5v3.8l-1.876-.811a.937.937,0,0,0-.761,0l-1.859.811Zm-7.727,0h5.76v5.3a.959.959,0,0,0,1.346.9l2.857-1.236,2.859,1.236a.979.979,0,0,0,1.367-.9v-5.3h5.9v16.157H72.967Z" transform="translate(-65.099 -172.975)" fill="#022086"/><path d="M273,197.983v18.124a.984.984,0,0,0,.983.984h22.761a.983.983,0,0,0,.983-.984V197.983a.983.983,0,0,0-.983-.983H273.983a.984.984,0,0,0-.983.984Zm9.835.984h5.2v3.862l-2.273-.885a.9.9,0,0,0-.68,0l-2.245.885Zm-7.868,0h5.9v5.3a.944.944,0,0,0,1.295.917l3.254-1.267,3.257,1.267a.975.975,0,0,0,1.327-.917v-5.3h5.9v16.157H274.967Z" transform="translate(-238.718 -172.975)" fill="#022086"/><path d="M191.744,26H168.983a.983.983,0,0,0-.983.983V45.108a.983.983,0,0,0,.983.983h22.761a.984.984,0,0,0,.984-.983V26.983a.983.983,0,0,0-.983-.983Zm-13.909,1.967h5.058v3.768l-2.2-.878a.854.854,0,0,0-.667,0l-2.187.878Zm12.926,16.157H169.967V27.967h5.9v5.211a.939.939,0,0,0,1.292.915l3.213-1.264,3.217,1.264a.969.969,0,0,0,.357.068.875.875,0,0,0,.519-.171.952.952,0,0,0,.394-.813V27.967h5.9Z" transform="translate(-148.471 -26)" fill="#022086"/><path d="M83.795,371.967H91.8a.983.983,0,1,0,0-1.967H29.984a.983.983,0,1,0,0,1.967h8.008v12.364H29.984a.983.983,0,1,0,0,1.967H91.8a.983.983,0,1,0,0-1.967H83.795Zm-1.967,7.472v4.892H72.836v-4.892a.983.983,0,0,0-1.967,0v4.892H61.877v-4.892a.983.983,0,0,0-1.967,0v4.892H50.918v-4.892a.983.983,0,0,0-1.967,0v4.892H39.959V371.967h3.653V376.9a.983.983,0,0,0,1.967,0v-4.934h8.992V376.9a.983.983,0,0,0,1.967,0v-4.934H65.53V376.9a.984.984,0,0,0,1.967,0v-4.934h8.992V376.9a.983.983,0,0,0,1.967,0v-4.934h3.372Z" transform="translate(-29 -321.668)" fill="#022086"/></svg>