<svg xmlns="http://www.w3.org/2000/svg" viewBox="0 0 44.616 71.745" fill="##042287"><path d="M135.651,9c-12.3,0-22.308,9.308-22.308,20.732a.955.955,0,0,0,.213.617h-.027l15.554,19.614v6.7a1.085,1.085,0,0,0,1.148.988h3.111l-3.625,4.212h-5.085a1.028,1.028,0,0,0-1.023,1.057V79.728a1,1,0,0,0,1.023,1.017H146.67a1,1,0,0,0,1.023-1.017V62.922a1.028,1.028,0,0,0-1.023-1.057h-5.089l-3.674-4.212h3.223a1.11,1.11,0,0,0,.769-.281.955.955,0,0,0,.321-.707V49.889l15.524-19.54h0a.955.955,0,0,0,.214-.617C157.959,18.308,147.952,9,135.651,9ZM115.64,29.539a5.56,5.56,0,0,1,1.121-2.048c.016-.015.031-.033.047-.048a4.186,4.186,0,0,1,2.933-1.144,4.272,4.272,0,0,1,2.956,1.163l.024.021a3.611,3.611,0,0,1,1.229,2.723.949.949,0,0,0,.074.364v.019l7.47,18.06h-.709Zm10.5.508a3.629,3.629,0,0,1,1.224-2.556c.016-.015.031-.033.047-.048a4.186,4.186,0,0,1,2.933-1.144,4.273,4.273,0,0,1,2.956,1.163l.023.02a3.611,3.611,0,0,1,1.229,2.723V48.649h-.718ZM139.5,69.6a1.039,1.039,0,0,0,.53-.85V63.9H145.5V78.712H125.8V63.9h5.473V68.75a1,1,0,0,0,.493.85,1.167,1.167,0,0,0,1.035.084l2.813-1.129,2.813,1.129a1.165,1.165,0,0,0,.434.083,1.287,1.287,0,0,0,.638-.167Zm-6.038-2.4V63.9h4.379V67.2l-1.755-.69a1.22,1.22,0,0,0-.887,0Zm5.3-5.338h-6.249l3.1-3.616Zm1.264-6.245h-8.757V50.682h8.757Zm-3.284-6.971V30.205a3.612,3.612,0,0,1,1.229-2.724l.047-.044a4.185,4.185,0,0,1,2.933-1.141,4.274,4.274,0,0,1,2.955,1.163l.024.022a3.649,3.649,0,0,1,1.224,2.567l-7.6,18.6Zm3.772,0H139.9l7.384-18.064v-.009a.972.972,0,0,0,.072-.365,3.617,3.617,0,0,1,1.229-2.726l.047-.045a4.184,4.184,0,0,1,2.933-1.142,4.274,4.274,0,0,1,2.955,1.163l.024.022a5.609,5.609,0,0,1,1.121,2.057Zm11.044-24.385a6.471,6.471,0,0,0-4.5,1.759,5.634,5.634,0,0,0-.8.871,5.639,5.639,0,0,0-.811-.883,6.646,6.646,0,0,0-9,.011,5.628,5.628,0,0,0-.8.871,5.633,5.633,0,0,0-.811-.883,6.646,6.646,0,0,0-9,.011,5.633,5.633,0,0,0-.8.871,5.641,5.641,0,0,0-.811-.882,6.687,6.687,0,0,0-8.142-.677c2.129-8.194,10.091-14.3,19.559-14.3s17.441,6.114,19.564,14.317a6.515,6.515,0,0,0-3.654-1.087Z" transform="translate(-113.343 -9)" fill="#022086"/></svg>