<svg xmlns="http://www.w3.org/2000/svg" viewBox="0 0 66.422 50.092" fill="##042287"><g transform="translate(1.05)"><g transform="translate(0 0)"><path d="M37.143,35.657H4.457A4.463,4.463,0,0,1,0,31.2a4.235,4.235,0,0,1,.7-2.374L17.009,2.139a4.43,4.43,0,0,1,7.6.024L40.935,28.882A4.152,4.152,0,0,1,41.6,31.2,4.463,4.463,0,0,1,37.143,35.657ZM20.8,2.971a1.438,1.438,0,0,0-1.242.692L3.2,30.431a1.319,1.319,0,0,0-.229.77,1.49,1.49,0,0,0,1.486,1.486H37.143A1.49,1.49,0,0,0,38.629,31.2a1.258,1.258,0,0,0-.193-.713L22.057,3.688A1.451,1.451,0,0,0,20.8,2.971Z" transform="translate(0 0)" fill="#022086"/></g><g transform="translate(19.314 8.914)"><path d="M7.986,17.857A1.486,1.486,0,0,1,6.5,16.371V4.486a1.486,1.486,0,1,1,2.971,0V16.371A1.486,1.486,0,0,1,7.986,17.857Z" transform="translate(-6.5 -3)" fill="#022086"/></g><g transform="translate(19.314 26.765)"><path d="M7.986,11.957a1.206,1.206,0,0,1-.565-.119,1.1,1.1,0,0,1-.475-.327,1.049,1.049,0,0,1-.327-.478,1.194,1.194,0,0,1-.119-.562,1.413,1.413,0,0,1,.443-1.043,1.5,1.5,0,0,1,2.08,0,1.4,1.4,0,0,1,.449,1.043,1.194,1.194,0,0,1-.119.562,1.1,1.1,0,0,1-.327.478,1.056,1.056,0,0,1-.475.327A1.214,1.214,0,0,1,7.986,11.957Z" transform="translate(-6.5 -9.007)" fill="#022086"/></g><g transform="translate(46.057 29.714)"><path d="M16.986,18.974A1.486,1.486,0,0,1,15.5,17.488v-6a1.486,1.486,0,1,1,2.971,0v6A1.486,1.486,0,0,1,16.986,18.974Z" transform="translate(-15.5 -10)" fill="#022086"/></g><g transform="translate(29.714 38.629)"><path d="M11.486,19.656A1.486,1.486,0,0,1,10,18.17V14.486a1.486,1.486,0,0,1,2.971,0V18.17A1.484,1.484,0,0,1,11.486,19.656Z" transform="translate(-10 -13)" fill="#022086"/></g><g transform="translate(46.057 29.714)"><path d="M33.329,25.57a1.486,1.486,0,0,1-1.486-1.486V12.971H18.471v4.517a1.486,1.486,0,1,1-2.971,0v-6A1.486,1.486,0,0,1,16.986,10H33.329a1.486,1.486,0,0,1,1.486,1.486v12.6A1.484,1.484,0,0,1,33.329,25.57Z" transform="translate(-15.5 -10)" fill="#022086"/></g><g transform="translate(41.6 17.829)"><path d="M27.371,20.857a1.486,1.486,0,0,1-1.486-1.486V8.971h-10.4a1.486,1.486,0,0,1,0-2.971H27.371a1.486,1.486,0,0,1,1.486,1.486V19.371A1.486,1.486,0,0,1,27.371,20.857Z" transform="translate(-14 -6)" fill="#022086"/></g><g transform="translate(46.057 8.914)"><path d="M16.986,14.886A1.486,1.486,0,0,1,15.5,13.4V4.486a1.486,1.486,0,1,1,2.971,0V13.4A1.486,1.486,0,0,1,16.986,14.886Z" transform="translate(-15.5 -3)" fill="#022086"/></g><line x2="32.627" transform="translate(0.45 48.592)" fill="none" stroke="#022086" stroke-linecap="round" stroke-width="3"/></g></svg>