<svg xmlns="http://www.w3.org/2000/svg" viewBox="0 0 66.683 56.714" fill="##042287"><path d="M28.278,64.986l7.5-1.56a4.967,4.967,0,0,1,5.868,3.847l7.624,36.645a7.229,7.229,0,1,0,9.539,6.464l34.117-7.1a1.019,1.019,0,1,0-.415-2l-34.1,7.094a7.226,7.226,0,0,0-7.139-4.84L43.638,66.858a7,7,0,0,0-8.28-5.428l-7.5,1.56a1.019,1.019,0,1,0,.415,2ZM51.6,105.572a5.207,5.207,0,1,1-1.068.111A5.207,5.207,0,0,1,51.6,105.572Z" transform="translate(-27.051 -61.282)" fill="#042287"/><path d="M191.163,105.283a1.018,1.018,0,0,0,1.206.79l2.484-.517,4.834,23.234a1.019,1.019,0,0,0,1.206.79l30.157-6.274a1.019,1.019,0,0,0,.79-1.206l-4.834-23.234,2.432-.506a1.019,1.019,0,0,0,.79-1.206l-1.4-6.741a1.019,1.019,0,0,0-1.206-.79l-37.07,7.713a1.019,1.019,0,0,0-.79,1.206Zm38.474,16.236-28.161,5.859-4.627-22.238,8.327-1.733,2.447,11.762a1.019,1.019,0,0,0,1.693.539l3.655-3.4,4.832,1.646a1.019,1.019,0,0,0,1.327-1.173l-2.447-11.762,8.327-1.733Zm-22.465-18.525,7.514-1.564,2.083,10.014-3.719-1.266a1.019,1.019,0,0,0-1.023.218l-2.777,2.587Zm19.866-11.166.987,4.745-35.073,7.3-.987-4.745Z" transform="translate(-166.047 -85.478)" fill="#042287"/></svg>