<svg xmlns="http://www.w3.org/2000/svg" viewBox="0 0 242.52 83.833"><g transform="translate(100.528 9.434)"><g transform="translate(0 0)"><path d="M96.484-172.536h6.122v26.456H96.484Z" transform="translate(-94.821 172.536)" fill="#fff"/><path d="M143.1-172.536v26.456h-5.026l-13.191-16.063v16.063h-6.046v-26.456H123.9l13.152,16.063v-16.063Z" transform="translate(-104.778 172.536)" fill="#fff"/><path d="M173.9-172.536h12.018a16.9,16.9,0,0,1,7.616,1.644,12.316,12.316,0,0,1,5.14,4.63,13.02,13.02,0,0,1,1.833,6.954,13.02,13.02,0,0,1-1.833,6.954,12.307,12.307,0,0,1-5.14,4.629,16.888,16.888,0,0,1-7.616,1.644H173.9Zm11.716,21.429a8.889,8.889,0,0,0,6.33-2.211,7.81,7.81,0,0,0,2.362-5.99,7.811,7.811,0,0,0-2.362-5.99,8.889,8.889,0,0,0-6.33-2.211h-5.593v16.4Z" transform="translate(-129.307 172.536)" fill="#fff"/><path d="M250.681-150.994v4.913H230.2v-26.456h19.993v4.913H236.281v5.744h12.283v4.763H236.281v6.122Z" transform="translate(-154.382 172.536)" fill="#fff"/><path d="M289.688-146.08l-6.387-9.184-6.274,9.184H270l9.789-13.455-9.3-13h6.954l6.085,8.579,5.971-8.579h6.614l-9.222,12.774,9.864,13.682Z" transform="translate(-172.111 172.536)" fill="#fff"/><path d="M100.5-77.082a13.116,13.116,0,0,1-5.14-4.876,13.432,13.432,0,0,1-1.87-7.049,13.433,13.433,0,0,1,1.87-7.048,13.116,13.116,0,0,1,5.14-4.876,15.272,15.272,0,0,1,7.351-1.757,15.421,15.421,0,0,1,6.217,1.209A12.462,12.462,0,0,1,118.731-98L114.8-94.373a8.452,8.452,0,0,0-6.651-3.1,8.838,8.838,0,0,0-4.384,1.077,7.66,7.66,0,0,0-3,3.005,8.832,8.832,0,0,0-1.077,4.384,8.831,8.831,0,0,0,1.077,4.384,7.659,7.659,0,0,0,3,3,8.833,8.833,0,0,0,4.384,1.077,8.408,8.408,0,0,0,6.651-3.137l3.931,3.628a12.247,12.247,0,0,1-4.686,3.514,15.56,15.56,0,0,1-6.236,1.21A15.2,15.2,0,0,1,100.5-77.082Z" transform="translate(-93.485 141.423)" fill="#fff"/><path d="M160.115-81.083H147.832l-2.344,5.669h-6.274l11.793-26.456h6.047l11.83,26.456h-6.425Zm-1.927-4.649-4.2-10.129-4.2,10.129Z" transform="translate(-113.855 141.058)" fill="#fff"/><path d="M214.545-75.414l-5.1-7.37h-5.631v7.37h-6.123V-101.87h11.452a14.7,14.7,0,0,1,6.1,1.172,9.073,9.073,0,0,1,3.987,3.326,9.168,9.168,0,0,1,1.4,5.1,8.981,8.981,0,0,1-1.417,5.083,8.977,8.977,0,0,1-4.026,3.269l5.934,8.5ZM213-95.691a6.432,6.432,0,0,0-4.2-1.191h-4.989v9.222H208.8a6.36,6.36,0,0,0,4.2-1.209,4.2,4.2,0,0,0,1.436-3.4A4.192,4.192,0,0,0,213-95.691Z" transform="translate(-139.902 141.058)" fill="#fff"/><path d="M264.321-89.422h5.594v10.733a15.981,15.981,0,0,1-4.989,2.494,19.375,19.375,0,0,1-5.707.87,15.472,15.472,0,0,1-7.408-1.757,13.092,13.092,0,0,1-5.159-4.876,13.432,13.432,0,0,1-1.871-7.049,13.432,13.432,0,0,1,1.871-7.048,13.028,13.028,0,0,1,5.2-4.876,15.765,15.765,0,0,1,7.483-1.757,16.388,16.388,0,0,1,6.312,1.172,12.507,12.507,0,0,1,4.761,3.4l-3.93,3.628a9.094,9.094,0,0,0-6.841-2.986,9.344,9.344,0,0,0-4.5,1.058,7.59,7.59,0,0,0-3.061,2.986,8.779,8.779,0,0,0-1.1,4.421,8.7,8.7,0,0,0,1.1,4.384,7.747,7.747,0,0,0,3.042,3,9.015,9.015,0,0,0,4.441,1.077,9.925,9.925,0,0,0,4.762-1.134Z" transform="translate(-160.879 141.423)" fill="#fff"/><path d="M304.374-77.1A13.184,13.184,0,0,1,299.2-82a13.364,13.364,0,0,1-1.871-7.011,13.363,13.363,0,0,1,1.871-7.011,13.193,13.193,0,0,1,5.178-4.895,15.447,15.447,0,0,1,7.427-1.776,15.335,15.335,0,0,1,7.407,1.776,13.364,13.364,0,0,1,5.178,4.895,13.259,13.259,0,0,1,1.889,7.011A13.26,13.26,0,0,1,324.387-82a13.354,13.354,0,0,1-5.178,4.894,15.323,15.323,0,0,1-7.407,1.777A15.435,15.435,0,0,1,304.374-77.1Zm11.66-4.516a7.733,7.733,0,0,0,2.966-3,8.832,8.832,0,0,0,1.077-4.384A8.832,8.832,0,0,0,319-93.39a7.734,7.734,0,0,0-2.966-3.005,8.4,8.4,0,0,0-4.233-1.077,8.4,8.4,0,0,0-4.233,1.077A7.727,7.727,0,0,0,304.6-93.39a8.832,8.832,0,0,0-1.077,4.384,8.831,8.831,0,0,0,1.077,4.384,7.726,7.726,0,0,0,2.966,3,8.4,8.4,0,0,0,4.233,1.077A8.4,8.4,0,0,0,316.035-81.618Z" transform="translate(-184.285 141.423)" fill="#fff"/></g></g><g transform="translate(0 0)"><path d="M-51.43-113.756a34.457,34.457,0,0,1-28.422-33.876A34.457,34.457,0,0,1-51.43-181.507v-8.041a42.407,42.407,0,0,0-36.361,41.916A42.407,42.407,0,0,0-51.43-105.715Z" transform="translate(87.791 189.548)" fill="#fff"/><path d="M-.634-189.548v8.041a34.456,34.456,0,0,1,28.422,33.876A34.457,34.457,0,0,1-.634-113.756v8.041a42.407,42.407,0,0,0,36.361-41.917A42.406,42.406,0,0,0-.634-189.548Z" transform="translate(48.968 189.548)" fill="#fff"/><g transform="translate(16.094 29.482)"><g transform="translate(0 3.191)"><path d="M-41.882-113.148c.066.017.131.033.2.044l2.754-2.806-.77-.151a27.344,27.344,0,0,1-3.859-1,4.714,4.714,0,0,1-2.881-2.482h11.078q1.69-1.723,3.381-3.451c-.517-.006-1.034-.017-1.551-.017-1.3-.017-2.611-.028-3.914-.028-1.8,0-3.6.011-5.371.022l-2.771.011h-.077a13.945,13.945,0,0,1-6.482-1.411,5.369,5.369,0,0,1-2.655-2.554l7.136-.006q6.984,0,13.964.006a9.6,9.6,0,0,1,3.265.476,7.069,7.069,0,0,1,1.016.45,24.889,24.889,0,0,0,2.6-2.276,11.66,11.66,0,0,0-1.363-.723,11.819,11.819,0,0,0-4.744-1.025c-5.712-.044-11.529-.033-17.147-.022q-3.01.008-6.02.011a9.547,9.547,0,0,0-.989.067c-.187.023-.4.045-.643.062l-.472.044-.022.482c-.236,6.112,3.931,7.68,7.966,9.2l.132.05a8.251,8.251,0,0,0,4.514,5.675,16.875,16.875,0,0,0,3.409,1.266C-42.1-113.2-41.993-113.176-41.882-113.148Z" transform="translate(58.532 130.393)" fill="#fff"/><path d="M-41.82-113.023l-.153-.027c-.074-.013-.147-.031-.221-.05l-.328-.085a17.179,17.179,0,0,1-3.466-1.288,8.543,8.543,0,0,1-4.631-5.718c-4.125-1.552-8.386-3.162-8.141-9.48l.034-.74.728-.069c.243-.017.453-.039.636-.06a9.781,9.781,0,0,1,1.024-.069q3.01,0,6.019-.012c5.661-.011,11.456-.022,17.15.023a12.069,12.069,0,0,1,4.862,1.05,12.143,12.143,0,0,1,1.4.741l.317.2-.263.263a25.161,25.161,0,0,1-2.626,2.3l-.15.114-.167-.088a6.688,6.688,0,0,0-.973-.432,9.3,9.3,0,0,0-3.17-.46q-6.977-.008-13.964-.006l-6.649.005a5.35,5.35,0,0,0,2.3,2,13.649,13.649,0,0,0,6.346,1.379l2.847-.011c3.05-.02,6.183-.035,9.291.006h0c.347,0,.7.005,1.049.01l1.19.014-3.952,4.033H-46.187a4.529,4.529,0,0,0,2.489,1.908,27.21,27.21,0,0,0,3.818.986l1.308.256Zm-16.339-16.848-.011.226c-.228,5.9,3.659,7.36,7.775,8.908l.281.108.035.154A7.974,7.974,0,0,0-45.717-115a16.633,16.633,0,0,0,3.347,1.242l.324.084.028.007,2.256-2.3-.231-.045a27.849,27.849,0,0,1-3.9-1.009,4.981,4.981,0,0,1-3.049-2.636l-.194-.419h11.416l2.811-2.869c-.286,0-.571-.007-.857-.007-3.114-.04-6.237-.025-9.283-.006l-2.85.011a14.224,14.224,0,0,1-6.616-1.445,5.637,5.637,0,0,1-2.789-2.693l-.192-.418,7.6-.006q6.985,0,13.964.006a9.855,9.855,0,0,1,3.364.494,6.738,6.738,0,0,1,.886.38,24.686,24.686,0,0,0,2.148-1.869c-.329-.189-.666-.36-1-.512a11.464,11.464,0,0,0-4.626-1c-5.691-.045-11.485-.035-17.088-.023-2.063.006-4.07.012-6.077.012a9.151,9.151,0,0,0-.959.065c-.186.022-.405.045-.653.063Z" transform="translate(58.769 130.63)" fill="#fff"/></g><g transform="translate(21.453)"><path d="M10.18-131.156l-.1.378a.912.912,0,0,1-.432.58C7-128.859,5.116-126.68,3.127-124.372l-.369.426c-4.139,4.795-7.609,8.733-10.918,12.391a15.554,15.554,0,0,1-7.1,4.453,15.734,15.734,0,0,1-3.574.65l1.056-1.193,2.616-2.952a11.9,11.9,0,0,0,2.149-1.075c.3-.191.6-.4.891-.616,1.583-1.182,7.46-8.185,7.465-8.14,1.534-1.63,3-3.311,4.414-4.946,1.517-1.737,3.079-3.529,4.723-5.254A5.958,5.958,0,0,0,.064-132.5a39.126,39.126,0,0,1-4.371-.012A9.618,9.618,0,0,1-7.1-133.1a2.853,2.853,0,0,1-1.088-.935c-.165-.2-.363-.42-.6-.667L-9.8-135.84s3.427.035,3.872.029c.638-.006,4.118.05,5.2-.011a9.97,9.97,0,0,1,6.3,1.882c.94.622,1.935,1.2,2.9,1.765.434.257.874.515,1.309.779Z" transform="translate(19.526 136.142)" fill="#fff"/><path d="M-20.085-106.354l4.2-4.736.068-.027a11.6,11.6,0,0,0,2.1-1.049c.282-.177.567-.374.871-.6,1.211-.9,5.04-5.346,6.675-7.243.414-.48.629-.73.763-.853l-.009-.008c1.481-1.574,2.872-3.168,4.407-4.938l.155-.177c1.4-1.6,2.85-3.262,4.365-4.865a5.511,5.511,0,0,0-3.979-1.595,39.519,39.519,0,0,1-4.4-.011,9.93,9.93,0,0,1-2.88-.607,3.1,3.1,0,0,1-1.208-1.019c-.163-.194-.357-.413-.588-.654l-1.457-1.645.665.007c.034,0,3.432.04,3.865.029.178,0,.576,0,1.082.006,1.326.011,3.331.028,4.1-.017a10.269,10.269,0,0,1,6.479,1.93c.939.621,1.942,1.208,2.889,1.756l.333.2c.327.193.655.388.98.585l.583.355-.149.588a1.194,1.194,0,0,1-.594.776c-2.6,1.309-4.457,3.467-6.426,5.751L2.423-124c-4.16,4.819-7.631,8.758-10.923,12.4a15.845,15.845,0,0,1-7.231,4.538,16.1,16.1,0,0,1-3.639.662Zm4.541-4.236-3.133,3.536a15.543,15.543,0,0,0,2.776-.573A15.252,15.252,0,0,0-8.938-112c3.289-3.636,6.757-7.571,10.914-12.387l.368-.425c2.009-2.329,3.906-4.53,6.616-5.9a.638.638,0,0,0,.279-.392l.042-.164-.21-.128c-.323-.195-.649-.388-.974-.58l-.331-.2c-.952-.551-1.964-1.142-2.915-1.772a9.681,9.681,0,0,0-6.12-1.834c-.789.045-2.806.029-4.14.017-.5,0-.894-.009-1.071-.006-.324.006-2.191-.013-3.213-.023l.568.641c.233.244.435.473.6.673a2.616,2.616,0,0,0,.967.85,9.341,9.341,0,0,0,2.707.57,38.825,38.825,0,0,0,4.337.011,6.212,6.212,0,0,1,4.633,1.947l.226.2-.21.219c-1.583,1.663-3.1,3.394-4.559,5.069l-.155.177c-1.538,1.774-2.933,3.372-4.421,4.954l-.077.081c-.117.132-.373.429-.659.761-1.648,1.912-5.507,6.389-6.768,7.331-.317.238-.615.444-.911.629A12.25,12.25,0,0,1-15.544-110.59Z" transform="translate(20.085 136.385)" fill="#fff"/></g></g></g></svg>