<svg xmlns="http://www.w3.org/2000/svg" viewBox="0 0 138.108 134.346"><path d="M135.411,423.151a2.7,2.7,0,0,0-2.7,2.7v13.993H5.395V425.848a2.7,2.7,0,1,0-5.395,0v16.69a2.7,2.7,0,0,0,2.7,2.7H135.411a2.7,2.7,0,0,0,2.7-2.7v-16.69A2.7,2.7,0,0,0,135.411,423.151Z" transform="translate(0 -310.89)" fill="#fff" fill-rule="evenodd"/><path d="M135.411,80.965H120.182L76.191,58.814a13.091,13.091,0,0,0-4.439-23.789v-5.16A20.405,20.405,0,0,0,89.433,9.671a2.7,2.7,0,0,0-2.7-2.7H51.373a2.7,2.7,0,0,0-2.7,2.7A20.405,20.405,0,0,0,66.357,29.866v7.578a2.7,2.7,0,0,0,2.7,2.7,7.7,7.7,0,1,1-7.023,10.867,2.7,2.7,0,0,0-4.917,2.221,13.093,13.093,0,0,0,4.8,5.587L17.927,80.965H2.7a2.7,2.7,0,0,0-2.7,2.7v16.69a2.7,2.7,0,1,0,5.395,0V86.36H132.714v13.993a2.7,2.7,0,1,0,5.395,0V83.662A2.7,2.7,0,0,0,135.411,80.965Zm-81.1-68.6h29.48a14.985,14.985,0,0,1-29.48,0Zm14.74,48.892,39.132,19.7H29.922Z" transform="translate(0 -6.974)" fill="#fff" fill-rule="evenodd"/><path d="M58.7,361.209V332.344a2.7,2.7,0,1,0-5.395,0v28.865a2.7,2.7,0,1,0,5.395,0Z" transform="translate(-38.927 -242.608)" fill="#fff" fill-rule="evenodd"/><path d="M187.164,361.209V332.344a2.7,2.7,0,0,0-5.395,0v28.865a2.7,2.7,0,1,0,5.395,0Z" transform="translate(-132.738 -242.608)" fill="#fff" fill-rule="evenodd"/><path d="M122.932,361.209V332.344a2.7,2.7,0,1,0-5.395,0v28.865a2.7,2.7,0,1,0,5.395,0Z" transform="translate(-85.832 -242.608)" fill="#fff" fill-rule="evenodd"/><path d="M315.625,361.209V332.344a2.7,2.7,0,1,0-5.395,0v28.865a2.7,2.7,0,1,0,5.395,0Z" transform="translate(-226.548 -242.608)" fill="#fff" fill-rule="evenodd"/><path d="M444.088,361.209V332.344a2.7,2.7,0,1,0-5.395,0v28.865a2.7,2.7,0,1,0,5.395,0Z" transform="translate(-320.358 -242.608)" fill="#fff" fill-rule="evenodd"/><path d="M251.395,361.209V332.344a2.7,2.7,0,1,0-5.395,0v28.865a2.7,2.7,0,1,0,5.395,0Z" transform="translate(-179.643 -242.608)" fill="#fff" fill-rule="evenodd"/><path d="M379.857,361.209V332.344a2.7,2.7,0,1,0-5.395,0v28.865a2.7,2.7,0,1,0,5.395,0Z" transform="translate(-273.453 -242.608)" fill="#fff" fill-rule="evenodd"/><path d="M2.7,388.545a2.7,2.7,0,1,0-2.7-2.7A2.7,2.7,0,0,0,2.7,388.545Z" transform="translate(0 -281.679)" fill="#fff" fill-rule="evenodd"/><path d="M494.7,383.15a2.7,2.7,0,1,0,2.7,2.7A2.7,2.7,0,0,0,494.7,383.15Z" transform="translate(-359.286 -281.679)" fill="#fff" fill-rule="evenodd"/></svg>