<svg xmlns="http://www.w3.org/2000/svg" viewBox="0 0 132.085 133.831"><path d="M71,199.037v37.531a2.037,2.037,0,0,0,2.037,2.037h45.677a2.037,2.037,0,0,0,2.037-2.037V199.037A2.037,2.037,0,0,0,118.714,197H73.037A2.037,2.037,0,0,0,71,199.037Zm20.075,2.036h9.31v7.875l-3.885-1.68a1.94,1.94,0,0,0-1.575,0l-3.849,1.68Zm-16,0H87v10.974a1.987,1.987,0,0,0,2.787,1.87l5.917-2.56,5.921,2.56a2.028,2.028,0,0,0,2.832-1.87V201.073h12.219v33.458h-41.6Z" transform="translate(-58.781 -147.25)" fill="#fff"/><path d="M273,199.037v37.531a2.037,2.037,0,0,0,2.036,2.037h47.132a2.037,2.037,0,0,0,2.037-2.037V199.037A2.036,2.036,0,0,0,322.168,197H275.036A2.037,2.037,0,0,0,273,199.037Zm20.366,2.036H304.13v8l-4.707-1.833a1.867,1.867,0,0,0-1.408,0l-4.65,1.833Zm-16.292,0h12.219v10.974a1.955,1.955,0,0,0,2.681,1.9l6.738-2.623,6.745,2.623a2.018,2.018,0,0,0,2.748-1.9V201.073h12.219v33.458h-43.35Z" transform="translate(-202.011 -147.25)" fill="#fff"/><path d="M217.168,26H170.037A2.037,2.037,0,0,0,168,28.037V65.567a2.037,2.037,0,0,0,2.037,2.037h47.132a2.037,2.037,0,0,0,2.037-2.037V28.037A2.037,2.037,0,0,0,217.168,26Zm-28.8,4.073h10.474v7.8l-4.564-1.818a1.769,1.769,0,0,0-1.382,0l-4.528,1.818Zm26.766,33.458H172.073V30.073h12.219v10.79a1.943,1.943,0,0,0,2.675,1.9l6.653-2.618,6.662,2.618a2.008,2.008,0,0,0,.739.141,1.812,1.812,0,0,0,1.075-.354,1.972,1.972,0,0,0,.816-1.682V30.073h12.219Z" transform="translate(-127.56 -26)" fill="#fff"/><path d="M142.465,374.073h16.583a2.037,2.037,0,1,0,0-4.073H31.037a2.037,2.037,0,1,0,0,4.073H47.62v25.6H31.037a2.037,2.037,0,0,0,0,4.073H159.049a2.037,2.037,0,0,0,0-4.073H142.465Zm-4.073,15.473v10.13h-18.62v-10.13a2.037,2.037,0,1,0-4.073,0v10.13H97.079v-10.13a2.037,2.037,0,0,0-4.073,0v10.13H74.386v-10.13a2.037,2.037,0,0,0-4.073,0v10.13H51.693v-25.6h7.564v10.218a2.037,2.037,0,1,0,4.073,0V374.073h18.62v10.218a2.037,2.037,0,1,0,4.073,0V374.073h18.62v10.218a2.037,2.037,0,1,0,4.073,0V374.073h18.62v10.218a2.037,2.037,0,1,0,4.073,0V374.073h6.982Z" transform="translate(-29 -269.918)" fill="#fff"/></svg>