<svg xmlns="http://www.w3.org/2000/svg" viewBox="0 0 102.653 136.166"><g transform="translate(0)"><g transform="translate(0 0)"><path d="M180.166,167.228,166.784,180.61l-4-4a2.927,2.927,0,0,0-4.139,4.139l6.07,6.07a3,3,0,0,0,4.139,0l15.451-15.451a2.927,2.927,0,0,0-4.139-4.139Z" transform="translate(-120.143 -109.009)" fill="#fff"/><path d="M148.153,122A25.949,25.949,0,0,0,129.8,166.285a26.382,26.382,0,0,0,18.349,7.588,25.936,25.936,0,1,0,0-51.873Zm14.072,40.008a19.866,19.866,0,0,1-33.938-14.072,18.753,18.753,0,0,1,5.794-14.072,19.9,19.9,0,0,1,28.144,28.144Z" transform="translate(-96.821 -79.922)" fill="#fff"/><path d="M150.961,27.178V27.04L124.748.69,124.61.552a.135.135,0,0,1-.138-.138.135.135,0,0,1-.138-.138A2.269,2.269,0,0,0,122.955,0H57.976a9.381,9.381,0,0,0-6.622,2.759,9.635,9.635,0,0,0-2.759,6.622v117.4a9.16,9.16,0,0,0,2.621,6.622,9.9,9.9,0,0,0,6.622,2.759h84.017a9.181,9.181,0,0,0,6.484-2.621l.138-.138a9.635,9.635,0,0,0,2.759-6.622V28.558A4.081,4.081,0,0,0,150.961,27.178ZM125.438,9.933h.138l15.589,15.589H129.715a4.452,4.452,0,0,1-2.9-1.1l-.138-.138a4.3,4.3,0,0,1-1.242-2.9Zm20,116.713a3.455,3.455,0,0,1-1.1,2.483l-.138.138a3.913,3.913,0,0,1-2.345.966H57.976a3.966,3.966,0,0,1-2.483-.966,3.325,3.325,0,0,1-.966-2.483V9.243h-.138a3.966,3.966,0,0,1,.966-2.483,3.325,3.325,0,0,1,2.483-.966h61.806V21.384a10.019,10.019,0,0,0,3.035,7.174l.138.138a9.7,9.7,0,0,0,6.9,2.759h15.727Z" transform="translate(-48.583 0)" fill="#fff"/></g></g></svg>