<svg xmlns="http://www.w3.org/2000/svg" viewBox="0 0 132.734 120.057"><g transform="translate(0 0)"><path d="M132.734,40.874c0-.015,0-.029,0-.044,0-.058,0-.115-.012-.171,0-.021-.006-.041-.01-.062-.008-.052-.017-.1-.029-.154,0-.02-.01-.04-.015-.06-.015-.055-.032-.108-.052-.161,0-.01-.006-.02-.01-.03l-5.274-13.5a3.5,3.5,0,0,0-3.28-2.24h-9.6a1.9,1.9,0,0,0,0,3.791h9.42l4.2,10.745H88.379L85.893,28.241h14.656a1.9,1.9,0,1,0,0-3.791H23.87a3.5,3.5,0,0,0-3.28,2.24l-5.274,13.5c0,.01-.006.02-.01.03-.02.053-.037.106-.052.161-.005.02-.011.04-.015.06-.012.051-.022.1-.029.154,0,.021-.007.041-.01.062-.006.057-.01.114-.012.171,0,.015,0,.029,0,.044s0,0,0,.007V68.727a1.9,1.9,0,1,0,3.791,0V42.777H59.152V71.586a2.868,2.868,0,0,0,4.769,2.147L73.96,64.84,84,73.733a2.868,2.868,0,0,0,4.77-2.147V42.777h40.176V127.79a2.47,2.47,0,0,1-2.467,2.467H91.724c0-.022,0-.043,0-.065,0-.17-.008-.34-.023-.508a6.82,6.82,0,0,0,8.029-9.238c-.067-.158-.14-.312-.217-.463l-.042-.083q-.114-.216-.242-.422l-.051-.079c-.09-.141-.184-.279-.284-.412l-.006-.007c-.1-.131-.2-.258-.312-.382l-.059-.068q-.161-.179-.333-.346l-.068-.064c-.121-.113-.244-.223-.373-.327l-.013-.01c-.127-.1-.258-.2-.392-.291l-.073-.051q-.2-.135-.412-.257l-.034-.021a6.824,6.824,0,0,0-1.28-11.184q-.3-.157-.615-.286l-29.5-12.028,13.731-4.25a6.227,6.227,0,0,0,4.1-7.766,6.085,6.085,0,0,0-2.08-3,6.381,6.381,0,0,0-5.236-1.228l-.027.006c-.1.024-10.631,2.391-21.625,4.534l-1.431.277-1.107.212-.312.059q-.961.182-1.864.35l-.72.133c-13.807,2.543-17.685,2.589-18.762,2.443l-.012,0-.047-.007L30,85.418l-.022,0a1.472,1.472,0,0,1-.16-.037l-.311-.127.387-.949a3.749,3.749,0,0,0-.016-2.888,3.817,3.817,0,0,0-.355-.656,3.747,3.747,0,0,0-1.7-1.375l-10.18-4.151A3.773,3.773,0,0,0,12.727,77.3L.279,107.83a3.778,3.778,0,0,0,2.069,4.918l10.18,4.151a3.773,3.773,0,0,0,4.918-2.069l.094-.229,2.347.957,0,0A20.82,20.82,0,0,1,26,119.4q.488.442.949.915t.89.975q.215.251.422.509a24.628,24.628,0,0,0,9.89,7.379l2.641,1.077H21.443a2.47,2.47,0,0,1-2.467-2.467v-4.8a1.9,1.9,0,0,0-3.791,0v4.8a6.264,6.264,0,0,0,6.257,6.257h28.64L74.5,144a6.818,6.818,0,0,0,9.354-7.044,7.04,7.04,0,0,0,3.78-.5,6.758,6.758,0,0,0,2.932-2.411h35.911a6.264,6.264,0,0,0,6.257-6.257V40.882A.068.068,0,0,1,132.734,40.874ZM65.917,28.241H82l2.486,10.745H63.431ZM59.54,38.986H19.856l4.2-10.745H62.027Zm25.437,30.55h0L75.861,61.46a2.871,2.871,0,0,0-3.8,0l-9.115,8.076V42.777H84.977ZM13.943,113.383,3.8,109.245l12.435-30.5,10.148,4.138Zm75.722,11.438-2.175-.887h-.006l-22.654-9.237A1.9,1.9,0,0,0,63.4,118.2l22.655,9.237a3.022,3.022,0,0,1,.275.128c.025.013.048.029.072.043.062.035.125.071.184.11.028.019.054.041.082.06.052.037.105.074.155.115.03.024.057.052.086.077.044.039.089.077.131.118s.054.06.082.089.077.081.113.124.051.068.077.1.066.084.1.128.047.076.07.113.055.086.08.131.041.083.061.124.045.088.065.133.034.089.051.133.036.089.051.135.026.093.039.139.027.091.038.137.017.095.026.142.018.094.025.142.009.1.012.144.01.1.011.144,0,.1,0,.143,0,.1,0,.148-.01.094-.015.141-.01.1-.018.151-.019.092-.029.138-.02.1-.034.153-.028.089-.042.134-.031.1-.05.152c-.016.034-.032.069-.047.1,0,.008-.005.016-.008.024a2.946,2.946,0,0,1-1.556,1.535,3.208,3.208,0,0,1-2.468.031l-4.014-1.637-.056-.02c-.019-.009-.037-.018-.056-.026L61.11,123.814a1.9,1.9,0,0,0-1.431,3.51l18.426,7.513c.02.008.04.014.06.021s.034.017.053.025a3.029,3.029,0,1,1-2.287,5.61L51.174,130.4l0,0-11.593-4.727a20.824,20.824,0,0,1-8.364-6.241,24.62,24.62,0,0,0-9.89-7.379h0l-2.35-.958L23.654,99.61l4.424-10.849.326.133a4.924,4.924,0,0,0,1.924.348,49.14,49.14,0,0,0,8.276-.7c2.97-.419,6.612-1.026,10.865-1.808l.314-.058.6-.111.473-.088.546-.1.588-.111.476-.09.732-.14.379-.073,1.146-.222c10.956-2.131,21.531-4.5,22.006-4.61.047-.01.095-.016.142-.023a2.489,2.489,0,0,1,2.759,1.66,2.429,2.429,0,0,1-1.6,3.032L59.243,91.609a1.9,1.9,0,0,0-.155,3.566l34.4,14.028a3.03,3.03,0,0,1-1.127,5.835h-.017c-.092,0-.184,0-.276-.012-.027,0-.054-.008-.081-.011-.07-.009-.141-.017-.21-.03-.044-.009-.088-.022-.131-.032s-.105-.023-.157-.038-.106-.037-.159-.056-.085-.027-.126-.044l-22.657-9.238a1.9,1.9,0,0,0-1.431,3.51l27.468,11.2a3.046,3.046,0,0,1,.53.279,3.032,3.032,0,0,1,1.231,3.385q-.043.143-.1.284a3.05,3.05,0,0,1-.131.281,3.1,3.1,0,0,1-.7.872c-.017.015-.033.031-.05.045a3.045,3.045,0,0,1-3.065.464Z" transform="translate(0 -24.45)" fill="#fff"/></g></svg>