<svg xmlns="http://www.w3.org/2000/svg" viewBox="0 0 68.437 70.77"><g transform="translate(-8.438)"><g transform="translate(8.438 10.894)"><g transform="translate(0)"><path d="M76.875,105.538a6.516,6.516,0,0,0-6.509-6.509h-11.8a20.677,20.677,0,0,0,2.8-10.743v-.7h0a8.778,8.778,0,0,0-8.641-8.776h-.066a4.459,4.459,0,0,0-4.394,4.012c-.879,10.613-11.106,16.082-17.946,19.408v-1.1a2.077,2.077,0,0,0-2.077-2.077H10.515a2.077,2.077,0,0,0-2.077,2.077v35.451a2.077,2.077,0,0,0,2.077,2.077H23.809a6.515,6.515,0,0,0,5.823-3.606c7.4,3.214,13.826,3.632,21.207,3.632,1.261,0,2.55-.012,3.877-.025,1.466-.014,2.983-.028,4.572-.028h6.568a6.506,6.506,0,0,0,5.6-9.816,6.5,6.5,0,0,0,2.216-8.863,6.5,6.5,0,0,0,1.412-9.945A6.485,6.485,0,0,0,76.875,105.538ZM26.164,132.154a2.357,2.357,0,0,1-2.354,2.354H21.455v-6.786a2.077,2.077,0,1,0-4.154,0v6.786H12.593v-31.3H26.164v28.943Zm39.771-20.107h4.352a2.354,2.354,0,0,1,0,4.708H65.935a2.077,2.077,0,1,0,0,4.154h2.136a2.354,2.354,0,0,1,0,4.708H65.856a2.077,2.077,0,0,0,0,4.154,2.354,2.354,0,1,1,0,4.708H59.288c-1.609,0-3.135.014-4.612.028-9.26.087-16.063.152-24.331-3.687V106.833h0l.664-.321c3.611-1.741,8.556-4.125,12.809-7.737,5.206-4.421,8.095-9.673,8.586-15.609a.307.307,0,0,1,.253-.2h0a4.645,4.645,0,0,1,4.551,4.624v.7c0,4.318-1.126,7.05-3.482,10.743h-3.3a2.077,2.077,0,0,0,0,4.154H70.366a2.354,2.354,0,0,1,0,4.708H65.935a2.077,2.077,0,0,0,0,4.155Z" transform="translate(-8.438 -78.812)" fill="#fff"/></g></g><g transform="translate(66.046 15.351)"><path d="M431.728,111.062H427.3a2.077,2.077,0,1,0,0,4.154h4.431a2.077,2.077,0,0,0,0-4.154Z" transform="translate(-425.219 -111.062)" fill="#fff"/></g><g transform="translate(35.027 15.351)"><g transform="translate(0)"><path d="M207.308,111.062h-4.431a2.077,2.077,0,1,0,0,4.154h4.431a2.077,2.077,0,1,0,0-4.154Z" transform="translate(-200.799 -111.062)" fill="#fff"/></g></g><g transform="translate(43.889 0)"><g transform="translate(0 0)"><path d="M271.009,4.877l-2.216-3.838a2.077,2.077,0,1,0-3.6,2.077l2.216,3.838a2.077,2.077,0,1,0,3.6-2.077Z" transform="translate(-264.917 0)" fill="#fff"/></g></g><g transform="translate(59.399 0)"><g transform="translate(0 0)"><path d="M382.458.279a2.077,2.077,0,0,0-2.837.76l-2.216,3.838A2.077,2.077,0,1,0,381,6.954l2.216-3.838A2.077,2.077,0,0,0,382.458.279Z" transform="translate(-377.126 0)" fill="#fff"/></g></g></g></svg>