<?xml version="1.0" standalone="no"?>
<!DOCTYPE svg PUBLIC "-//W3C//DTD SVG 20010904//EN"
 "http://www.w3.org/TR/2001/REC-SVG-20010904/DTD/svg10.dtd">
<svg version="1.0" xmlns="http://www.w3.org/2000/svg"
 width="700.000000pt" height="700.000000pt" viewBox="0 0 700.000000 700.000000"
 preserveAspectRatio="xMidYMid meet">
<metadata>
Created by potrace 1.11, written by Peter Selinger 2001-2013
</metadata>
<g transform="translate(0.000000,700.000000) scale(0.100000,-0.100000)"
fill="#000000" stroke="none">
<path d="M2875 6980 c-272 -50 -585 -149 -823 -261 -46 -21 -85 -39 -86 -39
-11 0 -272 -150 -357 -205 -517 -335 -952 -823 -1230 -1377 -136 -271 -250
-598 -303 -868 -8 -41 -17 -84 -19 -95 -3 -11 -8 -40 -12 -65 -3 -25 -9 -58
-11 -74 -3 -16 -7 -50 -9 -75 -3 -25 -8 -82 -12 -126 -15 -155 -8 -585 12
-706 2 -13 6 -46 10 -74 17 -135 34 -224 80 -405 31 -121 100 -343 125 -395 5
-11 30 -69 55 -130 379 -894 1170 -1626 2090 -1933 107 -36 156 -51 275 -83
69 -19 266 -58 305 -61 l40 -3 0 333 c0 326 0 333 -20 337 -209 44 -412 105
-580 176 -90 37 -308 147 -352 176 -15 11 -62 41 -103 68 -450 290 -838 754
-1063 1271 -72 167 -168 501 -192 669 -3 22 -8 51 -10 65 -3 14 -7 52 -10 85
-3 33 -8 78 -11 100 -8 55 -7 323 0 425 16 201 54 406 121 645 52 183 204 512
325 700 35 55 67 102 70 105 3 3 17 21 30 40 79 116 277 336 411 456 267 239
613 442 964 564 84 29 298 87 355 96 72 12 65 -25 65 346 0 288 -2 333 -15
334 -8 1 -60 -6 -115 -16z"/>
<path d="M3999 6997 c-1 -1 -2 -151 -3 -334 l-1 -332 132 -31 c799 -189 1448
-678 1852 -1398 137 -243 259 -572 305 -822 3 -14 9 -48 15 -75 5 -28 12 -73
15 -100 3 -28 8 -59 10 -70 16 -83 23 -431 11 -550 -17 -174 -24 -229 -36
-283 -5 -23 -12 -59 -15 -80 -3 -20 -7 -45 -10 -54 -3 -9 -6 -25 -8 -35 -13
-67 -86 -297 -123 -388 -13 -33 -28 -69 -32 -80 -33 -82 -148 -300 -211 -401
-262 -416 -614 -749 -1054 -993 -222 -123 -553 -244 -776 -285 -14 -2 -36 -7
-50 -11 l-25 -6 0 -334 c0 -184 2 -335 5 -335 4 0 87 14 200 35 19 3 93 21
165 40 1059 275 1918 1020 2353 2040 88 207 186 528 216 705 3 19 8 46 10 60
12 62 16 88 22 135 3 28 8 61 10 75 19 118 26 545 11 710 -10 114 -16 171 -22
196 -2 11 -7 45 -11 75 -3 30 -8 57 -10 60 -2 4 -6 24 -10 45 -18 121 -125
500 -169 599 -8 17 -33 75 -56 130 -202 483 -560 967 -964 1305 -282 235 -517
381 -885 548 -173 79 -504 179 -715 216 -123 23 -145 26 -146 23z"/>
<path d="M3868 4524 c10 -18 138 -161 192 -215 40 -39 59 -49 126 -67 112 -30
173 -35 389 -34 105 1 215 -3 245 -9 71 -14 167 -60 202 -96 l27 -28 -36 -40
c-33 -37 -156 -174 -178 -199 -5 -6 -39 -45 -75 -86 -36 -41 -67 -77 -70 -80
-3 -3 -30 -34 -60 -70 -30 -36 -57 -67 -60 -70 -3 -3 -20 -23 -39 -45 -19 -22
-69 -78 -111 -125 -43 -47 -135 -152 -206 -235 -174 -204 -278 -319 -414 -455
-142 -142 -144 -144 -255 -200 -99 -49 -110 -59 -206 -170 -35 -41 -69 -79
-75 -85 -12 -12 -123 -141 -143 -168 -14 -17 -11 -18 45 -12 56 6 75 8 154 21
135 22 324 95 455 176 147 91 218 158 440 412 33 38 67 76 76 85 15 16 257
293 300 345 13 16 31 36 39 45 9 9 43 47 75 86 33 38 65 75 70 81 6 6 66 77
135 159 277 328 349 399 531 521 107 72 122 85 137 131 13 38 15 35 -133 123
-49 29 -151 92 -225 138 -149 94 -206 122 -313 153 -68 20 -97 21 -559 24
-394 2 -486 0 -480 -11z"/>
<path d="M2665 4273 c-38 -2 -344 -4 -680 -6 -335 -2 -619 -6 -630 -9 -18 -5
-20 -13 -20 -109 1 -171 26 -271 97 -381 89 -139 220 -228 495 -337 76 -31 82
-35 87 -67 12 -61 93 -207 151 -272 114 -125 286 -218 521 -281 l42 -11 123
126 c158 161 151 154 145 154 -2 0 -36 6 -73 14 -38 8 -80 17 -93 19 -51 10
-88 20 -195 53 -117 35 -177 70 -234 137 l-33 37 98 0 c55 0 254 1 444 1 l345
0 162 167 c89 91 161 168 159 169 -2 2 -302 4 -667 4 -615 1 -671 2 -754 20
-195 42 -333 105 -418 191 -32 33 -56 62 -53 65 6 6 1767 6 1806 0 82 -13 117
-22 182 -47 l73 -27 70 58 c38 32 94 83 124 113 l54 54 -114 56 c-191 93 -225
99 -634 103 -192 2 -386 4 -430 6 -44 1 -111 1 -150 0z"/>
</g>
</svg>
