<svg xmlns="http://www.w3.org/2000/svg" viewBox="0 0 171.209 162.105"><g transform="translate(-56.1 -62.007)"><path d="M77.879,150.877a75.343,75.343,0,0,1,55.777-72.237V76.007A75.892,75.892,0,0,0,82.422,97.87,74.837,74.837,0,0,0,60.1,150.877c0,41.311,34.124,74.919,76.062,74.919a78.764,78.764,0,0,0,8.92-.511C107.3,220.949,77.879,189.236,77.879,150.877Z" transform="translate(-2.317 -8.109)" fill="#d4e1f4"/><path d="M363.451,96.759a15.874,15.874,0,1,0,15.793,15.874A15.874,15.874,0,0,0,363.451,96.759Zm0,25.857a9.983,9.983,0,1,1,9.9-9.983A9.983,9.983,0,0,1,363.451,122.616Z" transform="translate(-168.787 -20.129)" fill="#d6c247"/><path d="M214.188,161.574l-1.729,5.631a87.182,87.182,0,0,1,57.76,58.145l5.643-1.692A93.078,93.078,0,0,0,214.188,161.574Z" transform="translate(-90.569 -57.673)" fill="#0635c9"/><path d="M169.146,180.574a93.25,93.25,0,0,0-5.057,55.606l5.756-1.255a87.357,87.357,0,0,1,4.734-52.076Z" transform="translate(-61.327 -68.678)" fill="#0635c9"/><path d="M214,127.076l-.707-2.861-5.717,1.417.707,2.861A74.215,74.215,0,0,1,189.133,198.4c.037-1.073.061-2.146.061-3.211,0-3.125-.158-6.282-.469-9.383l-5.861.589c.291,2.9.439,5.863.439,8.794,0,2.657-.122,6.181-.362,8.842a73.88,73.88,0,0,1-40.8,16.353,87.045,87.045,0,0,1-28.588-35.91l-5.413,2.323a92.858,92.858,0,0,0,24.735,33.745A74.206,74.206,0,0,1,70.4,112.1a86.842,86.842,0,0,1,25.913-3.928,88.735,88.735,0,0,1,9.359.5l.623-5.857a94.662,94.662,0,0,0-9.982-.531,84.106,84.106,0,0,0-21.864,2.992,74.223,74.223,0,0,1,61.776-33.118q3.247,0,6.48.289a93.813,93.813,0,0,0-26.535,26.329l4.9,3.265a94.432,94.432,0,0,1,30.483-28.189l-.2-.126a74.138,74.138,0,0,1,19.385,6.931l2.609,1.37,2.74-5.215-2.609-1.37A80.133,80.133,0,0,0,65.954,107.927l-.737,1.376a80.1,80.1,0,0,0,71.007,117.209q2.115,0,4.2-.11c.08.055.158.112.238.168l.842-.236a.222.222,0,0,1,.08.029l.031-.037A80.167,80.167,0,0,0,214,127.069Z" transform="translate(0 -2.457)" fill="#0635c9"/><path d="M363.2,71.254a32.534,32.534,0,0,0-45.439,0,33.163,33.163,0,0,0-9.856,21.4,31.087,31.087,0,0,0,1.948,13.032,33.81,33.81,0,0,0,7.422,11.559l21.08,22a2.945,2.945,0,0,0,4.254,0l21.08-22a33.82,33.82,0,0,0,7.423-11.559,31.076,31.076,0,0,0,1.947-13.032A33.163,33.163,0,0,0,363.2,71.254Zm2.389,32.375a27.973,27.973,0,0,1-6.156,9.539l-18.952,19.782-18.952-19.782a27.973,27.973,0,0,1-6.155-9.539,25.235,25.235,0,0,1-1.592-10.576,27.278,27.278,0,0,1,8.11-17.6,26.643,26.643,0,0,1,37.178,0,27.277,27.277,0,0,1,8.11,17.6A25.235,25.235,0,0,1,365.587,103.63Z" transform="translate(-145.815)" fill="#d6c247"/><path d="M345.5,303.6a11.511,11.511,0,1,0,0,23.021,11.066,11.066,0,0,0,1.687-.126,11.51,11.51,0,0,0-1.687-22.9Zm.8,17.072a5.241,5.241,0,0,1-.8.058,5.62,5.62,0,0,1-1.346-11.076,5.508,5.508,0,0,1,1.346-.164,5.619,5.619,0,0,1,.8,11.181Z" transform="translate(-160.962 -139.941)" fill="#d6c247"/><path d="M163.307,303.535a11.511,11.511,0,1,0,11.51,11.511A11.511,11.511,0,0,0,163.307,303.535Zm1.949,16.783a5.621,5.621,0,1,1,3.671-5.272A5.621,5.621,0,0,1,165.256,320.318Z" transform="translate(-55.43 -139.901)" fill="#d6c247"/><path d="M178.55,137.632a11.52,11.52,0,1,0,5.814,1.58A11.52,11.52,0,0,0,178.55,137.632Zm5.545,12.419a5.616,5.616,0,1,1,.074-.908A5.616,5.616,0,0,1,184.1,150.051Z" transform="translate(-64.25 -43.805)" fill="#d6c247"/></g></svg>