<svg xmlns="http://www.w3.org/2000/svg" width="96.215" height="92.445" viewBox="0 0 96.215 92.445"><path d="M81.488,36.219,46.23,18.9a1.355,1.355,0,0,0-1.2,0L9.761,36.173A1.362,1.362,0,0,0,9,37.4V68.466c0,8.969,5.591,19.544,13,24.6l22.861,15.591a1.363,1.363,0,0,0,1.536,0l8.361-5.7a1.363,1.363,0,1,0-1.537-2.253l-7.593,5.178L23.541,90.811c-6.735-4.592-11.814-14.2-11.814-22.346V38.248L45.62,21.64,79.506,38.292V68.466a23.622,23.622,0,0,1-.878,6.238,1.369,1.369,0,0,0,.963,1.675,1.349,1.349,0,0,0,1.662-.954,26.352,26.352,0,0,0,.98-6.959V37.443A1.348,1.348,0,0,0,81.488,36.219Z" transform="translate(-9 -18.758)" fill="#0635c9"/><path d="M109.1,83.243,82.483,70.177a1.381,1.381,0,0,0-1.209,0L54.716,83.205A1.324,1.324,0,0,0,54,84.43v24.927c0,6.31,4.2,14.339,9.414,17.9l17.711,12.1a1.325,1.325,0,0,0,.756.237,1.344,1.344,0,0,0,.762-.237l8.5-5.8A1.364,1.364,0,0,0,89.6,131.3l-7.736,5.276L64.948,125c-4.485-3.057-8.224-10.221-8.224-15.643V85.281L81.946,72.92l25.222,12.4v24.04a17.879,17.879,0,0,1-1.447,6.523,1.356,1.356,0,0,0,.737,1.775,1.39,1.39,0,0,0,1.8-.752,20.589,20.589,0,0,0,1.638-7.546V84.467a1.394,1.394,0,0,0-.794-1.224Z" transform="translate(-45.232 -60.05)" fill="#0635c9"/><path d="M162.243,214.153l-10.812,9.9-5.317-5.766a1.363,1.363,0,1,0-2,1.849l6.238,6.765a1.363,1.363,0,0,0,1.923.081l11.814-10.821a1.363,1.363,0,1,0-1.842-2.011Z" transform="translate(-117.503 -175.808)" fill="#0635c9"/><path d="M286.386,321.568c0-.021,0-.042-.006-.063s-.006-.046-.01-.068-.008-.043-.013-.065-.01-.043-.017-.065-.012-.043-.019-.064-.015-.042-.023-.063-.016-.041-.025-.061-.019-.04-.029-.06-.02-.039-.031-.058l-.034-.056-.039-.058c-.013-.019-.025-.034-.038-.05s-.031-.039-.047-.057l-.022-.026-7.282-7.966a4.232,4.232,0,0,0-3.086-1.388h-7.581v-3.282A4.219,4.219,0,0,0,263.8,304H238.141A4.093,4.093,0,0,0,234,308.118v23.6a4.18,4.18,0,0,0,4.142,4.22h2.32a6.309,6.309,0,0,0,12.321,0h16.086a6.309,6.309,0,0,0,12.321,0H282.2a4.221,4.221,0,0,0,4.19-4.22V321.676c0-.011,0-.022,0-.034S286.388,321.593,286.386,321.568Zm-10.722-7.441a1.524,1.524,0,0,1,1.078.529l5.184,5.7H268.084v-6.233ZM236.726,331.72v-23.6a1.365,1.365,0,0,1,1.415-1.392H263.8a1.492,1.492,0,0,1,1.56,1.392v25.1H252.782a6.309,6.309,0,0,0-12.321,0h-2.32a1.451,1.451,0,0,1-1.415-1.494Zm9.9,6.41a3.584,3.584,0,1,1,3.584-3.584A3.584,3.584,0,0,1,246.622,338.131Zm28.407,0a3.584,3.584,0,1,1,3.584-3.584A3.584,3.584,0,0,1,275.028,338.131Zm8.637-6.41a1.491,1.491,0,0,1-1.463,1.494h-1.013a6.309,6.309,0,0,0-12.321,0h-.785V323.086h15.581Z" transform="translate(-190.176 -248.443)" fill="#d4c045"/><path d="M417.659,356.529l5.184,5.7H409V356" transform="translate(-331.093 -290.316)" fill="#d4e1f4"/><path d="M82.067,137.693c-4.485-3.057-8.224-10.221-8.224-15.644V97.973l23.09-11.316-3.71-1.824L68,97.194V121.27c0,5.423,3.74,12.587,8.224,15.644l16.919,11.572L95.5,146.88Z" transform="translate(-56.509 -71.964)" fill="#d4e1f4"/></svg>