<svg xmlns="http://www.w3.org/2000/svg" width="63" height="63" viewBox="0 0 63 63"><g transform="translate(-15 -3513)"><circle cx="31.5" cy="31.5" r="31.5" transform="translate(15 3513)" fill="#022086"/><g transform="translate(27.879 3524.874)"><path d="M71,197.567v10.454a.567.567,0,0,0,.567.567H84.29a.567.567,0,0,0,.567-.567V197.567A.567.567,0,0,0,84.29,197H71.567A.567.567,0,0,0,71,197.567Zm5.592.567h2.593v2.193L78.1,199.86a.54.54,0,0,0-.439,0l-1.072.468Zm-4.457,0h3.322v3.057a.553.553,0,0,0,.776.521L77.881,201l1.649.713a.565.565,0,0,0,.789-.521v-3.057h3.4v9.319H72.135Z" transform="translate(-67.596 -183.143)" fill="#fff"/><path d="M273,197.567v10.454a.567.567,0,0,0,.567.567H286.7a.567.567,0,0,0,.567-.567V197.567A.567.567,0,0,0,286.7,197H273.567A.567.567,0,0,0,273,197.567Zm5.673.567h3v2.228l-1.311-.511a.52.52,0,0,0-.392,0l-1.3.511Zm-4.538,0h3.4v3.057a.544.544,0,0,0,.747.529l1.877-.731,1.879.731a.562.562,0,0,0,.765-.529v-3.057h3.4v9.319H274.134Z" transform="translate(-253.227 -183.143)" fill="#fff"/><path d="M181.7,26H168.567a.567.567,0,0,0-.567.567V37.021a.567.567,0,0,0,.567.567H181.7a.567.567,0,0,0,.567-.567V26.567A.567.567,0,0,0,181.7,26Zm-8.023,1.135h2.917v2.173l-1.271-.506a.493.493,0,0,0-.385,0l-1.261.506Zm7.455,9.319H169.134V27.135h3.4V30.14a.541.541,0,0,0,.745.528l1.853-.729,1.856.729a.559.559,0,0,0,.206.039.5.5,0,0,0,.3-.1.549.549,0,0,0,.227-.469V27.135h3.4Z" transform="translate(-156.736 -26)" fill="#fff"/><path d="M60.6,371.135h4.619a.567.567,0,1,0,0-1.134H29.567a.567.567,0,1,0,0,1.134h4.619v7.131H29.567a.567.567,0,0,0,0,1.135H65.223a.567.567,0,1,0,0-1.135H60.6Zm-1.135,4.31v2.822H54.283v-2.822a.567.567,0,1,0-1.135,0v2.822H47.963v-2.822a.567.567,0,1,0-1.135,0v2.822H41.642v-2.822a.567.567,0,1,0-1.135,0v2.822H35.321v-7.131h2.107v2.846a.567.567,0,1,0,1.135,0v-2.846h5.186v2.846a.567.567,0,1,0,1.135,0v-2.846h5.186v2.846a.567.567,0,1,0,1.135,0v-2.846H56.39v2.846a.567.567,0,1,0,1.135,0v-2.846H59.47Z" transform="translate(-29 -342.124)" fill="#fff"/></g></g></svg>