<svg xmlns="http://www.w3.org/2000/svg" xmlns:xlink="http://www.w3.org/1999/xlink" width="112.273" height="112.273" viewBox="0 0 112.273 112.273"><defs><filter id="a" x="0" y="0" width="112.273" height="112.273" filterUnits="userSpaceOnUse"><feOffset dy="3" input="SourceAlpha"/><feGaussianBlur stdDeviation="8" result="b"/><feFlood flood-color="#000d3a" flood-opacity="0.361"/><feComposite operator="in" in2="b"/><feComposite in="SourceGraphic"/></filter></defs><g transform="translate(24 20.162)"><g transform="matrix(1, 0, 0, 1, -24, -20.16)" filter="url(#a)"><ellipse cx="32.137" cy="32.137" rx="32.137" ry="32.137" transform="translate(24 21)" fill="#fff"/></g><g transform="translate(0 0)"><path d="M67.378,106.658A30.844,30.844,0,0,1,90.212,77.085V76.007a31.069,31.069,0,0,0-20.974,8.95,30.637,30.637,0,0,0-9.138,21.7c0,16.912,13.97,30.671,31.138,30.671a32.244,32.244,0,0,0,3.652-.209A30.884,30.884,0,0,1,67.378,106.658Z" transform="translate(-59.411 -73.595)" fill="#d4e1f4"/><path d="M354.028,96.759a6.5,6.5,0,1,0,6.465,6.5A6.5,6.5,0,0,0,354.028,96.759Zm0,10.585a4.087,4.087,0,1,1,4.054-4.087A4.087,4.087,0,0,1,354.028,107.344Z" transform="translate(-297.302 -90.772)" fill="#d6c247"/><path d="M213.167,161.574l-.708,2.305a35.691,35.691,0,0,1,23.646,23.8l2.31-.692A38.1,38.1,0,0,0,213.167,161.574Z" transform="translate(-185.526 -144.423)" fill="#0635c9"/><path d="M164.911,180.574a38.175,38.175,0,0,0-2.07,22.764l2.356-.514a35.762,35.762,0,0,1,1.938-21.319Z" transform="translate(-143.738 -160.15)" fill="#0635c9"/><path d="M120.741,91.151l-.289-1.171-2.341.58.29,1.171a30.382,30.382,0,0,1-7.839,28.62c.015-.439.025-.879.025-1.315,0-1.28-.065-2.572-.192-3.841l-2.4.241c.119,1.189.18,2.4.18,3.6,0,1.088-.05,2.53-.148,3.62a30.245,30.245,0,0,1-16.7,6.694,35.635,35.635,0,0,1-11.7-14.7l-2.216.951a38.014,38.014,0,0,0,10.126,13.815A30.379,30.379,0,0,1,61.954,85.02a35.552,35.552,0,0,1,10.608-1.608,36.328,36.328,0,0,1,3.831.2l.255-2.4A38.754,38.754,0,0,0,72.562,81a34.432,34.432,0,0,0-8.951,1.225A30.386,30.386,0,0,1,88.9,68.667q1.329,0,2.653.118A38.405,38.405,0,0,0,80.691,79.564L82.7,80.9A38.659,38.659,0,0,1,95.177,69.36l-.084-.052a30.351,30.351,0,0,1,7.936,2.837l1.068.561,1.122-2.135-1.068-.561a32.8,32.8,0,0,0-44.018,13.3l-.3.563A32.79,32.79,0,0,0,88.9,131.858q.866,0,1.721-.045l.1.069.345-.1a.091.091,0,0,1,.033.012l.013-.015a32.819,32.819,0,0,0,29.631-40.634Z" transform="translate(-56.1 -65.519)" fill="#0635c9"/><path d="M330.5,65.793a13.319,13.319,0,0,0-18.6,0,13.576,13.576,0,0,0-4.035,8.76,12.726,12.726,0,0,0,.8,5.335A13.841,13.841,0,0,0,311.7,84.62l8.63,9.007a1.206,1.206,0,0,0,1.741,0l8.63-9.007a13.845,13.845,0,0,0,3.039-4.732,12.722,12.722,0,0,0,.8-5.335A13.576,13.576,0,0,0,330.5,65.793Zm.978,13.254a11.452,11.452,0,0,1-2.52,3.905l-7.759,8.1-7.759-8.1a11.452,11.452,0,0,1-2.52-3.905,10.331,10.331,0,0,1-.652-4.33,11.167,11.167,0,0,1,3.32-7.2,10.907,10.907,0,0,1,15.22,0,11.167,11.167,0,0,1,3.32,7.2A10.331,10.331,0,0,1,331.479,79.047Z" transform="translate(-264.474 -62.007)" fill="#d6c247"/><path d="M338.7,303.6a4.712,4.712,0,1,0,0,9.425,4.535,4.535,0,0,0,.691-.052,4.712,4.712,0,0,0-.691-9.373Zm.328,6.989a2.138,2.138,0,0,1-.328.024,2.3,2.3,0,0,1-.551-4.534,2.254,2.254,0,0,1,.551-.067,2.3,2.3,0,0,1,.328,4.577Z" transform="translate(-286.12 -261.988)" fill="#d6c247"/><path d="M156.508,303.535a4.713,4.713,0,1,0,4.712,4.712A4.713,4.713,0,0,0,156.508,303.535Zm.8,6.871a2.3,2.3,0,1,1,1.5-2.158A2.3,2.3,0,0,1,157.306,310.406Z" transform="translate(-135.311 -261.931)" fill="#d6c247"/><path d="M171.741,137.632a4.716,4.716,0,1,0,2.38.647A4.716,4.716,0,0,0,171.741,137.632Zm2.27,5.084a2.3,2.3,0,1,1,.03-.372A2.3,2.3,0,0,1,174.011,142.716Z" transform="translate(-147.915 -124.605)" fill="#d6c247"/></g></g></svg>