<svg xmlns="http://www.w3.org/2000/svg" width="219.941" height="171.214" viewBox="0 0 219.941 171.214"><g transform="translate(-180 -3941.053)"><path d="M177.444,137.632a10.414,10.414,0,1,0,5.256,1.428A10.414,10.414,0,0,0,177.444,137.632Zm5.013,11.227a5.077,5.077,0,1,1,.067-.821A5.077,5.077,0,0,1,182.456,148.859Z" transform="translate(192.659 3953.806)" fill="#d6c247"/><g transform="translate(179.992 3941.053)"><path d="M444.286,67.8a2.508,2.508,0,1,0-3.256-3.816l-5.414,4.619a2.508,2.508,0,0,0,3.256,3.816Z" transform="translate(-289.358 -42.191)" fill="#0635c9"/><path d="M430.592,226.673v3.086a2.508,2.508,0,0,0,5.016,0v-3.086a2.508,2.508,0,1,0-5.016,0Z" transform="translate(-286.6 -149.206)" fill="#0635c9"/><path d="M47.494,382.679a6.7,6.7,0,1,0,9.475,0A6.708,6.708,0,0,0,47.494,382.679Zm5.928,5.927a1.683,1.683,0,1,1,0-2.381A1.682,1.682,0,0,1,53.422,388.606Z" transform="translate(-30.303 -253.407)" fill="#0635c9"/><path d="M115.746,333.366a6.7,6.7,0,1,0-9.474,0A6.7,6.7,0,0,0,115.746,333.366Zm-5.927-5.928a1.682,1.682,0,0,1,2.381,0h0a1.683,1.683,0,1,1-2.381,0Z" transform="translate(-69.423 -214.277)" fill="#0635c9"/><path d="M84.969,359.914a2.507,2.507,0,0,0,0,3.547l2.642,2.642a2.508,2.508,0,0,0,3.547-3.546l-2.642-2.642A2.508,2.508,0,0,0,84.969,359.914Z" transform="translate(-56.062 -239.072)" fill="#0635c9"/><path d="M240.067,106.609h11.678a2.508,2.508,0,1,0,0-5.016H240.067a2.508,2.508,0,0,0,0,5.016Z" transform="translate(-158.116 -67.621)" fill="#0635c9"/><path d="M168.709,166.2h-41.69V156.16a4.72,4.72,0,0,0-4.715-4.715h-4.775V140.6a3.914,3.914,0,0,0-3.909-3.909h-3.148L98.826,46.715h4.391a5.739,5.739,0,0,0,5.733-5.733V31.255l26.792,2.877V108.5a2.508,2.508,0,0,0,3.764,2.171c7.418-4.293,13.38-11.062,17.722-20.12a2.508,2.508,0,1,0-4.523-2.168,42.2,42.2,0,0,1-11.948,15.413V23.244L156.914,9.459c4.941,28.625,4.708,52.1-.695,69.8a2.508,2.508,0,1,0,4.8,1.465c5.727-18.759,5.924-43.514.587-73.575A4.187,4.187,0,0,0,154.764,4.7L137.541,19.394,64.5,5.151a2.508,2.508,0,0,0-.96,4.923l72.2,14.079v4.934L17.7,16.411l.6-1.084A19.82,19.82,0,0,1,39.521,5.39L53.513,8.119a2.508,2.508,0,1,0,.96-4.923L40.481.467A24.819,24.819,0,0,0,13.9,12.911l-2.41,4.384a2.508,2.508,0,0,0,1.93,3.7l8.029.862v4.689a5.57,5.57,0,0,0,5.564,5.564h2.654v74.313L19.319,116.769a2.508,2.508,0,0,0,3.547,3.547l13.222-13.222A9.02,9.02,0,1,1,48.844,119.85L27.916,140.778A9.02,9.02,0,0,1,15.16,128.022l.615-.615a2.508,2.508,0,1,0-3.547-3.547l-.615.615a14.028,14.028,0,0,0,1.538,21.177L6.467,166.2H2.516a2.508,2.508,0,0,0,0,5.016H168.709a2.508,2.508,0,1,0,0-5.015Zm-56.2-14.753H63.068v-9.737h49.445Zm-9.008-29.495-25.7-9.972,23.125-9.954ZM99.947,94.459l-19.9-9.606,17.415-9.606ZM93.885,47.617l2.463,19.032L82.409,57.61Zm-6.774-.752-5.993,5.219.675-5.219ZM79.844,61.925l14.424,9.354L77.431,80.566Zm-3.46,26.73,20.23,9.765-22.762,9.8Zm-3.47,26.808,27.237,10.567L80.574,136.663c-.017.009-.033.021-.05.03H70.167Zm18.114,21.23,13.44-7.3.945,7.3Zm12.9-95.71a.718.718,0,0,1-.717.717H72.363a.717.717,0,0,1-.717-.717V27.249l32.286,3.467V40.983ZM26.462,26.548V22.4l11.419,1.226v2.925a.548.548,0,0,1-.548.548H27.01a.549.549,0,0,1-.548-.548ZM52.39,123.4A14.038,14.038,0,0,0,34.679,101.79V32.111h2.654A5.57,5.57,0,0,0,42.9,26.548V24.162l23.735,2.549V40.983a5.739,5.739,0,0,0,5.733,5.733h4.391L65.11,136.693H61.961a3.913,3.913,0,0,0-3.909,3.909v10.844H53.276a4.72,4.72,0,0,0-4.715,4.715V166.2H39.688L32.3,143.488ZM11.742,166.2l5.954-18.3A14.083,14.083,0,0,0,28.105,146.8L34.413,166.2Zm41.836,0v-9.737H122V166.2Z" transform="translate(0 0)" fill="#0635c9"/></g><g transform="translate(340.922 4012.953)"><path d="M361.919,96.759a14.35,14.35,0,1,0,14.277,14.35A14.35,14.35,0,0,0,361.919,96.759Zm0,23.374a9.025,9.025,0,1,1,8.952-9.025A9.025,9.025,0,0,1,361.919,120.133Z" transform="translate(-332.411 -83.54)" fill="#d6c247"/><path d="M357.884,70.366a29.41,29.41,0,0,0-41.077,0A29.979,29.979,0,0,0,307.9,89.71a28.1,28.1,0,0,0,1.761,11.781,30.564,30.564,0,0,0,6.71,10.45l19.057,19.89a2.663,2.663,0,0,0,3.846,0l19.057-19.89a30.573,30.573,0,0,0,6.71-10.45A28.092,28.092,0,0,0,366.8,89.71,29.979,29.979,0,0,0,357.884,70.366Zm2.159,29.267a25.288,25.288,0,0,1-5.565,8.623L337.345,126.14l-17.133-17.883a25.288,25.288,0,0,1-5.564-8.623,22.813,22.813,0,0,1-1.439-9.561,24.659,24.659,0,0,1,7.331-15.909,24.085,24.085,0,0,1,33.609,0,24.658,24.658,0,0,1,7.331,15.909A22.812,22.812,0,0,1,360.043,99.634Z" transform="translate(-307.837 -62.007)" fill="#d6c247"/></g></g></svg>