<svg xmlns="http://www.w3.org/2000/svg" width="63" height="63" viewBox="0 0 63 63"><g transform="translate(-15 -3337)"><circle cx="31.5" cy="31.5" r="31.5" transform="translate(15 3337)" fill="#022086"/><g transform="translate(29.826 3346.188)"><path d="M115.361,35.927h-5.1a3.8,3.8,0,0,0-3.762-3.167h-1.178A3.825,3.825,0,0,0,101.52,29h-.948a3.823,3.823,0,0,0-3.806,3.761H95.589A3.759,3.759,0,0,0,92.9,33.85a3.713,3.713,0,0,0-1.07,2.077H86.683A2.718,2.718,0,0,0,84,38.639V71.245a2.694,2.694,0,0,0,2.683,2.684h28.678a2.694,2.694,0,0,0,2.683-2.684V38.639A2.718,2.718,0,0,0,115.361,35.927Zm-14.789-5.542h.947a2.417,2.417,0,0,1,1.713.721,2.486,2.486,0,0,1,.708,1.654H98.152A2.456,2.456,0,0,1,100.572,30.385ZM93.2,36.557a2.381,2.381,0,0,1,2.385-2.411H106.5a2.427,2.427,0,0,1,2.436,2.411V40.12H93.2Zm-.711,4.948h17.126a.709.709,0,0,0,.5-.2.7.7,0,0,0,.21-.49v-.531h1.781v27.71H89.938V40.282h1.88v.531a.677.677,0,0,0,.674.693Zm24.166,29.74a1.307,1.307,0,0,1-1.3,1.3H86.683a1.307,1.307,0,0,1-1.3-1.3V38.639a1.331,1.331,0,0,1,1.3-1.326h5.135V38.9h-2.6a.678.678,0,0,0-.667.7V68.7a.657.657,0,0,0,.667.675h23.6a.657.657,0,0,0,.667-.675V39.6a.678.678,0,0,0-.667-.7h-2.5V37.313h5.037a1.331,1.331,0,0,1,1.3,1.326Z" transform="translate(-84 -29)" fill="#fff"/><path d="M188.279,261.4a.693.693,0,0,0,.968.2l9.5-6.334a.693.693,0,1,0-.769-1.153l-8.913,5.942-2.786-4.354a.693.693,0,1,0-1.167.747Z" transform="translate(-175.008 -231.733)" fill="#fff"/></g></g></svg>