<svg xmlns="http://www.w3.org/2000/svg" viewBox="0 0 212 185.299"><g transform="translate(-31.538 -59.604)"><path d="M299.111,370.647H284V321.329l15.111-14.166Z" transform="translate(-133.245 -130.658)" fill="#d4e1f4"/><path d="M105.834,110.851a18.7,18.7,0,1,0,18.705,18.705,18.7,18.7,0,0,0-18.705-18.705Zm0,30.8a12.094,12.094,0,1,1,12.094-12.094,11.965,11.965,0,0,1-12.094,12.094Z" transform="translate(-29.34 -27.047)" fill="#d6c247"/><path d="M289.722,270.533,234.2,226.212a3.305,3.305,0,0,0-4.124,0l-55.526,44.321a3.306,3.306,0,0,0-.385,4.806l11.08,12.2a3.3,3.3,0,0,0,2.448,1.083,3.258,3.258,0,0,0,2.053-.726l1.837-1.481V321.69L125.938,260l-4.521,4.817,71.226,66.922,0-.094a3.217,3.217,0,0,0,2.262.8h74.45a3.271,3.271,0,0,0,3.442-3.117V286.416l1.78,1.48a3.261,3.261,0,0,0,4.479-.357l11.063-12.2a3.308,3.308,0,0,0-.4-4.806ZM266.19,325.841h-68V281.122l34-27.173,34,27.173Zm10.031-45.047L234.2,247.131a3.306,3.306,0,0,0-4.134,0l-42.021,33.663-6.623-7.292,50.711-40.477,50.71,40.477Z" transform="translate(-47.437 -87.552)" fill="#0635c9"/><path d="M107.772,72.616a44.1,44.1,0,0,0-62.555,0,47.019,47.019,0,0,0-13.574,29.9c-.756,10.558,2.6,21.494,9.45,30.816L73.848,177.09a3.306,3.306,0,0,0,5.292,0l32.772-43.778c6.838-9.3,10.188-20.234,9.434-30.788a47.026,47.026,0,0,0-13.574-29.907Zm-1.17,56.755-30.109,40.22L46.4,129.4c-5.908-8.035-8.809-17.413-8.165-26.411A40.407,40.407,0,0,1,49.9,77.283a37.486,37.486,0,0,1,53.186,0,40.411,40.411,0,0,1,11.664,25.708C115.394,111.981,112.494,121.359,106.6,129.371Z" transform="translate(0)" fill="#d6c247"/></g></svg>