<svg xmlns="http://www.w3.org/2000/svg" width="91.338" height="93.396" viewBox="0 0 91.338 93.396"><path d="M134.372,372.269a10.227,10.227,0,0,0-19.108-3.384,10.227,10.227,0,0,1,14.994,7.5H154.3v-4.114Z" transform="translate(-98.547 -294.714)" fill="#d4e1f4"/><path d="M55.755,232.846a3.591,3.591,0,0,1-3.641-3.528V188h-.473A3.56,3.56,0,0,0,48,191.49v41.942a3.591,3.591,0,0,0,3.641,3.528h4.95a10.167,10.167,0,0,1,1.572-4.114Z" transform="translate(-45.12 -155.291)" fill="#d4e1f4"/><path d="M144.732,122.089a1.44,1.44,0,0,0,2,.182l8.868-7.215a1.44,1.44,0,1,0-1.818-2.234l-7.777,6.327-2.168-2.538a1.44,1.44,0,1,0-2.19,1.87Z" transform="translate(-119.232 -95.321)" fill="#d4c045"/><path d="M118.552,88.456a15.585,15.585,0,1,0-15.5-15.584A15.558,15.558,0,0,0,118.552,88.456Zm0-28.289a12.7,12.7,0,1,1-12.616,12.7,12.674,12.674,0,0,1,12.616-12.7Z" transform="translate(-88.85 -51.468)" fill="#d4c045"/><path d="M40.521,228.72H46.8a1.44,1.44,0,0,0,0-2.88H40.521a3.591,3.591,0,0,1-3.641-3.528V180.37a3.559,3.559,0,0,1,3.641-3.49h2.8a1.44,1.44,0,1,0,0-2.88h-2.8A6.442,6.442,0,0,0,34,180.37v41.942A6.474,6.474,0,0,0,40.521,228.72Z" transform="translate(-34 -144.171)" fill="#0635c9"/><path d="M210.183,187.372v-7a6.438,6.438,0,0,0-6.518-6.37h-2.534v2.88h2.534a3.556,3.556,0,0,1,3.638,3.49v45.47H182v2.88h32.833a1.44,1.44,0,1,0,0-2.88h-4.65V205.886h29.829v16.426a3.591,3.591,0,0,1-3.641,3.528h-3.956a1.44,1.44,0,1,0,0,2.88h3.956a6.474,6.474,0,0,0,6.521-6.408V204.463c0-.012-.03-.023-.031-.035s-.016-.053-.018-.079-.011-.043-.014-.065-.011-.049-.015-.074-.01-.045-.015-.067-.012-.046-.019-.07-.013-.044-.021-.066-.016-.045-.025-.067-.017-.043-.027-.064-.021-.043-.031-.064-.021-.041-.033-.062l-.036-.06c-.013-.02-.027-.041-.041-.061l-.04-.053c-.014-.018-.033-.041-.05-.06s-.015-.019-.023-.027l-12.939-14.06a6.445,6.445,0,0,0-4.762-2.057Zm27.935,15.634H210.183V190.252h14.571a3.55,3.55,0,0,1,2.64,1.115Z" transform="translate(-151.554 -144.171)" fill="#0635c9"/><path d="M99.453,383.535a10.231,10.231,0,1,0,10.231,10.231A10.231,10.231,0,0,0,99.453,383.535Zm0,17.581a7.351,7.351,0,1,1,7.351-7.351A7.351,7.351,0,0,1,99.453,401.117Z" transform="translate(-77.862 -310.601)" fill="#d4c045"/><path d="M344.837,404a10.231,10.231,0,1,0-10.231-10.231A10.231,10.231,0,0,0,344.837,404Zm0-17.582a7.351,7.351,0,1,1-7.351,7.351,7.351,7.351,0,0,1,7.351-7.351Z" transform="translate(-272.767 -310.601)" fill="#d4c045"/><path d="M88.705,83.789a1.44,1.44,0,0,0,2.08,0l15.273-15.943a23.816,23.816,0,0,0,5.229-8.137,21.831,21.831,0,0,0,1.369-9.154A23.335,23.335,0,0,0,105.72,35.5a22.878,22.878,0,0,0-31.95,0,23.335,23.335,0,0,0-6.936,15.056A21.829,21.829,0,0,0,68.2,59.71a23.816,23.816,0,0,0,5.228,8.138Zm-19-33.037a20.458,20.458,0,0,1,6.082-13.2,20,20,0,0,1,27.911,0,20.457,20.457,0,0,1,6.082,13.2,18.967,18.967,0,0,1-1.195,7.953,20.956,20.956,0,0,1-4.609,7.15L89.745,80.711,75.513,65.854A20.94,20.94,0,0,1,70.9,58.7a18.97,18.97,0,0,1-1.195-7.952Z" transform="translate(-60.043 -28.998)" fill="#d4c045"/></svg>