<svg xmlns="http://www.w3.org/2000/svg" viewBox="0 0 185.701 173.058"><g transform="translate(-9 -25.634)"><path d="M36.938,82.036l65.626-37.889-6.907-3.988L29.863,78.145Z" transform="translate(-13.02 -9.065)" fill="#d4e1f4"/><path d="M30.338,225.41V156.72l-7.075-4.109v75.983l65.8,37.989v-7.269Z" transform="translate(-8.901 -79.245)" fill="#d4e1f4"/><path d="M339.612,295.668h2.754a2.631,2.631,0,0,0,0-5.263h-.1v-7.142h7.258a2.533,2.533,0,0,0,2.5,1.777,2.639,2.639,0,0,0,2.646-2.625v-1.771a2.666,2.666,0,0,0-2.66-2.644h-12.4A2.626,2.626,0,0,0,337,280.644v12.4a2.613,2.613,0,0,0,2.612,2.628Z" transform="translate(-204.701 -157.499)" fill="#d6c247"/><path d="M354.668,344.631A2.631,2.631,0,0,0,352.036,342H339.631A2.631,2.631,0,0,0,337,344.631v12.405a2.631,2.631,0,0,0,2.631,2.631h12.405a2.631,2.631,0,0,0,2.631-2.631Zm-12.405,2.631h7.142v7.142h-7.142Z" transform="translate(-204.701 -197.44)" fill="#d6c247"/><path d="M342.367,418.405h-.1v-7.142h7.116a2.645,2.645,0,1,0,5.29.005v-2.536a2.744,2.744,0,0,0-2.66-2.732h-12.4A2.7,2.7,0,0,0,337,408.733v12.4a2.538,2.538,0,0,0,2.612,2.54h2.755a2.631,2.631,0,1,0,0-5.263Z" transform="translate(-204.701 -237.382)" fill="#d6c247"/><path d="M368.9,285.311l-7.706,7.706-2.344-2.345a2.632,2.632,0,0,0-3.722,3.721l4.205,4.2a2.631,2.631,0,0,0,3.721,0l9.568-9.568a2.632,2.632,0,0,0-3.722-3.721Z" transform="translate(-215.532 -161.579)" fill="#d6c247"/><path d="M368.9,414.56l-7.706,7.706-2.344-2.345a2.632,2.632,0,1,0-3.722,3.722l4.205,4.2a2.631,2.631,0,0,0,3.721,0l9.568-9.568a2.632,2.632,0,0,0-3.722-3.722Z" transform="translate(-215.532 -242.242)" fill="#d6c247"/><path d="M433.05,295H416.522a2.631,2.631,0,0,0,0,5.263H433.05a2.631,2.631,0,1,0,0-5.263Z" transform="translate(-252.688 -168.108)" fill="#d6c247"/><path d="M433.05,359H416.522a2.631,2.631,0,0,0,0,5.263H433.05a2.631,2.631,0,1,0,0-5.263Z" transform="translate(-252.688 -208.05)" fill="#d6c247"/><path d="M433.05,423H416.522a2.631,2.631,0,0,0,0,5.263H433.05a2.631,2.631,0,1,0,0-5.263Z" transform="translate(-252.688 -247.992)" fill="#d6c247"/><path d="M10.316,152.726l70.541,40.727a2.631,2.631,0,0,0,2.631,0l41.032-23.69-2.566-4.558-37.019,21.41V111.233l65.033-37.689V96.067h5.263V68.992a2.579,2.579,0,0,0-1.258-2.279L83.459,25.986a2.6,2.6,0,0,0-2.617,0L10.309,66.714A2.625,2.625,0,0,0,9,68.992v81.454a2.631,2.631,0,0,0,1.316,2.279Zm3.947-79.181,65.409,37.689v75.383L14.263,148.927Zm37.21,15.406,65.274-37.686,30.7,17.725L82.173,106.675ZM82.173,31.3l29.311,16.923L46.21,85.912,16.9,68.99Z" transform="translate(0)" fill="#0635c9"/><path d="M368.745,212.766h-9.364a9.222,9.222,0,0,0-8.8-6.766H335.4a9.222,9.222,0,0,0-8.8,6.766h-9.364A11.291,11.291,0,0,0,306,224.112v75.972a11.143,11.143,0,0,0,11.236,11.171h51.509a11.2,11.2,0,0,0,11.309-11.171V224.112A11.353,11.353,0,0,0,368.745,212.766Zm-14.253,2.571a3.82,3.82,0,0,1-3.82,3.82H335.381a3.82,3.82,0,0,1-3.82-3.82v-.255a3.82,3.82,0,0,1,3.82-3.82h15.291a3.82,3.82,0,0,1,3.82,3.82Zm20.3,84.747a5.937,5.937,0,0,1-6.046,5.909H317.236a5.875,5.875,0,0,1-5.974-5.909V224.112a6.023,6.023,0,0,1,5.974-6.083H326.7a9,9,0,0,0,8.7,6.39h15.177a9,9,0,0,0,8.7-6.39h9.467a6.084,6.084,0,0,1,6.046,6.083Z" transform="translate(-185.354 -112.564)" fill="#d6c247"/></g></svg>