<svg xmlns="http://www.w3.org/2000/svg" width="63" height="63" viewBox="0 0 63 63"><g transform="translate(-15 -3249)"><path d="M31.5,0A31.5,31.5,0,1,1,0,31.5,31.5,31.5,0,0,1,31.5,0Z" transform="translate(15 3249)" fill="#022086"/><g transform="translate(26.927 3260.157)"><path d="M47.261,41.994H45.207a2.023,2.023,0,0,0-1.931-1.485H41.082V35.147a.566.566,0,0,0-.276-.5l-15.47-8.935a.571.571,0,0,0-.574,0L9.287,34.647a.576.576,0,0,0-.287.5V53.017a.577.577,0,0,0,.289.5l15.477,8.935a.577.577,0,0,0,.289.077.607.607,0,0,0,.3-.077l8.144-4.7v3.4A2.445,2.445,0,0,0,35.96,63.6h11.3a2.458,2.458,0,0,0,2.481-2.451V44.483A2.491,2.491,0,0,0,47.261,41.994Zm-3.965-.33a.838.838,0,0,1,.838.838v.056a.838.838,0,0,1-.838.838H39.941a.838.838,0,0,1-.838-.838V42.5a.838.838,0,0,1,.838-.838ZM25.054,26.878l6.431,3.713L17.164,38.859l-6.431-3.713Zm-.549,34.075-14.35-8.269V36.145l14.35,8.269Zm.549-17.539-6.735-3.889,14.321-8.268,6.736,3.889Zm8.441,1.069V56.422L25.66,60.953V44.414l14.268-8.269v4.364h.018a2.023,2.023,0,0,0-1.931,1.485H35.96A2.477,2.477,0,0,0,33.495,44.483ZM48.587,61.151a1.3,1.3,0,0,1-1.327,1.3H35.96a1.289,1.289,0,0,1-1.311-1.3V44.483a1.321,1.321,0,0,1,1.311-1.335h2.077a1.975,1.975,0,0,0,1.909,1.4h3.33a1.975,1.975,0,0,0,1.909-1.4h2.077a1.335,1.335,0,0,1,1.327,1.335Z" transform="translate(-9 -25.634)" fill="#fff"/><path d="M337.573,281.876h.6a.577.577,0,1,0,0-1.155h-.023v-1.567h1.592a.556.556,0,0,0,.549.39.579.579,0,0,0,.58-.576v-.388a.585.585,0,0,0-.584-.58h-2.72a.576.576,0,0,0-.573.58v2.72a.573.573,0,0,0,.573.577Z" transform="translate(-309.948 -257.186)" fill="#fff"/><path d="M337.577,345.876H340.3a.577.577,0,0,0,.577-.577v-2.722A.577.577,0,0,0,340.3,342h-2.722a.577.577,0,0,0-.577.577V345.3A.577.577,0,0,0,337.577,345.876Zm.577-2.722h1.567v1.567h-1.567Z" transform="translate(-309.949 -315.908)" fill="#fff"/><path d="M338.177,408.722h-.023v-1.567h1.561a.58.58,0,1,0,1.161,0V406.6a.6.6,0,0,0-.584-.6h-2.72a.593.593,0,0,0-.573.6v2.72a.557.557,0,0,0,.573.557h.6a.577.577,0,0,0,0-1.155Z" transform="translate(-309.948 -374.63)" fill="#fff"/><path d="M357.545,284.708l-1.691,1.691-.514-.514a.577.577,0,1,0-.816.816l.923.923a.577.577,0,0,0,.816,0l2.1-2.1a.577.577,0,0,0-.816-.816Z" transform="translate(-325.872 -263.186)" fill="#fff"/><path d="M357.545,413.957l-1.691,1.691-.514-.514a.577.577,0,0,0-.816.816l.923.923a.577.577,0,0,0,.816,0l2.1-2.1a.577.577,0,1,0-.816-.817Z" transform="translate(-325.872 -381.775)" fill="#fff"/><path d="M418.094,295h-3.626a.577.577,0,1,0,0,1.155h3.626a.577.577,0,0,0,0-1.155Z" transform="translate(-380.498 -272.784)" fill="#fff"/><path d="M418.094,359h-3.626a.577.577,0,1,0,0,1.155h3.626a.577.577,0,0,0,0-1.155Z" transform="translate(-380.498 -331.506)" fill="#fff"/><path d="M418.094,423h-3.626a.577.577,0,1,0,0,1.155h3.626a.577.577,0,0,0,0-1.155Z" transform="translate(-380.498 -390.228)" fill="#fff"/></g></g></svg>