<svg xmlns="http://www.w3.org/2000/svg" width="63" height="63" viewBox="0 0 63 63"><g transform="translate(-15 -3425)"><circle cx="31.5" cy="31.5" r="31.5" transform="translate(15 3425)" fill="#022086"/><g transform="translate(27.087 3437.714)"><path d="M47.284,47.86c0-.008,0-.017,0-.025s0-.018,0-.027,0-.017-.005-.026,0-.017-.007-.026,0-.017-.008-.025l-.009-.025-.01-.024-.012-.024c0-.008-.008-.015-.012-.023l-.014-.022-.016-.023-.015-.02-.019-.023-.009-.01-2.9-3.17a1.682,1.682,0,0,0-1.228-.552H39.924V42.508A1.612,1.612,0,0,0,38.3,40.869h-.418a10.825,10.825,0,0,0,.264-2.327V26.2a.536.536,0,0,0-.3-.487l-14.03-6.892a.539.539,0,0,0-.476,0L9.3,25.692a.542.542,0,0,0-.3.487V38.541a12.873,12.873,0,0,0,5.175,9.788l9.1,6.2a.542.542,0,0,0,.611,0l2.728-1.854a1.674,1.674,0,0,0,1.476.9h.923a2.511,2.511,0,0,0,4.9,0h6.4a2.511,2.511,0,0,0,4.9,0h.4a1.68,1.68,0,0,0,1.667-1.68v-4s0-.009,0-.013S47.285,47.87,47.284,47.86ZM26.438,51.492l-2.851,1.938-8.8-6a11.7,11.7,0,0,1-4.706-8.892V26.517l13.487-6.609,13.484,6.626V38.541a9.821,9.821,0,0,1-.295,2.327h-2.5a8,8,0,0,0,.465-2.487v-9.9a.554.554,0,0,0-.316-.487l-10.592-5.2a.55.55,0,0,0-.481,0L12.735,27.976a.563.563,0,0,0-.325.487v9.919A9.678,9.678,0,0,0,16.2,45.5l7.067,4.813a.557.557,0,0,0,.31.094.581.581,0,0,0,.318-.094l2.548-1.729Zm0-8.984v4.766l-2.851,1.938-6.776-4.6A8.6,8.6,0,0,1,13.5,38.382V28.8l10.075-4.918,10.075,4.933v9.566a7.514,7.514,0,0,1-.534,2.487H28.087a1.629,1.629,0,0,0-1.648,1.639Zm5.023,11.942a1.426,1.426,0,1,1,1.426-1.426,1.426,1.426,0,0,1-1.426,1.426ZM38.839,47.9v4.591H33.913a2.511,2.511,0,0,0-4.9,0h-.923a.578.578,0,0,1-.563-.594V42.508a.543.543,0,0,1,.563-.554H38.3a.527.527,0,0,1,.543.554Zm1.085-3h3.094a.605.605,0,0,1,.429.21l2.063,2.27H39.924Zm2.841,9.552a1.426,1.426,0,1,1,1.426-1.426,1.426,1.426,0,0,1-1.426,1.426ZM46.2,51.9a.593.593,0,0,1-.582.594h-.4a2.511,2.511,0,0,0-4.9,0h-.39v-4.03H46.2Z" transform="translate(-9 -18.762)" fill="#fff"/><path d="M151.1,213.942l-4.3,3.941-2.117-2.295a.543.543,0,1,0-.8.736l2.483,2.692a.543.543,0,0,0,.765.032l4.7-4.306a.543.543,0,1,0-.733-.8Z" transform="translate(-133.301 -198.684)" fill="#fff"/></g></g></svg>