<svg xmlns="http://www.w3.org/2000/svg" width="112.685" height="111.245" viewBox="0 0 112.685 111.245"><path d="M183.987,148.6l24.749-14.289-2.605-1.5-24.812,14.325Z" transform="translate(-144.109 -108.744)" fill="#d4e1f4"/><path d="M181.335,215.488v-25.9l-2.668-1.549v28.655l24.814,14.326v-2.741Z" transform="translate(-142.136 -149.823)" fill="#d4e1f4"/><path d="M149.5,411.03a7.983,7.983,0,0,1,3.468,8.175,1.793,1.793,0,0,0,3.26,1.318,7.984,7.984,0,0,1,8.175-3.468,1.793,1.793,0,0,0,1.318-3.261,7.982,7.982,0,0,1-3.468-8.174,1.793,1.793,0,0,0-3.26-1.318,7.982,7.982,0,0,1-8.175,3.468,1.793,1.793,0,0,0-1.318,3.26Zm9.277-1.5a11.545,11.545,0,0,0,1.72,4.053,11.551,11.551,0,0,0-4.053,1.72,11.541,11.541,0,0,0-1.72-4.053,11.546,11.546,0,0,0,4.054-1.72Z" transform="translate(-119.838 -310.086)" fill="#d4c045"/><path d="M400.955,49.784a12.03,12.03,0,0,1-9.462-9.462,1.793,1.793,0,0,0-3.517,0,12.03,12.03,0,0,1-9.462,9.462,1.793,1.793,0,0,0,0,3.517,12.03,12.03,0,0,1,9.462,9.462,1.793,1.793,0,0,0,3.517,0,12.03,12.03,0,0,1,9.462-9.462,1.793,1.793,0,0,0,0-3.517Zm-11.221,7.568a15.582,15.582,0,0,0-5.81-5.81,15.585,15.585,0,0,0,5.81-5.81,15.585,15.585,0,0,0,5.81,5.81,15.582,15.582,0,0,0-5.81,5.809Z" transform="translate(-289.711 -38.88)" fill="#d4c045"/><path d="M59.955,332.3a1.793,1.793,0,0,0,0-3.517,12.03,12.03,0,0,1-9.462-9.462,1.793,1.793,0,0,0-3.517,0,12.03,12.03,0,0,1-9.462,9.462,1.793,1.793,0,0,0,0,3.517,12.03,12.03,0,0,1,9.462,9.462,1.793,1.793,0,0,0,3.517,0,12.03,12.03,0,0,1,9.462-9.462Zm-11.221,4.051a15.582,15.582,0,0,0-5.81-5.81,15.584,15.584,0,0,0,5.81-5.81,15.585,15.585,0,0,0,5.81,5.81,15.582,15.582,0,0,0-5.81,5.81Z" transform="translate(-36.071 -246.404)" fill="#d4c045"/><path d="M150.721,165.749A40.239,40.239,0,1,0,110.5,125.528,40.267,40.267,0,0,0,150.721,165.749Zm-9.559-75.6a36.64,36.64,0,1,1-27.076,35.375A36.727,36.727,0,0,1,141.162,90.153Z" transform="translate(-91.432 -73.413)" fill="#0635c9"/><path d="M165.961,171.111l24.37,14.051a1.852,1.852,0,0,0,.913.24,1.822,1.822,0,0,0,.9-.24l24.277-14.051a1.74,1.74,0,0,0,.837-1.553v-28.1a1.76,1.76,0,0,0-.061-.646c-.007-.017.02-.035.013-.051-.02-.047-.028-.091-.051-.137-.014-.026-.019-.054-.034-.08s-.043-.073-.068-.109-.04-.061-.063-.091-.051-.06-.077-.089-.055-.061-.085-.09-.056-.051-.085-.075-.066-.055-.1-.081-.062-.043-.094-.063-.042-.03-.064-.043l-8.473-4.893-.042-.023-15.821-9.133a1.793,1.793,0,0,0-1.793,0l-24.38,14.039a1.855,1.855,0,0,0-.982,1.565v28.1A1.856,1.856,0,0,0,165.961,171.111Zm2.626-26.553,6.148,3.506v16.78a1.829,1.829,0,0,0,2.517,1.657l1.768-.728,2.371,2.69a1.8,1.8,0,0,0,1.348.608,1.624,1.624,0,0,0,.6-.116,1.766,1.766,0,0,0,1.13-1.678V153.692l4.868,2.848V180.5l-20.751-11.98Zm11.581,2.471,20.749-11.979,2.617,1.511-20.749,11.979Zm.716,4.592v10.908l-.043-.085a1.809,1.809,0,0,0-2.041-.473l-.479.194v-12.03Zm32.792,16.9L192.924,180.5V156.539l20.751-11.981Zm-1.668-27.069-20.749,11.98-4.887-2.822,20.749-11.979Zm-20.749-11.979,6.072,3.505-20.749,11.979-6.072-3.505Z" transform="translate(-131.97 -103.391)" fill="#0635c9"/></svg>