<svg xmlns="http://www.w3.org/2000/svg" width="286.009" height="178.174" viewBox="0 0 286.009 178.174"><g transform="translate(-775 -3934)"><g transform="translate(881.003 3932)"><path d="M48,36h5.933v5.933H48Z" transform="translate(90.473 66.867)" fill="#0635c9"/><path d="M48,32h5.933v5.933H48Z" transform="translate(90.473 59)" fill="#0635c9"/><path d="M48,44h5.933v5.933H48Z" transform="translate(90.473 82.6)" fill="#0635c9"/><path d="M48,40h5.933v5.933H48Z" transform="translate(90.473 74.733)" fill="#0635c9"/><path d="M48,52h5.933v5.933H48Z" transform="translate(90.473 98.333)" fill="#0635c9"/><path d="M48,48h5.933v5.933H48Z" transform="translate(90.473 90.467)" fill="#0635c9"/><path d="M179.258,20.8a2.967,2.967,0,0,0-2.225-1H154.887L146.975,7.933H153.3V2H129.566V7.933h6.325L127.979,19.8H105.833a2.967,2.967,0,0,0-2.943,3.335l5.91,47.283V82.1a2.967,2.967,0,0,0,2.967,2.967H126.6v17.8H4.967A2.967,2.967,0,0,0,2,105.833v71.2A2.967,2.967,0,0,0,4.967,180H171.1a2.967,2.967,0,0,0,2.967-2.967V165.166A2.967,2.967,0,0,0,171.1,162.2H156.266V126.6h8.9v-5.933h-8.9V108.8h8.9v-5.933h-8.9v-17.8H171.1a2.967,2.967,0,0,0,2.967-2.967V70.417l5.91-47.283A2.967,2.967,0,0,0,179.258,20.8ZM144.4,67.266V25.733h14.439l-5.192,41.533Zm-15.18,0-5.192-41.533h14.439V67.266Zm12.214-56.96,6.325,9.493h-12.65ZM109.194,25.733h8.853l5.192,41.533h-8.853ZM108.8,165.166v8.9H7.933V108.8H126.6v53.4H111.766A2.967,2.967,0,0,0,108.8,165.166Zm59.333,8.9h-53.4v-5.933h53.4Zm-17.8-11.867h-17.8V85.066h17.8Zm-35.6-83.066V73.2h53.4v5.933ZM168.48,67.266h-8.852l5.192-41.533h8.853Z" transform="translate(0.007 0)" fill="#0635c9"/><path d="M109.833,40H8.967A2.967,2.967,0,0,0,6,42.967V66.7a2.967,2.967,0,0,0,2.967,2.967H109.833A2.967,2.967,0,0,0,112.8,66.7V42.967A2.967,2.967,0,0,0,109.833,40ZM62.366,45.933h17.8v17.8h-17.8Zm-5.933,17.8h-17.8v-17.8h17.8Zm-44.5-17.8H32.7v17.8H11.933Zm94.933,17.8H86.1v-17.8h20.767Z" transform="translate(7.874 74.733)" fill="#0635c9"/><path d="M16.84,43.533H37.9A14.86,14.86,0,0,0,52.44,55.4H82.107A14.833,14.833,0,0,0,84.64,25.95a8.918,8.918,0,0,0-8.467-6.15h-.062a14.658,14.658,0,0,0-20.7-2.907,14.807,14.807,0,0,0-6.372-2.806,9,9,0,0,0-8.526-6.153,14.786,14.786,0,0,0-26.385,6.183A14.833,14.833,0,0,0,16.84,43.533ZM64.307,19.8a8.9,8.9,0,0,1,7.746,4.628,2.967,2.967,0,0,0,3.358,1.43,3.106,3.106,0,0,1,.762-.125A2.967,2.967,0,0,1,79.14,28.7a2.967,2.967,0,0,0,2.967,2.967,8.9,8.9,0,1,1,0,17.8H52.44a8.9,8.9,0,1,1,0-17.8A2.967,2.967,0,0,0,55.407,28.7,8.9,8.9,0,0,1,64.307,19.8Zm-47.467,0a2.967,2.967,0,0,0,2.967-2.967,8.865,8.865,0,0,1,16.661-4.254,2.967,2.967,0,0,0,3.474,1.391,2.178,2.178,0,0,1,.632-.1,2.967,2.967,0,0,1,2.967,2.967A2.967,2.967,0,0,0,46.507,19.8a8.847,8.847,0,0,1,4.937,1.546,14.729,14.729,0,0,0-1.721,4.637A14.857,14.857,0,0,0,37.93,37.6H16.84a8.9,8.9,0,0,1,0-17.8Z" transform="translate(0 0)" fill="#0635c9"/></g><path d="M122.85,122.559c0-.018,0-.035,0-.053,0-.1-.005-.2-.015-.3s-.027-.209-.046-.311c0-.012,0-.025-.006-.037a3.591,3.591,0,0,0-1-1.85L102.84,101.059A3.6,3.6,0,0,0,100.3,100H82.3a3.6,3.6,0,0,0-3.6,3.6v35.751H68.383V100.724L95.852,81.008h23.4a3.6,3.6,0,0,0,3.6-3.6v-14.4a3.6,3.6,0,0,0-3.6-3.6H90.062a3.6,3.6,0,0,0-2.1.675L1.5,122.151A3.6,3.6,0,0,0,0,125.075V142.8c0,.031,0,.062,0,.094s0,.043,0,.065a3.6,3.6,0,0,0,3.6,3.6H27.091a10.8,10.8,0,0,0,20.356,0H90.6a10.8,10.8,0,0,0,20.357,0h8.3a3.6,3.6,0,0,0,3.6-3.6V122.56h0Zm-12.289-3.6H100.536V108.934Zm-49.376,20.4H47.447a10.8,10.8,0,0,0-20.356,0H14.565l46.62-33.464ZM7.2,126.922,91.22,66.611h24.432v7.2H94.694a3.6,3.6,0,0,0-2.1.675l-85.4,61.3Zm30.071,19.632a3.6,3.6,0,1,1,3.6-3.6A3.6,3.6,0,0,1,37.269,146.554Zm63.507,0a3.6,3.6,0,1,1,3.6-3.6A3.6,3.6,0,0,1,100.776,146.554Zm10.178-7.2a10.8,10.8,0,0,0-20.357,0H85.9V107.2h7.437v15.356a3.6,3.6,0,0,0,3.6,3.6h18.715v13.2Z" transform="translate(775 3958.422)" fill="#d6c247"/></g></svg>