<svg xmlns="http://www.w3.org/2000/svg" xmlns:xlink="http://www.w3.org/1999/xlink" width="101.799" height="102.974" viewBox="0 0 101.799 102.974"><defs><filter id="a" x="21.957" y="23.11" width="79.842" height="79.864" filterUnits="userSpaceOnUse"><feOffset dy="3" input="SourceAlpha"/><feGaussianBlur stdDeviation="8" result="b"/><feFlood flood-color="#00153a" flood-opacity="0.412"/><feComposite operator="in" in2="b"/><feComposite in="SourceGraphic"/></filter></defs><g transform="matrix(1, 0, 0, 1, 0, 0)" filter="url(#a)"><path d="M-1857.147-6247.437l-15.593,10.375v21.49h31.842v-21.49Z" transform="translate(1918.7 6291.55)" fill="#fff"/></g><g transform="translate(0 0)"><path d="M290.186,333.152H284v-20.19l6.186-5.8Z" transform="translate(-235.195 -259.306)" fill="#d4e1f4"/><path d="M94.787,110.851a7.657,7.657,0,1,0,7.658,7.658A7.657,7.657,0,0,0,94.787,110.851Zm0,12.609a4.951,4.951,0,1,1,4.951-4.951,4.9,4.9,0,0,1-4.951,4.951Z" transform="translate(-76.383 -100.944)" fill="#d6c247"/><path d="M190.318,243.93l-22.731-18.144a1.353,1.353,0,0,0-1.688,0L143.167,243.93a1.353,1.353,0,0,0-.158,1.967l4.536,4.995a1.351,1.351,0,0,0,1,.443,1.334,1.334,0,0,0,.841-.3l.752-.606v14.441L123.268,239.62l-1.851,1.972,29.159,27.4,0-.039a1.317,1.317,0,0,0,.926.329h30.478A1.339,1.339,0,0,0,183.391,268v-17.57l.729.606a1.335,1.335,0,0,0,1.834-.146l4.529-4.995a1.354,1.354,0,0,0-.165-1.967Zm-9.634,22.642H152.847V248.265l13.919-11.124,13.919,11.124Zm4.107-18.441-17.2-13.781a1.353,1.353,0,0,0-1.692,0l-17.2,13.781-2.711-2.985,20.76-16.571,20.76,16.571Z" transform="translate(-104.042 -193.421)" fill="#0635c9"/><path d="M62.747,64.931a18.053,18.053,0,0,0-25.609,0A18.812,18.812,0,0,0,35.45,89.787L48.859,107.7a1.353,1.353,0,0,0,2.167,0L64.442,89.779a18.812,18.812,0,0,0-1.695-24.848Zm-.479,23.235L49.942,104.631,37.624,88.176a16.107,16.107,0,0,1,1.432-21.334,15.346,15.346,0,0,1,21.774,0,16.105,16.105,0,0,1,1.439,21.324Z" transform="translate(-31.538 -59.604)" fill="#d6c247"/></g></svg>