<svg xmlns="http://www.w3.org/2000/svg" viewBox="0 0 264.811 140.846"><g transform="translate(-1336 -3956)"><g transform="translate(1336 3898.198)"><path d="M341.175,318.054a9.254,9.254,0,0,0,9.243-9.243c0-4.51-3.51-12.793-9.243-12.793s-9.243,8.283-9.243,12.793A9.254,9.254,0,0,0,341.175,318.054Zm0-16.711c.4,0,1.349.629,2.343,2.364a11.627,11.627,0,0,1,1.576,5.1,3.918,3.918,0,1,1-7.836,0C337.257,305.807,339.826,301.343,341.175,301.343Z" transform="translate(-214.096 -153.649)" fill="#0635c9"/><path d="M155.639,180.512a2.661,2.661,0,0,0,4.928-.614,27.142,27.142,0,0,0,18.839-37.844,2.662,2.662,0,1,0-4.838,2.225,21.634,21.634,0,0,1,1.992,9.107,21.857,21.857,0,0,1-15.912,21v-42a21.818,21.818,0,0,1,8.164,4.329,2.662,2.662,0,0,0,3.437-4.067,27.157,27.157,0,0,0-11.682-5.771,2.661,2.661,0,0,0-4.927-.617c-1.174-.039.036-.01-13.838-.02v-3.829a5,5,0,0,0-4.992-4.992h-.693V87.658A10.968,10.968,0,0,0,125.16,76.7h-1.015V68.758A10.969,10.969,0,0,0,113.189,57.8H2.788a2.663,2.663,0,1,0,0,5.325h110.4a5.638,5.638,0,0,1,5.631,5.631V76.7H45.567A10.968,10.968,0,0,0,34.611,87.658v9.9H27.6a5.463,5.463,0,0,0-5.457,5.457v5.426a21.125,21.125,0,0,0-11.076,8.385,2.662,2.662,0,1,0,4.428,2.957,15.792,15.792,0,0,1,13.155-7.043H45.892A15.826,15.826,0,0,1,61.7,128.55v20.223H12.847v-20.2c0-.022,0-.046,0-.062a2.662,2.662,0,0,0-5.325-.039c0,.024,0,.056,0,.076v20.481a2.658,2.658,0,0,0,0,4.809v30.429H5.4a5.4,5.4,0,0,0-5.4,5.4v3.588a5.4,5.4,0,0,0,5.4,5.4H69.15a5.4,5.4,0,0,0,5.4-5.4v-3.588a5.4,5.4,0,0,0-5.4-5.4H67.025V153.84a2.658,2.658,0,0,0,0-4.81V128.55a21.168,21.168,0,0,0-14.626-20.1v-5.431a5.463,5.463,0,0,0-5.457-5.457H39.936v-9.9a5.638,5.638,0,0,1,5.631-5.631h73.254v35.392h-1.472a5,5,0,0,0-4.992,4.992v3.829c-14.541.014-12.439-.023-13.837.023a2.66,2.66,0,0,0-4.928.614,27.143,27.143,0,0,0,0,53.022,2.66,2.66,0,0,0,4.928.614c1.339.044.478.011,3.728.023v3.734H88.038a5.682,5.682,0,0,0-5.675,5.676v3.029a5.682,5.682,0,0,0,5.675,5.675h6.228a2.663,2.663,0,0,0,0-5.325H88.038a.351.351,0,0,1-.35-.35v-3.029a.351.351,0,0,1,.35-.351h78.083a.351.351,0,0,1,.351.351v3.029a.351.351,0,0,1-.351.35H104.91a2.663,2.663,0,0,0,0,5.325h61.21a5.682,5.682,0,0,0,5.676-5.675v-3.029a5.682,5.682,0,0,0-5.676-5.676h-14.21v-3.734c3.112-.011,2.4.022,3.728-.022Zm-86.418,9.153v3.588a.071.071,0,0,1-.071.071H5.4a.071.071,0,0,1-.071-.071v-3.588a.071.071,0,0,1,.071-.071H69.15A.07.07,0,0,1,69.221,189.665Zm-56.374-5.4V154.1H61.7v30.171Zm34.228-81.253v4.436c-.965-.054-18.646-.054-19.6,0v-4.436a.132.132,0,0,1,.132-.132H46.942a.132.132,0,0,1,.132.132Zm77.071-20.989h1.015a5.638,5.638,0,0,1,5.631,5.631v29.761h-6.646V82.027Zm-6.464,40.717h18.8v3.5h-18.8ZM77.6,153.387a21.857,21.857,0,0,1,15.912-21V174.39a21.857,21.857,0,0,1-15.912-21ZM98.835,175.2V131.58c.9-.024,55.885-.018,56.489,0V175.2C154.51,175.216,99.856,175.222,98.835,175.2Zm47.751,9.074H107.573v-3.734h39.013Z" fill="#0635c9"/></g><g transform="translate(1499 3994.736)"><path d="M77.75,12.095V0H53.888V11.931H27.043A26.975,26.975,0,0,0,0,38.776V50.706A27.287,27.287,0,0,0,10.282,71.983H0V95.845H12.643a8.94,8.94,0,0,0,14.4,3.68,8.94,8.94,0,0,0,14.4-3.68H60.367a8.94,8.94,0,0,0,14.4,3.68,8.94,8.94,0,0,0,14.4-3.68h12.643V71.983H91.528a27.286,27.286,0,0,0,10.282-21.277V38.776A26.956,26.956,0,0,0,77.75,12.095Zm-17.9-6.13H71.784v5.965H59.853ZM30.026,17.9H41.957v5.965H30.026Zm0,11.931H41.957v5.965H30.026Zm0,11.931H41.957v5.965H30.026ZM21.078,95.845a2.983,2.983,0,1,1,2.983-2.983A2.986,2.986,0,0,1,21.078,95.845Zm11.931,0a2.983,2.983,0,1,1,2.983-2.983A2.986,2.986,0,0,1,33.009,95.845Zm35.793,0a2.983,2.983,0,1,1,2.983-2.983A2.986,2.986,0,0,1,68.8,95.845Zm11.931,0a2.983,2.983,0,1,1,2.983-2.983A2.986,2.986,0,0,1,80.733,95.845Zm15.113-17.9V89.88H89.168a8.94,8.94,0,0,0-14.4-3.68,8.94,8.94,0,0,0-14.4,3.68H41.444a8.94,8.94,0,0,0-14.4-3.68,8.94,8.94,0,0,0-14.4,3.68H5.965V77.949Zm0-27.242A21.462,21.462,0,0,1,74.767,71.983H27.043A21.462,21.462,0,0,1,5.965,50.706V38.776a20.976,20.976,0,0,1,18.1-20.669V59.655h5.965V53.689H41.957v5.965h5.965V17.9H74.767A21,21,0,0,1,95.845,38.776Z" fill="#d6c247"/></g></g></svg>