<svg xmlns="http://www.w3.org/2000/svg" width="82.642" height="99.131" viewBox="0 0 82.642 99.131"><path d="M117.732,249.555c-.232,0-.472,0-.68-.014-4.733-.3-9.18-2.178-12.518-3.775a72.826,72.826,0,0,1-24.2-18.955,66.6,66.6,0,0,1-11.8-19.636c-1.473-3.943-2.024-6.984-1.788-9.857a6.26,6.26,0,0,1,1.9-4.1l.255-.255-.994-.994-3.237,3.236a6.26,6.26,0,0,0-1.9,4.1c-.235,2.872.316,5.914,1.788,9.857a66.6,66.6,0,0,0,11.8,19.636,72.827,72.827,0,0,0,24.2,18.955c3.339,1.6,7.785,3.472,12.518,3.774.208.014.448.014.68.014a6.659,6.659,0,0,0,5.11-2.055,9.153,9.153,0,0,1-1.136.068Z" transform="translate(-59.804 -155.129)" fill="#d4e1f4"/><path d="M193.594,58.469l-2.482,9.174a1.391,1.391,0,0,0,2.141,1.5l9.763-6.842a28.163,28.163,0,1,0-9.422-3.834Zm15.143-49.11a25.372,25.372,0,1,1-5.71,50.1,1.394,1.394,0,0,0-1.11.216L194.8,64.663l1.751-6.473a1.391,1.391,0,0,0-.639-1.563A25.375,25.375,0,0,1,208.738,9.359Z" transform="translate(-154.248 -6.577)" fill="#d4c045"/><path d="M240.721,83.056l14.917,8.607a1.41,1.41,0,0,0,1.4,0l14.88-8.607a1.369,1.369,0,0,0,.671-1.2V64.642a1.367,1.367,0,0,0-.669-1.2l-14.89-8.6a1.378,1.378,0,0,0-1.384,0l-14.927,8.6a1.413,1.413,0,0,0-.719,1.2V81.851A1.416,1.416,0,0,0,240.721,83.056Zm2.061-16.005,12.122,7v14l-12.122-7Zm13.565,4.589-4.816-2.781,12.122-7,4.817,2.781Zm1.339,16.409v-14l12.122-7v14Zm-1.339-30.4,4.523,2.611-12.122,7-4.523-2.611Z" transform="translate(-201.858 -45.094)" fill="#d4c045"/><path d="M62.35,205.975a75.6,75.6,0,0,0,25.133,19.681c3.571,1.708,8.337,3.711,13.543,4.044.3.02.6.02.862.02a9.489,9.489,0,0,0,7.3-3.1l.044-.05a43.016,43.016,0,0,1,3.137-3.248l.378-.368c.588-.572,1.143-1.112,1.7-1.711,2.228-2.322,2.21-4.937-.044-7.17l-9.208-9.209-.014-.014a4.777,4.777,0,0,0-3.41-1.647,5.028,5.028,0,0,0-3.507,1.661l-5.716,5.716a2.195,2.195,0,0,1-1.557.746,2.241,2.241,0,0,1-1.008-.258l-.01-.006c-.047-.029-.094-.058-.141-.084-.529-.325-1.113-.616-1.729-.925A21.633,21.633,0,0,1,86.169,209a59.906,59.906,0,0,1-14.5-13.2c-.014-.017-.029-.034-.044-.051a35.344,35.344,0,0,1-5.147-8.383l-.031-.092a2.031,2.031,0,0,1,.529-2.382l.039-.04.005-.005c1.431-1.284,2.728-2.574,4.233-4.114.33-.319.653-.646.966-.963q.235-.238.474-.477c2.305-2.305,2.305-4.843,0-7.148l-4.555-4.555q-.4-.41-.793-.81t-.786-.8c-1.109-1.146-2.052-2.1-3.04-3.024l-.034-.034a4.863,4.863,0,0,0-3.423-1.577,5.161,5.161,0,0,0-3.492,1.564l-.031.03-5.7,5.7a9.019,9.019,0,0,0-2.709,5.833c-.271,3.3.332,6.717,1.954,11.058A69.272,69.272,0,0,0,62.35,205.975Zm39.421.012a2.138,2.138,0,0,1,1.379.766c.016.018.033.035.05.052l9.241,9.241c1.157,1.145,1.172,2.025.046,3.222a1.4,1.4,0,0,0-.147.156c-.049.053-.1.1-.152.156L99.835,207.228l.4-.4A2.558,2.558,0,0,1,101.77,205.987ZM60.057,164.124a2.254,2.254,0,0,1,1.453.76l.053.053.034.033c.953.89,1.872,1.82,2.959,2.943q.4.408.8.819.391.4.787.8l.015.015,4.562,4.563c1.232,1.232,1.232,1.982,0,3.214-.132.132-.263.264-.393.4L58.005,165.4l.479-.479A2.478,2.478,0,0,1,60.057,164.124ZM50.9,174.7a6.26,6.26,0,0,1,1.9-4.1l3.236-3.236L68.367,179.7c-1.107,1.118-2.129,2.113-3.222,3.093l-.006.005a1.577,1.577,0,0,0-.2.2,4.781,4.781,0,0,0-1.143,5.127l.007.02.05.151q.015.046.034.091a38,38,0,0,0,5.591,9.137c.021.027.044.053.067.079a62.6,62.6,0,0,0,15.138,13.755,24.123,24.123,0,0,0,2.178,1.189c.572.286,1.113.556,1.543.824.026.017.054.032.081.047l.015.009c.072.045.145.088.216.123a5,5,0,0,0,2.277.565,4.885,4.885,0,0,0,3.524-1.561l3.353-3.353,12.343,12.342a43.747,43.747,0,0,0-3.077,3.205,6.669,6.669,0,0,1-5.246,2.193c-.232,0-.471,0-.68-.014-4.733-.3-9.18-2.176-12.518-3.774a72.831,72.831,0,0,1-24.2-18.955,66.6,66.6,0,0,1-11.8-19.636C51.214,180.614,50.662,177.573,50.9,174.7Z" transform="translate(-48.063 -130.588)" fill="#0635c9"/></svg>