<svg xmlns="http://www.w3.org/2000/svg" xmlns:xlink="http://www.w3.org/1999/xlink" width="104.403" height="114.579" viewBox="0 0 104.403 114.579"><defs><filter id="a" x="0" y="0" width="104.403" height="114.579" filterUnits="userSpaceOnUse"><feOffset dy="3" input="SourceAlpha"/><feGaussianBlur stdDeviation="8" result="b"/><feFlood flood-color="#00153a" flood-opacity="0.412"/><feComposite operator="in" in2="b"/><feComposite in="SourceGraphic"/></filter></defs><g transform="translate(22.256 19.541)"><g transform="matrix(1, 0, 0, 1, -22.26, -19.54)" filter="url(#a)"><path d="M-1845.12-6247.437l-27.62,16.281v33.725l27.62,16.572,28.783-16.572v-33.725Z" transform="translate(1896.74 6268.44)" fill="#fff"/></g><g transform="translate(0 0)"><path d="M32.759,57.3,59.626,41.792,56.8,40.159,29.863,55.71Z" transform="translate(-26.652 -37.924)" fill="#d4e1f4"/><path d="M26.159,182.414V154.293l-2.9-1.682v31.106L50.2,199.269v-2.976Z" transform="translate(-21.068 -133.07)" fill="#d4e1f4"/><path d="M338.069,285.233H339.2a1.077,1.077,0,0,0,0-2.155h-.043v-2.924h2.971a1.037,1.037,0,0,0,1.024.727,1.08,1.08,0,0,0,1.083-1.075v-.725A1.092,1.092,0,0,0,343.144,278h-5.075A1.075,1.075,0,0,0,337,279.082v5.075a1.07,1.07,0,0,0,1.069,1.076Z" transform="translate(-286.523 -239.163)" fill="#d6c247"/><path d="M344.233,343.077A1.077,1.077,0,0,0,343.156,342h-5.078A1.077,1.077,0,0,0,337,343.077v5.078a1.077,1.077,0,0,0,1.077,1.077h5.078a1.077,1.077,0,0,0,1.077-1.077Zm-5.078,1.077h2.924v2.924h-2.924Z" transform="translate(-286.523 -293.314)" fill="#d6c247"/><path d="M339.2,411.078h-.043v-2.924h2.913a1.083,1.083,0,1,0,2.166,0v-1.038A1.123,1.123,0,0,0,343.144,406h-5.075A1.107,1.107,0,0,0,337,407.119v5.075a1.039,1.039,0,0,0,1.069,1.04H339.2a1.077,1.077,0,1,0,0-2.155Z" transform="translate(-286.523 -347.465)" fill="#d6c247"/><path d="M360.308,284.855l-3.155,3.155-.96-.96a1.077,1.077,0,0,0-1.524,1.524l1.722,1.721a1.077,1.077,0,0,0,1.524,0l3.917-3.917a1.077,1.077,0,0,0-1.524-1.523Z" transform="translate(-301.207 -244.695)" fill="#d6c247"/><path d="M360.308,414.1l-3.155,3.155-.96-.96a1.077,1.077,0,0,0-1.524,1.524l1.722,1.721a1.077,1.077,0,0,0,1.524,0l3.917-3.917a1.077,1.077,0,0,0-1.524-1.524Z" transform="translate(-301.207 -354.054)" fill="#d6c247"/><path d="M421.734,295h-6.766a1.077,1.077,0,1,0,0,2.154h6.766a1.077,1.077,0,1,0,0-2.154Z" transform="translate(-351.582 -253.547)" fill="#d6c247"/><path d="M421.734,359h-6.766a1.077,1.077,0,0,0,0,2.155h6.766a1.077,1.077,0,1,0,0-2.155Z" transform="translate(-351.582 -307.698)" fill="#d6c247"/><path d="M421.734,423h-6.766a1.077,1.077,0,1,0,0,2.154h6.766a1.077,1.077,0,1,0,0-2.154Z" transform="translate(-351.582 -361.849)" fill="#d6c247"/><path d="M9.539,77.663,38.417,94.336a1.077,1.077,0,0,0,1.077,0l16.8-9.7-1.051-1.866L40.086,91.537V60.677L66.709,45.248v9.22h2.154V43.384a1.056,1.056,0,0,0-.515-.933L39.482,25.778a1.066,1.066,0,0,0-1.071,0L9.536,42.451A1.074,1.074,0,0,0,9,43.384V76.73a1.077,1.077,0,0,0,.539.933Zm1.616-32.416L37.932,60.677V91.537L11.154,76.108Zm15.233,6.307L53.11,36.127l12.569,7.256L38.956,58.811Zm12.568-23.6,12,6.928L24.233,50.311l-12-6.928Z" transform="translate(-9 -25.634)" fill="#0635c9"/><path d="M331.687,208.77h-3.833a3.776,3.776,0,0,0-3.6-2.77h-6.213a3.775,3.775,0,0,0-3.6,2.77H310.6a4.622,4.622,0,0,0-4.6,4.645v31.1a4.562,4.562,0,0,0,4.6,4.573h21.087a4.587,4.587,0,0,0,4.63-4.573v-31.1A4.647,4.647,0,0,0,331.687,208.77Zm-5.835,1.052a1.564,1.564,0,0,1-1.564,1.564h-6.26a1.564,1.564,0,0,1-1.564-1.564v-.1a1.564,1.564,0,0,1,1.564-1.564h6.26a1.564,1.564,0,0,1,1.564,1.564Zm8.31,34.694a2.43,2.43,0,0,1-2.475,2.419H310.6a2.405,2.405,0,0,1-2.446-2.419v-31.1a2.466,2.466,0,0,1,2.446-2.49h3.875a3.685,3.685,0,0,0,3.562,2.616h6.213a3.684,3.684,0,0,0,3.562-2.616h3.875a2.491,2.491,0,0,1,2.475,2.49Z" transform="translate(-260.294 -178.243)" fill="#d6c247"/></g></g></svg>